<svg width="66" height="66" viewBox="0 0 66 66" fill="none" xmlns="http://www.w3.org/2000/svg">
<g opacity="0.2">
<path fill-rule="evenodd" clip-rule="evenodd" d="M33 65C50.6731 65 65 50.6731 65 33C65 15.3269 50.6731 1 33 1C15.3269 1 1 15.3269 1 33C1 50.6731 15.3269 65 33 65Z" stroke="#121354"/>
</g>
<path opacity="0.3" fill-rule="evenodd" clip-rule="evenodd" d="M34.2 23.4C34.2 24.0627 33.6627 24.6 33 24.6C32.3372 24.6 31.8 24.0627 31.8 23.4V18.6C31.8 17.9373 32.3372 17.4 33 17.4C33.6627 17.4 34.2 17.9373 34.2 18.6V23.4Z" fill="#121354"/>
<path fill-rule="evenodd" clip-rule="evenodd" d="M40.2 49.8001L37.9167 42.447C37.4027 40.7919 36.2024 39.4878 34.6673 38.925C31.9424 37.9261 28.9944 39.513 28.0833 42.447L25.8 49.8001H18.6181C17.2855 49.8001 16.2 48.7318 16.2 47.4076C16.2 47.0042 16.3031 46.6075 16.4995 46.2543L28.0423 25.4962C29.5428 22.7978 32.9738 21.8097 35.7097 23.2832C36.6576 23.7937 37.4377 24.5616 37.9575 25.4962L49.5002 46.2543C50.1468 47.417 49.713 48.8759 48.5378 49.5089C48.1829 49.7001 47.7854 49.8001 47.3816 49.8001H40.2V49.8001Z" fill="#121354"/>
<path opacity="0.3" fill-rule="evenodd" clip-rule="evenodd" d="M36.454 42.9395C36.0861 41.7548 35.2347 40.8296 34.1562 40.4343C32.2575 39.7383 30.1926 40.8498 29.5437 42.9395L27.9102 48.2001H38.0876L36.454 42.9395Z" fill="#121354"/>
</svg>
