<svg width="50" height="50" viewBox="0 0 50 50" fill="none" xmlns="http://www.w3.org/2000/svg">
<rect x="1" y="1" width="48" height="48" rx="12" stroke="#1565D8" stroke-opacity="0.2"/>
<path fill-rule="evenodd" clip-rule="evenodd" d="M25.8804 27.1575C26.577 25.6441 25.935 24.3971 24.1615 23.6248L21.2233 22.4116C20.2714 22.0186 19.1807 22.1806 18.3839 22.8333L15.6817 25.0466L15.6031 25.8346L15.4766 32.28V33.4H18.7458L25.4134 35.2944C26.2545 35.5334 27.1589 35.3652 27.8581 34.8397C32.2513 31.5375 35.1867 29.3077 35.6312 28.8944C36.7089 27.8924 37.1332 26.7783 36.3653 25.68C35.7446 24.7923 34.6979 24.6976 33.4005 25.285L27.0907 28.4941L25.3164 27.9299C25.5452 27.7326 25.7339 27.4758 25.8804 27.1575Z" fill="#1565D8"/>
<path fill-rule="evenodd" clip-rule="evenodd" d="M15.1981 23.6H14.9181C14.4542 23.6 14.0781 23.2239 14.0781 22.76C14.0781 22.2961 14.4542 21.92 14.9181 21.92H16.0381C16.502 21.92 16.8781 22.2961 16.8781 22.76V35.08C16.8781 35.5439 16.502 35.92 16.0381 35.92H14.9181C14.4542 35.92 14.0781 35.5439 14.0781 35.08C14.0781 34.6161 14.4542 34.24 14.9181 34.24H15.1981V23.6Z" fill="#44D5E9"/>
<path fill-rule="evenodd" clip-rule="evenodd" d="M30.5997 15.4812H31.9472C32.4111 15.4812 32.7872 15.8576 32.7872 16.3218V16.7463C32.7872 17.2104 32.4111 17.5869 31.9472 17.5869C31.6382 17.5869 31.3631 17.4187 31.2171 17.1624H28.6553C28.5007 17.1624 28.3753 17.288 28.3753 17.4431V18.0045C28.3753 18.1596 28.5007 18.2851 28.6553 18.2851H30.8797C31.9622 18.2851 32.8397 19.1635 32.8397 20.247V20.8067C32.8397 21.8902 31.9622 22.7686 30.8797 22.7686H30.5997V23.0394C30.5997 23.5036 30.2237 23.88 29.7597 23.88C29.2957 23.88 28.9197 23.5036 28.9197 23.0394V22.7686H27.5197C27.0457 22.7686 26.6657 22.3764 26.6801 21.9024L26.6957 21.3885C26.7098 20.9245 27.0971 20.5597 27.5609 20.5738C27.8977 20.5841 28.1852 20.7924 28.3095 21.0874H30.8797C31.0343 21.0874 31.1597 20.9618 31.1597 20.8067V20.247C31.1597 20.0919 31.0343 19.9664 30.8797 19.9664H28.6553C27.5728 19.9664 26.6953 19.0879 26.6953 18.0045V17.4431C26.6953 16.3596 27.5728 15.4812 28.6553 15.4812H28.9197V15.2006C28.9197 14.7364 29.2957 14.36 29.7597 14.36C30.2237 14.36 30.5997 14.7364 30.5997 15.2006V15.4812Z" fill="#44D5E9"/>
</svg>
