<svg width="50" height="50" viewBox="0 0 50 50" fill="none" xmlns="http://www.w3.org/2000/svg">
<rect x="1" y="1" width="48" height="48" rx="12" stroke="#1565D8" stroke-opacity="0.2"/>
<path fill-rule="evenodd" clip-rule="evenodd" d="M20.043 21.9915C21.5149 19.8998 22.4336 17.4996 22.8022 14.7824C22.8373 14.5235 23.0206 14.3083 23.2721 14.2305C25.8069 13.446 27.248 14.6926 27.2241 17.535C27.2195 18.0867 27.1941 18.5771 27.1399 19.3272C27.0188 21.0025 27.0284 21.4597 27.216 21.7674C27.3963 22.0631 27.9816 22.1641 29.3661 21.9012C29.8029 21.8183 30.2411 21.7243 30.7265 21.6114C30.9408 21.5615 32.4841 21.1849 32.8785 21.0998C33.6311 20.9373 34.171 20.8685 34.6458 20.8976C35.932 20.9765 36.6146 21.8047 36.7325 23.3913C36.9402 26.1855 36.2985 31.798 35.6582 33.8653C35.0039 35.9778 33.863 36.7752 31.1241 36.8233C29.3632 36.8543 26.6549 36.8543 22.9865 36.8232C22.0501 36.8015 21.2014 36.6201 20.4466 36.2811C20.6585 35.8424 20.7771 35.3509 20.7771 34.832V24.08C20.7771 23.2907 20.5026 22.5649 20.043 21.9915Z" fill="#1565D8"/>
<path opacity="0.3" fill-rule="evenodd" clip-rule="evenodd" d="M16.0337 22.064C14.9105 22.064 14 22.9666 14 24.08V34.832C14 35.9454 14.9105 36.848 16.0337 36.848H17.3895C18.5126 36.848 19.4232 35.9454 19.4232 34.832V24.08C19.4232 22.9666 18.5126 22.064 17.3895 22.064H16.0337Z" fill="#1565D8"/>
</svg>
