<svg width="32" height="32" viewBox="0 0 32 32" fill="none" xmlns="http://www.w3.org/2000/svg">
<path opacity="0.3" fill-rule="evenodd" clip-rule="evenodd" d="M23.4708 2.9707C23.3468 2.81242 23.2014 2.67462 23.04 2.56V8.28087C23.04 8.65594 23.3522 8.96 23.7373 8.96H28.16L23.4708 2.9707ZM18.56 29.44C20.3471 29.44 21.8899 28.3936 22.6089 26.88H13.44C10.2588 26.88 7.68 24.3012 7.68 21.12V7.04C7.68 6.83775 7.69042 6.63794 7.71076 6.44108C5.52471 6.7383 3.84 8.61241 3.84 10.88V24.96C3.84 27.4342 5.84576 29.44 8.32 29.44H18.56Z" fill="#121354"/>
<path fill-rule="evenodd" clip-rule="evenodd" d="M21.76 2.56V8.32C21.76 9.38038 22.6196 10.24 23.68 10.24H28.16V21.12C28.16 23.5942 26.1542 25.6 23.68 25.6H13.44C10.9658 25.6 8.96001 23.5942 8.96001 21.12V7.04C8.96001 4.56576 10.9658 2.56 13.44 2.56L21.76 2.56Z" fill="#121354"/>
</svg>
