<svg width="300" height="225" viewBox="0 0 300 225" fill="none" xmlns="http://www.w3.org/2000/svg">
<path d="M42.8248 191.288C52.0498 191.7 61.2748 191.906 70.4998 191.888C70.8561 191.888 70.8561 191.325 70.4998 191.325C61.2748 191.344 52.0498 191.138 42.8248 190.725C42.4686 190.706 42.4686 191.269 42.8248 191.288Z" fill="#E8E8E8"/>
<path d="M71.0626 177.337C72.5063 182.756 73.8563 188.212 75.0938 193.687C75.1688 194.044 75.7126 193.894 75.6376 193.537C74.3813 188.062 73.0501 182.606 71.6063 177.187C71.5126 176.85 70.9688 177 71.0626 177.337Z" fill="#E8E8E8"/>
<path d="M96.1879 177.75C95.6629 182.906 95.1379 188.081 94.6317 193.238C94.5942 193.594 95.1567 193.594 95.1942 193.238C95.7191 188.081 96.2441 182.906 96.7504 177.75C96.7691 177.394 96.2066 177.394 96.1879 177.75Z" fill="#E8E8E8"/>
<path d="M75.2447 194.194C78.526 194.775 81.8447 195.038 85.1822 194.944C88.3697 194.85 91.8572 194.607 94.8947 193.594C95.2322 193.482 95.0822 192.938 94.7447 193.05C91.726 194.044 88.3322 194.288 85.1822 194.382C81.901 194.475 78.6197 194.213 75.3947 193.65C75.0385 193.575 74.8885 194.119 75.2447 194.194Z" fill="#E8E8E8"/>
<path d="M71.2877 177.525C75.1689 178.613 79.3877 178.632 83.4002 178.65C87.7127 178.688 92.0252 178.444 96.3002 177.957C96.6564 177.919 96.6564 177.357 96.3002 177.394C92.1377 177.882 87.9564 178.107 83.7752 178.088C79.7064 178.069 75.3939 178.069 71.4377 176.982C71.0814 176.888 70.9314 177.432 71.2877 177.525Z" fill="#E8E8E8"/>
<path d="M69.6756 175.594C69.7131 175.95 69.7506 176.325 69.7881 176.682C69.8069 176.907 69.8069 177.188 69.9006 177.394C70.1256 177.882 70.8756 177.713 71.3069 177.713C71.6631 177.713 71.6631 177.15 71.3069 177.15C71.1006 177.15 70.8944 177.15 70.6694 177.15C70.3881 177.15 70.3881 177.094 70.3694 176.813C70.3319 176.4 70.2944 176.007 70.2569 175.594C70.2006 175.238 69.6381 175.219 69.6756 175.594Z" fill="#E8E8E8"/>
<path d="M70.0504 175.894C74.7379 176.438 79.4441 176.7 84.1691 176.738C86.4941 176.756 88.8191 176.719 91.1629 176.644C92.3254 176.606 93.4879 176.55 94.6504 176.494C95.1941 176.475 95.9441 176.288 96.4879 176.4C97.1441 176.513 97.1066 177.075 97.1816 177.656C97.2379 177.544 97.3129 177.431 97.3691 177.319C97.1254 177.319 96.8816 177.319 96.6379 177.319C96.2816 177.244 96.1316 177.788 96.4879 177.863C96.8629 177.938 97.1441 177.938 97.5004 177.863C97.6691 177.825 97.7254 177.656 97.6879 177.525C97.5941 176.869 97.6691 176.044 96.8816 175.875C96.4129 175.763 95.8316 175.894 95.3441 175.913C94.7254 175.95 94.1254 175.969 93.5066 176.006C90.8816 176.119 88.2379 176.194 85.5941 176.194C80.3816 176.194 75.1879 175.95 70.0129 175.331C69.6941 175.294 69.6941 175.856 70.0504 175.894Z" fill="#E8E8E8"/>
<path d="M74.1186 189.525C75.6186 191.494 77.3811 193.2 79.3686 194.663C79.6686 194.869 79.9499 194.382 79.6499 194.175C77.7374 192.769 76.0311 191.119 74.5873 189.225C74.3811 188.944 73.8936 189.225 74.1186 189.525Z" fill="#E8E8E8"/>
<path d="M72.8623 183.806C75.7873 188.025 79.3873 191.719 83.5498 194.738C83.8498 194.944 84.131 194.456 83.831 194.25C79.7623 191.288 76.2186 187.65 73.3498 183.525C73.1436 183.225 72.6561 183.506 72.8623 183.806Z" fill="#E8E8E8"/>
<path d="M71.7185 178.781C76.781 184.781 82.406 190.388 89.1185 194.55C89.4185 194.738 89.7185 194.25 89.3998 194.063C82.7248 189.938 77.1373 184.369 72.1123 178.388C71.8873 178.107 71.4935 178.519 71.7185 178.781Z" fill="#E8E8E8"/>
<path d="M77.1001 178.463C81.9189 184.069 87.2626 189.394 93.2251 193.781C93.5251 193.988 93.8064 193.5 93.5064 193.294C87.5814 188.944 82.2751 183.619 77.4939 178.069C77.2501 177.788 76.8564 178.181 77.1001 178.463Z" fill="#E8E8E8"/>
<path d="M83.2498 178.857C86.5123 182.85 90.2623 186.413 94.4248 189.469C94.7248 189.675 95.0061 189.188 94.7061 188.982C90.5811 185.963 86.8686 182.419 83.6436 178.463C83.4186 178.182 83.0248 178.575 83.2498 178.857Z" fill="#E8E8E8"/>
<path d="M88.2759 178.65C90.3759 181.013 92.7759 183.038 95.4384 184.744C95.7383 184.931 96.0196 184.444 95.7196 184.256C93.0946 182.588 90.7321 180.563 88.6697 178.256C88.4259 177.975 88.0322 178.369 88.2759 178.65Z" fill="#E8E8E8"/>
<path d="M62.3254 147.75C63.5441 150.319 64.3691 153.019 64.8379 155.832C64.8566 155.963 64.9879 156.038 65.1004 156.038C65.2129 156.038 65.8129 156.019 65.8504 156.207C65.8691 156.282 65.4941 156.713 65.4566 156.807C65.3441 157.107 65.3441 157.463 65.4566 157.763C65.6066 158.119 65.8879 158.363 66.2254 158.494C66.3379 158.551 66.4691 158.569 66.6004 158.588C66.7129 158.607 66.8254 158.607 66.9379 158.588C67.0879 158.569 67.0691 158.588 66.9004 158.663C66.7129 158.944 66.4504 158.982 66.3754 159.394C66.3191 159.788 66.5066 160.163 66.6566 160.501C67.2754 161.813 67.6316 163.201 68.1379 164.569C69.8816 169.219 73.2191 173.063 76.9879 176.232C77.2691 176.457 77.6629 176.063 77.3816 175.838C73.5004 172.576 70.0504 168.582 68.4191 163.688C68.2129 163.051 68.0254 162.413 67.8004 161.794C67.6129 161.251 67.2566 160.688 67.0879 160.144C66.9004 159.844 66.9191 159.507 67.1629 159.169C67.2379 159.113 67.3129 159.057 67.3879 159.001C67.4441 158.907 67.5566 158.851 67.6129 158.738C67.6879 158.532 67.6316 158.344 67.4816 158.194C67.2379 157.951 66.8629 158.082 66.5441 157.988C65.3254 157.632 66.3191 156.807 66.4129 156.207C66.5441 155.419 65.5691 155.513 65.0441 155.476C65.1379 155.551 65.2316 155.607 65.3066 155.682C64.8379 152.832 63.9754 150.076 62.7379 147.469C62.6629 147.132 62.1754 147.413 62.3254 147.75Z" fill="#E8E8E8"/>
<path d="M62.5316 147.619C68.6254 149.25 73.9691 153.394 77.8504 158.306C81.9754 163.519 84.5441 169.781 85.9316 176.25C86.0066 176.606 86.5504 176.456 86.4754 176.1C85.0691 169.538 82.4441 163.2 78.2629 157.913C74.3254 152.944 68.8879 148.744 62.7004 147.094C62.3254 146.981 62.1754 147.525 62.5316 147.619Z" fill="#E8E8E8"/>
<path d="M64.7435 149.944C72.206 157.2 77.9622 166.106 81.506 175.912C81.6372 176.25 82.181 176.1 82.0497 175.762C78.4685 165.881 72.6747 156.881 65.1372 149.55C64.8935 149.287 64.481 149.681 64.7435 149.944Z" fill="#E8E8E8"/>
<path d="M68.0625 161.738C69.6375 161.906 71.175 162.263 72.6375 162.844C74.0625 163.406 75.6188 164.119 76.5188 165.413C76.7251 165.713 77.2126 165.431 77.0063 165.131C76.1063 163.838 74.7 163.106 73.275 162.506C71.6063 161.794 69.8625 161.363 68.0438 161.175C67.7063 161.138 67.7063 161.7 68.0625 161.738Z" fill="#E8E8E8"/>
<path d="M70.8562 151.463C70.8374 153.619 71.1937 155.738 71.8874 157.781C71.9999 158.119 72.5437 157.969 72.4312 157.631C71.7562 155.644 71.4187 153.581 71.4187 151.463C71.4187 151.106 70.8562 151.106 70.8562 151.463Z" fill="#E8E8E8"/>
<path d="M81.1498 161.663C82.0685 158.231 85.1248 156.188 87.731 154.088C90.506 151.856 93.1873 149.475 95.7373 147C95.5873 146.906 95.4185 146.813 95.2685 146.719C94.4248 148.988 94.256 151.369 94.2935 153.769C94.331 156.169 94.8748 158.925 94.106 161.25C94.1998 161.175 94.2935 161.119 94.3685 161.044C93.7685 161.081 93.1685 161.138 92.5685 161.175C92.381 161.194 92.1935 161.419 92.3248 161.606C92.756 162.188 93.2623 162.375 93.2435 163.238C93.2435 163.838 93.0935 164.531 92.8873 165.094C92.681 165.675 92.1373 166.069 91.9498 166.613C91.7998 167.1 92.1748 167.513 92.1748 168C92.1935 168.806 91.6123 169.481 91.1998 170.119C90.806 170.719 90.4498 171.338 90.131 171.975C89.4935 173.231 88.9873 174.525 88.6123 175.875C88.5185 176.231 89.0623 176.381 89.156 176.025C89.6248 174.356 90.2998 172.744 91.181 171.244C91.781 170.231 92.906 169.05 92.7748 167.775C92.7185 167.269 92.456 167.119 92.681 166.538C92.6998 166.519 93.0373 166.069 93.056 166.031C93.4123 165.45 93.581 164.794 93.6935 164.138C93.7685 163.65 93.9185 163.05 93.8435 162.563C93.731 161.869 93.206 161.813 92.8123 161.288C92.7373 161.438 92.6435 161.569 92.5685 161.719C93.1685 161.681 93.7685 161.625 94.3685 161.588C94.4998 161.569 94.5935 161.513 94.631 161.381C95.3435 159.206 94.9123 156.675 94.8373 154.425C94.7623 151.856 94.856 149.269 95.7748 146.831C95.8873 146.55 95.4935 146.381 95.306 146.55C92.5873 149.194 89.7373 151.725 86.756 154.088C84.206 156.113 81.4498 158.175 80.5685 161.475C80.5123 161.869 81.056 162.019 81.1498 161.663Z" fill="#E8E8E8"/>
<path d="M93.6565 149.437C91.819 152.644 89.944 155.812 88.1815 159.056C86.5315 162.056 85.069 165.169 84.3752 168.525C84.3002 168.881 84.844 169.031 84.919 168.675C85.6315 165.244 87.1502 162.094 88.8377 159.037C90.5627 155.906 92.3815 152.831 94.144 149.719C94.3128 149.419 93.8253 149.119 93.6565 149.437Z" fill="#E8E8E8"/>
<path d="M88.1255 154.65C88.3692 155.719 88.4817 156.788 88.4442 157.875C88.4255 158.231 88.988 158.231 89.0067 157.875C89.0442 156.731 88.9317 155.625 88.6692 154.5C88.5755 154.144 88.0505 154.294 88.1255 154.65Z" fill="#E8E8E8"/>
<path d="M91.1817 151.069C91.388 151.875 91.4255 152.662 91.3317 153.469C91.2942 153.825 91.8568 153.825 91.8943 153.469C92.0068 152.606 91.9505 151.763 91.7255 150.919C91.6318 150.581 91.088 150.731 91.1817 151.069Z" fill="#E8E8E8"/>
<path d="M91.3125 154.8C92.4188 154.144 93.5625 153.563 94.7438 153.075C95.0813 152.944 94.9313 152.4 94.5938 152.532C93.3563 153.038 92.175 153.638 91.0125 154.313C90.7125 154.5 90.9938 154.988 91.3125 154.8Z" fill="#E8E8E8"/>
<path d="M86.4749 164.213C87.1874 163.613 87.8999 163.031 88.6311 162.469C89.3999 161.869 90.2436 161.063 91.1811 160.688C91.5187 160.556 91.3687 160.013 91.0312 160.144C90.1874 160.463 89.4936 161.081 88.7811 161.644C87.8624 162.356 86.9624 163.069 86.0811 163.819C85.7999 164.044 86.1936 164.438 86.4749 164.213Z" fill="#E8E8E8"/>
<path d="M64.7623 153.694C66.0748 153.825 67.3873 153.956 68.6998 154.069C69.056 154.106 69.056 153.544 68.6998 153.506C67.3873 153.375 66.0748 153.244 64.7623 153.131C64.4061 153.094 64.4061 153.656 64.7623 153.694Z" fill="#E8E8E8"/>
<path d="M99.1689 191.1C122.663 191.1 146.138 191.1 169.631 191.1C176.25 191.1 182.869 191.1 189.488 191.1C189.844 191.1 189.844 190.538 189.488 190.538C165.994 190.538 142.519 190.538 119.025 190.538C112.406 190.538 105.788 190.538 99.1689 190.538C98.7939 190.538 98.7939 191.1 99.1689 191.1Z" fill="#E8E8E8"/>
<path d="M178.631 145.163C178.631 147.9 178.631 150.638 178.631 153.375C178.631 153.731 179.193 153.731 179.193 153.375C179.193 150.638 179.193 147.9 179.193 145.163C179.193 144.806 178.631 144.806 178.631 145.163Z" fill="#E8E8E8"/>
<path d="M165.694 154.631C174.788 154.631 183.882 154.631 192.975 154.631C193.332 154.631 193.332 154.069 192.975 154.069C183.882 154.069 174.788 154.069 165.694 154.069C165.338 154.069 165.319 154.631 165.694 154.631Z" fill="#E8E8E8"/>
<path d="M171.807 154.781C171.807 157.144 171.807 159.506 171.807 161.888C171.807 162.244 172.369 162.244 172.369 161.888C172.369 159.525 172.369 157.163 172.369 154.781C172.369 154.406 171.807 154.406 171.807 154.781Z" fill="#E8E8E8"/>
<path d="M185.869 154.631C185.869 156.713 185.869 158.813 185.869 160.894C185.869 161.25 186.432 161.25 186.432 160.894C186.432 158.813 186.432 156.713 186.432 154.631C186.432 154.275 185.869 154.275 185.869 154.631Z" fill="#E8E8E8"/>
<path d="M176.963 162.432C183.919 162.432 190.875 162.432 197.831 162.432C198.188 162.432 198.188 161.869 197.831 161.869C190.875 161.869 183.919 161.869 176.963 161.869C176.606 161.869 176.606 162.432 176.963 162.432Z" fill="#E8E8E8"/>
<path d="M161.231 196.538C176.587 196.538 191.944 196.538 207.3 196.538C207.656 196.538 207.656 195.975 207.3 195.975C191.944 195.975 176.587 195.975 161.231 195.975C160.875 195.975 160.875 196.538 161.231 196.538Z" fill="#E8E8E8"/>
<path d="M224.738 191.682C239.813 191.682 254.907 191.682 269.982 191.682C274.219 191.682 278.457 191.682 282.694 191.682C283.05 191.682 283.05 191.119 282.694 191.119C267.619 191.119 252.525 191.119 237.45 191.119C233.213 191.119 228.975 191.119 224.738 191.119C224.382 191.119 224.382 191.682 224.738 191.682Z" fill="#E8E8E8"/>
<path d="M37.8189 201.281C53.269 201.281 68.7377 201.281 84.1877 201.281C84.544 201.281 84.544 200.719 84.1877 200.719C68.7377 200.719 53.269 200.719 37.8189 200.719C37.4627 200.719 37.4627 201.281 37.8189 201.281Z" fill="#E8E8E8"/>
<path d="M68.9814 206.906C81.6002 206.906 94.219 206.906 106.838 206.906C107.194 206.906 107.194 206.344 106.838 206.344C94.219 206.344 81.6002 206.344 68.9814 206.344C68.6064 206.344 68.6064 206.906 68.9814 206.906Z" fill="#E8E8E8"/>
<path d="M260.812 46.5941C260.812 41.3628 260.812 36.1503 260.812 30.919C260.812 30.5628 260.25 30.5628 260.25 30.919C260.25 36.1503 260.25 41.3628 260.25 46.5941C260.25 46.9503 260.812 46.9503 260.812 46.5941Z" fill="#E8E8E8"/>
<path d="M260.719 30.8066C267.488 30.8066 274.257 30.8066 281.026 30.8066C281.382 30.8066 281.382 30.2441 281.026 30.2441C274.257 30.2441 267.488 30.2441 260.719 30.2441C260.363 30.2441 260.363 30.8066 260.719 30.8066Z" fill="#E8E8E8"/>
<path d="M280.745 30.5626C280.707 35.8689 280.67 41.1751 280.613 46.4814C280.613 46.8376 281.176 46.8376 281.176 46.4814C281.213 41.1751 281.251 35.8689 281.307 30.5626C281.307 30.2063 280.745 30.2063 280.745 30.5626Z" fill="#E8E8E8"/>
<path d="M260.813 46.875C267.488 46.875 274.163 46.875 280.838 46.875C281.194 46.875 281.194 46.3125 280.838 46.3125C274.163 46.3125 267.488 46.3125 260.813 46.3125C260.457 46.3125 260.457 46.875 260.813 46.875Z" fill="#E8E8E8"/>
<path d="M261.356 32.0064C261.356 36.4127 261.356 40.8002 261.356 45.2065C261.356 45.5627 261.919 45.5627 261.919 45.2065C261.919 40.8002 261.919 36.4127 261.919 32.0064C261.919 31.6502 261.356 31.6502 261.356 32.0064Z" fill="#E8E8E8"/>
<path d="M261.77 32.2876C267.695 32.2876 273.601 32.2876 279.526 32.2876C279.882 32.2876 279.882 31.7251 279.526 31.7251C273.601 31.7251 267.695 31.7251 261.77 31.7251C261.395 31.7251 261.395 32.2876 261.77 32.2876Z" fill="#E8E8E8"/>
<path d="M279.225 32.1378C279.206 36.4503 279.188 40.7628 279.169 45.0941C279.169 45.4503 279.731 45.4503 279.731 45.0941C279.75 40.7816 279.769 36.469 279.788 32.1378C279.788 31.7815 279.225 31.7815 279.225 32.1378Z" fill="#E8E8E8"/>
<path d="M261.881 45.5625C267.713 45.5625 273.544 45.5625 279.375 45.5625C279.731 45.5625 279.731 45 279.375 45C273.544 45 267.713 45 261.881 45C261.525 45 261.525 45.5625 261.881 45.5625Z" fill="#E8E8E8"/>
<path d="M261.769 41.6814C263.925 40.9314 266.194 41.6064 268.294 42.2251C270.431 42.8439 272.531 43.5939 274.575 44.4564C274.913 44.5876 275.063 44.0439 274.725 43.9126C272.456 42.9564 270.131 42.1501 267.769 41.4939C265.763 40.9501 263.644 40.4251 261.619 41.1376C261.281 41.2501 261.431 41.7939 261.769 41.6814Z" fill="#E8E8E8"/>
<path d="M268.895 42.3193C272.438 42.113 275.757 40.688 279.263 40.2943C279.619 40.2568 279.619 39.6943 279.263 39.7318C275.757 40.1255 272.438 41.5318 268.895 41.7568C268.52 41.7943 268.52 42.3568 268.895 42.3193Z" fill="#E8E8E8"/>
<path d="M275.607 35.4564C274.819 35.0064 275.532 33.5251 276.376 33.8814C276.826 34.0689 276.919 34.6126 276.676 35.0064C276.413 35.4376 275.869 35.5126 275.419 35.3814C275.063 35.2876 274.913 35.8314 275.269 35.9251C276.019 36.1314 276.863 35.9064 277.238 35.1751C277.576 34.5189 277.313 33.6564 276.601 33.3564C275.138 32.7376 273.938 35.1751 275.326 35.9439C275.626 36.1126 275.926 35.6251 275.607 35.4564Z" fill="#E8E8E8"/>
<path d="M269.868 30.4314C269.887 30.1127 269.906 29.7939 270 29.4939C270.075 29.2502 270.262 28.6689 270.543 28.5564C271.05 28.3689 271.237 30.1502 271.275 30.4877C271.312 30.8439 271.875 30.8439 271.837 30.4877C271.781 29.8314 271.631 27.7689 270.581 27.9189C270.131 27.9752 269.812 28.4814 269.643 28.8564C269.418 29.3439 269.343 29.8877 269.325 30.4127C269.306 30.7877 269.868 30.7877 269.868 30.4314Z" fill="#E8E8E8"/>
<path d="M273.02 117.9C273.02 120.15 273.02 122.419 273.02 124.669C273.02 125.025 273.582 125.025 273.582 124.669C273.582 122.419 273.582 120.15 273.582 117.9C273.582 117.544 273.02 117.544 273.02 117.9Z" fill="#E8E8E8"/>
<path d="M266.213 125.494C271.313 125.494 276.431 125.494 281.531 125.494C281.887 125.494 281.887 124.932 281.531 124.932C276.431 124.932 271.313 124.932 266.213 124.932C265.856 124.932 265.856 125.494 266.213 125.494Z" fill="#E8E8E8"/>
<path d="M268.369 125.663C268.369 126.731 268.369 127.781 268.369 128.85C268.369 129.206 268.932 129.206 268.932 128.85C268.932 127.781 268.932 126.731 268.932 125.663C268.932 125.306 268.369 125.306 268.369 125.663Z" fill="#E8E8E8"/>
<path d="M276.562 125.832C276.562 127.088 276.562 128.363 276.562 129.619C276.562 129.975 277.125 129.975 277.125 129.619C277.125 128.363 277.125 127.088 277.125 125.832C277.125 125.457 276.562 125.457 276.562 125.832Z" fill="#E8E8E8"/>
<path d="M272.588 130.35C276.131 130.35 279.675 130.35 283.219 130.35C283.575 130.35 283.575 129.788 283.219 129.788C279.675 129.788 276.131 129.788 272.588 129.788C272.231 129.788 272.231 130.35 272.588 130.35Z" fill="#E8E8E8"/>
<path d="M142.856 185.175C148.763 181.181 151.725 179.175 152.494 178.931C154.369 178.331 160.444 176.4 165.75 179.644C169.556 181.969 173.063 187.012 171.6 190.387C170.55 192.787 167.344 193.537 164.438 194.231C160.144 195.244 156.469 194.681 154.406 194.194C153.6 194.981 152.306 196.031 150.488 196.725C147.469 197.887 143.981 197.681 143.813 196.987C143.738 196.631 144.488 195.937 148.125 194.512C147.694 194.044 147.056 193.481 146.156 193.087C143.494 191.869 140.831 193.05 140.325 193.294C142.931 194.812 143.494 195.6 143.363 196.031C143.025 197.119 137.719 197.475 136.294 194.981C136.144 194.737 135.731 193.894 136.069 192.3C136.744 189.375 139.181 187.669 142.856 185.175Z" fill="#161616"/>
<path d="M168.581 189.337C169.181 188.1 171.881 188.4 172.931 188.512C174.281 188.662 175.481 188.794 176.569 189.75C177.394 190.462 178.594 192.019 178.163 193.275C177.769 194.475 176.288 194.381 173.419 195.787C172.931 196.031 168.244 198.337 168.563 199.856C168.694 200.475 169.538 200.456 172.219 201.6C174.544 202.575 175.913 203.175 177.056 204.487C177.619 205.144 178.744 206.437 178.444 207.75C177.881 210.169 172.856 210.581 172.725 210.206C172.613 209.887 176.138 209.006 176.175 207.356C176.213 206.1 174.244 205.087 173.006 204.431C169.369 202.537 166.913 203.212 165.956 201.394C165.413 200.362 165.713 199.256 165.769 199.05C166.05 198.037 166.838 197.175 170.681 195.244C174.188 193.481 175.744 193.069 175.725 192.281C175.706 191.55 174.356 190.95 173.531 190.744C171.206 190.125 169.5 191.587 168.713 190.762C168.375 190.387 168.394 189.75 168.581 189.337Z" fill="#161616"/>
<path d="M136.557 180.262C137.738 181.144 138.919 182.025 140.1 182.906C141.788 182.737 143.457 182.587 145.144 182.419C146.194 181.406 147.244 180.375 148.294 179.362C148.369 180 148.519 181.444 148.575 182.137C149.232 188.381 149.288 188.925 148.894 189.637C147.6 191.944 143.232 192.881 140.719 191.269C139.5 190.481 139.032 189.3 138.15 187.031C137.082 184.294 136.707 181.894 136.557 180.262Z" fill="#161616"/>
<path d="M141.319 186.75C141.038 187.331 140.419 187.687 139.781 187.575C139.613 187.537 139.538 187.819 139.706 187.837C140.475 187.969 141.244 187.594 141.563 186.881C141.638 186.731 141.413 186.581 141.319 186.75Z" fill="white"/>
<path d="M143.924 186.562C144.543 187.162 145.368 187.425 146.212 187.293C146.399 187.275 146.306 186.993 146.137 187.031C145.387 187.143 144.656 186.9 144.112 186.375C143.981 186.243 143.793 186.431 143.924 186.562Z" fill="white"/>
<path d="M142.932 188.344C142.875 188.344 142.838 188.325 142.782 188.325C142.8 188.306 142.8 188.269 142.819 188.25C142.857 188.287 142.913 188.325 142.95 188.362C142.95 188.325 142.932 188.306 142.932 188.269C142.875 188.1 142.613 188.175 142.669 188.344C142.763 188.756 142.913 189.394 142.407 189.6C142.238 189.675 142.313 189.937 142.482 189.862C143.157 189.581 143.082 188.85 142.95 188.25C142.857 188.269 142.763 188.306 142.688 188.325C142.688 188.362 142.707 188.381 142.707 188.419C142.725 188.475 142.782 188.531 142.838 188.531C143.325 188.494 142.932 187.819 142.707 188.212C142.613 188.344 142.838 188.494 142.932 188.344Z" fill="white"/>
<path d="M142.744 188.475C142.838 188.794 142.856 189.15 143.063 189.431C143.231 189.656 143.494 189.768 143.775 189.712C143.944 189.675 143.869 189.412 143.7 189.45C143.175 189.562 143.1 188.737 143.006 188.4C142.969 188.231 142.706 188.306 142.744 188.475Z" fill="white"/>
<path d="M141.844 188.737C141.3 188.494 140.738 188.381 140.138 188.419C139.95 188.437 139.95 188.719 140.138 188.7C140.681 188.662 141.206 188.756 141.694 188.981C141.863 189.056 142.013 188.812 141.844 188.737Z" fill="white"/>
<path d="M141.356 189.112C140.888 189.15 140.475 189.337 140.156 189.656C140.025 189.787 140.231 189.975 140.363 189.862C140.644 189.6 140.981 189.431 141.375 189.393C141.525 189.375 141.525 189.093 141.356 189.112Z" fill="white"/>
<path d="M144.038 188.606C144.582 188.4 145.125 188.325 145.707 188.381C145.894 188.4 145.894 188.119 145.707 188.1C145.107 188.044 144.525 188.138 143.963 188.344C143.794 188.4 143.85 188.681 144.038 188.606Z" fill="white"/>
<path d="M144.412 189.113C144.825 189.056 145.218 189.094 145.612 189.244C145.781 189.3 145.856 189.038 145.687 188.981C145.275 188.831 144.843 188.794 144.412 188.85C144.225 188.85 144.225 189.15 144.412 189.113Z" fill="white"/>
<path d="M139.988 185.925C140.269 185.756 140.607 185.756 140.888 185.925C141.038 186.019 141.188 185.775 141.038 185.681C140.663 185.475 140.232 185.475 139.857 185.681C139.688 185.775 139.838 186.019 139.988 185.925Z" fill="white"/>
<path d="M143.925 185.55C144.206 185.4 144.525 185.362 144.863 185.4C145.031 185.418 145.125 185.156 144.938 185.137C144.544 185.081 144.15 185.137 143.794 185.325C143.606 185.381 143.756 185.625 143.925 185.55Z" fill="white"/>
<path d="M139.444 179.662C140.025 179.419 140.607 179.175 141.169 178.912C141.057 178.837 140.963 178.762 140.85 178.669C140.625 179.381 140.288 180.019 139.838 180.619C139.725 180.769 139.913 180.994 140.081 180.937C140.719 180.694 141.357 180.469 141.994 180.225C142.238 180.131 142.144 179.719 141.882 179.812C141.244 180.056 140.607 180.281 139.969 180.525C140.044 180.637 140.119 180.731 140.213 180.844C140.7 180.225 141.038 179.55 141.282 178.8C141.338 178.612 141.132 178.5 140.963 178.556C140.381 178.8 139.8 179.044 139.238 179.306C138.975 179.419 139.2 179.775 139.444 179.662Z" fill="#161616"/>
<path d="M140.382 176.25C140.776 176.025 141.169 175.875 141.601 175.781C141.526 175.669 141.451 175.575 141.357 175.462C141.188 175.837 140.982 176.212 140.738 176.55C140.644 176.7 140.776 176.85 140.926 176.869C141.432 176.906 141.901 176.775 142.294 176.475C142.501 176.306 142.294 175.95 142.088 176.119C141.751 176.381 141.376 176.494 140.944 176.456C141.001 176.569 141.057 176.662 141.132 176.775C141.376 176.419 141.582 176.062 141.751 175.687C141.826 175.519 141.694 175.331 141.507 175.369C141.038 175.462 140.588 175.631 140.176 175.875C139.932 176.025 140.138 176.381 140.382 176.25Z" fill="#161616"/>
<path d="M143.475 180.787C142.856 180.168 143.925 179.812 144.038 179.268C144.15 178.631 143.4 178.031 144.244 177.543C144.488 177.412 144.263 177.037 144.038 177.187C143.738 177.356 143.494 177.618 143.419 177.975C143.306 178.575 143.831 178.931 143.381 179.475C143.175 179.737 142.931 179.812 142.856 180.168C142.781 180.525 142.931 180.825 143.175 181.087C143.381 181.275 143.681 180.975 143.475 180.787Z" fill="#161616"/>
<path d="M195.244 127.257C148.238 130.65 101.231 134.025 54.2437 137.419C52.9687 103.332 51.6937 69.2442 50.4375 35.1566C97.65 34.5191 144.863 33.8816 192.075 33.2441C193.125 64.5754 194.175 95.9067 195.244 127.257Z" fill="white" stroke="#161616" stroke-width="3.5" stroke-miterlimit="10"/>
<path d="M90.3746 51.75C99.4871 51.75 108.618 51.75 117.731 51.75C118.087 51.75 118.087 51.1875 117.731 51.1875C108.618 51.1875 99.4871 51.1875 90.3746 51.1875C90.0184 51.1875 90.0184 51.75 90.3746 51.75Z" fill="#161616"/>
<path d="M100.612 54.0566C110.006 54.0566 119.4 54.0566 128.794 54.0566C129.15 54.0566 129.15 53.4941 128.794 53.4941C119.4 53.4941 110.006 53.4941 100.612 53.4941C100.237 53.4941 100.237 54.0566 100.612 54.0566Z" fill="#161616"/>
<path d="M56.1372 109.069C56.4747 116.906 56.8122 124.763 57.1497 132.6C57.1684 132.956 57.7309 132.956 57.7122 132.6C57.3747 124.763 57.0372 116.906 56.6997 109.069C56.6809 108.713 56.1184 108.713 56.1372 109.069Z" fill="#161616"/>
<path d="M97.4439 104.494C98.2502 104.494 99.0565 104.494 99.8815 104.494C100.238 104.494 100.238 103.932 99.8815 103.932C99.0752 103.932 98.269 103.932 97.4439 103.932C97.0877 103.932 97.0877 104.494 97.4439 104.494Z" fill="#161616"/>
<path d="M102 104.494C104.081 104.494 106.143 104.494 108.225 104.494C108.581 104.494 108.581 103.932 108.225 103.932C106.143 103.932 104.081 103.932 102 103.932C101.643 103.932 101.643 104.494 102 104.494Z" fill="#161616"/>
<path d="M112.931 104.194C115.406 104.194 117.881 104.194 120.375 104.194C120.731 104.194 120.731 103.632 120.375 103.632C117.9 103.632 115.425 103.632 112.931 103.632C112.575 103.632 112.575 104.194 112.931 104.194Z" fill="#161616"/>
<path d="M100.8 108.432C103.837 108.432 106.875 108.432 109.912 108.432C110.269 108.432 110.269 107.869 109.912 107.869C106.875 107.869 103.837 107.869 100.8 107.869C100.425 107.869 100.425 108.432 100.8 108.432Z" fill="#161616"/>
<path d="M105.187 106.312C108.731 106.312 112.275 106.312 115.818 106.312C116.175 106.312 116.175 105.75 115.818 105.75C112.275 105.75 108.731 105.75 105.187 105.75C104.831 105.75 104.831 106.312 105.187 106.312Z" fill="#161616"/>
<path d="M124.012 126.356C129.975 126.356 135.956 126.356 141.919 126.356C142.275 126.356 142.275 125.794 141.919 125.794C135.956 125.794 129.975 125.794 124.012 125.794C123.656 125.794 123.656 126.356 124.012 126.356Z" fill="#161616"/>
<path d="M138.731 127.875C141.862 127.875 145.012 127.875 148.144 127.875C148.5 127.875 148.5 127.313 148.144 127.313C145.012 127.313 141.862 127.313 138.731 127.313C138.375 127.313 138.375 127.875 138.731 127.875Z" fill="#161616"/>
<path d="M146.925 125.588C150.019 125.588 153.094 125.588 156.188 125.588C156.544 125.588 156.544 125.025 156.188 125.025C153.094 125.025 150.019 125.025 146.925 125.025C146.569 125.025 146.569 125.588 146.925 125.588Z" fill="#161616"/>
<path d="M162.712 74.7568C168.431 74.7568 174.15 74.7568 179.869 74.7568C180.225 74.7568 180.225 74.1943 179.869 74.1943C174.15 74.1943 168.431 74.1943 162.712 74.1943C162.356 74.1943 162.356 74.7568 162.712 74.7568Z" fill="#161616"/>
<path d="M157.406 75.6562C159.225 75.6562 161.044 75.6562 162.863 75.6562C163.219 75.6562 163.219 75.0938 162.863 75.0938C161.044 75.0938 159.225 75.0938 157.406 75.0938C157.031 75.0938 157.031 75.6562 157.406 75.6562Z" fill="#161616"/>
<path d="M158.457 77.1758C164.569 77.1758 170.7 77.1758 176.813 77.1758C177.169 77.1758 177.169 76.6133 176.813 76.6133C170.7 76.6133 164.569 76.6133 158.457 76.6133C158.1 76.6133 158.1 77.1758 158.457 77.1758Z" fill="#161616"/>
<path d="M181.088 75.8066C182.25 75.8066 183.413 75.8066 184.575 75.8066C184.932 75.8066 184.932 75.2441 184.575 75.2441C183.413 75.2441 182.25 75.2441 181.088 75.2441C180.713 75.2441 180.713 75.8066 181.088 75.8066Z" fill="#161616"/>
<path d="M176.531 98.7188C178.256 98.7188 179.962 98.7188 181.687 98.7188C182.044 98.7188 182.044 98.1562 181.687 98.1562C179.962 98.1562 178.256 98.1562 176.531 98.1562C176.156 98.1562 176.156 98.7188 176.531 98.7188Z" fill="#161616"/>
<path d="M173.193 100.238C175.068 100.238 176.943 100.238 178.8 100.238C179.156 100.238 179.156 99.6758 178.8 99.6758C176.925 99.6758 175.05 99.6758 173.193 99.6758C172.818 99.6758 172.818 100.238 173.193 100.238Z" fill="#161616"/>
<path d="M175.913 101.757C179.606 101.757 183.3 101.757 186.994 101.757C187.35 101.757 187.35 101.194 186.994 101.194C183.3 101.194 179.606 101.194 175.913 101.194C175.556 101.194 175.556 101.757 175.913 101.757Z" fill="#161616"/>
<path d="M182.906 99.9375C184.013 99.9375 185.138 99.9375 186.244 99.9375C186.6 99.9375 186.6 99.375 186.244 99.375C185.138 99.375 184.013 99.375 182.906 99.375C182.531 99.375 182.531 99.9375 182.906 99.9375Z" fill="#161616"/>
<path d="M105.675 76.5566C108.3 76.5566 110.907 76.5566 113.532 76.5566C113.888 76.5566 113.888 75.9941 113.532 75.9941C110.907 75.9941 108.3 75.9941 105.675 75.9941C105.319 75.9941 105.319 76.5566 105.675 76.5566Z" fill="#161616"/>
<path d="M111.393 78.1689C115.256 78.1689 119.137 78.1689 123 78.1689C123.356 78.1689 123.356 77.6064 123 77.6064C119.137 77.6064 115.256 77.6064 111.393 77.6064C111.037 77.6064 111.018 78.1689 111.393 78.1689Z" fill="#161616"/>
<path d="M121.575 76.0127C123.769 76.0127 125.981 76.0127 128.175 76.0127C128.531 76.0127 128.531 75.4502 128.175 75.4502C125.981 75.4502 123.769 75.4502 121.575 75.4502C121.219 75.4502 121.219 76.0127 121.575 76.0127Z" fill="#161616"/>
<path d="M54.4688 46.0875C54.8813 60.3188 55.2938 74.5688 55.7063 88.8C55.8188 92.85 55.9313 96.8813 56.0625 100.931C56.0813 101.288 56.6438 101.288 56.625 100.931C56.2125 86.7 55.8 72.45 55.3875 58.2188C55.275 54.1688 55.1625 50.1375 55.0313 46.0875C55.0313 45.7312 54.4688 45.7312 54.4688 46.0875Z" fill="#161616"/>
<path d="M190.763 92.607C191.044 102.02 191.325 111.413 191.606 120.826C191.625 121.182 192.188 121.182 192.169 120.826C191.888 111.413 191.606 102.02 191.325 92.607C191.325 92.2508 190.763 92.2508 190.763 92.607Z" fill="#161616"/>
<path d="M151.931 88.2941C152.043 89.4379 152.156 90.6004 152.249 91.7441C153.337 91.4629 154.406 91.1629 155.493 90.8816C155.343 89.7379 155.212 88.5754 155.062 87.4316C154.012 87.7129 152.981 88.0129 151.931 88.2941Z" fill="#EC615B"/>
<path d="M151.274 97.0504C152.399 96.9004 153.506 96.7691 154.631 96.6191C154.781 97.9879 154.912 99.3566 155.062 100.725C154.049 100.763 153.037 100.8 152.043 100.838C151.781 99.5629 151.537 98.3066 151.274 97.0504Z" fill="#EC615B"/>
<path d="M155.381 105.356C155.737 106.537 156.093 107.737 156.468 108.918C157.481 108.45 158.493 107.981 159.487 107.512C159.168 106.462 158.831 105.431 158.512 104.381C157.481 104.718 156.431 105.037 155.381 105.356Z" fill="#EC615B"/>
<path d="M81.2617 116.532C81.5055 120.169 81.7492 123.807 81.993 127.425C88.368 127.013 94.743 126.619 101.118 126.207C101.231 122.944 101.362 119.663 101.474 116.4C94.743 116.457 87.993 116.494 81.2617 116.532Z" fill="#183B56"/>
<path d="M160.519 42.525C161.254 42.525 161.85 42.0297 161.85 41.4187C161.85 40.8078 161.254 40.3125 160.519 40.3125C159.784 40.3125 159.188 40.8078 159.188 41.4187C159.188 42.0297 159.784 42.525 160.519 42.525Z" fill="#183B56"/>
<path d="M70.0496 50.8126C70.6606 50.8126 71.1559 50.4852 71.1559 50.0813C71.1559 49.6775 70.6606 49.3501 70.0496 49.3501C69.4386 49.3501 68.9434 49.6775 68.9434 50.0813C68.9434 50.4852 69.4386 50.8126 70.0496 50.8126Z" fill="#EC615B"/>
<path d="M87.6555 72.0192C88.1318 72.0192 88.518 71.5659 88.518 71.0067C88.518 70.4475 88.1318 69.9941 87.6555 69.9941C87.1791 69.9941 86.793 70.4475 86.793 71.0067C86.793 71.5659 87.1791 72.0192 87.6555 72.0192Z" fill="#EC615B"/>
<path opacity="0.21" d="M79.7434 46.7625C80.0809 46.7062 80.7371 49.8375 82.3496 55.5187C84.4684 63 86.5684 69.0375 88.0871 73.1625C85.7809 74.5875 80.6246 77.3062 73.5934 77.4C68.6246 77.4562 64.7059 76.1812 62.3809 75.2062C66.9371 75.7125 70.6121 75.5812 73.1809 75.3375C77.2496 74.9625 76.5371 74.5312 79.6121 74.3812C80.8871 74.325 82.5559 74.325 84.2621 73.2937C84.8809 72.9187 85.3309 72.5062 85.6309 72.2062C84.4309 69.7312 82.8934 66.0937 81.6559 61.5375C79.6871 54.1312 79.2559 46.8562 79.7434 46.7625Z" fill="#6D6C6C"/>
<path opacity="0.25" d="M97.3123 67.1064C97.6123 69.4877 98.156 72.1502 99.056 75.0002C101.625 83.1002 105.956 88.8752 109.219 92.4377C107.269 93.8815 104.85 95.3815 101.944 96.6377C93.1311 100.444 84.8998 99.8815 80.4936 99.2065C80.3248 98.2127 80.1561 97.219 79.9873 96.2252C81.8623 96.2815 83.8498 96.244 85.9311 96.1315C93.356 95.6627 99.7311 93.994 104.812 92.1377C103.2 89.4002 102.037 87.0377 101.231 85.2565C99.2811 81.0002 97.8373 77.794 97.331 73.4627C97.0123 70.8189 97.1436 68.5877 97.3123 67.1064Z" fill="#6D6C6C"/>
<path opacity="0.14" d="M156.918 79.5186C157.105 83.7936 157.555 87.3373 157.949 89.8873C158.868 95.7373 159.543 99.7873 161.943 104.344C163.443 107.175 165.13 109.256 166.349 110.606C164.23 112.425 161.38 114.487 157.724 116.137C148.537 120.319 139.912 119.475 135.88 118.8C135.674 117.881 135.468 116.962 135.262 116.025C135.768 116.062 136.555 116.1 137.512 116.119C140.699 116.194 147.337 116.306 154.949 113.756C157.087 113.044 160.087 111.844 163.462 109.856C162.13 108.075 160.818 105.956 159.674 103.5C155.155 93.8061 156.055 84.3936 156.918 79.5186Z" fill="#6D6C6C"/>
<path opacity="0.18" d="M171.281 37.4629C171.656 39.2066 172.2 41.8691 172.744 45.1879C173.756 51.6004 173.681 53.9254 174.863 57.7129C175.481 59.6816 176.588 62.4754 178.669 65.6629C176.925 67.0879 174.75 68.5691 172.069 69.8066C163.294 73.8754 154.894 72.7316 151.031 71.9254C151.069 71.1754 151.106 70.4254 151.144 69.6941C151.631 69.8254 152.363 69.9941 153.263 70.1441C154.444 70.3316 158.812 70.9691 167.025 68.9066C169.294 68.3441 172.35 67.4441 175.856 66.0004C175.181 64.8004 174.188 62.9254 173.288 60.5254C170.663 53.5691 170.681 47.5316 170.719 44.4191C170.738 42.7129 170.85 40.3316 171.281 37.4629Z" fill="#6D6C6C"/>
<path d="M59.1933 45.694C57.337 55.519 59.212 65.4565 61.087 75.1315C61.162 75.4878 61.7058 75.3378 61.6308 74.9815C59.7745 65.419 57.9183 55.5753 59.737 45.844C59.7933 45.5065 59.2495 45.3377 59.1933 45.694Z" fill="#161616"/>
<path d="M59.7181 45.6187C62.3993 47.4187 65.6431 47.7374 68.8118 47.5124C72.4306 47.2499 76.0118 46.4812 79.5931 45.8812C79.9493 45.8249 79.7993 45.2812 79.4431 45.3374C76.0119 45.8999 72.5806 46.6312 69.1118 46.9124C65.9431 47.1749 62.6993 46.9312 59.9994 45.1124C59.6994 44.9249 59.4181 45.4124 59.7181 45.6187Z" fill="#161616"/>
<path d="M79.2182 46.275C79.7432 55.2375 81.0932 64.3875 85.6307 72.2625C85.8182 72.5813 86.3057 72.3 86.1182 71.9813C81.637 64.1813 80.3057 55.125 79.7807 46.275C79.762 45.9187 79.1995 45.9187 79.2182 46.275Z" fill="#161616"/>
<path d="M61.5553 75.2816C65.8115 76.5191 70.3865 75.7691 74.7178 75.4128C78.5615 75.0941 82.6865 74.9441 85.9865 72.6941C86.2865 72.4878 86.0053 72.0003 85.7053 72.2066C82.3865 74.4753 78.224 74.5503 74.3615 74.8691C70.199 75.2066 65.8115 75.9003 61.7053 74.7191C61.349 74.6441 61.199 75.1878 61.5553 75.2816Z" fill="#161616"/>
<path d="M68.7552 50.1939C68.3802 50.0251 68.7927 49.6689 69.0177 49.6126C69.2989 49.5376 69.8427 49.5001 69.9739 49.8189C70.0677 50.0626 69.9177 50.3814 69.6927 50.4751C69.3364 50.6439 68.9427 50.4376 68.6989 50.1939C68.4364 49.9314 68.0427 50.3251 68.3052 50.5876C68.7739 51.0564 69.5427 51.3001 70.1239 50.8689C70.5927 50.5314 70.7614 49.7814 70.3677 49.3314C69.9177 48.8251 68.9614 48.8814 68.4552 49.2564C68.0052 49.5939 67.9114 50.4001 68.4927 50.6626C68.8114 50.8314 69.0927 50.3439 68.7552 50.1939Z" fill="#161616"/>
<path d="M76.2742 75.356C74.9242 82.1998 76.3679 89.1186 77.8304 95.8311C77.9054 96.1873 78.4491 96.0373 78.3741 95.681C76.9304 89.081 75.5054 82.256 76.8179 75.506C76.8929 75.1498 76.3492 74.9998 76.2742 75.356Z" fill="#161616"/>
<path d="M84.0178 68.1753C88.349 67.3503 92.7365 67.0503 97.124 67.219C97.0302 67.1253 96.9365 67.0315 96.8427 66.9378C95.9615 75.9753 99.824 84.5815 104.511 92.0628C104.699 92.3628 105.186 92.0815 104.999 91.7815C100.368 84.3753 96.524 75.8815 97.4052 66.9378C97.424 66.7878 97.2552 66.6565 97.124 66.6565C92.6803 66.4878 88.2365 66.8065 83.8678 67.6315C83.5115 67.7065 83.6615 68.2503 84.0178 68.1753Z" fill="#161616"/>
<path d="M78.1305 96.2249C87.243 97.2936 96.4867 95.9249 104.924 92.3249C105.262 92.1749 104.962 91.7061 104.643 91.8374C96.318 95.3999 87.1305 96.7124 78.1305 95.6624C77.7742 95.6249 77.7742 96.1874 78.1305 96.2249Z" fill="#161616"/>
<path d="M87.5437 70.4811C87.5437 70.4624 87.5999 70.3686 87.5999 70.3311C87.6187 70.2561 87.6749 70.1811 87.7312 70.1249C87.8437 70.0311 87.9749 69.9561 88.1249 69.9374C88.4062 69.8999 88.6687 70.0499 88.7437 70.3311C88.7999 70.5561 88.7062 70.8561 88.4437 70.8936C88.1999 70.9311 87.9749 70.7624 87.9374 70.5186C87.8812 70.1624 87.3374 70.3124 87.3937 70.6686C87.4874 71.3249 88.3312 71.6436 88.8749 71.3249C89.4749 70.9686 89.4374 70.0499 88.9312 69.6186C88.3687 69.1499 87.4312 69.3936 87.1124 70.0311C86.9624 70.3499 86.9624 70.7811 87.3187 70.9686C87.5999 71.1186 88.0124 70.9874 88.0874 70.6311C88.1437 70.2749 87.5999 70.1249 87.5437 70.4811Z" fill="#161616"/>
<path d="M61.0494 55.8941C66.0369 56.5879 70.9869 55.5566 75.7682 54.1879C76.1244 54.0941 75.9744 53.5504 75.6182 53.6441C70.9307 54.9754 66.0744 56.0254 61.1994 55.3504C60.8432 55.2941 60.6932 55.8379 61.0494 55.8941Z" fill="#161616"/>
<path d="M61.9869 59.5689C64.5744 59.8502 67.1619 59.5877 69.6557 58.8002C69.9932 58.6877 69.8619 58.1439 69.5057 58.2564C67.0682 59.0252 64.5369 59.2689 61.9869 59.0064C61.6307 58.9689 61.6307 59.5314 61.9869 59.5689Z" fill="#161616"/>
<path d="M61.9869 64.1063C66.9369 64.6876 71.9244 64.3313 76.7244 63.0751C77.0807 62.9813 76.9306 62.4376 76.5744 62.5313C71.8119 63.7876 66.8807 64.1251 61.9869 63.5438C61.6307 63.4876 61.6307 64.0501 61.9869 64.1063Z" fill="#161616"/>
<path d="M80.5117 92.8873C85.4805 93.1123 90.4492 92.5123 95.2117 91.0873C95.5492 90.9935 95.418 90.4498 95.0617 90.5435C90.3367 91.9498 85.443 92.5498 80.5117 92.3248C80.1367 92.306 80.1367 92.8685 80.5117 92.8873Z" fill="#161616"/>
<path d="M81.4684 88.5933C83.6809 88.5183 85.8933 88.3495 88.1058 88.1058C88.4621 88.0683 88.4621 87.5058 88.1058 87.5433C85.8933 87.787 83.6996 87.9558 81.4684 88.0308C81.1121 88.0495 81.1121 88.612 81.4684 88.5933Z" fill="#161616"/>
<path d="M83.2682 80.8689C84.7307 81.0564 86.2494 80.6814 87.6932 80.4752C89.2869 80.2314 90.8619 80.0064 92.4557 79.7627C92.8119 79.7064 92.6619 79.1627 92.3057 79.2189C90.8432 79.4439 89.3619 79.6689 87.8994 79.8752C86.3807 80.1002 84.8057 80.5126 83.2682 80.3064C82.9119 80.2501 82.9119 80.8126 83.2682 80.8689Z" fill="#161616"/>
<path d="M149.531 38.8311C147.487 48.8624 147.281 59.1749 148.912 69.2811C148.969 69.6374 149.512 69.4874 149.456 69.1311C147.844 59.1374 148.069 48.8999 150.075 38.9811C150.15 38.6249 149.606 38.4749 149.531 38.8311Z" fill="#161616"/>
<path d="M150.168 38.9625C156.975 37.4063 164.006 37.0875 170.943 38.025C171.3 38.0813 171.45 37.5375 171.093 37.4813C164.062 36.525 156.937 36.8438 150.018 38.4188C149.681 38.5125 149.831 39.0563 150.168 38.9625Z" fill="#161616"/>
<path d="M170.774 37.5191C170.568 47.1754 170.699 57.3754 175.593 66.0191C175.78 66.3379 176.249 66.0566 176.08 65.7379C171.243 57.1879 171.13 47.0816 171.336 37.5191C171.355 37.1629 170.793 37.1629 170.774 37.5191Z" fill="#161616"/>
<path d="M149.343 69.5811C151.443 70.2186 153.693 70.2561 155.868 70.2748C158.212 70.2936 160.555 70.1436 162.899 69.8248C167.38 69.2248 171.749 68.0061 175.93 66.2436C176.268 66.1123 175.968 65.6249 175.649 65.7561C171.468 67.5186 167.062 68.7186 162.562 69.2998C160.462 69.5623 158.343 69.7123 156.224 69.6936C153.993 69.6936 151.649 69.6748 149.512 69.0186C149.137 68.9436 149.005 69.4873 149.343 69.5811Z" fill="#161616"/>
<path d="M160.818 39.5626C160.181 39.7876 159.9 40.5188 160.125 41.1376C160.387 41.8313 161.193 42.0001 161.793 41.5876C162.374 41.1751 162.562 40.3501 161.999 39.8251C161.512 39.3751 160.668 39.3563 160.218 39.8438C159.975 40.1063 160.368 40.5001 160.612 40.2376C161.175 39.6376 162.281 40.4813 161.512 41.0813C161.212 41.3063 160.781 41.3063 160.65 40.9126C160.556 40.6126 160.65 40.2001 160.968 40.0876C161.306 39.9751 161.156 39.4313 160.818 39.5626Z" fill="#161616"/>
<path d="M149.813 47.55C154.931 47.6812 160.031 47.5875 165.131 47.25C165.488 47.2312 165.488 46.6687 165.131 46.6875C160.031 47.025 154.913 47.1375 149.813 46.9875C149.437 46.9875 149.437 47.55 149.813 47.55Z" fill="#161616"/>
<path d="M150.318 50.3999C152.231 50.4749 154.143 50.5499 156.037 50.6249C156.393 50.6436 156.393 50.0811 156.037 50.0624C154.125 49.9874 152.212 49.9124 150.318 49.8374C149.943 49.8186 149.943 50.3811 150.318 50.3999Z" fill="#161616"/>
<path d="M149.794 54.375C154.612 54.6375 159.487 54.8625 164.231 53.8125C164.587 53.7375 164.437 53.1938 164.081 53.2688C159.375 54.3001 154.556 54.075 149.794 53.8125C149.437 53.7938 149.437 54.3563 149.794 54.375Z" fill="#161616"/>
<path d="M79.8934 115.332C79.4622 119.082 79.3121 122.85 79.4434 126.619C79.4622 126.975 80.0247 126.975 80.0059 126.619C79.8747 122.85 80.0247 119.082 80.456 115.332C80.4935 114.975 79.9309 114.975 79.8934 115.332Z" fill="#161616"/>
<path d="M80.0807 115.556C86.7557 115.556 93.4494 115.463 100.124 115.256C100.481 115.238 100.481 114.675 100.124 114.694C93.4494 114.9 86.7557 114.994 80.0807 114.994C79.7244 114.994 79.7244 115.556 80.0807 115.556Z" fill="#161616"/>
<path d="M100.068 114.994C100.124 118.256 100.18 121.5 100.237 124.763C100.237 125.119 100.799 125.119 100.799 124.763C100.743 121.5 100.687 118.256 100.63 114.994C100.63 114.637 100.049 114.637 100.068 114.994Z" fill="#161616"/>
<path d="M79.3867 126.206C79.4242 127.425 81.543 126.881 82.2367 126.844C84.2242 126.713 86.2117 126.581 88.1805 126.431C92.2118 126.15 96.243 125.888 100.274 125.606C100.631 125.588 100.631 125.025 100.274 125.044C96.843 125.269 93.4305 125.513 89.9993 125.738C88.368 125.85 86.7367 125.963 85.1055 126.075C84.618 126.113 79.9492 126.563 79.9305 126.206C79.9492 125.85 79.3867 125.85 79.3867 126.206Z" fill="#161616"/>
<path d="M81.5996 118.088C86.0996 117.881 90.5996 118.05 95.0621 118.613C95.4183 118.65 95.4183 118.088 95.0621 118.05C90.5996 117.488 86.0996 117.319 81.5996 117.525C81.2246 117.544 81.2246 118.106 81.5996 118.088Z" fill="#161616"/>
<path d="M81.7682 120.938C84.2807 120.75 86.812 120.544 89.3245 120.356C89.6807 120.338 89.6807 119.775 89.3245 119.794C86.812 119.981 84.2807 120.188 81.7682 120.375C81.4119 120.394 81.4119 120.956 81.7682 120.938Z" fill="#161616"/>
<path d="M82.6118 123.807C86.2305 123.338 90.168 122.381 93.8056 123.038C94.1618 123.094 94.3118 122.569 93.9556 122.494C90.243 121.819 86.3055 122.756 82.6118 123.244C82.2743 123.3 82.2555 123.863 82.6118 123.807Z" fill="#161616"/>
<path d="M131.38 83.4185C128.399 94.0311 128.774 105.394 132.43 115.8C132.543 116.137 133.087 115.987 132.974 115.65C129.355 105.337 128.98 94.0873 131.924 83.5685C132.018 83.2123 131.474 83.0623 131.38 83.4185Z" fill="#161616"/>
<path d="M131.756 83.6064C140.1 83.5689 148.406 82.4814 156.487 80.3627C156.843 80.2689 156.693 79.7252 156.337 79.8189C148.312 81.9189 140.062 83.0064 131.756 83.0439C131.381 83.0439 131.381 83.6064 131.756 83.6064Z" fill="#161616"/>
<path d="M156.337 80.025C155.999 85.2375 156.224 90.4875 157.162 95.6437C157.63 98.25 158.193 100.856 159.224 103.294C160.255 105.712 161.68 107.906 163.349 109.912C163.574 110.194 163.986 109.8 163.743 109.519C162.036 107.475 160.593 105.206 159.58 102.731C158.624 100.369 158.099 97.8375 157.668 95.3437C156.768 90.3 156.562 85.1437 156.88 80.025C156.918 79.6688 156.355 79.6688 156.337 80.025Z" fill="#161616"/>
<path d="M132.505 116.1C143.118 116.85 154.199 115.65 163.499 110.175C163.818 109.988 163.537 109.5 163.218 109.688C153.974 115.125 143.005 116.269 132.505 115.538C132.149 115.5 132.149 116.063 132.505 116.1Z" fill="#161616"/>
<path d="M143.793 85.2939C143.474 84.7502 144.112 84.0752 144.656 84.5064C145.237 84.9752 144.618 85.7252 143.999 85.4814C143.662 85.3502 143.512 85.8939 143.849 86.0252C144.356 86.2314 144.974 86.0064 145.274 85.5564C145.612 85.0502 145.462 84.4127 144.993 84.0564C143.981 83.2502 142.706 84.5064 143.306 85.5752C143.493 85.8939 143.981 85.6127 143.793 85.2939Z" fill="#161616"/>
<path d="M131.943 91.7624C137.549 91.6687 143.155 91.2749 148.743 90.5999C149.099 90.5624 149.099 89.9999 148.743 90.0374C143.174 90.7312 137.568 91.1062 131.943 91.1999C131.587 91.2187 131.587 91.7812 131.943 91.7624Z" fill="#161616"/>
<path d="M150.749 87.9938C150.918 88.8563 151.087 89.7376 151.255 90.6001C151.33 90.9564 151.874 90.8064 151.799 90.4501C151.63 89.5876 151.462 88.7063 151.293 87.8438C151.237 87.4876 150.693 87.6376 150.749 87.9938Z" fill="#161616"/>
<path d="M151.124 87.9189C152.155 87.7689 153.187 87.6189 154.237 87.4502C154.593 87.3939 154.443 86.8502 154.087 86.9064C153.055 87.0564 152.024 87.2064 150.974 87.3752C150.618 87.4314 150.768 87.9752 151.124 87.9189Z" fill="#161616"/>
<path d="M154.068 87.2812C154.218 88.0874 154.349 88.8936 154.499 89.6811C154.555 90.0374 155.099 89.8874 155.042 89.5311C154.892 88.7249 154.761 87.9187 154.611 87.1312C154.555 86.7937 154.011 86.9437 154.068 87.2812Z" fill="#161616"/>
<path d="M151.725 91.0313C152.831 90.8063 153.881 90.5063 154.931 90.0938C155.268 89.9626 155.118 89.4188 154.781 89.5501C153.731 89.9438 152.662 90.2626 151.575 90.4876C151.219 90.5626 151.369 91.1063 151.725 91.0313Z" fill="#161616"/>
<path d="M151.818 88.5559C152.025 89.0246 152.306 89.3996 152.718 89.7184C152.868 89.8309 153.15 89.8309 153.187 89.5871C153.337 88.5746 153.693 87.6746 154.293 86.8309C154.5 86.5309 154.012 86.2496 153.806 86.5496C153.187 87.4121 152.793 88.3871 152.643 89.4371C152.793 89.3996 152.962 89.3621 153.112 89.3059C152.756 89.0246 152.493 88.6871 152.306 88.2559C152.156 87.9371 151.668 88.2184 151.818 88.5559Z" fill="#161616"/>
<path d="M152.025 96.6002C151.725 97.9502 151.856 99.2627 152.4 100.519C152.55 100.856 153.018 100.556 152.887 100.238C152.4 99.1314 152.306 97.9314 152.568 96.7502C152.643 96.3939 152.1 96.2439 152.025 96.6002Z" fill="#161616"/>
<path d="M152.4 96.7874C153.524 96.5999 154.649 96.4311 155.774 96.2436C155.662 96.1311 155.549 96.0186 155.437 95.9061C155.249 97.1061 155.381 98.2499 155.849 99.3749C155.981 99.7124 156.524 99.5624 156.393 99.2249C155.962 98.2124 155.812 97.1436 155.981 96.0561C156.018 95.8311 155.868 95.6811 155.643 95.7186C154.518 95.8874 153.393 96.0749 152.268 96.2624C151.893 96.2999 152.043 96.8436 152.4 96.7874Z" fill="#161616"/>
<path d="M152.643 100.538C153.881 100.5 155.062 100.256 156.224 99.8438C156.562 99.7126 156.412 99.1688 156.074 99.3001C154.968 99.7126 153.824 99.9376 152.643 99.9751C152.287 99.9751 152.287 100.538 152.643 100.538Z" fill="#161616"/>
<path d="M152.812 97.9309C152.981 98.4184 153.262 98.7559 153.712 99.0184C153.918 99.1309 154.106 98.9809 154.143 98.7746C154.256 97.7809 154.518 96.8246 154.931 95.9058C155.081 95.5871 154.593 95.2871 154.443 95.6246C153.993 96.6371 153.712 97.6871 153.581 98.7746C153.731 98.6996 153.862 98.6059 154.012 98.5309C153.693 98.3434 153.506 98.1184 153.375 97.7621C153.243 97.4434 152.7 97.5934 152.812 97.9309Z" fill="#161616"/>
<path d="M153.186 105.3C153.318 106.557 153.655 107.738 154.218 108.863C154.368 109.182 154.855 108.9 154.705 108.582C154.199 107.55 153.88 106.444 153.768 105.3C153.711 104.944 153.149 104.944 153.186 105.3Z" fill="#161616"/>
<path d="M153.45 105.244C154.894 105.376 156.244 105.113 157.537 104.476C157.406 104.419 157.256 104.363 157.125 104.307C157.369 105.451 157.875 106.444 158.662 107.326C158.906 107.588 159.3 107.194 159.056 106.932C158.344 106.126 157.894 105.226 157.669 104.175C157.631 103.988 157.406 103.932 157.256 104.007C156.056 104.588 154.781 104.813 153.45 104.701C153.094 104.663 153.094 105.226 153.45 105.244Z" fill="#161616"/>
<path d="M154.724 109.069C156.187 108.525 157.63 107.944 159.037 107.306C159.374 107.156 159.074 106.669 158.755 106.819C157.387 107.438 155.98 108 154.574 108.525C154.237 108.656 154.387 109.2 154.724 109.069Z" fill="#161616"/>
<path d="M154.424 106.238C154.874 106.632 155.906 107.982 156.431 106.988C156.674 106.538 156.618 105.919 156.768 105.413C156.993 104.7 157.368 104.044 157.856 103.482C158.081 103.2 157.687 102.807 157.462 103.088C156.937 103.707 156.524 104.382 156.281 105.169C156.168 105.525 156.074 105.9 156.018 106.275C155.943 106.744 155.812 106.632 155.456 106.407C155.231 106.257 155.024 106.032 154.818 105.844C154.556 105.6 154.162 105.994 154.424 106.238Z" fill="#161616"/>
<path d="M132.45 100.931C137.7 100.875 142.931 100.444 148.106 99.6186C148.462 99.5624 148.312 99.0186 147.956 99.0749C142.819 99.8811 137.644 100.312 132.45 100.35C132.094 100.369 132.094 100.931 132.45 100.931Z" fill="#161616"/>
<path d="M131.849 93.3189C135.243 93.4126 138.618 93.3001 141.993 93.0189C142.349 92.9814 142.349 92.4189 141.993 92.4564C138.618 92.7376 135.224 92.8314 131.849 92.7564C131.493 92.7376 131.493 93.3001 131.849 93.3189Z" fill="#161616"/>
<path d="M132.656 102.038C136.218 102.207 139.781 102.075 143.306 101.625C143.662 101.588 143.662 101.025 143.306 101.063C139.762 101.494 136.2 101.644 132.656 101.475C132.3 101.457 132.3 102.019 132.656 102.038Z" fill="#161616"/>
<path d="M144.505 101.362C145.518 101.381 146.512 101.25 147.487 100.931C147.824 100.819 147.674 100.275 147.337 100.387C146.418 100.687 145.48 100.819 144.505 100.8C144.149 100.8 144.149 101.362 144.505 101.362Z" fill="#161616"/>
<path d="M134.568 109.088C138.843 108.825 143.1 108.431 147.337 107.85C147.693 107.794 147.693 107.231 147.337 107.288C143.1 107.85 138.843 108.263 134.568 108.525C134.193 108.544 134.193 109.106 134.568 109.088Z" fill="#161616"/>
<path d="M135.056 110.4C136.463 110.4 137.869 110.4 139.275 110.4C139.631 110.4 139.631 109.838 139.275 109.838C137.869 109.838 136.463 109.838 135.056 109.838C134.7 109.838 134.7 110.4 135.056 110.4Z" fill="#161616"/>
<path d="M136.275 111.656C138.469 111.525 140.662 111.319 142.856 111.056C144.619 110.831 146.512 110.738 148.031 109.706C148.331 109.5 148.05 109.013 147.75 109.219C146.156 110.306 144.019 110.363 142.162 110.569C140.212 110.794 138.244 110.963 136.294 111.094C135.919 111.113 135.9 111.675 136.275 111.656Z" fill="#161616"/>
<path d="M157.686 96.5062C161.099 96.3375 164.492 95.8875 167.849 95.175C167.736 95.1187 167.624 95.0437 167.511 94.9875C169.086 99.675 171.411 104.044 174.393 108C174.599 108.281 175.105 108 174.88 107.719C171.936 103.819 169.63 99.4875 168.055 94.8562C167.999 94.7062 167.868 94.6312 167.718 94.6687C164.417 95.3812 161.08 95.8125 157.705 95.9812C157.311 95.9625 157.311 96.525 157.686 96.5062Z" fill="#161616"/>
<path d="M158.269 112.332C158.775 113.044 159.187 113.794 159.544 114.6C159.581 114.713 159.75 114.769 159.862 114.732C162.619 113.813 165.337 112.8 168 111.657C169.35 111.075 170.681 110.475 172.012 109.838C172.65 109.538 173.287 109.219 173.906 108.9C174.281 108.713 174.712 108.6 174.844 108.188C174.881 108.075 174.825 107.925 174.712 107.869C174.544 107.775 174.45 107.775 174.281 107.869C174.169 107.925 174.112 108.075 174.15 108.188C174.15 108.207 174.169 108.225 174.169 108.244C174.262 108.6 174.806 108.45 174.712 108.094C174.712 108.075 174.694 108.057 174.694 108.038C174.656 108.15 174.6 108.244 174.562 108.357C174.525 108.357 174.469 108.357 174.431 108.357C174.394 108.244 174.337 108.15 174.3 108.038C174.187 108.375 173.006 108.732 172.687 108.9C172.162 109.163 171.637 109.407 171.094 109.669C169.837 110.269 168.562 110.832 167.269 111.375C164.794 112.425 162.262 113.363 159.712 114.207C159.825 114.244 159.919 114.3 160.031 114.338C159.694 113.532 159.262 112.782 158.756 112.069C158.55 111.75 158.062 112.032 158.269 112.332Z" fill="#161616"/>
<path d="M161.531 97.9687C161.493 97.7249 161.943 97.4999 162.112 97.6687C162.337 97.8937 161.962 98.3062 161.699 98.2124C161.362 98.0812 161.212 98.6249 161.549 98.7562C162.356 99.0562 163.143 97.8937 162.524 97.2749C162.243 96.9937 161.812 97.0124 161.474 97.1812C161.118 97.3687 160.931 97.7249 161.006 98.1187C161.043 98.4749 161.587 98.3062 161.531 97.9687Z" fill="#161616"/>
<path d="M78.4493 82.9693C80.5305 83.0068 82.6305 82.9131 84.693 82.6318C86.8492 82.3318 88.9867 81.7131 91.1805 81.8068C91.5367 81.8256 91.5367 81.2631 91.1805 81.2443C89.1742 81.1693 87.2242 81.6756 85.2555 81.9756C83.0055 82.3318 80.718 82.4631 78.4305 82.4068C78.093 82.4068 78.093 82.9693 78.4493 82.9693Z" fill="#161616"/>
<path d="M78.7496 76.7626C81.9371 77.0063 85.1246 76.7251 88.2184 75.9188C88.5746 75.8251 88.4246 75.2813 88.0684 75.3751C85.0121 76.1626 81.8996 76.4438 78.7496 76.2001C78.3934 76.1813 78.3934 76.7438 78.7496 76.7626Z" fill="#161616"/>
<path d="M150.899 60.9747C150.581 63.0372 150.318 65.2684 151.612 67.0684C151.818 67.3684 152.306 67.0872 152.099 66.7872C150.899 65.1184 151.162 63.0372 151.443 61.1247C151.499 60.7684 150.956 60.6184 150.899 60.9747Z" fill="#161616"/>
<path d="M151.068 60.9563C155.53 61.125 159.993 60.6938 164.343 59.6625C164.23 59.6062 164.118 59.5312 164.005 59.475C164.399 61.4063 165.149 63.2063 166.199 64.8563C166.386 65.1563 166.874 64.875 166.686 64.575C165.655 62.9625 164.943 61.2 164.549 59.325C164.511 59.175 164.343 59.1 164.211 59.1375C159.918 60.15 155.511 60.5813 151.086 60.4125C150.711 60.375 150.711 60.9375 151.068 60.9563Z" fill="#161616"/>
<path d="M152.081 67.05C156.919 66.9 161.7 66.1875 166.35 64.9125C166.706 64.8187 166.556 64.275 166.2 64.3687C161.587 65.6437 156.862 66.3562 152.081 66.4875C151.706 66.5062 151.706 67.0687 152.081 67.05Z" fill="#161616"/>
<path d="M218.194 198.018C218.194 200.137 218.194 202.237 218.194 204.356C203.194 210.3 200.138 212.418 200.363 213.187C200.419 213.375 200.813 213.937 208.688 213.018C216.488 212.1 222.807 210.768 227.194 209.681C226.425 205.35 225.638 201.018 224.869 196.687C222.638 197.137 220.407 197.587 218.194 198.018Z" fill="#161616"/>
<path d="M224.925 108.337C224.494 109.143 224.344 109.8 224.307 109.95C221.625 121.35 218.119 128.081 215.832 141.299C211.463 166.762 215.232 195.693 215.588 198.412C216.788 198.937 219.094 199.724 222.038 199.612C224.625 199.499 226.632 198.731 227.775 198.187C227.344 189.881 227.775 179.624 230.644 168.318C234.15 154.462 238.594 149.868 242.588 133.668C245.55 121.668 248.982 107.7 243.057 103.556C238.519 100.331 227.888 102.693 224.925 108.337Z" fill="#EC615B"/>
<path opacity="0.2" d="M235.294 114.319C232.294 128.006 229.5 142.594 227.138 158.025C224.906 172.537 223.237 186.431 222 199.631C223.894 199.237 225.769 198.843 227.662 198.45C227.419 192.618 227.681 187.65 228.056 183.843C228.506 179.118 229.65 168.112 234.244 157.125C234.844 155.719 235.613 154.012 236.869 150.806C238.988 145.5 240.525 140.962 241.219 138.825C244.481 128.625 246.113 116.794 246.619 112.894C242.831 113.344 239.063 113.831 235.294 114.319Z" fill="#6D6C6C"/>
<path opacity="0.19" d="M241.482 138.149C234.132 147.731 230.7 156.412 228.975 162.243C227.4 167.549 226.707 172.237 225.807 178.312C224.532 186.937 224.044 194.212 223.838 199.387C225.075 199.087 226.294 198.768 227.532 198.468C227.325 191.212 227.832 185.006 228.45 180.168C229.2 174.431 230.063 167.774 233.063 159.768C234.15 156.862 234.675 156.037 237.15 149.756C239.063 144.843 240.525 140.812 241.482 138.149Z" fill="#6D6C6C"/>
<path d="M258.694 195.862C259.744 198.469 260.813 201.075 261.863 203.7C253.051 209.306 248.888 212.569 249.357 213.525C249.938 214.706 257.551 212.362 272.194 206.531C270.638 201.469 269.082 196.425 267.526 191.362C264.582 192.862 261.638 194.362 258.694 195.862Z" fill="#161616"/>
<path d="M251.457 108.562C256.05 112.762 255.9 118.65 256.482 128.4C256.482 128.4 257.907 152.381 262.688 171.656C263.888 176.475 266.063 183.956 270.094 192.919C269.419 193.781 267.582 195.881 264.357 196.987C261.057 198.112 258.244 197.512 257.194 197.231C251.457 187.444 247.388 179.1 244.763 173.325C232.594 146.662 231.619 132.619 231.619 125.287C231.619 117.75 231.75 108.712 237.357 105.694C241.575 103.425 247.763 105.187 251.457 108.562Z" fill="#EC615B"/>
<path opacity="0.15" d="M238.444 111.431C240.526 119.438 242.776 127.575 245.176 135.825C251.438 157.238 258.244 177.469 265.388 196.444C266.082 196.088 266.926 195.6 267.788 194.944C268.669 194.269 269.363 193.594 269.888 192.994C268.913 190.725 267.563 187.444 266.138 183.413C263.982 177.244 260.476 165.9 258.657 150.788C256.913 136.275 256.032 129.019 256.107 124.444C256.163 120.675 256.501 113.006 251.626 108.881C250.613 108.038 249.619 107.531 248.926 107.231C245.419 108.638 241.932 110.044 238.444 111.431Z" fill="#6D6C6C"/>
<path opacity="0.22" d="M256.332 129.318C255.47 138.037 255.188 149.718 257.288 163.218C259.407 176.793 263.251 187.875 266.72 195.937C267.788 195.056 268.857 194.175 269.926 193.275C268.651 190.256 266.982 186.056 265.313 180.918C262.107 171.037 260.72 163.331 259.52 156.412C258.301 149.325 257.026 140.156 256.332 129.318Z" fill="#6D6C6C"/>
<path d="M168.543 40.0693C167.793 40.4443 166.762 41.1006 165.956 42.2256C165.525 42.8068 165 43.5756 164.925 44.6631C164.906 45.0943 164.85 46.0318 165.45 46.6506C165.618 46.8381 166.068 47.1943 168.281 47.1193C170.25 47.0443 171.243 47.0068 171.75 46.4818C172.725 45.4693 172.368 43.5568 171.75 42.4131C170.775 40.5943 168.862 40.1443 168.543 40.0693Z" fill="white" stroke="#161616" stroke-width="2" stroke-miterlimit="10"/>
<path d="M179.868 44.7752C182.512 47.7939 186.749 49.5939 194.531 52.8002C204.337 56.8502 209.249 58.8752 215.062 59.5877C221.343 60.3564 224.699 59.5502 225.862 61.5939C227.381 64.2377 223.818 69.1877 220.143 73.3314C217.406 72.7314 214.574 71.9814 211.649 71.0064C195.618 65.7002 184.031 56.3627 176.418 48.6002C175.462 48.8064 173.831 49.0127 171.974 48.4502C170.381 47.9814 168.131 46.7814 168.262 45.8252C168.431 44.6627 172.499 44.4564 172.743 44.4377C171.506 43.9314 169.724 43.0689 167.793 41.6627C167.231 41.2502 164.006 38.8689 164.399 38.1189C164.737 37.4627 167.662 38.3627 170.418 39.2064C172.931 39.9752 174.674 40.5189 176.587 41.8314C178.424 43.0689 179.493 44.3439 179.868 44.7752Z" fill="white" stroke="#161616" stroke-width="2" stroke-miterlimit="10"/>
<path d="M166.893 40.2749C167.343 40.7812 167.437 41.4562 167.831 41.9812C168.168 42.4499 168.656 42.7874 169.162 43.0687C170.681 43.9124 172.293 44.6062 173.849 45.3749C174.112 45.5062 174.449 45.1499 174.187 44.9249C173.381 44.2312 172.518 43.6124 171.618 43.0499C171.318 42.8624 171.018 43.3499 171.337 43.5374C172.199 44.0812 173.024 44.6624 173.793 45.3187C173.906 45.1687 174.018 45.0187 174.131 44.8687C172.649 44.1562 171.168 43.4624 169.706 42.6937C169.012 42.3374 168.393 41.9249 168.037 41.2124C167.793 40.7249 167.662 40.2562 167.287 39.8437C167.043 39.6187 166.649 40.0124 166.893 40.2749Z" fill="white"/>
<path d="M168.355 42.2439C169.218 42.6189 170.043 43.1064 170.793 43.6876C171.074 43.9126 171.468 43.5189 171.187 43.2939C170.399 42.6751 169.556 42.1689 168.637 41.7563C168.299 41.6063 168.018 42.0939 168.355 42.2439Z" fill="white"/>
<path d="M166.143 39.9375C166.855 41.0813 167.793 42.0188 168.899 42.7688C169.199 42.975 169.48 42.4875 169.18 42.2813C168.149 41.5875 167.287 40.7063 166.63 39.6375C166.443 39.3563 165.955 39.6375 166.143 39.9375Z" fill="white"/>
<path d="M166.987 41.4753C167.362 41.9816 167.774 42.4503 168.243 42.8628C168.581 43.1628 170.062 44.2316 169.293 44.7753C169.143 44.8691 169.293 45.1128 169.443 45.0191C169.968 44.6628 169.762 44.0253 169.443 43.5941C169.2 43.2753 168.862 43.0316 168.543 42.7503C168.056 42.3191 167.624 41.8503 167.231 41.3441C167.118 41.1753 166.874 41.3253 166.987 41.4753Z" fill="#161616"/>
<path d="M166.593 43.4255C167.156 44.1943 168.225 45.2818 169.275 44.963C169.443 44.9068 169.368 44.6443 169.2 44.7005C168.3 44.9818 167.306 43.9505 166.837 43.2943C166.725 43.1443 166.481 43.2755 166.593 43.4255Z" fill="#161616"/>
<path d="M165.768 44.7375C166.387 45.5813 167.287 46.0688 168.337 46.125C168.525 46.1438 168.525 45.8625 168.337 45.8438C167.4 45.7875 166.575 45.3375 166.012 44.5875C165.899 44.4375 165.656 44.5875 165.768 44.7375Z" fill="#161616"/>
<path d="M165.168 46.425C166.049 47.3438 167.512 47.3625 168.393 46.425C168.524 46.2938 168.318 46.0875 168.187 46.2188C167.418 47.0438 166.143 47.025 165.374 46.2188C165.243 46.0875 165.037 46.2938 165.168 46.425Z" fill="#161616"/>
<path d="M165.356 39.9C167.437 41.2688 168.937 43.575 171.543 44.025C171.712 44.0625 171.806 43.7812 171.618 43.7625C169.049 43.3312 167.549 41.025 165.506 39.675C165.337 39.5438 165.206 39.7875 165.356 39.9Z" fill="#161616"/>
<path opacity="0.2" d="M165.13 46.0318C164.455 45.1131 165.018 43.1443 166.649 41.2881C168.486 42.3568 170.305 43.4443 172.143 44.5131C171.805 44.5131 168.843 44.5506 168.636 45.4693C168.599 45.6193 168.636 45.8443 168.918 46.1631C169.855 46.6131 171.43 47.2131 173.455 47.2693C174.505 47.2881 175.424 47.1568 176.136 46.9881C179.961 50.8506 186.693 56.6818 196.593 60.9193C205.293 64.6318 213.093 65.7006 218.249 66.0006C218.08 68.2131 217.911 70.4069 217.743 72.6194C209.249 70.3694 197.736 66.0944 186.299 57.5068C182.399 54.5818 179.061 51.5631 176.211 48.6568C173.586 49.0881 171.955 48.6381 170.924 48.1131C170.043 47.6631 169.48 47.1006 168.318 47.0068C167.549 46.9506 166.893 47.1381 166.049 46.7256C165.955 46.6881 165.411 46.4068 165.13 46.0318Z" fill="#6D6C6C"/>
<path opacity="0.14" d="M189.281 59.2686C191.906 60.6748 194.944 62.0998 198.412 63.3186C205.969 65.9998 212.813 66.8436 218.044 67.0311C217.969 68.9436 217.913 70.8748 217.838 72.7873C212.4 71.5123 205.575 69.2811 198.338 65.2311C194.869 63.2998 191.869 61.2561 189.281 59.2686Z" fill="#6D6C6C"/>
<path d="M218.925 64.6125C217.856 67.0312 217.8 69.0375 217.706 72.6375C217.631 75.3562 217.819 78.2812 219.281 85.9687C221.063 95.2687 221.906 96.7687 222.188 101.7C222.413 105.562 222.113 108.731 221.831 110.831C224.194 112.125 228.15 113.887 233.325 114.281C242.475 114.975 249.244 110.944 251.569 109.406C251.85 103.519 252.131 97.6125 252.431 91.725C251.4 86.7 250.181 82.7625 249.3 80.175C246.525 72.0187 243.938 68.1562 245.588 64.0687C246.506 61.8 248.325 60.4125 249.581 59.6437C248.7 58.9687 239.456 52.125 229.369 55.6687C228.319 56.025 221.681 58.3687 218.925 64.6125Z" fill="white" stroke="#161616" stroke-width="2" stroke-miterlimit="10"/>
<path opacity="0.19" d="M229.331 55.6501C232.144 60.1501 233.719 64.1251 234.619 66.9001C234.619 66.9001 239.025 80.2876 235.8 98.2501C235.106 102.075 233.869 107.513 231.431 113.738C232.369 113.944 233.494 114.113 234.769 114.169C234.769 114.169 236.737 114.263 238.95 113.981C241.65 113.625 246.281 112.181 251.737 109.406C251.831 103.125 251.925 96.8626 252.019 90.5813C250.631 85.2751 249.225 81.0188 248.175 78.0376C245.644 70.9313 243.862 67.5938 245.325 64.0688C246.281 61.7626 248.231 60.3376 249.75 59.5126C247.762 58.2001 244.087 56.1563 239.062 55.3688C234.919 54.7313 231.506 55.1813 229.331 55.6501Z" fill="#6D6C6C"/>
<path opacity="0.11" d="M231.9 55.2188C234.919 58.9312 238.444 64.35 240.619 71.4937C246.788 91.8937 236.644 109.781 234.3 113.7C236.269 113.681 238.575 113.512 241.088 113.025C245.569 112.162 249.15 110.625 251.719 109.256C251.813 103.406 251.907 97.5563 252 91.725C250.407 86.3063 248.907 81.1688 246.863 74.1938C245.475 69.4125 244.388 65.4938 246.432 62.3625C247.425 60.8438 248.813 60 249.863 59.5125C243.882 58.0687 237.882 56.6437 231.9 55.2188Z" fill="#6D6C6C"/>
<path d="M230.513 93.5251C230.457 89.5127 230.42 85.5189 230.363 81.5064C239.982 81.0189 249.601 80.5314 259.238 80.0439C259.576 83.7564 259.913 87.4689 260.27 91.1814C250.351 91.9689 240.432 92.7376 230.513 93.5251Z" fill="white" stroke="#161616" stroke-width="2" stroke-miterlimit="10"/>
<path d="M227.588 92.2123C227.588 90.7498 227.588 89.2873 227.588 87.8248C239.944 86.9061 252.3 85.9686 264.657 85.0498C264.75 86.8498 264.844 88.6686 264.957 90.4686C252.507 91.0311 240.038 91.6311 227.588 92.2123Z" fill="white" stroke="#161616" stroke-width="2" stroke-miterlimit="10"/>
<path d="M228.619 85.6127C228.769 87.7689 228.919 89.9064 229.05 92.0627C240.488 91.1439 251.907 90.2064 263.344 89.2877C263.438 87.3377 263.532 85.3877 263.644 83.4189C251.963 84.1502 240.282 84.8814 228.619 85.6127Z" fill="white" stroke="#161616" stroke-width="2" stroke-miterlimit="10"/>
<path d="M225.825 90.4498C226.163 98.9998 226.5 107.55 226.856 116.1C239.606 114.675 252.356 113.269 265.106 111.844C265.5 103.444 265.894 95.0435 266.288 86.6436C252.788 87.9186 239.306 89.1748 225.825 90.4498Z" fill="white" stroke="#161616" stroke-width="2" stroke-miterlimit="10"/>
<path d="M228.001 93.7873C233.794 93.0185 239.588 92.4748 245.419 92.1373C245.682 92.1185 245.682 91.7061 245.419 91.7061C239.588 92.0436 233.776 92.5873 228.001 93.356C227.738 93.3935 227.738 93.8248 228.001 93.7873Z" fill="#161616"/>
<path d="M234.469 94.9316C238.913 94.3691 243.357 93.7878 247.819 93.2253C248.082 93.1878 248.082 92.7753 247.819 92.7941C243.376 93.3566 238.932 93.9378 234.469 94.5003C234.207 94.5566 234.207 94.9691 234.469 94.9316Z" fill="#161616"/>
<path d="M255.826 106.931C255.751 108.113 255.751 109.313 255.863 110.494C255.882 110.756 256.313 110.756 256.294 110.494C256.182 109.313 256.163 108.113 256.257 106.931C256.276 106.669 255.844 106.669 255.826 106.931Z" fill="#161616"/>
<path d="M256.012 106.969C258.337 107.025 260.644 106.894 262.95 106.594C262.875 106.519 262.8 106.444 262.744 106.388C262.706 107.475 262.744 108.544 262.819 109.613C262.837 109.875 263.269 109.875 263.25 109.613C263.156 108.544 263.137 107.456 263.175 106.388C263.175 106.275 263.081 106.163 262.969 106.181C260.662 106.481 258.356 106.594 256.031 106.556C255.731 106.538 255.731 106.95 256.012 106.969Z" fill="#161616"/>
<path d="M256.181 110.831C258.488 110.869 260.756 110.625 263.006 110.119C263.269 110.063 263.156 109.65 262.894 109.706C260.681 110.194 258.45 110.438 256.181 110.4C255.919 110.4 255.919 110.813 256.181 110.831Z" fill="#161616"/>
<path d="M257.063 108.281C258.488 108.375 259.894 108.3 261.319 108.075C261.582 108.038 261.469 107.625 261.207 107.663C259.838 107.888 258.451 107.944 257.063 107.85C256.801 107.831 256.801 108.263 257.063 108.281Z" fill="#161616"/>
<path d="M257.963 109.463C259.444 109.425 260.869 109.144 262.275 108.638C262.519 108.544 262.425 108.131 262.163 108.225C260.813 108.731 259.406 108.994 257.963 109.05C257.7 109.031 257.682 109.463 257.963 109.463Z" fill="#161616"/>
<path opacity="0.2" d="M231.882 115.125C232.219 107.213 232.557 99.3004 232.876 91.3691C243.826 90.4879 254.794 89.6254 265.744 88.7441C265.501 96.2441 265.238 103.744 264.994 111.244C253.951 112.538 242.926 113.832 231.882 115.125Z" fill="#6D6C6C"/>
<path opacity="0.2" d="M261.62 83.625C261.676 85.8 261.563 88.3875 261.001 91.2563C259.613 98.3063 256.276 103.388 254.007 106.256C255.544 108.3 257.082 110.344 258.638 112.388C253.932 112.931 249.226 113.475 244.52 114.019C245.27 105.431 246.02 96.8437 246.77 88.275C246.526 87.15 246.263 86.025 246.02 84.9C251.213 84.45 256.426 84.0375 261.62 83.625Z" fill="#6D6C6C"/>
<path d="M248.569 59.1377C252.488 58.6127 257.157 67.6127 259.013 74.0814C261.15 81.5252 260.213 87.9564 259.444 91.3502C257.944 98.0064 254.832 102.694 252.882 105.225C253.182 106.219 253.875 108.919 252.732 111.881C251.044 116.213 246.469 118.294 246.113 117.9C246 117.769 246.225 117.225 248.007 115.181C247.632 115.575 244.932 118.256 241.894 117.619C241.369 117.506 240.713 117.375 240.338 116.85C239.457 115.575 240.919 112.688 244.032 109.481C240.638 110.325 239.738 110.1 239.569 109.725C239.138 108.825 242.607 106.275 243.863 105.338C245.719 103.969 247.388 103.031 248.532 102.45C251.738 95.7939 251.569 90.6002 251.288 88.1627C250.875 84.5627 249.525 80.6439 249.263 79.8939C248.513 77.7377 248.157 77.2502 246.657 73.3689C244.238 67.1439 244.238 66.0752 244.332 65.2502C244.669 62.7752 246.338 59.4377 248.569 59.1377Z" fill="white" stroke="#161616" stroke-width="2" stroke-miterlimit="10"/>
<path d="M240.413 116.325C242.494 115.144 244.313 113.625 245.831 111.787C246.057 111.506 245.663 111.112 245.438 111.394C243.956 113.194 242.175 114.694 240.131 115.856C239.813 116.006 240.094 116.494 240.413 116.325Z" fill="#161616"/>
<path d="M242.25 117.581C244.312 116.512 246.075 115.031 247.5 113.194C247.725 112.912 247.237 112.631 247.012 112.912C245.662 114.675 243.937 116.081 241.968 117.094C241.65 117.262 241.931 117.75 242.25 117.581Z" fill="#161616"/>
<path opacity="0.17" d="M246.994 60.038C243.263 63.2817 258.488 77.513 255.882 93.6755C254.101 104.757 246.713 111.994 246.713 111.994C244.651 114.057 240.769 116.588 241.238 117.469C241.576 118.107 243.919 117.525 244.763 117.263C246.357 116.775 247.463 115.95 248.082 115.407C247.144 116.457 246.076 117.75 246.301 118.013C246.619 118.35 249.282 116.963 250.951 115.013C253.838 111.638 253.426 106.95 253.144 105.038C253.819 104.157 254.701 102.919 255.601 101.344C256.426 99.938 258.807 95.5505 259.838 89.588C261.657 79.0317 257.926 70.7067 256.426 67.4442C255.076 64.538 252.788 59.7192 249.319 59.513C248.869 59.4567 247.726 59.4005 246.994 60.038Z" fill="#6D6C6C"/>
<path opacity="0.22" d="M259.631 89.2881C258.619 92.2318 257.419 95.3256 255.994 98.5693C254.981 100.876 253.95 103.032 252.9 105.076C252.375 106.763 251.381 109.294 249.412 111.901C247.35 114.638 245.081 116.307 243.562 117.263C243.994 117.282 244.519 117.244 245.1 117.094C246.562 116.757 247.538 115.951 248.025 115.463C247.463 116.176 246.881 116.869 246.319 117.582C246.769 117.507 247.481 117.376 248.269 117.019C252.394 115.163 253.256 110.119 253.312 109.782C253.462 108.863 253.556 107.288 252.994 105.338C254.344 103.744 256.05 101.363 257.419 98.1568C258.937 94.6318 259.444 91.4631 259.631 89.2881Z" fill="#6D6C6C"/>
<path d="M214.612 46.7999C211.593 50.2499 213.674 55.0687 213.956 55.7249C215.006 58.1624 217.724 61.6312 221.174 61.3499C223.687 61.1249 225.281 59.0062 225.674 58.4437C228.449 54.4499 227.531 46.8187 222.843 44.8499C220.256 43.7624 216.693 44.3999 214.612 46.7999Z" fill="#183B56"/>
<path d="M222.224 49.8748C222.356 51.3561 223.912 51.6748 224.962 54.1123C225.712 55.8748 225.712 57.5998 225.581 58.8373C226.799 58.9498 229.049 59.0061 231.599 58.0311C233.606 57.2623 235.012 56.1561 235.856 55.3873C235.462 54.5061 234.881 53.2123 234.187 51.6748C231.187 45.1311 230.699 44.5686 229.968 44.2873C227.043 43.1811 221.981 47.1186 222.224 49.8748Z" fill="white" stroke="#161616" stroke-width="2" stroke-miterlimit="10"/>
<path d="M211.425 30.5058C210.787 31.4058 210.393 32.512 210.337 37.2558C210.3 41.3058 210.525 44.9995 210.9 48.2808C211.743 47.7933 212.587 47.3058 213.431 46.8183C213.806 47.737 214.443 48.9933 215.531 50.212C217.687 52.6308 220.312 53.4558 221.475 53.7558C222.693 53.4558 225.731 52.5183 228.037 49.6495C229.556 47.737 230.043 45.8433 230.156 45.412C230.85 42.5808 230.175 40.237 229.818 39.262C230.268 39.0558 230.962 38.662 231.487 37.9495C232.593 36.4495 232.893 33.7683 231.525 32.8683C230.512 32.1933 228.712 32.587 227.362 33.9745C227.062 33.2808 226.593 32.3245 225.843 31.3308C225.656 31.087 224.25 29.2495 222.525 28.2933C219.206 26.3808 213.712 27.2808 211.425 30.5058Z" fill="white" stroke="#161616" stroke-width="2" stroke-miterlimit="10"/>
<path d="M210.056 36.3935C209.306 36.2623 207.918 35.8685 207.262 34.7248C206.137 32.7935 207.787 29.8498 208.2 29.1185C208.537 28.4998 209.437 27.0185 213.262 24.3373C216.168 22.2936 217.631 21.2811 219.206 20.7936C224.793 19.1248 229.912 22.0123 230.868 22.5561C232.875 23.6998 234.15 24.9373 235.162 25.9123C236.718 27.4123 238.462 29.1373 240.412 31.1248C245.418 37.6123 247.181 43.5373 247.894 47.081C248.7 51.0935 249.525 55.181 247.125 57.581C244.725 59.981 240.337 59.4935 237.656 58.3498C233.925 56.756 232.331 53.381 231.093 50.7748C228.993 46.3123 228.862 42.0373 229.068 39.2623C230.943 38.7185 231.9 36.956 231.468 35.6248C231.131 34.5748 229.875 33.5248 228.581 33.8998C227.587 34.181 226.875 35.2123 226.931 36.4123C226.031 36.3935 223.631 36.1873 221.343 34.4623C219.675 33.206 218.831 31.706 218.437 30.881C217.406 31.0123 215.343 31.3873 213.262 32.8873C211.518 34.0873 210.543 35.531 210.056 36.3935Z" fill="#183B56"/>
<path opacity="0.24" d="M222.469 39.9746C224.719 42.6934 225.432 45.5621 225.432 45.5621C226.163 48.7871 225.113 51.5246 224.644 52.6309C225.825 51.7309 227.025 50.8309 228.207 49.9309C229.032 52.6684 229.838 55.3871 230.663 58.1246C231.282 58.0684 232.557 57.8434 233.832 56.9434C234.807 56.2496 235.388 55.4434 235.707 54.9371C234.188 53.5309 231.282 50.4184 229.95 45.5246C229.313 43.1621 229.219 41.0621 229.294 39.4871C231 38.7934 231.882 37.1246 231.525 35.7371C231.263 34.7246 230.232 33.5059 228.9 33.6934C227.794 33.8621 226.875 34.9496 226.894 36.2809C226.05 36.2809 224.063 36.1871 221.982 34.9309C219.825 33.6371 218.794 31.8371 218.4 31.0684C218.494 34.6684 219.6 36.7496 220.594 37.9871C221.25 38.8309 221.55 38.8684 222.469 39.9746Z" fill="#6D6C6C"/>
<path d="M213.75 39.1874C213.543 39.9374 213.562 40.7061 213.843 41.4374C213.937 41.6999 214.293 41.7186 214.387 41.4374C214.612 40.7624 214.612 40.0499 214.406 39.3749C214.293 39.0374 213.75 39.1686 213.862 39.5249C214.05 40.1249 214.031 40.7061 213.843 41.3061C214.031 41.3061 214.2 41.3061 214.387 41.3061C214.143 40.6686 214.106 40.0124 214.293 39.3561C214.387 38.9811 213.862 38.8311 213.75 39.1874Z" fill="#161616"/>
<path d="M213.075 38.0246C213.562 37.7246 214.162 37.7809 214.575 38.1746C214.837 38.4183 215.231 38.0246 214.968 37.7808C214.387 37.2184 213.487 37.1059 212.793 37.5371C212.493 37.7246 212.775 38.2121 213.075 38.0246Z" fill="#161616"/>
<path d="M215.1 42.7871C215.456 42.7871 215.456 42.2246 215.1 42.2246C214.725 42.2246 214.725 42.7871 215.1 42.7871Z" fill="#161616"/>
<path d="M216.338 41.1563C216.338 41.175 216.338 41.1938 216.338 41.2125C216.338 41.3625 216.469 41.4938 216.619 41.4938C216.769 41.4938 216.9 41.3625 216.9 41.2125C216.9 41.1938 216.9 41.175 216.9 41.1563C216.9 41.0063 216.769 40.875 216.619 40.875C216.469 40.875 216.338 40.9875 216.338 41.1563Z" fill="#161616"/>
<path d="M216.393 42.5625C216.749 42.5625 216.749 42 216.393 42C216.037 42 216.037 42.5625 216.393 42.5625Z" fill="#161616"/>
<path d="M208.668 40.0499C208.443 40.7999 208.462 41.5687 208.725 42.2999C208.818 42.5624 209.175 42.5624 209.269 42.2999C209.494 41.6249 209.512 40.9124 209.325 40.2374C209.231 39.8811 208.687 40.0311 208.781 40.3874C208.95 40.9874 208.931 41.5687 208.725 42.1499C208.912 42.1499 209.081 42.1499 209.269 42.1499C209.043 41.5124 209.006 40.8561 209.212 40.1999C209.306 39.8436 208.762 39.6936 208.668 40.0499Z" fill="#161616"/>
<path d="M208.35 38.6437C208.744 38.4375 209.288 38.5312 209.55 38.9062C209.756 39.1875 210.244 38.9062 210.038 38.625C209.569 38.0062 208.763 37.8 208.069 38.1562C207.75 38.325 208.031 38.8125 208.35 38.6437Z" fill="#161616"/>
<path d="M214.669 48.8437C216.113 48.5812 217.369 47.8124 218.307 46.6686C218.475 46.4624 218.175 46.1624 218.007 46.3686C217.125 47.4561 215.944 48.1687 214.557 48.4312C214.294 48.4874 214.407 48.8999 214.669 48.8437Z" fill="#161616"/>
<path d="M217.594 46.4059C217.931 46.5184 218.213 46.6872 218.456 46.9309C218.644 47.1184 218.944 46.8184 218.756 46.6309C218.456 46.3309 218.1 46.1247 217.706 45.9934C217.444 45.9184 217.331 46.3309 217.594 46.4059Z" fill="#161616"/>
<path opacity="0.45" d="M229.275 21.8809C231.657 25.1809 234.713 29.8496 237.619 35.8121C240.694 42.1121 242.944 46.8559 241.2 48.7309C238.894 51.2246 230.925 47.2684 229.65 46.6121C229.913 48.3184 230.569 51.0371 232.5 53.7559C233.475 55.1246 235.182 57.5434 238.332 58.6684C240.225 59.3434 241.913 59.3059 242.569 59.2496C243.45 59.1934 244.463 59.1184 245.569 58.5184C245.569 58.5184 247.013 57.7496 247.988 56.1746C249.469 53.7746 248.682 50.5309 247.632 46.4621C246.375 41.5871 244.688 38.3434 243.038 35.1371C242.625 34.3496 242.138 33.4309 241.35 32.3621C240.563 31.2746 239.982 30.6934 237.544 28.3496C233.925 24.8434 233.363 24.3371 232.275 23.6059C231.075 22.7809 230.007 22.2371 229.275 21.8809Z" fill="#183B56"/>
<path opacity="0.43" d="M224.756 53.7744C224.906 54.2057 225.244 55.4244 224.756 56.7744C224.025 58.7807 222 59.4557 221.681 59.5494C219.375 60.2994 216.469 59.1182 214.519 56.5494C214.781 57.2244 215.362 58.4244 216.562 59.4744C217.162 59.9994 218.794 61.4057 221.1 61.2369C221.494 61.1994 224.025 61.0119 225.187 58.8182C226.031 57.2619 225.844 55.3119 224.756 53.7744Z" fill="#371B9B"/>
</svg>
