<svg width="216" height="200" viewBox="0 0 216 200" fill="none" xmlns="http://www.w3.org/2000/svg">
<g clip-path="url(#clip0_67_5569)">
<path d="M2.47402 116.939C4.45037 133.469 10.086 149.35 18.971 163.429C19.1819 163.757 19.7052 163.453 19.4983 163.12C10.6624 149.138 5.05446 133.362 3.08246 116.939C3.03784 116.558 2.4294 116.534 2.47402 116.939Z" fill="#E8E8E8"/>
<path d="M4.45007 115.965C8.96879 111.065 15.7509 116.31 20.8213 117.081C26.6502 117.965 32.0573 114.809 36.722 111.727C42.4008 107.983 47.7795 104.811 54.7888 104.77C61.3437 104.734 67.7324 106.729 73.9142 108.701C74.2874 108.822 74.4497 108.234 74.0765 108.117C67.8419 106.125 61.4005 104.125 54.7888 104.162C48.177 104.198 42.9565 106.859 37.6022 110.412C31.4894 114.469 25.1291 118.249 17.6371 115.592C13.3658 114.079 7.76001 111.479 4.0201 115.536C3.75238 115.824 4.18235 116.253 4.45007 115.965Z" fill="#E8E8E8"/>
<path d="M20.1234 165.197C42.5466 171.054 67.2414 165.485 84.9877 150.594C85.2878 150.343 84.8538 149.913 84.5577 150.164C66.9777 164.921 42.4857 170.446 20.2856 164.621C20.2076 164.6 20.1243 164.61 20.0539 164.65C19.9835 164.69 19.9319 164.756 19.9104 164.834C19.8889 164.912 19.8992 164.995 19.9392 165.066C19.9791 165.136 20.0454 165.188 20.1234 165.209V165.197Z" fill="#E8E8E8"/>
<path d="M73.8572 108.271C79.7429 121.795 85.7219 135.854 85.296 150.898C85.296 151.304 85.8922 151.304 85.9044 150.898C86.31 135.744 80.3108 121.588 74.3845 107.963C74.2263 107.606 73.703 107.914 73.8572 108.271Z" fill="#E8E8E8"/>
<path d="M40.3761 149.337C42.9671 141.232 48.3634 134.317 55.5953 129.834C55.928 129.627 55.6197 129.1 55.2871 129.307C47.9203 133.877 42.4248 140.924 39.7879 149.183C39.6703 149.556 40.2585 149.714 40.3761 149.341V149.337Z" fill="#E8E8E8"/>
<path d="M37.9713 111.634C37.1008 107.006 36.7606 102.295 36.9572 97.5906C36.9572 97.185 36.365 97.185 36.3488 97.5906C36.1555 102.347 36.5025 107.11 37.3831 111.788C37.4561 112.193 38.0443 112.011 37.9713 111.625V111.634Z" fill="#E8E8E8"/>
<path d="M37.0103 97.3838C45.6868 90.2122 58.3221 89.7052 69.0551 89.9973C80.8184 90.3096 92.5573 92.8164 103.006 98.3735C103.351 98.556 103.659 98.0328 103.315 97.8462C92.5776 92.1106 80.4979 89.5997 68.3574 89.3604C57.6204 89.1535 45.2365 89.7985 36.5804 96.9457C36.2802 97.1931 36.7102 97.6231 37.0103 97.3757V97.3838Z" fill="#E8E8E8"/>
<path d="M102.807 98.4707C105.646 113.073 106.329 128.013 104.835 142.814C104.798 143.22 105.407 143.2 105.443 142.814C106.947 127.962 106.264 112.97 103.415 98.3165C103.342 97.9312 102.754 98.0934 102.831 98.4788L102.807 98.4707Z" fill="#E8E8E8"/>
<path d="M86.8533 146.059C92.7091 146.7 98.6164 145.451 103.711 142.494C103.746 142.474 103.776 142.447 103.8 142.415C103.825 142.383 103.842 142.346 103.853 142.308C103.863 142.269 103.865 142.228 103.86 142.189C103.854 142.149 103.841 142.111 103.821 142.076C103.801 142.041 103.774 142.011 103.742 141.987C103.71 141.963 103.673 141.945 103.635 141.935C103.596 141.925 103.555 141.922 103.516 141.928C103.476 141.933 103.438 141.946 103.403 141.967C98.4014 144.869 92.6006 146.09 86.8533 145.451C86.4477 145.41 86.468 146.019 86.8533 146.059Z" fill="#E8E8E8"/>
<path d="M80.4976 117.803C81.0974 115.641 82.1315 113.624 83.5367 111.875C84.942 110.126 86.689 108.681 88.671 107.63C89.0158 107.443 88.7116 106.92 88.3628 107.103C86.3119 108.195 84.5049 109.693 83.0516 111.506C81.5984 113.32 80.5293 115.409 79.9094 117.649C79.8879 117.727 79.8983 117.81 79.9382 117.881C79.9781 117.951 80.0444 118.003 80.1224 118.024C80.2004 118.046 80.2837 118.035 80.3541 117.995C80.4244 117.955 80.4761 117.889 80.4976 117.811V117.803Z" fill="#E8E8E8"/>
<path d="M118.152 93.0313C115.391 110.495 115.737 128.31 119.174 145.654C119.247 146.059 119.835 145.873 119.758 145.491C116.345 128.26 116.001 110.561 118.74 93.2097C118.801 92.8244 118.213 92.6621 118.152 93.0475V93.0313Z" fill="#E8E8E8"/>
<path d="M119.069 92.9947C135.738 88.4372 153.318 88.3812 170.016 92.8325C170.055 92.8429 170.095 92.8456 170.135 92.8404C170.174 92.8352 170.212 92.8223 170.247 92.8023C170.282 92.7823 170.312 92.7557 170.336 92.724C170.361 92.6923 170.379 92.6561 170.389 92.6175C170.4 92.5789 170.402 92.5386 170.397 92.499C170.392 92.4593 170.379 92.4211 170.359 92.3864C170.339 92.3517 170.312 92.3214 170.281 92.297C170.249 92.2726 170.213 92.2547 170.174 92.2443C153.371 87.7665 135.681 87.8225 118.907 92.4066C118.829 92.4281 118.762 92.4797 118.722 92.5501C118.682 92.6204 118.672 92.7038 118.694 92.7818C118.715 92.8598 118.767 92.926 118.837 92.966C118.907 93.0059 118.991 93.0163 119.069 92.9947Z" fill="#E8E8E8"/>
<path d="M120.249 147.252C130.387 149.466 140.758 150.428 151.13 150.116C156.064 149.961 160.985 149.516 165.866 148.781C168.539 148.376 171.237 147.941 173.869 147.313C174.924 147.057 175.942 146.745 176.031 145.544C176.06 145.139 175.451 145.139 175.423 145.544C175.309 147.098 170.393 147.406 169.144 147.629C166.629 148.081 164.102 148.453 161.562 148.745C157.07 149.26 152.553 149.531 148.031 149.556C138.751 149.607 129.494 148.633 120.428 146.652C120.042 146.57 119.88 147.155 120.265 147.24L120.249 147.252Z" fill="#E8E8E8"/>
<path d="M179.649 92.796C182.31 110.028 181.196 127.633 176.384 144.392C176.37 144.467 176.385 144.544 176.425 144.609C176.465 144.674 176.528 144.721 176.602 144.741C176.675 144.762 176.754 144.754 176.821 144.719C176.889 144.685 176.942 144.626 176.968 144.554C181.807 127.689 182.923 109.973 180.238 92.6337C180.177 92.2484 179.593 92.4147 179.649 92.796Z" fill="#E8E8E8"/>
<path d="M134.702 109.788C143.569 112.457 153.13 115.515 158.468 123.673C158.683 124.001 159.21 123.697 158.995 123.368C153.56 115.061 143.898 111.922 134.86 109.2C134.487 109.086 134.325 109.674 134.702 109.788Z" fill="#E8E8E8"/>
<path d="M182.53 105.784C194.952 107.37 206.396 113.348 214.794 122.638C215.057 122.93 215.487 122.496 215.224 122.208C206.712 112.804 195.114 106.76 182.53 105.172C182.124 105.123 182.124 105.731 182.53 105.78V105.784Z" fill="#E8E8E8"/>
<path d="M148.108 152.002C157.097 164.227 171.355 170.608 185.341 175.305C185.714 175.427 185.872 174.843 185.503 174.717C171.683 170.077 157.515 163.765 148.635 151.697C148.404 151.385 147.877 151.697 148.108 152.002Z" fill="#E8E8E8"/>
<path d="M214.566 124.241C212.806 142.959 203.89 160.277 189.677 172.584C189.381 172.839 189.811 173.269 190.107 173.014C204.431 160.591 213.408 143.119 215.167 124.241C215.203 123.835 214.595 123.835 214.558 124.241H214.566Z" fill="#E8E8E8"/>
<path d="M179.471 143.788C183.842 140.081 189.304 137.904 195.027 137.586C195.432 137.561 195.432 136.953 195.027 136.977C189.145 137.304 183.531 139.545 179.041 143.358C178.741 143.609 179.175 144.039 179.471 143.788Z" fill="#E8E8E8"/>
<path d="M5.99927 34.1419C13.1911 40.5509 21.0928 46.3108 30.0491 49.9858C40.1168 54.1192 50.8417 54.61 61.5828 53.9853C73.1432 53.312 84.5942 51.5515 96.0978 50.3063C107.339 49.0575 118.659 48.6588 129.96 49.1137C143.002 49.6915 155.964 51.4565 168.685 54.3869C169.067 54.4761 169.229 53.888 168.848 53.8028C147.329 48.8428 125.174 47.231 103.164 49.0245C91.8914 49.9534 80.7042 51.7097 69.4439 52.7684C58.3661 53.815 46.8178 54.5289 35.9916 51.4217C24.7921 48.201 15.0367 41.4067 6.42924 33.6998C6.14124 33.4402 5.70721 33.8701 5.99927 34.1297V34.1419Z" fill="#E8E8E8"/>
<path d="M57.5634 30.2965C95.575 45.8078 135.039 24.2769 173.31 21.9364C184.497 21.255 195.79 22.1514 206.454 25.7534C206.827 25.8791 206.985 25.295 206.616 25.1693C167.765 12.035 129.003 34.2554 90.1233 35.1194C79.078 35.3668 68.0003 33.9025 57.7257 29.7123C57.3647 29.5623 57.2065 30.1504 57.5634 30.2965Z" fill="#E8E8E8"/>
<path d="M5.29416 2.9935C24.3818 14.7031 47.2414 18.6244 69.1403 13.9455C69.5216 13.8644 69.3594 13.2762 68.9781 13.3573C47.238 17.9969 24.5463 14.0973 5.60244 2.46618C5.26576 2.25931 4.96154 2.78663 5.29416 2.9935Z" fill="#E8E8E8"/>
<path d="M92.2974 164.211C89.2349 166.32 89.3971 170.077 89.4864 173.419C89.5894 178.337 89.951 183.247 90.5694 188.127C90.6181 188.508 91.2306 188.533 91.1778 188.127C90.6708 184.302 90.3666 180.461 90.2043 176.607C90.0461 172.863 89.0199 167.205 92.6057 164.734C92.9261 164.515 92.6057 163.988 92.2974 164.211Z" fill="#E8E8E8"/>
<path d="M99.2005 164.471C103.561 166.073 103.435 171.537 103.772 175.37L104.835 187.434C104.867 187.839 105.476 187.839 105.443 187.434C104.985 182.16 104.632 176.887 104.064 171.614C103.707 168.393 102.689 165.075 99.3789 163.858C99.0098 163.724 98.8516 164.313 99.2167 164.446L99.2005 164.471Z" fill="#E8E8E8"/>
<path d="M91.7497 190.042C94.1561 191.252 96.89 191.651 99.5419 191.177C101.063 190.898 104.58 190.086 104.706 188.123C104.73 187.717 104.121 187.717 104.097 188.123C103.975 189.993 99.2295 190.691 97.9153 190.76C95.8885 190.858 93.8707 190.43 92.058 189.518C91.7051 189.348 91.3968 189.871 91.7497 190.042Z" fill="#E8E8E8"/>
<path d="M93.7496 164.122C93.7281 161.579 93.5683 159.038 93.2709 156.512C93.2263 156.131 92.6179 156.107 92.6625 156.512C92.9598 159.038 93.1196 161.579 93.1411 164.122C93.1411 164.203 93.1732 164.28 93.2302 164.337C93.2873 164.394 93.3647 164.426 93.4454 164.426C93.526 164.426 93.6034 164.394 93.6605 164.337C93.7175 164.28 93.7496 164.203 93.7496 164.122Z" fill="#E8E8E8"/>
<path d="M94.3132 155.701C95.4304 155.526 96.5633 155.471 97.6922 155.539C98.0978 155.559 98.0978 154.951 97.6922 154.93C96.5086 154.863 95.3213 154.924 94.151 155.113C93.7454 155.174 93.9279 155.762 94.3132 155.701Z" fill="#E8E8E8"/>
<path d="M97.8382 155.348C97.7927 158.191 97.9011 161.035 98.1627 163.866C98.1992 164.272 98.8077 164.272 98.7712 163.866C98.5095 161.035 98.4012 158.191 98.4467 155.348C98.4467 155.267 98.4146 155.19 98.3576 155.133C98.3005 155.076 98.2231 155.044 98.1424 155.044C98.0618 155.044 97.9844 155.076 97.9273 155.133C97.8703 155.19 97.8382 155.267 97.8382 155.348Z" fill="#E8E8E8"/>
<path d="M93.3926 156.963C93.9718 157.264 94.614 157.424 95.2668 157.429C95.9195 157.435 96.5644 157.286 97.1487 156.995C97.5016 156.825 97.1934 156.301 96.8405 156.472C96.3506 156.711 95.8115 156.833 95.2663 156.826C94.7211 156.82 94.185 156.686 93.7009 156.435C93.352 156.261 93.0438 156.784 93.3926 156.963Z" fill="#E8E8E8"/>
<path d="M93.3233 158.784C93.8894 159.314 94.6099 159.651 95.3801 159.744C96.1503 159.837 96.9302 159.683 97.6067 159.303C97.9515 159.116 97.6432 158.589 97.3025 158.78C96.742 159.094 96.0963 159.222 95.4585 159.145C94.8206 159.069 94.2236 158.792 93.7532 158.354C93.4693 158.09 93.0353 158.516 93.3233 158.784Z" fill="#E8E8E8"/>
<path d="M89.6968 174.048C91.8038 175.536 94.3948 176.174 96.9517 175.834C99.5087 175.494 101.843 174.201 103.488 172.214C103.74 171.918 103.314 171.484 103.058 171.784C101.506 173.673 99.2951 174.903 96.8717 175.225C94.4482 175.548 91.9927 174.938 90.001 173.521C89.6765 173.297 89.3723 173.825 89.6927 174.048H89.6968Z" fill="#E8E8E8"/>
<path d="M89.8884 182.201C91.9866 183.656 94.5203 184.348 97.0669 184.161C99.6136 183.975 102.019 182.921 103.883 181.175C104.171 180.907 103.741 180.477 103.453 180.745C101.685 182.397 99.4029 183.39 96.9894 183.56C94.5758 183.729 92.1776 183.063 90.1967 181.674C89.8762 181.451 89.572 181.978 89.8884 182.201Z" fill="#E8E8E8"/>
<path d="M131.769 193.984C136.203 198.548 142.721 200.069 148.895 200C154.574 199.939 160.549 198.377 164.078 193.627C164.313 193.311 163.786 193.007 163.554 193.319C160.038 198.041 153.909 199.436 148.303 199.404C142.454 199.355 136.389 197.878 132.199 193.567C131.927 193.283 131.498 193.713 131.769 193.997V193.984Z" fill="#E8E8E8"/>
<path d="M132.215 194.256C128.905 190.257 135.521 187.267 138.356 186.355C141.512 185.376 144.788 184.838 148.092 184.756C154.46 184.529 161.883 186.505 164.033 193.275C164.15 193.648 164.739 193.49 164.621 193.112C162.005 184.915 152.578 183.572 145.171 184.355C141.18 184.761 136.588 185.633 133.266 188.058C131.132 189.616 129.931 192.443 131.785 194.686C132.037 194.991 132.467 194.557 132.219 194.256H132.215Z" fill="#E8E8E8"/>
<path d="M136.028 192.67C142.313 190.764 148.65 189.051 155.04 187.531C155.421 187.442 155.259 186.858 154.878 186.947C148.491 188.464 142.153 190.176 135.866 192.082C135.493 192.196 135.651 192.784 136.028 192.67Z" fill="#E8E8E8"/>
<path d="M136.251 193.307C142.887 194.586 149.616 195.322 156.371 195.51C156.451 195.51 156.529 195.478 156.586 195.421C156.643 195.363 156.675 195.286 156.675 195.205C156.675 195.125 156.643 195.047 156.586 194.99C156.529 194.933 156.451 194.901 156.371 194.901C149.67 194.716 142.996 193.986 136.414 192.719C136.032 192.646 135.866 193.234 136.251 193.307Z" fill="#E8E8E8"/>
<path d="M154.764 187.353L155.689 191.729C155.904 192.743 155.929 194.35 156.537 195.202C156.561 195.24 156.594 195.274 156.632 195.298C156.671 195.323 156.714 195.339 156.76 195.345C156.805 195.351 156.852 195.346 156.895 195.332C156.939 195.318 156.978 195.294 157.012 195.262L157.077 195.185C157.133 195.128 157.164 195.051 157.164 194.97C157.164 194.89 157.133 194.813 157.077 194.755L157.024 194.703C156.744 194.431 156.314 194.861 156.594 195.133V194.832L157.073 194.893C156.452 194.021 156.383 192.005 156.164 190.983L155.353 187.19C155.272 186.809 154.683 186.971 154.764 187.353Z" fill="#E8E8E8"/>
<path d="M155.032 187.77C155.296 186.987 155.815 186.89 156.594 187.486L156.732 188.111C157.024 188.715 157.036 189.656 157.137 190.318C157.379 191.876 157.541 193.445 157.624 195.019C157.648 195.425 158.257 195.425 158.232 195.019C158.147 193.498 158.005 191.981 157.774 190.472C157.616 189.425 157.604 187.803 157.052 186.91C156.277 185.653 155.093 186.505 154.501 187.466C154.298 187.799 154.825 188.107 155.028 187.77H155.032Z" fill="#E8E8E8"/>
<path d="M157.441 195.27C157.417 195.128 157.615 195.043 157.721 195.076C158.098 195.193 158.256 194.605 157.883 194.492C157.748 194.451 157.605 194.445 157.468 194.477C157.331 194.508 157.204 194.574 157.1 194.669C156.996 194.764 156.919 194.884 156.875 195.018C156.832 195.152 156.824 195.295 156.853 195.433C156.875 195.51 156.926 195.576 156.996 195.615C157.066 195.655 157.149 195.665 157.226 195.644C157.303 195.621 157.368 195.569 157.408 195.5C157.448 195.431 157.46 195.348 157.441 195.27Z" fill="#E8E8E8"/>
<path d="M148.566 192.09C148.136 191.685 148.647 191.206 149.049 191.1C149.45 190.995 150.185 190.967 150.428 191.315C150.671 191.664 150.367 192.127 150.055 192.281C149.536 192.545 148.879 192.261 148.412 192.017C148.063 191.835 147.755 192.362 148.104 192.54C148.85 192.946 149.893 193.262 150.615 192.63C151.134 192.171 151.337 191.291 150.765 190.788C150.193 190.285 149.053 190.33 148.432 190.699C148.275 190.783 148.139 190.902 148.035 191.047C147.931 191.193 147.862 191.36 147.833 191.536C147.805 191.712 147.817 191.893 147.87 192.064C147.922 192.234 148.013 192.391 148.136 192.52C148.424 192.784 148.854 192.354 148.566 192.09Z" fill="#E8E8E8"/>
<path d="M141.837 191.222C142.344 191.831 143.459 192.35 144.084 191.571C144.49 191.064 144.38 190.082 143.646 189.949C143.261 189.884 143.098 190.472 143.484 190.537C143.792 190.589 143.759 191.052 143.569 191.23C143.163 191.604 142.522 191.088 142.267 190.784C142.011 190.48 141.589 190.914 141.837 191.214V191.222Z" fill="#E8E8E8"/>
<path d="M152.294 194.487L152.327 194.021L152.176 194.285C152.359 194.135 152.568 194.021 152.793 193.948C152.959 193.911 153.316 193.948 153.255 194.22C153.241 194.295 153.256 194.372 153.296 194.437C153.337 194.501 153.4 194.549 153.473 194.569C153.546 194.589 153.625 194.581 153.693 194.547C153.761 194.512 153.813 194.453 153.84 194.382C153.866 194.249 153.861 194.111 153.826 193.98C153.791 193.848 153.726 193.727 153.637 193.624C153.548 193.522 153.436 193.441 153.311 193.388C153.186 193.335 153.05 193.312 152.915 193.319C152.6 193.344 152.298 193.455 152.043 193.64C151.921 193.717 151.775 193.794 151.73 193.94C151.695 194.12 151.68 194.304 151.686 194.487C151.661 194.893 152.27 194.893 152.294 194.487Z" fill="#E8E8E8"/>
<path d="M151.92 188.155C152.261 188.886 152.801 189.733 153.738 189.612C154.675 189.49 154.744 188.472 154.626 187.717C154.565 187.332 153.977 187.494 154.038 187.88C154.115 188.362 154.111 189.174 153.389 188.987C152.886 188.857 152.647 188.273 152.448 187.847C152.281 187.494 151.758 187.803 151.92 188.155Z" fill="#E8E8E8"/>
<path d="M4.40531 182.878C-0.0201151 183.284 -1.12343 188.415 1.16027 191.672C4.40531 196.325 11.7067 196.601 16.8054 196.345C21.9042 196.09 29.311 194.942 32.8156 190.699C34.1583 189.076 33.9676 186.975 32.7021 185.353C31.1323 183.325 28.2685 182.603 25.928 181.986C18.804 180.147 11.3081 180.333 4.28362 182.521C3.91044 182.639 4.06864 183.227 4.44587 183.11C10.3086 181.284 16.5193 180.867 22.5735 181.893C25.1857 182.343 28.232 182.931 30.5279 184.327C32.3776 185.45 33.9879 187.709 32.6818 189.892C31.8462 191.287 30.0371 192.265 28.6255 192.971C23.2468 195.656 16.6067 196.26 10.7129 195.538C7.41103 195.133 3.73196 194.248 1.6957 191.376C-0.291888 188.578 0.401741 183.88 4.42154 183.499C4.82717 183.463 4.82717 182.85 4.42154 182.891L4.40531 182.878Z" fill="#E8E8E8"/>
<path d="M7.93057 187.296C12.1435 189.78 16.609 191.809 21.2515 193.348C21.6206 193.473 21.7828 192.885 21.4097 192.764C16.819 191.238 12.4038 189.229 8.23885 186.768C8.20422 186.748 8.16595 186.735 8.12621 186.729C8.08648 186.724 8.04606 186.726 8.00726 186.737C7.96847 186.747 7.93206 186.764 7.9001 186.789C7.86815 186.813 7.84129 186.843 7.82105 186.878C7.80081 186.912 7.78758 186.951 7.78213 186.99C7.77668 187.03 7.77911 187.071 7.78928 187.109C7.79945 187.148 7.81716 187.185 7.8414 187.217C7.86564 187.249 7.89594 187.275 7.93057 187.296Z" fill="#E8E8E8"/>
<path d="M7.55325 186.809L24.7439 185.093C25.1495 185.057 25.1495 184.444 24.7439 184.485L7.55325 186.217C7.14762 186.257 7.14762 186.866 7.55325 186.825V186.809Z" fill="#E8E8E8"/>
<path d="M21.9001 193.047C21.9149 192.892 21.9852 192.746 22.0981 192.638C22.211 192.53 22.3591 192.466 22.5153 192.457C22.6715 192.449 22.8256 192.497 22.9494 192.593C23.0732 192.688 23.1586 192.825 23.19 192.978C23.2115 193.056 23.2631 193.123 23.3335 193.163C23.4038 193.203 23.4872 193.213 23.5652 193.191C23.6432 193.17 23.7094 193.118 23.7494 193.048C23.7893 192.978 23.7996 192.894 23.7781 192.816C23.7136 192.515 23.5409 192.249 23.2929 192.066C23.0449 191.884 22.7386 191.799 22.4322 191.828C22.1258 191.856 21.8405 191.996 21.6303 192.221C21.4201 192.446 21.2996 192.74 21.2916 193.047C21.2551 193.453 21.8636 193.453 21.9001 193.047Z" fill="#E8E8E8"/>
<path d="M21.754 192.419C22.8005 189.936 23.9025 187.48 25.0599 185.048C25.2262 184.696 24.703 184.387 24.5366 184.74C23.3522 187.22 22.23 189.725 21.1699 192.257C21.0158 192.618 21.608 192.772 21.754 192.419Z" fill="#E8E8E8"/>
<path d="M25.2907 185.093C25.384 184.931 25.6274 185.012 25.7369 185.117C25.9095 185.345 26.0137 185.616 26.0371 185.9C26.1142 186.282 26.7023 186.119 26.6212 185.738C26.5239 185.264 26.3697 184.724 25.8951 184.497C25.7047 184.395 25.4828 184.367 25.2733 184.421C25.0637 184.474 24.8818 184.604 24.7634 184.785C24.7432 184.819 24.73 184.858 24.7245 184.898C24.7191 184.937 24.7215 184.978 24.7317 185.016C24.7522 185.095 24.803 185.162 24.873 185.203C24.9429 185.244 25.0262 185.255 25.1045 185.234C25.1829 185.214 25.2499 185.163 25.2907 185.093Z" fill="#E8E8E8"/>
<path d="M26.0213 185.722C25.2479 188.156 24.4163 190.58 23.5267 192.995C23.3887 193.36 23.9769 193.518 24.1148 193.157C25.0018 190.753 25.8333 188.329 26.6094 185.884C26.7271 185.511 26.1389 185.349 26.0213 185.722Z" fill="#E8E8E8"/>
<path d="M11.8934 186.326C11.9599 186.693 12.1652 187.021 12.4669 187.241C12.7685 187.461 13.1432 187.556 13.5133 187.507C13.8833 187.458 14.2203 187.268 14.4542 186.978C14.6881 186.687 14.8009 186.317 14.7694 185.945C14.7491 185.539 14.1406 185.539 14.1609 185.945C14.1786 186.162 14.112 186.377 13.9752 186.547C13.8383 186.716 13.6415 186.826 13.4256 186.854C13.2097 186.882 12.9913 186.826 12.8155 186.698C12.6398 186.569 12.5202 186.378 12.4816 186.164C12.3964 185.783 11.8123 185.945 11.8934 186.326Z" fill="#E8E8E8"/>
<path d="M14.4572 190.293C14.4601 190.193 14.4842 190.095 14.5278 190.006C14.5715 189.916 14.6337 189.836 14.7104 189.772C14.787 189.708 14.8765 189.661 14.9727 189.634C15.0689 189.607 15.1697 189.601 15.2685 189.616C15.4371 189.667 15.5817 189.777 15.6761 189.926C15.7706 190.075 15.8088 190.253 15.7836 190.427C15.735 190.833 16.3475 190.813 16.3921 190.427C16.4116 190.255 16.3958 190.08 16.3455 189.914C16.2953 189.748 16.2118 189.594 16.1 189.461C15.9882 189.328 15.8506 189.219 15.6954 189.142C15.5403 189.064 15.3709 189.018 15.1976 189.008C15.0243 188.998 14.8508 189.023 14.6876 189.082C14.5243 189.141 14.3749 189.233 14.2483 189.352C14.1217 189.47 14.0206 189.614 13.9512 189.773C13.8818 189.932 13.8456 190.104 13.8447 190.277C13.8447 190.358 13.8768 190.435 13.9338 190.492C13.9909 190.549 14.0683 190.581 14.1489 190.581C14.2296 190.581 14.307 190.549 14.3641 190.492C14.4211 190.435 14.4532 190.358 14.4532 190.277L14.4572 190.293Z" fill="#E8E8E8"/>
<path d="M19.4624 187.507C19.3888 187.447 19.3383 187.364 19.3196 187.271C19.3009 187.178 19.3152 187.082 19.3601 186.999C19.4049 186.915 19.4775 186.85 19.5652 186.815C19.6529 186.779 19.7503 186.776 19.8404 186.805C19.9306 186.833 20.0078 186.893 20.0588 186.972C20.1099 187.052 20.1314 187.147 20.1198 187.241C20.1081 187.335 20.064 187.422 19.9951 187.487C19.9261 187.551 19.8367 187.59 19.7423 187.596C19.361 187.673 19.5233 188.257 19.9045 188.18C20.1404 188.126 20.3513 187.994 20.5035 187.806C20.6557 187.617 20.7404 187.384 20.7442 187.142C20.7413 186.905 20.6545 186.677 20.4993 186.498C20.3441 186.319 20.1305 186.2 19.8964 186.164C18.785 185.965 18.3064 187.381 19.1541 188.03C19.4665 188.269 19.7707 187.738 19.4624 187.507Z" fill="#E8E8E8"/>
<path d="M106.864 159.372C106.278 162.419 106.573 165.569 107.715 168.454C107.857 168.815 108.446 168.657 108.304 168.292C107.19 165.512 106.894 162.472 107.452 159.53C107.521 159.149 106.937 158.987 106.864 159.372Z" fill="#E8E8E8"/>
<path d="M106.503 167.213C104.6 168.681 103.992 170.977 104.288 173.297C104.56 175.407 105.16 178.007 107.225 178.976C112.498 181.455 119.114 181.077 124.427 178.976C124.784 178.834 124.63 178.246 124.265 178.392C119.98 180.112 115.273 180.486 110.77 179.463C109.865 179.251 108.974 178.98 108.105 178.652C106.405 178.011 105.764 176.624 105.286 174.981C104.519 172.348 104.596 169.424 106.933 167.619C107.241 167.379 106.807 166.949 106.503 167.189V167.213Z" fill="#E8E8E8"/>
<path d="M108.137 158.877C111.501 158.327 114.896 157.987 118.302 157.859C121.316 157.701 124.419 157.482 127.06 159.21C127.389 159.425 127.693 158.902 127.364 158.687C124.861 157.044 121.981 157.064 119.093 157.21C115.368 157.327 111.653 157.689 107.975 158.293C107.59 158.362 107.756 158.946 108.137 158.877Z" fill="#E8E8E8"/>
<path d="M127.437 159.445C130.366 165.586 127.725 172.105 125.198 177.869C125.044 178.226 125.567 178.534 125.725 178.177C128.358 172.17 130.999 165.513 127.964 159.137C127.794 158.784 127.271 159.092 127.437 159.445Z" fill="#E8E8E8"/>
<path d="M108.108 158.463L107.634 156.342C107.548 155.961 106.964 156.123 107.049 156.504L107.52 158.626C107.605 159.007 108.189 158.845 108.108 158.463Z" fill="#E8E8E8"/>
<path d="M107.642 156.606C110.682 156.12 113.765 155.964 116.838 156.139C118.136 156.2 119.43 156.301 120.724 156.423C121.653 156.508 127.311 156.711 126.512 158.634C126.362 158.995 126.95 159.153 127.096 158.796C128.346 155.794 122.578 155.989 121.113 155.851C116.558 155.417 112.007 155.255 107.48 156.017C107.095 156.082 107.257 156.671 107.642 156.606Z" fill="#E8E8E8"/>
<path d="M111.014 169.736C112.312 171.054 114.04 171.861 115.884 172.01C117.728 172.159 119.564 171.64 121.057 170.547C121.369 170.316 121.057 169.789 120.753 170.02C119.379 171.05 117.678 171.546 115.966 171.417C114.254 171.288 112.647 170.542 111.444 169.318C111.168 169.042 110.738 169.472 111.014 169.752V169.736Z" fill="#E8E8E8"/>
<path d="M130.682 167.185C131.899 168.45 133.927 169.192 135.388 167.858C135.66 167.618 135.866 167.313 135.986 166.971C136.107 166.629 136.138 166.262 136.076 165.904C136.015 165.547 135.863 165.211 135.635 164.929C135.408 164.647 135.112 164.428 134.775 164.292C134.41 164.146 134.252 164.735 134.613 164.877C136.11 165.469 135.526 167.375 134.276 167.817C133.027 168.259 131.936 167.615 131.112 166.755C130.841 166.471 130.411 166.901 130.682 167.185Z" fill="#E8E8E8"/>
<path d="M101.996 153.957C101.525 152.395 104.539 152.29 105.456 152.622C106.462 152.988 106.515 154.135 105.614 154.711C104.803 155.235 103.704 154.902 102.848 154.651C102.773 154.637 102.695 154.651 102.631 154.691C102.566 154.732 102.519 154.795 102.499 154.868C102.478 154.942 102.486 155.02 102.521 155.088C102.555 155.156 102.614 155.208 102.685 155.235C103.951 155.612 105.497 155.908 106.466 154.764C106.621 154.6 106.74 154.404 106.815 154.191C106.89 153.978 106.919 153.752 106.902 153.526C106.884 153.301 106.82 153.082 106.713 152.883C106.605 152.684 106.458 152.51 106.279 152.371C104.953 151.345 100.69 151.738 101.412 154.119C101.525 154.492 102.114 154.334 101.996 153.957Z" fill="#E8E8E8"/>
<path d="M111.241 151.807C111.106 151.846 110.963 151.85 110.827 151.818C110.69 151.786 110.565 151.719 110.462 151.624C110.359 151.529 110.282 151.409 110.239 151.275C110.197 151.141 110.19 150.999 110.218 150.862C110.301 150.646 110.438 150.456 110.617 150.309C110.795 150.163 111.009 150.065 111.236 150.026C111.967 149.856 112.685 150.188 113.297 150.554C113.532 150.657 113.75 150.793 113.946 150.959C114.587 151.73 113.999 151.892 113.415 152.075C112.665 152.297 111.883 152.388 111.103 152.342C110.697 152.342 110.697 152.935 111.103 152.951C112.109 152.991 114.607 152.951 114.936 151.645C115.22 150.505 113.09 149.617 112.275 149.438C111.249 149.195 109.841 149.617 109.614 150.797C109.44 151.787 110.425 152.756 111.403 152.383C111.764 152.245 111.606 151.657 111.241 151.795V151.807Z" fill="#E8E8E8"/>
<path d="M104.941 147.739C105.287 147.332 105.761 147.054 106.285 146.951C106.809 146.847 107.353 146.923 107.829 147.167C108.132 147.296 108.39 147.513 108.568 147.79C108.747 148.066 108.838 148.391 108.831 148.72C108.721 149.75 107.05 149.531 106.421 149.446C106.016 149.398 106.016 150.006 106.421 150.055C107.383 150.18 108.514 150.241 109.167 149.373C109.703 148.655 109.411 147.751 108.831 147.15C108.541 146.869 108.197 146.65 107.82 146.505C107.443 146.36 107.041 146.293 106.637 146.308C106.233 146.322 105.837 146.419 105.472 146.591C105.106 146.763 104.779 147.007 104.511 147.309C104.263 147.609 104.693 148.039 104.941 147.739Z" fill="#E8E8E8"/>
<path d="M173.513 42.4978C179.877 45.6658 186.444 48.9149 193.567 49.9249C200.572 50.9349 207.383 49.2069 213.97 46.9354C214.335 46.8096 214.177 46.2215 213.808 46.3472C207.095 48.6634 200.138 50.4035 193.007 49.2272C186.205 48.1036 179.942 45.0046 173.821 41.9624C173.472 41.7879 173.164 42.3112 173.513 42.4856V42.4978Z" fill="#E8E8E8"/>
<path d="M138.186 11.9903C143.528 13.7629 149.11 13.0247 154.509 11.9051C160.914 10.5828 167.246 8.92375 173.61 7.41481C186.334 4.39692 199.355 1.90229 212.473 3.47208C212.879 3.52076 212.859 2.91231 212.473 2.86364C200.085 1.38309 187.754 3.51265 175.703 6.29932C169.558 7.72309 163.453 9.3091 157.295 10.6801C151.138 12.0512 144.587 13.4709 138.348 11.39C137.975 11.2683 137.813 11.8565 138.186 11.9781V11.9903Z" fill="#E8E8E8"/>
<path d="M17.5312 33.4929C19.3974 33.4929 20.9101 31.9801 20.9101 30.114C20.9101 28.2479 19.3974 26.7351 17.5312 26.7351C15.6651 26.7351 14.1523 28.2479 14.1523 30.114C14.1523 31.9801 15.6651 33.4929 17.5312 33.4929Z" fill="#EC615B"/>
<path d="M104.933 70.2592C105.632 70.2592 106.198 69.6925 106.198 68.9936C106.198 68.2946 105.632 67.728 104.933 67.728C104.234 67.728 103.667 68.2946 103.667 68.9936C103.667 69.6925 104.234 70.2592 104.933 70.2592Z" fill="#EC615B"/>
<path d="M166.215 33.067C167.03 33.067 167.691 32.406 167.691 31.5905C167.691 30.7751 167.03 30.114 166.215 30.114C165.399 30.114 164.738 30.7751 164.738 31.5905C164.738 32.406 165.399 33.067 166.215 33.067Z" fill="#EC615B"/>
<path d="M120.354 8.08828C121.855 8.08828 123.072 6.87151 123.072 5.37055C123.072 3.8696 121.855 2.65283 120.354 2.65283C118.853 2.65283 117.637 3.8696 117.637 5.37055C117.637 6.87151 118.853 8.08828 120.354 8.08828Z" fill="#EC615B"/>
<path d="M202.564 77.747C203.675 77.747 204.576 76.8462 204.576 75.7351C204.576 74.6239 203.675 73.7231 202.564 73.7231C201.453 73.7231 200.552 74.6239 200.552 75.7351C200.552 76.8462 201.453 77.747 202.564 77.747Z" fill="#EC615B"/>
<path d="M23.2954 66.1947C25.11 66.1947 26.581 64.7237 26.581 62.9091C26.581 61.0945 25.11 59.6235 23.2954 59.6235C21.4808 59.6235 20.0098 61.0945 20.0098 62.9091C20.0098 64.7237 21.4808 66.1947 23.2954 66.1947Z" fill="#183B56"/>
<path d="M107.934 91.6198C108.653 91.6198 109.236 91.0368 109.236 90.3177C109.236 89.5986 108.653 89.0156 107.934 89.0156C107.215 89.0156 106.632 89.5986 106.632 90.3177C106.632 91.0368 107.215 91.6198 107.934 91.6198Z" fill="#183B56"/>
<path d="M96.1795 19.4905C97.2548 19.4905 98.1265 18.6188 98.1265 17.5435C98.1265 16.4681 97.2548 15.5964 96.1795 15.5964C95.1041 15.5964 94.2324 16.4681 94.2324 17.5435C94.2324 18.6188 95.1041 19.4905 96.1795 19.4905Z" fill="#183B56"/>
<path d="M181.11 2.65282C181.842 2.65282 182.436 2.05897 182.436 1.32641C182.436 0.593854 181.842 0 181.11 0C180.377 0 179.783 0.593854 179.783 1.32641C179.783 2.05897 180.377 2.65282 181.11 2.65282Z" fill="#183B56"/>
<path d="M44.6279 167.915C46.6073 171.663 48.5855 175.409 50.5622 179.155C44.6806 187.689 42.1481 192.304 42.9648 192.999C43.8815 193.78 49.0506 189.582 58.472 180.404L50.5622 166.458L44.6279 167.915Z" fill="black"/>
<path d="M65.85 128.114C61.1008 126.565 56.5497 124.464 52.2897 121.855C50.4401 120.711 49.4503 119.969 46.6109 118.31C39.123 113.933 36.5837 113.662 35.4723 113.609C33.9918 113.532 30.9455 113.374 28.4144 115.353C25.9806 117.247 25.3843 120.046 24.9665 121.965C24.4676 124.236 24.715 126.751 25.2221 131.7C25.4533 133.923 25.6277 135.432 25.9562 137.651C26.9421 143.829 28.4428 149.915 30.4425 155.843C32.2585 161.102 34.4939 166.206 37.1273 171.107C38.9767 171.536 40.8783 171.698 42.7737 171.586C50.5942 171.152 55.8633 166.122 57.5954 164.309C55.7457 156.894 53.8974 149.479 52.0504 142.064C53.0726 142.668 56.4596 144.498 59.871 143.366C64.4505 141.841 67.6307 135.42 65.85 128.114Z" fill="white"/>
<path opacity="0.17" d="M50.432 168.795C49.2151 166.337 47.548 162.739 45.7916 158.301C43.4268 152.318 33.5416 127.299 38.7134 123.514C44.1204 119.555 64.9942 139.549 70.2024 144.627L51.292 140.725C53.6122 148.451 55.931 156.181 58.2485 163.915C56.1673 166.254 53.4564 167.944 50.4401 168.783L50.432 168.795Z" fill="#9E9E9E"/>
<path d="M51.6003 121.016C46.8301 118.071 41.7191 114.043 35.9632 113.353C31.6757 112.842 27.1448 114.53 25.4169 118.732C23.4698 123.522 24.6056 129.733 25.2222 134.689C26.7934 147.487 30.7329 159.881 36.8394 171.237C37.0219 171.586 37.5493 171.277 37.3627 170.932C30.7509 158.576 26.7029 145.01 25.4615 131.051C24.922 124.881 24.0012 116.075 31.7366 114.181C38.8229 112.445 45.6497 118.063 51.2961 121.543C51.6287 121.746 51.9329 121.223 51.6003 121.016Z" fill="black"/>
<path d="M37.7963 171.423C41.1346 172.754 45.5033 171.723 48.7483 170.515C52.1732 169.225 55.2616 167.177 57.7817 164.524C58.0535 164.24 57.6235 163.81 57.3517 164.094C54.9042 166.674 51.9049 168.668 48.578 169.927C45.4343 171.103 41.1874 172.125 37.9504 170.839C37.5854 170.693 37.4312 171.281 37.7882 171.423H37.7963Z" fill="black"/>
<path d="M53.5884 170.742L59.8108 178.648C52.4743 188.148 49.2292 193.298 50.0757 194.098C51.0654 195.031 57.6326 190.043 69.7771 179.135L59.1983 166L53.5884 170.742Z" fill="black"/>
<path d="M79.4754 130.617C79.8841 132.552 80.1445 134.516 80.2542 136.491C80.457 140.101 80.7085 144.603 78.4572 149.365C77.7555 150.846 76.7941 152.825 74.7254 154.638C70.9693 157.884 66.4425 158.038 64.8483 158.017L69.1034 163.493C67.9306 165.879 66.203 167.949 64.0655 169.529C59.2871 173.018 54.0464 172.774 52.2008 172.567C50.7093 172.405 49.245 172.05 47.8443 171.513C45.9703 168.925 43.3499 165.156 40.4578 160.451C37.0586 154.926 34.1421 150.181 31.5136 143.561C29.019 137.269 27.003 132.021 27.5912 125.125C27.8792 121.718 28.2727 117.097 31.8503 114.294C35.428 111.492 40.2266 112.003 41.0054 112.08C42.7618 112.258 44.0111 112.745 46.4368 113.702C49.2352 114.817 51.9308 116.174 54.4926 117.759C59.9667 121.186 65.2617 124.892 70.3568 128.861L79.4754 130.617Z" fill="white"/>
<path opacity="0.15" d="M72.2799 129.23C74.2026 133.108 76.4498 138.458 74.6894 140.044C70.7142 143.634 50.9073 123.819 46.2588 127.319C43.6546 129.274 45.4151 138.843 62.6746 170.413L69.0471 163.692L65.0435 157.701C67.4706 157.976 69.926 157.554 72.1218 156.484C75.3911 154.861 76.9447 152.18 77.9466 150.4C82.1814 142.895 80.2871 134.296 79.6097 131.659L72.2799 129.23Z" fill="#9E9E9E"/>
<path d="M48.0471 171.277C39.3041 161.052 32.9111 149.034 29.3191 136.069C27.5222 129.579 26.4392 120.732 31.3473 115.223C36.7462 109.139 45.6498 113.455 51.4544 116.44C58.2804 119.967 64.6319 124.345 70.3567 129.469C70.6488 129.729 71.0828 129.299 70.7867 129.039C65.1996 124.036 59.0188 119.737 52.3833 116.242C46.8991 113.37 39.5735 109.488 33.4403 112.781C27.5587 115.937 26.7393 124.204 27.4695 130.09C28.3618 137.278 31.2175 144.323 34.2597 150.854C37.7318 158.392 42.2355 165.41 47.6415 171.707C47.897 172.004 48.327 171.574 48.0714 171.277H48.0471Z" fill="black"/>
<path d="M79.3132 131.757C80.3354 137.748 80.7045 144.177 77.9259 149.779C75.4678 154.74 70.5272 158.269 64.8484 157.693C64.4428 157.652 64.4631 158.261 64.8484 158.301C70.4786 158.873 75.5206 155.511 78.1531 150.663C81.3332 144.802 80.9925 137.963 79.9014 131.599C79.8365 131.213 79.2483 131.376 79.3132 131.761V131.757Z" fill="black"/>
<path d="M50.9439 132.73C55.6516 143.767 61.642 154.21 68.7916 163.846C69.0228 164.159 69.5502 163.846 69.3149 163.538C62.1652 153.902 56.1747 143.458 51.4672 132.422C51.313 132.065 50.7898 132.373 50.9398 132.73H50.9439Z" fill="black"/>
<path d="M48.7039 172.494C52.9143 172.989 57.4614 173.484 61.4325 171.614C64.9088 169.955 67.2696 166.746 69.3707 163.647C69.5898 163.323 69.0665 163.019 68.8475 163.339C66.8193 166.361 64.5153 169.489 61.1405 171.087C57.2748 172.912 52.821 172.389 48.7241 171.898C48.3185 171.853 48.3185 172.462 48.7241 172.506L48.7039 172.494Z" fill="black"/>
<path d="M57.3974 75.1755C56.6882 74.2456 55.7982 73.4688 54.7811 72.8918C54.2132 72.5713 51.7023 71.1516 49.159 71.9791C47.6095 72.4862 46.6888 73.6016 46.0316 74.49C43.8238 77.3814 42.0299 80.5665 40.7017 83.9533C39.5497 87.2227 37.4566 91.782 33.4003 97.1079C32.7405 95.9045 32.0915 94.6619 31.4533 93.3802C28.5665 87.559 26.2346 81.4788 24.4886 75.2201L22.4929 75.9989L17.167 77.4511C18.8463 82.6431 20.3147 87.0118 21.4423 90.3217C23.5759 96.5684 24.3101 98.3694 25.2836 100.462C26.9048 103.949 28.9278 107.234 31.3113 110.25L33.3638 111.504C34.8013 111.474 36.2036 111.053 37.4201 110.287C38.565 109.498 39.4893 108.43 40.1054 107.184C42.2471 103.342 43.2815 103.273 46.056 98.9129C48.7615 94.739 53.1139 86.4317 57.3974 75.1755Z" fill="white"/>
<path opacity="0.13" d="M55.5189 79.9172C54.1884 81.7385 52.1116 84.6712 49.7711 88.4355C43.9706 97.7163 42.8754 101.858 38.7907 103.111C35.2333 104.198 31.7895 102.381 30.0656 101.468C21.2188 96.7955 20.0303 85.446 19.9248 84.0263C21.6528 89.9566 23.4822 95.4448 25.3197 100.495C26.2851 103.156 27.6034 106.644 30.8849 109.735C31.521 110.34 32.1987 110.9 32.9131 111.41C33.8681 111.526 34.8369 111.434 35.7525 111.139C37.9916 110.404 39.2166 108.567 39.7561 107.764C45.3538 99.4929 47.4225 99.3145 51.2922 91.2546C53.0373 87.6095 54.4519 83.8152 55.5189 79.9172Z" fill="#9E9E9E"/>
<path d="M56.7404 73.6463C54.5337 72.2834 51.7389 70.9124 49.078 71.6831C46.559 72.4132 45.3908 74.8916 44.2105 77.009L32.9015 97.3514C32.7108 97.6961 33.2341 98.0004 33.4247 97.6596L42.4378 81.4344C43.8008 78.9803 44.9933 75.9381 46.8998 73.8329C49.6134 70.811 53.5237 72.3523 56.4483 74.1533C56.7809 74.3602 57.0892 73.837 56.7525 73.6301L56.7404 73.6463Z" fill="black"/>
<path d="M24.8252 77.8284C25.7588 81.6946 27.0882 85.4543 28.7923 89.0481C30.6014 92.8448 33.4205 96.3494 34.0655 100.609C34.1222 100.994 34.7063 100.828 34.6496 100.446C34.0817 96.5968 31.7169 93.4573 29.9889 90.0703C27.9941 86.1255 26.4628 81.9631 25.4255 77.6661C25.3363 77.2889 24.7481 77.4471 24.8414 77.8284H24.8252Z" fill="black"/>
<path d="M19.2198 84.6631C22.4648 93.9602 25.073 103.849 31.8551 111.309C32.1188 111.597 32.5447 111.167 32.2851 110.879C25.58 103.501 23.0043 93.6925 19.8079 84.5131C19.6781 84.1439 19.09 84.3021 19.2198 84.6753V84.6631Z" fill="black"/>
<path d="M32.1752 111.386C37.1685 113.727 40.5961 107.099 42.9203 103.866C46.8914 98.3492 51.2398 92.9137 53.9656 86.6508C54.1198 86.2938 53.5965 85.9815 53.4383 86.3425C51.329 91.2101 48.2219 95.4651 45.1432 99.7283L40.3405 106.425C38.572 108.859 36.0489 112.534 32.4875 110.859C32.1346 110.697 31.8223 111.22 32.1792 111.386H32.1752Z" fill="black"/>
<path d="M24.1154 75.0296C24.5003 76.9606 24.9877 78.8698 25.5757 80.749C25.6933 81.1181 26.2815 80.9599 26.1638 80.5867C25.5727 78.7081 25.0838 76.7989 24.6995 74.8673C24.6224 74.486 24.0383 74.6483 24.1154 75.0296Z" fill="black"/>
<path d="M11.6262 74.1167C11.5154 75.0415 11.4396 76.0109 11.3991 77.025C11.2755 80.2264 11.5479 83.4309 12.2103 86.5654C12.749 87.5404 13.5688 88.3305 14.563 88.8329C15.9421 89.5063 17.2158 89.3318 18.668 89.1128C20.5217 88.837 22.9879 88.4678 24.7524 86.4397C25.0566 86.0909 27.2268 83.5435 26.2573 81.8682C25.5272 80.6108 23.1867 80.1159 20.7367 81.1503C20.1242 80.0105 19.6374 78.6029 20.1566 77.4144C21.2721 74.859 26.2411 75.1348 26.3303 73.7029C26.3912 72.8916 24.8579 72.1696 24.144 71.837C21.3046 70.5106 18.4651 71.1596 17.0738 71.4963C15.0951 71.9802 13.2394 72.8728 11.6262 74.1167Z" fill="white"/>
<path opacity="0.38" d="M14.721 72.2914C15.1266 72.6524 13.139 74.5508 12.7902 77.5646C12.7496 77.8972 12.4251 81.0328 13.9462 82.6431C15.8486 84.6713 20.6513 84.3021 25.2593 80.9679C25.8408 81.31 26.28 81.8499 26.4964 82.489C26.8493 83.7059 26.0056 84.8619 25.4418 85.6286C24.9834 86.2451 22.9715 88.975 19.2803 89.3279C15.224 89.7133 12.5225 86.8941 12.2101 86.5493C11.85 84.8369 11.6047 83.1024 11.4759 81.3573C11.2983 78.939 11.3486 76.5094 11.626 74.1005C13.8083 72.3685 14.5263 72.113 14.721 72.2914Z" fill="#9E9E9E"/>
<path d="M11.3218 74.1168C10.8649 78.365 11.0868 82.6589 11.9789 86.8374C12.06 87.2187 12.6482 87.0564 12.5671 86.6752C11.686 82.5444 11.471 78.2993 11.9302 74.1006C11.9708 73.695 11.3623 73.7153 11.3218 74.1006V74.1168Z" fill="black"/>
<path d="M11.7478 74.0356C14.8637 71.9259 18.6738 71.1006 22.3834 71.7316C23.3691 71.902 26.7642 72.5753 24.7401 74.2141C24.1033 74.7292 22.8174 74.9929 22.0995 75.431C21.4829 75.792 20.6068 76.2422 20.1849 76.8304C19.3736 77.9783 20.0592 79.7387 20.3796 80.9435C20.4011 81.0215 20.4527 81.0877 20.5231 81.1276C20.5935 81.1676 20.6768 81.1779 20.7548 81.1564C20.8328 81.1349 20.8991 81.0833 20.939 81.0129C20.9789 80.9426 20.9893 80.8592 20.9678 80.7812C20.6149 79.4629 20.4445 78.9599 21.0164 77.6538C21.5884 76.3477 22.1116 76.0313 23.3366 75.4472C24.2006 75.0213 25.5352 74.8955 26.2572 74.2303C27.2104 73.3379 26.5452 72.5145 25.5798 72.0358C21.1625 69.8617 15.3944 70.9203 11.4395 73.5204C11.115 73.7354 11.4395 74.2627 11.7478 74.0478V74.0356Z" fill="black"/>
<path d="M20.7644 81.3936C22.0909 81.2476 25.7131 80.5337 26.1918 82.505C26.6704 84.4764 24.2853 86.6749 22.8291 87.4781C19.6165 89.2466 14.611 90.0822 12.4734 86.4315C12.4531 86.3969 12.4263 86.3666 12.3943 86.3424C12.3624 86.3181 12.3259 86.3004 12.2871 86.2902C12.2484 86.2801 12.2079 86.2776 12.1682 86.2831C12.1285 86.2885 12.0902 86.3018 12.0556 86.322C12.0209 86.3423 11.9906 86.3691 11.9664 86.4011C11.9422 86.433 11.9244 86.4694 11.9143 86.5082C11.9041 86.547 11.9017 86.5874 11.9071 86.6272C11.9126 86.6669 11.9258 86.7052 11.946 86.7398C14.5015 91.1409 21.2309 89.9484 24.5814 87.0481C25.8957 85.9083 27.5304 83.4177 26.6096 81.6045C25.6888 79.7914 22.2166 80.6472 20.7523 80.7933C20.3669 80.8338 20.3466 81.4423 20.7523 81.4017L20.7644 81.3936Z" fill="black"/>
<path d="M17.9946 75.731C17.8012 75.4973 17.6587 75.2258 17.5762 74.9338C17.4938 74.6418 17.4733 74.3359 17.516 74.0355C17.5595 73.8706 17.6392 73.7175 17.7494 73.5872C17.8595 73.457 17.9973 73.3529 18.1527 73.2826C18.3081 73.2123 18.4772 73.1775 18.6477 73.1807C18.8182 73.184 18.9859 73.2252 19.1385 73.3013C19.7226 73.6137 19.9254 74.4858 19.7591 75.1023C19.5928 75.7189 18.3638 76.1204 17.8243 75.6945C17.52 75.4552 17.086 75.8852 17.3943 76.1245C17.7895 76.3841 18.2602 76.504 18.7314 76.465C19.2026 76.4261 19.6472 76.2305 19.9944 75.9095C20.7042 75.2199 20.4811 73.6867 19.8119 73.0458C19.6399 72.8831 19.4369 72.7569 19.215 72.6746C18.993 72.5924 18.7568 72.5558 18.5204 72.5672C18.2839 72.5786 18.0523 72.6376 17.8392 72.7408C17.6262 72.8439 17.4362 72.989 17.2807 73.1675C16.5465 74.0193 16.8751 75.1956 17.4511 76.0393C17.6701 76.3557 18.1974 76.0393 17.9744 75.731H17.9946Z" fill="black"/>
<path d="M20.2865 85.6528C18.8546 85.1498 20.6232 82.3632 21.7508 83.6247C22.6919 84.6631 21.5237 86.1071 20.2905 85.7704C20.2157 85.7564 20.1382 85.771 20.0736 85.8112C20.0089 85.8515 19.9617 85.9146 19.9413 85.988C19.9209 86.0614 19.9288 86.1398 19.9634 86.2077C19.9981 86.2756 20.0569 86.328 20.1283 86.3546C20.5867 86.4929 21.0796 86.4621 21.5173 86.2679C21.955 86.0736 22.3085 85.7287 22.5134 85.2959C22.8987 84.4035 22.5905 83.1866 21.6819 82.781C19.7957 81.9697 18.0068 85.4743 20.1283 86.2248C20.4974 86.3546 20.6597 85.7664 20.2905 85.6366L20.2865 85.6528Z" fill="black"/>
<path d="M13.9099 82.8176C13.9099 82.4849 14.3601 82.3633 14.5995 82.5458C14.7206 82.6603 14.8034 82.8094 14.8368 82.9727C14.8702 83.136 14.8525 83.3056 14.7861 83.4585C14.7507 83.5261 14.7011 83.5853 14.6406 83.632C14.5802 83.6786 14.5103 83.7115 14.4358 83.7285C14.3614 83.7455 14.2841 83.7461 14.2094 83.7303C14.1347 83.7144 14.0644 83.6826 14.0032 83.6369C13.8682 83.5152 13.7798 83.3502 13.7531 83.1703C13.7265 82.9905 13.7632 82.8069 13.8572 82.6512C14.0397 82.3024 13.5164 81.9941 13.3339 82.343C13.1505 82.6479 13.0928 83.0122 13.173 83.3589C13.2532 83.7055 13.4651 84.0074 13.7639 84.2008C13.9064 84.2823 14.065 84.3318 14.2286 84.3458C14.3922 84.3599 14.5569 84.3382 14.7113 84.2823C14.8656 84.2263 15.006 84.1374 15.1226 84.0218C15.2392 83.9061 15.3292 83.7665 15.3864 83.6126C15.5073 83.2935 15.503 82.9405 15.3744 82.6245C15.2457 82.3084 15.0022 82.0528 14.6928 81.909C14.5415 81.8537 14.3794 81.8345 14.2194 81.853C14.0594 81.8715 13.9059 81.927 13.7712 82.0153C13.6365 82.1035 13.5242 82.222 13.4434 82.3613C13.3625 82.5006 13.3153 82.6568 13.3055 82.8176C13.3055 82.8982 13.3376 82.9756 13.3946 83.0327C13.4517 83.0897 13.529 83.1218 13.6097 83.1218C13.6904 83.1218 13.7678 83.0897 13.8248 83.0327C13.8819 82.9756 13.9139 82.8982 13.9139 82.8176H13.9099Z" fill="black"/>
<path d="M16.8585 83.2759C16.6476 83.142 16.9032 82.9189 17.0573 82.8946C17.1651 82.8859 17.2728 82.912 17.3648 82.9689C17.4567 83.0258 17.5281 83.1106 17.5684 83.211C17.6044 83.2862 17.6113 83.3722 17.5876 83.4521C17.5639 83.5321 17.5113 83.6005 17.4401 83.6439C17.3689 83.6874 17.284 83.7028 17.2021 83.6873C17.1201 83.6717 17.0468 83.6263 16.9964 83.5598C16.749 83.2597 16.319 83.6896 16.5665 83.9898C16.7376 84.1586 16.9665 84.2562 17.2068 84.2628C17.4471 84.2694 17.681 84.1846 17.8612 84.0255C18.0414 83.8664 18.1545 83.6449 18.1777 83.4056C18.2009 83.1663 18.1325 82.9272 17.9862 82.7364C17.8269 82.5153 17.5892 82.3632 17.3216 82.3112C17.0541 82.2592 16.7768 82.3112 16.5462 82.4565C16.4366 82.5309 16.3469 82.6309 16.2849 82.748C16.2229 82.865 16.1904 82.9954 16.1904 83.1278C16.1904 83.2603 16.2229 83.3907 16.2849 83.5077C16.3469 83.6247 16.4366 83.7248 16.5462 83.7991C16.8788 84.006 17.183 83.4787 16.8504 83.2759H16.8585Z" fill="black"/>
<path d="M15.2642 86.6346C15.1786 86.5235 15.1377 86.3844 15.1497 86.2447C15.1617 86.105 15.2258 85.9749 15.3291 85.8801C15.4473 85.791 15.5927 85.7455 15.7405 85.7515C15.8884 85.7574 16.0297 85.8143 16.1404 85.9125C16.2543 86.0104 16.331 86.1445 16.3576 86.2922C16.3842 86.44 16.359 86.5924 16.2864 86.7238C16.247 86.7848 16.1943 86.8361 16.1322 86.8737C16.0701 86.9113 16.0003 86.9343 15.928 86.941C15.8557 86.9476 15.7828 86.9377 15.7149 86.912C15.647 86.8864 15.5858 86.8456 15.536 86.7928C15.3007 86.4885 14.7734 86.7927 15.0127 87.101C15.1019 87.2233 15.2156 87.3257 15.3465 87.4015C15.4775 87.4773 15.6228 87.525 15.7733 87.5414C15.9237 87.5578 16.0759 87.5426 16.2202 87.4968C16.3644 87.451 16.4975 87.3756 16.6109 87.2755C16.8396 87.042 16.9676 86.7281 16.9676 86.4013C16.9676 86.0745 16.8396 85.7607 16.6109 85.5272C16.3924 85.303 16.0986 85.1676 15.7862 85.1474C15.4738 85.1272 15.165 85.2235 14.9194 85.4177C14.6987 85.6247 14.5662 85.9089 14.5496 86.211C14.533 86.5132 14.6335 86.8102 14.8302 87.0402C15.0898 87.3322 15.5198 86.9023 15.2602 86.6102L15.2642 86.6346Z" fill="black"/>
<path d="M23.7332 72.0318C23.2364 70.6332 22.327 69.4182 21.125 68.5475C20.2083 67.9025 18.6912 67.2089 18.3343 67.6267C17.9773 68.0445 19.1455 69.8171 19.3524 70.0929C18.1668 69.5839 16.8863 69.3336 15.5963 69.3587C11.3331 69.4723 7.5932 72.766 7.95827 73.6827C8.03939 73.8815 8.3639 74.0884 9.66191 74.0235C8.11782 77.3956 7.66216 79.3115 8.29494 79.7712C8.41238 79.8386 8.5439 79.8777 8.67908 79.8855C8.81426 79.8932 8.94938 79.8694 9.07375 79.8159C8.8466 81.1058 8.95612 82.0549 9.31307 82.1685C9.75115 82.3105 10.4772 81.191 10.5584 81.0652C10.6922 81.5844 10.8098 81.84 10.9113 81.8359C11.2358 81.817 11.3885 79.1398 11.3696 73.8044C11.9982 73.2971 12.6779 72.8566 13.3978 72.4902C17.6244 70.385 22.0134 71.4883 23.7332 72.0318Z" fill="white"/>
<path d="M23.7573 71.1151C22.8365 69.5696 21.0193 67.3143 19.052 67.1926C16.8372 67.0547 18.3543 69.2978 19.052 70.0969C19.3156 70.389 19.7456 69.959 19.486 69.667C19.2244 69.3871 18.992 69.0813 18.7924 68.7543C18.549 68.3487 18.4679 68.3852 18.8694 68.0566C19.4576 67.582 20.3621 68.3608 20.8773 68.7543C21.8251 69.4864 22.6249 70.3922 23.234 71.4233C23.2773 71.4876 23.3435 71.5329 23.4191 71.55C23.4947 71.5671 23.5739 71.5547 23.6407 71.5154C23.7074 71.4761 23.7567 71.4127 23.7783 71.3383C23.8 71.2639 23.7925 71.1841 23.7573 71.1151Z" fill="black"/>
<path d="M19.4622 69.5452C16.2171 68.8556 10.4653 69.0138 8.31547 72.0114C7.90984 72.5712 7.17971 73.9625 7.90984 74.575C8.22218 74.8346 8.49395 74.7211 8.84685 74.6967C9.92988 74.6196 11.1549 73.7962 12.2988 73.6096C12.7044 73.5488 12.5178 72.9606 12.1365 73.0255C11.2585 73.1592 10.3985 73.3919 9.57293 73.7191L8.6846 74.1248C8.3006 73.4325 8.35333 72.8538 8.84279 72.3887C9.33361 71.6058 10.2787 71.0947 11.1103 70.7662C13.7288 69.8141 16.5575 69.5939 19.2918 70.1293C19.6731 70.2105 19.8354 69.6223 19.4541 69.5412L19.4622 69.5452Z" fill="black"/>
<path d="M9.33724 74.1857C8.77908 75.1342 8.34683 76.1515 8.0514 77.2117C7.84858 77.958 7.51191 79.0654 7.93782 79.7996C8.96001 81.5438 10.5095 78.2825 10.8502 77.7106C10.8854 77.6416 10.893 77.5617 10.8713 77.4873C10.8497 77.4129 10.8004 77.3496 10.7337 77.3103C10.6669 77.2709 10.5876 77.2586 10.5121 77.2757C10.4365 77.2928 10.3703 77.3381 10.327 77.4023C10.0187 77.9215 9.73071 78.461 9.40214 78.9681C9.12226 79.3737 9.16688 79.54 8.69229 79.2236C8.21771 78.9072 8.38807 78.4732 8.50165 77.9256C8.76963 76.7168 9.22833 75.5585 9.86051 74.494C9.89571 74.4249 9.90325 74.3451 9.88159 74.2707C9.85992 74.1963 9.81068 74.133 9.74392 74.0936C9.67716 74.0543 9.59791 74.0419 9.52233 74.059C9.44676 74.0761 9.38056 74.1214 9.33724 74.1857Z" fill="black"/>
<path d="M8.76953 79.7349C8.54238 80.3879 8.3639 81.9456 9.28468 82.2011C9.4734 82.235 9.66802 82.2067 9.83922 82.1203C10.0104 82.034 10.1489 81.8944 10.2339 81.7225C10.5624 81.2113 10.8539 80.6772 11.106 80.1243C11.2804 79.7754 10.7531 79.4672 10.5827 79.816C10.4448 80.0959 10.3069 80.3717 10.1771 80.6273C10.0555 80.9311 9.88565 81.2132 9.67409 81.4629C9.30497 81.7711 9.24412 81.1181 9.2279 80.8909C9.20594 80.5474 9.25709 80.2032 9.37798 79.8809C9.50778 79.5118 8.91962 79.3536 8.78982 79.7186L8.76953 79.7349Z" fill="black"/>
<path d="M10.25 80.5135C10.1712 80.785 10.1706 81.0732 10.248 81.3451C10.3255 81.617 10.478 81.8616 10.6881 82.0508C10.9842 82.3064 11.4142 81.8805 11.1181 81.6209C10.9837 81.5082 10.8856 81.3585 10.8358 81.1905C10.786 81.0224 10.7868 80.8434 10.8382 80.6757C10.8597 80.5978 10.8493 80.5144 10.8094 80.444C10.7695 80.3737 10.7032 80.3221 10.6252 80.3005C10.5472 80.279 10.4639 80.2894 10.3935 80.3293C10.3231 80.3692 10.2715 80.4355 10.25 80.5135Z" fill="black"/>
<path d="M56.5896 73.9099C54.4343 76.8943 52.6818 80.1498 51.3773 83.5923C46.1041 97.4567 49.7872 110.34 51.5801 115.479C60.1928 119.944 68.14 125.589 75.1918 132.252L79.6091 131.696C78.7447 125.367 78.6372 118.957 79.2887 112.603C79.8485 107.232 80.68 104.713 81.4953 98.6209C82.3201 92.4646 82.6484 86.252 82.477 80.043L56.5896 73.9099Z" fill="#EC615B"/>
<path d="M59.4041 50.9673C59.112 52.0909 58.7064 53.7662 58.3332 55.8349C57.522 60.2968 57.0068 63.193 57.522 66.3245C57.8059 68.1214 58.678 71.5977 61.9839 75.3944L60.2559 80.911C60.9249 81.7675 61.8038 82.4367 62.8073 82.8539C65.6711 84.0262 68.3604 82.5456 68.7498 82.3225L72.153 74.5345C75.1586 72.688 77.6086 70.0627 79.2435 66.937C80.1214 67.2593 81.077 67.3046 81.9815 67.0668C82.6383 66.8632 83.2433 66.52 83.7551 66.0607C84.2669 65.6014 84.6734 65.0369 84.9466 64.4059C85.0845 64.1016 86.1635 61.607 84.833 60.24C84.2893 59.7412 83.5751 59.4698 82.8373 59.4815C82.7661 57.8576 82.2786 56.2792 81.4217 54.8979C78.1361 49.7302 69.2933 48.1279 59.4041 50.9673Z" fill="white"/>
<path opacity="0.25" d="M62.9209 76.2909C62.9701 77.1228 63.2656 77.9213 63.7697 78.5849C64.2739 79.2485 64.9639 79.7472 65.7522 80.0176C66.5405 80.288 67.3913 80.318 68.1967 80.1037C69.002 79.8893 69.7254 79.4404 70.275 78.8139L72.6844 74.1938C74.4451 72.9232 76.0467 71.4456 77.4546 69.7927C78.3673 68.7249 79.1947 67.587 79.929 66.3895C79.9918 66.7143 80.1742 67.0038 80.4401 67.2008C81.0607 67.6064 81.9612 67.148 82.4682 66.8965C83.1172 66.568 85.1413 65.5458 85.3644 63.327C85.5794 61.2055 84.0056 59.7899 83.8352 59.6398C82.3911 58.3864 80.2048 58.1755 78.2862 59.1003C77.1564 63.0035 75.303 66.6596 72.8223 69.8779C71.8807 71.0949 70.8503 72.2406 69.7395 73.3055L62.9209 76.2909Z" fill="#9E9E9E"/>
<path d="M67.7196 47.8076C67.5825 49.2024 67.733 50.6106 68.1617 51.945C70.1249 57.8997 77.1748 59.6723 77.8968 59.8426C77.4912 62.682 77.7346 63.5379 78.1199 63.6839C79.1299 64.0896 80.9918 59.437 83.4377 59.6966C83.8845 59.7759 84.3042 59.966 84.6585 60.2495C85.0128 60.5329 85.2904 60.9007 85.4659 61.3191C86.0621 62.7185 85.0927 64.2194 84.3788 65.3227C83.7541 66.2921 83.2268 67.1075 82.1884 67.3508C81.7377 67.4354 81.2743 67.4257 80.8275 67.3223C80.3808 67.219 79.9602 67.0243 79.5923 66.7505C77.8603 67.8579 76.688 69.4926 76.9476 70.896C77.3533 73.1189 81.3082 74.5751 83.888 73.1108C85.4415 72.2306 86.3542 70.3768 86.3218 68.3122C86.8775 68.1459 89.3396 67.3508 90.6052 64.9171C91.9357 62.3454 91.3962 58.9989 89.2017 56.5692C89.879 55.5748 90.2475 54.4025 90.261 53.1995C90.2746 51.9965 89.9327 50.8162 89.278 49.8068C88.6234 48.7973 87.6853 48.0037 86.5814 47.5253C85.4774 47.047 84.2568 46.9053 83.0727 47.118C82.4723 42.072 78.8095 38.1941 74.4327 37.5938C69.8085 36.9651 66.4256 40.275 66.0159 40.6969C65.7036 40.5752 62.5113 39.3948 59.6637 41.285C58.4867 42.1074 57.5878 43.2684 57.0864 44.6139C56.585 45.9594 56.5049 47.4255 56.8568 48.8176C56.297 48.9717 53.0357 49.9371 51.689 52.951C50.2044 56.2771 51.6241 60.7756 55.4533 63.3635C55.9725 62.7875 56.4917 62.2075 57.015 61.6315C58.0412 56.6625 58.7024 53.4702 58.7024 53.4702L67.7196 47.8076Z" fill="#183B56"/>
<path d="M62.6293 61.0027C62.8824 61.0027 63.0876 60.3852 63.0876 59.6235C63.0876 58.8619 62.8824 58.2444 62.6293 58.2444C62.3761 58.2444 62.1709 58.8619 62.1709 59.6235C62.1709 60.3852 62.3761 61.0027 62.6293 61.0027Z" fill="black"/>
<path d="M70.2914 61.4043C70.5445 61.4043 70.7497 60.7868 70.7497 60.0251C70.7497 59.2635 70.5445 58.646 70.2914 58.646C70.0382 58.646 69.833 59.2635 69.833 60.0251C69.833 60.7868 70.0382 61.4043 70.2914 61.4043Z" fill="black"/>
<path d="M59.0593 51.6693C56.877 59.9198 54.9097 70.5513 62.7667 76.5303C63.075 76.7696 63.3792 76.2423 63.071 76.0071C55.4694 70.2147 57.5503 59.7575 59.6474 51.8315C59.6581 51.7929 59.661 51.7525 59.6561 51.7128C59.6512 51.673 59.6384 51.6346 59.6187 51.5998C59.5989 51.565 59.5725 51.5344 59.5409 51.5097C59.5093 51.4851 59.4731 51.467 59.4345 51.4563C59.3959 51.4456 59.3555 51.4427 59.3158 51.4476C59.276 51.4526 59.2376 51.4653 59.2028 51.4851C59.1679 51.5048 59.1373 51.5313 59.1127 51.5629C59.0881 51.5945 59.0699 51.6306 59.0593 51.6693Z" fill="black"/>
<path d="M62.9859 76.6478C66.5551 76.8267 70.0937 75.9089 73.1261 74.0178C76.1585 72.1267 78.5395 69.3529 79.9493 66.069C80.1034 65.7161 79.5802 65.4037 79.4261 65.7647C78.0689 68.9557 75.7641 71.6526 72.8235 73.4903C69.883 75.328 66.4488 76.2179 62.9859 76.0394C62.5802 76.0394 62.5802 76.6316 62.9859 76.6478Z" fill="black"/>
<path d="M79.4424 67.0385C81.6165 68.661 84.4681 66.2272 85.3321 64.2558C86.2853 62.1019 85.7377 58.8893 82.7442 59.4856C82.3629 59.5627 82.5252 60.1509 82.9064 60.0738C84.5736 59.7412 85.4295 61.4205 85.1536 62.8402C84.9877 63.6442 84.644 64.4009 84.1477 65.0549C83.2309 66.2962 81.219 67.6307 79.7385 66.5152C79.4261 66.2799 79.1219 66.8073 79.4302 67.0385H79.4424Z" fill="black"/>
<path d="M61.6796 75.3053C60.9667 77.0971 60.3891 78.9398 59.9516 80.8179C59.8624 81.1992 60.4465 81.3614 60.5357 80.9801C60.9757 79.1014 61.5532 77.2575 62.2637 75.4635C62.4097 75.1025 61.8216 74.9443 61.6796 75.3053Z" fill="black"/>
<path d="M60.1463 81.5115C60.891 82.2386 61.7839 82.7963 62.764 83.1464C63.7442 83.4965 64.7884 83.6306 65.8252 83.5396C66.2308 83.5072 66.2308 82.8987 65.8252 82.9312C64.8717 83.0224 63.9097 82.9057 63.0056 82.5892C62.1015 82.2726 61.2769 81.7638 60.5885 81.0977C60.3045 80.83 59.8746 81.26 60.1585 81.5277L60.1463 81.5115Z" fill="black"/>
<path d="M71.8769 74.3683C70.7736 76.7615 69.7041 79.1723 68.6684 81.6007C68.5183 81.9576 69.0415 82.2659 69.1957 81.909C70.2314 79.4752 71.3009 77.0644 72.4042 74.6766C72.5665 74.3196 72.0432 74.0113 71.8769 74.3683Z" fill="black"/>
<path d="M65.785 56.2732C65.3469 60.0595 65.3387 63.8833 65.7606 67.6714C65.7631 67.7371 65.7865 67.8002 65.8274 67.8516C65.8683 67.903 65.9245 67.94 65.9879 67.9572C66.0513 67.9744 66.1185 67.9709 66.1798 67.9472C66.2411 67.9235 66.2932 67.8809 66.3285 67.8256C66.9909 66.8574 67.6002 65.8541 68.1538 64.8198C68.3404 64.4751 67.8131 64.1668 67.6306 64.5116C67.0741 65.545 66.4634 66.5483 65.8012 67.5173L66.3691 67.6714C65.9472 63.8833 65.9553 60.0595 66.3934 56.2732C66.438 55.8676 65.8296 55.8676 65.785 56.2732Z" fill="black"/>
<path d="M61.1811 54.2205C61.7692 55.6374 62.7555 56.8533 64.0205 57.7211C64.345 57.9442 64.6492 57.4169 64.3288 57.1938C63.1961 56.415 62.3117 55.3265 61.7814 54.0583C61.6313 53.7013 61.0432 53.8595 61.1932 54.2205H61.1811Z" fill="black"/>
<path d="M68.8594 57.7738C70.7598 57.1154 72.3914 55.8514 73.5038 54.1759C73.7229 53.8514 73.1956 53.5471 72.9806 53.8716C71.9531 55.4145 70.4486 56.5785 68.6971 57.1856C68.328 57.3154 68.4862 57.9036 68.8594 57.7738Z" fill="black"/>
<path d="M62.2441 64.1706C60.7717 66.6855 60.7717 70.5308 64.1303 71.4313C64.2052 71.4454 64.2826 71.4308 64.3473 71.3905C64.412 71.3503 64.4592 71.2872 64.4796 71.2138C64.4999 71.1404 64.4921 71.062 64.4574 70.9941C64.4228 70.9262 64.364 70.8738 64.2926 70.8472C61.3071 70.036 61.5059 66.6368 62.7715 64.4788C62.8123 64.4089 62.8238 64.3256 62.8032 64.2473C62.7827 64.1689 62.7319 64.1019 62.6619 64.061C62.592 64.0202 62.5087 64.0087 62.4304 64.0293C62.352 64.0498 62.285 64.1006 62.2441 64.1706Z" fill="black"/>
<path d="M62.2438 63.9516C61.939 63.8811 61.6232 63.8719 61.3148 63.9245C61.0064 63.9771 60.7115 64.0905 60.4473 64.2581C60.1831 64.4257 59.9548 64.6441 59.7758 64.9006C59.5968 65.1572 59.4705 65.4468 59.4044 65.7526C59.1732 67.1642 60.6983 67.5698 61.7408 67.0425C62.0937 66.8681 61.7854 66.3408 61.4366 66.5192C60.6253 66.9249 59.6599 66.4949 60.1142 65.497C60.2861 65.1379 60.5745 64.8474 60.9324 64.6729C61.2903 64.4983 61.6967 64.45 62.0856 64.5357C62.4669 64.6249 62.6291 64.0408 62.2478 63.9516H62.2438Z" fill="black"/>
<path d="M75.5565 70.8594C75.0657 71.1677 74.2585 71.7396 72.6157 73.6542C70.8986 75.653 69.3823 77.816 68.0889 80.1118C66.0607 83.7382 63.7852 87.762 61.2297 92.3659C58.7553 92.297 56.715 92.155 55.2994 92.0333C43.8038 91.0476 36.2348 88.4273 34.3405 87.7498C33.44 87.4294 32.7179 87.1495 32.2677 86.971C27.6273 79.1302 25.8182 77.4509 25.1164 77.747C24.7108 77.9174 24.6297 78.7327 24.5648 79.3249C24.447 80.6824 24.8372 82.0354 25.66 83.1216L19.7865 88.0541C12.0795 85.9935 10.1041 86.2855 9.79173 86.967C9.52402 87.5592 10.4286 88.5895 10.603 88.772C11.0532 89.2872 11.7347 89.7821 14.6593 90.5609C16.6874 91.1004 17.2188 91.1004 17.2553 91.3275C17.3121 91.7088 15.9005 92.4795 9.0332 94.2237C9.18958 95.0132 9.61945 95.7223 10.2472 96.2261C10.8749 96.7299 11.6602 96.9961 12.4648 96.9779C12.8876 97.6111 13.4531 98.1363 14.1157 98.5112C15.1623 99.0832 16.2696 99.144 18.099 98.9168C20.188 98.6491 21.8389 98.4382 24.0172 97.4525C27.6192 95.83 27.9396 94.2278 30.1949 94.0412C31.9878 93.8952 33.3142 94.7754 34.7339 95.6353C34.7339 95.6353 38.2954 97.7811 46.3471 101.095C50.3407 102.769 54.5462 103.882 58.8446 104.405C61.0948 104.655 63.3613 104.726 65.6227 104.616C66.8152 103.525 68.5432 101.919 70.5754 99.9228C75.2739 95.1191 79.6456 90.0062 83.661 84.6184C84.6264 83.3366 86.034 81.4261 86.5694 78.6191C86.8087 77.3617 87.2103 75.078 85.9934 72.7659C85.3396 71.4216 84.2502 70.3379 82.9025 69.6912C79.6859 68.2471 76.3637 70.3483 75.5565 70.8594Z" fill="white"/>
<path opacity="0.14" d="M82.9033 69.675C82.6825 72.0045 82.266 74.3112 81.658 76.5708C80.8467 79.5887 78.348 88.4152 70.418 95.5137C67.2622 98.3531 65.5504 99.8823 62.6137 100.612C57.4743 101.894 53.7182 99.3956 44.8187 95.826C39.6808 93.7724 34.435 91.9999 29.1045 90.5163C26.9987 91.6651 24.7907 92.6156 22.509 93.3557C18.2736 94.7329 13.8352 95.3816 9.38281 95.2744L12.8875 97.5378C13.4197 98.0456 14.0359 98.4574 14.7087 98.7547C15.3861 99.0548 17.609 99.8864 22.2048 98.1138C27.1859 96.1951 27.555 94.0575 30.4553 94.1467C31.3558 94.1711 32.6822 94.7552 35.2945 95.9274C38.434 97.3269 40.6893 98.5762 41.168 98.8358C47.4553 102.276 53.9737 103.578 56.1357 103.955C59.2671 104.5 62.4474 104.712 65.6234 104.588C67.1932 103.172 69.2741 101.225 71.6389 98.8115C73.5129 96.8969 75.8534 94.167 80.4533 88.7924C83.3373 85.4176 84.9152 83.5476 86.0428 80.4851C87.0042 77.9012 86.9271 76.4572 86.8095 75.6459C86.3268 72.3279 83.7429 70.2957 82.9033 69.675Z" fill="#9E9E9E"/>
<path d="M61.4936 92.5161C64.2198 86.8872 67.3883 81.4835 70.9691 76.3557C72.835 73.7029 75.0254 70.7864 78.3069 69.8413C81.8805 68.807 85.1702 70.5552 86.1883 74.141C87.9528 80.3836 82.1848 86.2815 78.5544 90.6501C74.5657 95.4317 70.2777 99.9555 65.7162 104.194C65.4282 104.462 65.8622 104.888 66.1462 104.624C71.8722 99.3059 77.1624 93.5369 81.9657 87.3727C85.2554 83.1419 89.1819 77.3171 85.9003 71.9587C82.6796 66.6855 76.1287 69.2369 72.8309 72.9484C67.8985 78.4975 64.1991 85.5919 60.9663 92.224C60.7959 92.5728 61.3192 92.8811 61.4936 92.5282V92.5161Z" fill="black"/>
<path d="M32.9252 94.9944C43.0132 100.434 53.876 105.541 65.623 104.904C66.0286 104.88 66.0286 104.271 65.623 104.296C53.9774 104.932 43.2322 99.8579 33.2334 94.4671C32.8886 94.2805 32.5804 94.8078 32.9252 94.9944Z" fill="black"/>
<path d="M33.3634 87.6485C37.7077 89.6767 42.34 90.7921 47.0697 91.4655C49.2317 91.7738 51.4059 91.9969 53.5598 92.1997L57.5065 92.5485C58.6423 92.6499 61.7657 92.5485 62.4431 93.449C62.6743 93.7613 63.2016 93.449 62.9704 93.1448C62.0496 91.9036 59.9647 92.1632 58.5815 92.0334C55.8313 91.7859 53.0811 91.5709 50.339 91.2667C44.6034 90.6339 38.9165 89.5712 33.6555 87.1252C33.3026 86.9589 32.9903 87.4822 33.3472 87.6485H33.3634Z" fill="black"/>
<path d="M33.2419 87.551C31.5221 85.8189 30.3052 83.7421 28.9747 81.714C28.1634 80.4971 27.0277 78.4 25.685 77.7023C24.9265 77.2967 24.5452 77.6374 24.3181 78.4203C23.8475 80.0428 24.7237 82.0709 25.612 83.3487C25.8351 83.6691 26.3624 83.3487 26.1393 83.0444C25.6653 82.3926 25.3072 81.664 25.0806 80.8905C24.9103 80.2578 24.5087 78.4162 25.8919 78.7123C26.7884 78.907 28.131 81.5517 28.6015 82.2778C29.8955 84.2735 31.1124 86.2814 32.7998 87.981C33.0756 88.2608 33.5056 87.8309 33.2298 87.551H33.2419Z" fill="black"/>
<path d="M25.4448 82.9067C23.6869 84.6338 21.8199 86.2461 19.8552 87.7337C19.547 87.9649 19.8552 88.4923 20.1635 88.257C22.1714 86.7418 24.0791 85.0982 25.8748 83.3367C26.1547 83.0649 25.7247 82.635 25.4448 82.9067Z" fill="black"/>
<path d="M19.868 87.7662C17.2801 87.3605 14.6881 86.8454 12.084 86.5168C11.3173 86.4195 9.65019 86.0706 9.41087 87.1618C8.82271 89.9525 15.6413 91.1491 17.1422 91.6237C17.5154 91.7413 17.6736 91.1532 17.3044 91.0356L13.6822 89.8876C12.8952 89.6361 8.70102 88.115 10.8955 87.0117C11.7067 86.6061 14.3271 87.4863 15.256 87.6364L19.7179 88.3543C20.1236 88.4152 20.2655 87.827 19.8802 87.7662H19.868Z" fill="black"/>
<path d="M17.0892 91.214C14.4283 92.6337 11.8161 92.8771 8.95636 93.6478C8.87837 93.6693 8.81211 93.7209 8.77218 93.7913C8.73224 93.8616 8.72189 93.945 8.74341 94.023C8.76492 94.101 8.81654 94.1672 8.88691 94.2072C8.95727 94.2471 9.04062 94.2574 9.11861 94.2359C11.9864 93.4449 14.7204 93.157 17.3975 91.7291C17.7423 91.5466 17.4381 91.0193 17.0892 91.2059V91.214Z" fill="black"/>
<path d="M8.70096 94.3089C9.32968 97.6715 13.9742 97.6553 16.6756 97.8054C17.0813 97.8297 17.0813 97.2213 16.6756 97.197C14.3352 97.0672 9.83267 97.0631 9.28912 94.1466C9.21611 93.7613 8.632 93.9235 8.70096 94.3089Z" fill="black"/>
<path d="M12.6723 97.7894C14.7005 99.9919 18.4282 99.3794 21.0405 98.7588C22.7241 98.3546 24.3461 97.7271 25.8634 96.8929C28.0092 95.7085 30.804 93.0029 33.2702 95.0676C33.5704 95.315 34.0044 94.8891 33.7042 94.6376C31.2704 92.6094 28.6622 94.4835 26.4353 95.8545C24.6203 96.977 22.6292 97.7861 20.5456 98.2477C18.2497 98.7507 14.8668 99.2942 13.1023 97.3594C12.8386 97.0714 12.4086 97.5054 12.6723 97.7934V97.7894Z" fill="black"/>
<path d="M9.30121 95.5827C12.2371 96.0832 15.2554 95.7109 17.9817 94.5118C18.3386 94.3577 18.0304 93.8344 17.6734 93.9885C15.093 95.1158 12.2397 95.4655 9.46346 94.9945C9.08217 94.9337 8.91586 95.5178 9.30121 95.5827Z" fill="black"/>
<path d="M139.313 155.795L145.227 164.195C137.366 174.141 133.739 179.386 134.344 179.93C135.058 180.576 141.643 174.7 154.098 162.301L144.992 152.371L139.313 155.795Z" fill="black"/>
<path d="M151.888 121.454C147.199 119.426 143.163 117.872 140.096 116.773C131.412 113.658 128.138 113.204 124.682 113.739C122.954 114.007 120.529 114.42 118.436 116.323C115.771 118.757 115.284 122.099 114.996 124.103C114.809 125.372 114.533 128.196 115.978 133.684C118.528 144.209 124.866 153.426 133.781 159.575C135.581 159.459 137.361 159.127 139.082 158.585C145.219 156.651 148.984 152.501 150.695 150.323L148.412 147.276C154.947 148.06 161.555 146.592 167.144 143.115C171.679 138.592 172.498 131.579 169.245 126.362C165.712 120.687 158.196 118.477 151.888 121.454Z" fill="white"/>
<path opacity="0.21" d="M144.899 155.446C143.418 153.276 141.248 149.998 138.839 145.873C135.135 139.569 132.552 135.172 133.566 134.219C134.831 133.023 139.946 138.924 148.55 141.573C155.283 143.642 161.631 142.94 166.308 141.837C165.005 143.417 163.424 144.746 161.643 145.759C155.782 149.065 149.714 147.71 147.994 147.26L151.15 149.852L144.899 155.446Z" fill="#9E9E9E"/>
<path d="M133.943 159.311C128.16 155.313 123.423 149.984 120.132 143.772C116.801 137.489 113.8 128.67 115.755 121.563C118.282 112.372 128.674 113.216 135.943 115.532C143.305 117.88 149.799 122.302 156.115 126.626C156.44 126.849 156.744 126.322 156.423 126.102C150.895 122.314 145.281 118.521 139.034 116.006C133.688 113.852 126.459 111.95 120.898 114.384C115.199 116.854 114.165 123.523 114.838 129.023C115.554 134.808 117.432 140.389 120.359 145.431C123.658 151.164 128.193 156.09 133.635 159.851C133.959 160.074 134.264 159.547 133.943 159.324V159.311Z" fill="black"/>
<path d="M133.867 159.798C136.807 160.549 140.162 158.581 142.652 157.194C145.756 155.439 148.549 153.185 150.919 150.522C151.183 150.234 150.753 149.799 150.489 150.092C148.459 152.371 146.112 154.348 143.521 155.961C140.977 157.531 137.103 159.981 134.029 159.206C133.951 159.185 133.867 159.195 133.797 159.235C133.727 159.275 133.675 159.341 133.654 159.419C133.632 159.497 133.642 159.58 133.682 159.651C133.722 159.721 133.789 159.773 133.867 159.794V159.798Z" fill="black"/>
<path d="M140.17 139.809C143.615 143.381 147.203 146.8 150.935 150.067C151.227 150.323 151.661 149.893 151.365 149.637C147.631 146.373 144.042 142.954 140.6 139.379C140.328 139.099 139.898 139.529 140.17 139.809Z" fill="black"/>
<path d="M148.384 147.479C152.136 148.542 156.091 147.479 159.835 146.83C160.241 146.765 160.058 146.177 159.677 146.242C156.026 146.859 152.193 147.925 148.546 146.891C148.468 146.87 148.385 146.88 148.315 146.92C148.244 146.96 148.193 147.026 148.171 147.104C148.15 147.182 148.16 147.265 148.2 147.336C148.24 147.406 148.306 147.458 148.384 147.479Z" fill="black"/>
<path d="M164.832 158.954L159.807 165.708C148.279 167.771 142.559 169.27 142.648 170.202C142.751 171.263 150.385 171.584 165.55 171.168L170.418 161.684L164.832 158.954Z" fill="black"/>
<path d="M166.418 127.806C170.748 125.78 174.772 123.158 178.372 120.014C181.13 117.58 182.502 115.808 186.104 113.593C189.142 111.727 192.03 110.007 195.68 110.482C196.386 110.575 199.919 111.033 201.98 113.954C203.444 116.031 203.408 118.278 203.351 120.184C203.274 122.898 202.54 124.991 200.678 129.108C198.743 133.396 197.773 135.541 195.895 138.819C192.452 144.826 189.3 148.931 186.302 152.809C180.218 160.674 177.378 162.877 175.147 164.293C173.949 165.059 172.703 165.748 171.416 166.353C169.607 165.64 167.884 164.729 166.276 163.635C163.415 161.682 160.959 159.193 159.044 156.306C160.707 152.898 162.369 149.491 164.029 146.084L160.172 146.489C160.93 145.477 161.624 144.417 162.248 143.317C164.898 138.571 166.331 133.242 166.418 127.806Z" fill="white"/>
<path opacity="0.16" d="M198.155 110.904C198.589 112.911 198.793 114.962 198.763 117.016C198.686 121.916 197.222 128.374 189.158 138.738C184.635 144.555 176.656 153.401 163.802 161.725C166.263 163.883 169.116 165.548 172.206 166.629C175.696 164.082 178.954 161.232 181.942 158.111C186.294 153.568 188.959 149.617 191.34 146.084C192.419 144.482 194.553 140.717 198.816 133.193C200.768 129.943 202.194 126.404 203.038 122.707C203.525 120.46 203.521 119.276 203.339 118.217C202.673 114.25 199.485 111.804 198.155 110.904Z" fill="#9E9E9E"/>
<path d="M164.464 128.54C166.455 128.337 168.39 127.441 170.272 126.796C172.154 126.151 174.037 125.522 175.862 124.735C176.219 124.581 175.911 124.058 175.554 124.212C173.777 124.975 171.939 125.583 170.11 126.208C168.281 126.833 166.39 127.737 164.464 127.932C164.078 127.972 164.058 128.581 164.464 128.54Z" fill="black"/>
<path d="M172.337 130.54C175.756 124.91 179.285 119.126 184.574 115.041C189.677 111.102 199.96 107.521 202.633 116.128C203.72 119.629 202.633 123.283 201.38 126.581C200.165 129.7 198.778 132.75 197.226 135.716C191.057 147.597 182.494 158.071 172.077 166.479C171.773 166.726 172.203 167.156 172.507 166.909C183.744 157.817 192.829 146.352 199.112 133.335C201.741 127.863 205.663 120.541 202.661 114.505C199.7 108.551 192.322 109.756 187.467 112.412C180.336 116.319 175.926 123.486 171.829 130.232C171.623 130.568 172.15 130.873 172.353 130.54H172.337Z" fill="black"/>
<path d="M171.099 133.112C166.405 140.468 162.442 148.266 159.267 156.395C159.125 156.76 159.713 156.918 159.855 156.557C163.014 148.485 166.953 140.742 171.619 133.436C171.829 133.104 171.302 132.799 171.095 133.128L171.099 133.112Z" fill="black"/>
<path d="M159.434 156.865C162.412 161.551 166.884 165.094 172.126 166.921C172.495 167.051 172.653 166.463 172.288 166.337C167.196 164.555 162.852 161.11 159.957 156.557C159.75 156.229 159.223 156.533 159.434 156.865Z" fill="black"/>
<path d="M148.839 76.9116C147.348 79.8075 146.37 82.9391 145.946 86.1681C144.807 95.0433 148.258 102.864 149.415 105.261C151.848 110.303 154.282 112.347 154.769 117.556C154.948 119.594 154.801 121.648 154.335 123.64C157.98 125.424 162.121 125.924 166.086 125.057C170.051 124.19 173.606 122.008 176.174 118.866C176.389 114.899 176.644 109.159 176.754 102.235C177.127 78.9885 175.342 76.2099 173.716 74.7537C166.897 68.6368 151.706 75.5609 148.839 76.9116Z" fill="#EC615B"/>
<path d="M148.554 119.491C149.74 118.417 151.07 117.515 152.505 116.809C154.643 115.767 155.235 116.055 155.397 116.144C156.152 116.57 156.432 117.807 156.208 119.239C157.853 120.316 159.851 120.711 161.782 120.342C162.379 118.893 163.4 117.657 164.71 116.797C165.453 116.319 166.629 115.58 168.097 115.726C170.345 115.974 171.635 118.193 172.194 119.154C173.065 120.691 173.472 122.448 173.367 124.212C172.527 125.884 171.278 127.317 169.736 128.378C167.242 130.061 164.783 130.102 160.76 130.163C157.287 130.215 154.513 130.224 151.519 128.629C150.079 127.863 148.437 126.954 147.735 125.027C146.798 122.431 148.278 119.937 148.554 119.491Z" fill="white"/>
<path opacity="0.19" d="M166.138 116.014C167.108 117.244 167.71 118.724 167.874 120.282C168.214 123.766 166.089 126.24 165.622 126.772C163.112 129.696 158.727 130.779 154.366 129.704C157.946 130.615 161.703 130.564 165.257 129.558C166.531 129.185 173.37 127.181 173.626 123.474C173.715 122.204 172.997 121.182 172.291 120.168C170.78 118.116 168.606 116.648 166.138 116.014Z" fill="#9E9E9E"/>
<path d="M148.299 123.652C148.704 129.875 155.539 130.353 160.435 130.459C165.915 130.576 172.13 128.244 174.227 122.805C174.369 122.439 173.781 122.281 173.639 122.642C171.728 127.615 166.11 129.733 161.125 129.85C158.81 129.844 156.501 129.616 154.229 129.169C151.288 128.658 149.114 126.772 148.915 123.652C148.891 123.247 148.283 123.247 148.307 123.652H148.299Z" fill="black"/>
<path d="M148.818 119.645C149.894 118.047 151.52 116.899 153.386 116.42C155.008 116.039 155.649 117.012 155.746 118.448C155.734 118.776 155.799 119.103 155.937 119.401C156.833 121.048 160.233 120.618 161.66 120.651C161.741 120.651 161.818 120.619 161.876 120.562C161.933 120.504 161.965 120.427 161.965 120.346C161.965 120.266 161.933 120.188 161.876 120.131C161.818 120.074 161.741 120.042 161.66 120.042C160.614 120.042 159.559 120.006 158.517 119.888C157.559 119.783 157.413 119.831 156.842 118.939C156.27 118.046 156.464 118.168 156.375 117.316C156.381 116.932 156.25 116.557 156.006 116.26C155.761 115.963 155.419 115.762 155.041 115.694C152.489 115.065 149.629 117.422 148.295 119.316C148.068 119.637 148.595 119.941 148.818 119.624V119.645Z" fill="black"/>
<path d="M162.029 120.505C162.776 119.421 163.605 118.396 164.508 117.438C165.25 116.655 166.581 115.868 167.716 115.937C168.406 115.978 169.27 116.651 169.797 117.049C170.804 117.819 171.637 118.793 172.243 119.906C172.848 121.019 173.214 122.247 173.314 123.51C173.351 123.896 173.959 123.916 173.923 123.51C173.618 120.294 171.838 117.17 168.848 115.73C165.449 114.108 163.23 117.734 161.502 120.192C161.279 120.513 161.806 120.817 162.029 120.501V120.505Z" fill="black"/>
<path d="M166.04 120.221C165.948 119.841 165.985 119.442 166.144 119.085C166.303 118.728 166.576 118.434 166.921 118.249C167.082 118.193 167.253 118.17 167.423 118.182C167.594 118.194 167.76 118.24 167.912 118.318C168.063 118.397 168.198 118.505 168.306 118.637C168.415 118.768 168.495 118.921 168.543 119.085C169.022 120.659 166.86 121.478 166.036 120.123C165.993 120.059 165.927 120.014 165.851 119.997C165.776 119.98 165.696 119.992 165.63 120.031C165.563 120.071 165.514 120.134 165.492 120.208C165.47 120.283 165.478 120.363 165.513 120.432C165.754 120.861 166.146 121.187 166.612 121.346C167.078 121.505 167.586 121.487 168.04 121.296C168.506 121.086 168.872 120.705 169.064 120.233C169.256 119.76 169.258 119.231 169.07 118.756C168.9 118.318 168.57 117.959 168.147 117.752C167.723 117.546 167.238 117.506 166.787 117.641C165.736 117.986 165.164 119.369 165.44 120.383C165.462 120.461 165.513 120.527 165.584 120.567C165.654 120.607 165.737 120.617 165.815 120.596C165.893 120.574 165.96 120.523 165.999 120.452C166.039 120.382 166.05 120.299 166.028 120.221H166.04Z" fill="black"/>
<path d="M151.86 120.225C151.369 119.787 151.743 118.801 152.169 118.436C152.409 118.245 152.713 118.153 153.019 118.177C153.326 118.201 153.611 118.34 153.819 118.566C154.01 118.815 154.099 119.127 154.071 119.439C154.042 119.752 153.898 120.042 153.665 120.253C153.413 120.451 153.098 120.551 152.777 120.536C152.457 120.52 152.153 120.389 151.921 120.168C151.633 119.904 151.203 120.33 151.491 120.598C151.834 120.927 152.285 121.12 152.76 121.141C153.234 121.162 153.701 121.009 154.071 120.712C154.43 120.384 154.647 119.929 154.678 119.444C154.708 118.959 154.549 118.481 154.233 118.111C153.917 117.792 153.494 117.6 153.045 117.572C152.596 117.544 152.153 117.683 151.799 117.961C151.106 118.558 150.664 119.961 151.442 120.655C151.735 120.914 152.169 120.488 151.872 120.225H151.86Z" fill="black"/>
<path d="M163.165 123.632C163.023 122.821 164.196 122.898 164.402 123.535C164.424 123.607 164.429 123.683 164.417 123.757C164.404 123.831 164.375 123.902 164.331 123.963C164.287 124.024 164.23 124.075 164.164 124.11C164.097 124.145 164.023 124.165 163.948 124.167C163.772 124.166 163.601 124.116 163.451 124.024C163.302 123.932 163.18 123.8 163.1 123.644C162.885 123.316 162.358 123.62 162.573 123.948C162.726 124.24 162.97 124.473 163.268 124.614C163.566 124.754 163.901 124.794 164.224 124.727C164.371 124.689 164.508 124.62 164.627 124.525C164.745 124.43 164.843 124.311 164.912 124.176C164.982 124.041 165.022 123.893 165.031 123.741C165.039 123.589 165.016 123.437 164.962 123.295C164.853 123.006 164.649 122.763 164.384 122.604C164.119 122.446 163.808 122.382 163.502 122.423C163.351 122.452 163.208 122.51 163.08 122.594C162.951 122.679 162.841 122.787 162.755 122.914C162.669 123.042 162.609 123.184 162.579 123.335C162.548 123.485 162.548 123.64 162.577 123.79C162.646 124.176 163.23 124.013 163.165 123.632Z" fill="black"/>
<path d="M169.566 123.239C168.755 122.833 169.789 121.937 170.292 122.484C170.393 122.576 170.454 122.705 170.461 122.841C170.469 122.978 170.423 123.112 170.333 123.215C170.242 123.318 170.115 123.382 169.979 123.392C169.842 123.403 169.707 123.359 169.602 123.271C169.286 123.04 168.982 123.567 169.294 123.794C169.535 123.959 169.829 124.026 170.117 123.983C170.405 123.939 170.666 123.788 170.848 123.559C171.021 123.307 171.09 122.998 171.042 122.696C170.994 122.394 170.831 122.122 170.588 121.937C170.343 121.764 170.044 121.685 169.746 121.715C169.448 121.745 169.171 121.881 168.965 122.099C168.843 122.214 168.752 122.357 168.699 122.516C168.646 122.675 168.633 122.845 168.661 123.01C168.69 123.175 168.759 123.33 168.862 123.462C168.966 123.594 169.1 123.699 169.253 123.766C169.606 123.936 169.915 123.413 169.562 123.239H169.566Z" fill="black"/>
<path d="M147.832 76.6317C147.467 76.3316 145.52 74.8064 143.046 75.2283C140.065 75.7353 138.742 78.6477 138.418 79.3616C137.805 80.7002 137.675 81.978 138.036 85.8517C138.355 89.3545 138.887 92.8345 139.631 96.2724C140.134 98.479 140.9 101.468 142.064 104.977C141.759 106.288 141.665 107.64 141.784 108.981C141.988 110.72 142.455 112.417 143.172 114.015C144.17 116.448 144.794 116.886 144.879 118.477C144.932 119.316 144.75 120.03 144.385 121.466C143.598 124.553 142.868 125.21 142.571 127.55C142.535 127.847 142.198 130.483 142.839 130.69C143.48 130.897 144.527 128.95 144.843 128.378C144.937 129.377 145.314 130.328 145.93 131.12C146.255 131.526 147.147 132.645 147.958 132.515C148.867 132.373 149.625 130.747 149.581 128.459C151.495 129.652 152.128 129.757 152.307 129.566C152.684 129.161 150.879 127.482 149.747 124.419C148.782 121.811 148.53 118.858 149.414 118.436C150.157 118.079 151.215 119.811 152.822 119.438C153.264 119.336 153.921 119.032 154.067 118.546C154.497 117.118 150.339 114.777 149.747 114.449C149.63 111.79 149.262 109.148 148.648 106.559C148.298 105.087 147.868 103.635 147.358 102.211C146.657 99.4305 146.205 96.5935 146.007 93.7331C145.603 87.9696 146.221 82.1802 147.832 76.6317Z" fill="white"/>
<path opacity="0.26" d="M140.324 76.064C139.731 78.3864 139.393 80.7667 139.318 83.1625C139.03 92.4027 142.762 99.5297 144.997 103.091C144.553 104.612 144.281 106.178 144.185 107.76C144.006 111.629 144.844 115.478 146.615 118.923C145.74 119.98 145.257 121.307 145.248 122.679C145.285 125.113 147.005 127.384 149.605 128.427C149.659 129.286 149.451 130.142 149.008 130.881C148.818 131.189 148.12 132.325 147.305 132.345C146.323 132.365 145.204 130.788 144.851 128.338C143.346 130.276 142.754 130.564 142.502 130.439C142.096 130.232 142.376 128.816 143.541 124.16C144.129 121.791 144.64 119.803 145.021 118.351C144.693 117.694 144.21 116.704 143.719 115.479C142.644 112.867 141.946 111.171 141.796 108.989C141.71 107.625 141.837 106.257 142.174 104.933C141.654 103.513 141.107 101.878 140.588 100.065C140.048 98.1708 139.695 96.6213 139.436 95.4125C137.878 88.1599 137.099 84.5295 137.91 81.2804C138.381 79.4058 139.2 77.6364 140.324 76.064Z" fill="#9E9E9E"/>
<path d="M147.427 75.5325C145.642 74.2791 142.559 74.5995 140.673 75.5325C138.332 76.6804 137.984 79.4995 137.809 81.8279C137.205 89.762 139.525 97.542 141.78 105.058C141.807 105.13 141.859 105.189 141.927 105.223C141.995 105.258 142.073 105.266 142.147 105.245C142.22 105.225 142.283 105.178 142.324 105.113C142.364 105.048 142.378 104.971 142.364 104.896C140.632 99.1118 138.876 93.2545 138.43 87.2025C138.227 84.4807 138.077 81.3492 138.908 78.7207C139.484 76.8995 140.722 75.9665 142.559 75.6217C144.1 75.3337 145.747 75.1066 147.114 76.0639C147.435 76.291 147.739 75.7637 147.423 75.5406L147.427 75.5325Z" fill="black"/>
<path d="M143.152 103.395C141.452 105.018 141.172 107.188 141.553 109.415C142.097 112.599 143.407 115.734 144.709 118.671C144.867 119.028 145.395 118.716 145.237 118.363C143.557 114.582 139.878 107.338 143.582 103.825C143.866 103.557 143.436 103.127 143.152 103.395Z" fill="black"/>
<path d="M148.538 114.668C148.943 113.702 150.343 115.499 150.566 115.722C150.971 116.119 151.414 116.474 151.888 116.785C152.456 117.166 153.324 117.438 153.571 118.124C154.034 118.716 153.7 119.026 152.57 119.053L152.241 118.959C151.744 118.785 151.298 118.488 150.947 118.095C150.671 117.815 150.241 118.245 150.517 118.525C151.243 119.26 152.906 120.274 153.936 119.474C154.671 118.903 154.375 117.852 153.803 117.3C153.312 116.814 152.586 116.554 152.042 116.161C151.259 115.617 150.748 114.891 150.051 114.27C149.353 113.65 148.351 113.532 147.941 114.506C147.791 114.867 148.379 115.025 148.529 114.668H148.538Z" fill="black"/>
<path d="M144.587 118.452C144.397 121.336 143.127 123.892 142.454 126.666C142.17 127.842 141.431 130.142 142.697 130.909C142.756 130.941 142.823 130.954 142.889 130.946C142.955 130.938 143.017 130.909 143.066 130.864C143.877 130.199 144.242 129.112 144.51 128.114C144.521 128.076 144.524 128.035 144.519 127.996C144.514 127.956 144.501 127.917 144.481 127.883C144.462 127.848 144.435 127.817 144.404 127.792C144.372 127.768 144.336 127.75 144.297 127.739C144.259 127.728 144.218 127.725 144.179 127.73C144.139 127.735 144.1 127.748 144.066 127.768C144.031 127.788 144 127.814 143.975 127.846C143.951 127.877 143.933 127.913 143.922 127.952C143.776 128.504 143.602 129.785 142.981 129.493C142.36 129.201 142.79 128.017 142.896 127.465C143.133 126.39 143.438 125.33 143.808 124.293C144.445 122.366 145.062 120.488 145.196 118.452C145.224 118.047 144.616 118.047 144.587 118.452Z" fill="black"/>
<path d="M144.141 125.303C144.315 127.648 144.632 131.047 146.79 132.519C148.948 133.992 149.767 129.753 149.901 128.427C149.941 128.021 149.333 128.041 149.292 128.427C149.203 129.331 149.004 130.775 148.368 131.481C148.254 131.939 147.962 132.061 147.508 131.858C147.343 131.927 147.159 131.929 146.993 131.864C146.827 131.799 146.693 131.672 146.619 131.509C146.302 131.169 146.045 130.777 145.861 130.349C145.078 128.788 144.875 127.023 144.749 125.303C144.721 124.898 144.108 124.898 144.141 125.303Z" fill="black"/>
<path d="M145.836 125.299C145.747 127.684 145.783 130.167 147.592 131.968C147.65 132.022 147.726 132.051 147.805 132.05C147.884 132.048 147.959 132.016 148.015 131.96C148.071 131.905 148.103 131.83 148.104 131.751C148.105 131.672 148.076 131.596 148.022 131.538C146.335 129.871 146.363 127.514 146.445 125.299C146.445 124.894 145.848 124.894 145.836 125.299Z" fill="black"/>
<path d="M147.058 124.228C147.484 125.238 150.623 131.984 152.448 129.859C153.089 129.108 152.448 127.806 152.022 127.108C151.179 125.668 149.836 124.581 149.589 122.853C149.528 122.448 148.944 122.63 149.001 123.016C149.293 124.918 150.842 126.078 151.682 127.713C151.783 127.912 152.087 128.362 152.022 128.585C151.941 128.942 151.106 129.242 150.773 129.072C150.242 128.804 149.771 127.855 149.439 127.352C148.713 126.273 148.096 125.125 147.597 123.924C147.447 123.563 146.92 123.876 147.074 124.228H147.058Z" fill="black"/>
<path d="M170.985 76.8749C171.404 75.3788 172.168 74.0018 173.216 72.8551C174.125 71.8695 175.946 69.9022 178.489 70.1009C180.736 70.2794 182.14 72.0398 182.363 72.3562C183.58 73.9463 183.58 75.7108 183.58 78.035C183.511 87.616 183.503 87.7702 183.503 87.7702C183.1 92.8541 182.785 96.8468 182.558 99.7484C183.069 100.89 183.407 102.101 183.56 103.342C183.713 104.715 183.655 106.104 183.389 107.459C183.024 109.488 182.249 111.11 180.716 114.278C179.094 117.665 178.769 117.791 178.282 119.482C177.662 121.567 177.946 121.997 177.276 123.482C176.437 125.332 175.192 126.423 173.788 127.627C171.804 129.327 168.466 131.566 167.821 130.917C167.416 130.511 168.154 129.051 168.754 128.232C169.419 127.327 169.971 127.124 171.188 126.139C172.405 125.153 173.386 124.374 173.979 123.348C174.36 122.691 175.021 121.162 174.328 118.48C174.117 118.077 173.807 117.733 173.426 117.484C173.045 117.234 172.607 117.086 172.153 117.055C171.698 117.023 171.244 117.108 170.832 117.302C170.42 117.497 170.065 117.793 169.801 118.164C168.62 118.687 167.655 118.724 167.367 118.314C167.079 117.904 167.537 117.158 167.582 117.097C168.255 115.994 169.496 116.128 170.953 115.353C171.942 114.789 172.777 113.991 173.386 113.029C173.979 112.181 174.405 111.175 174.899 107.098C175.062 105.744 175.24 103.967 175.362 101.866C174.972 99.7403 174.586 97.6094 174.202 95.4731C173.077 89.2237 172.005 83.0243 170.985 76.8749Z" fill="white"/>
<path opacity="0.23" d="M179.678 70.2593C180.738 73.2578 181.42 76.3768 181.707 79.5442C182.227 85.4699 181.384 91.4361 179.244 96.9862C179.942 98.2222 180.449 99.5571 180.745 100.945C181.37 103.918 180.717 105.845 179.354 111.216C177.163 119.839 177.35 120.74 175.821 123.413C174.732 125.325 173.383 127.076 171.813 128.617C171.659 128.767 175.379 127.1 177.249 123.498C178.022 121.979 178.452 120.31 178.51 118.606C179.102 117.389 179.91 115.702 180.863 113.686C183.045 109.062 183.345 108.263 183.536 107.265C183.828 105.748 183.978 103.209 182.546 99.7648C182.717 98.3289 182.932 96.3129 183.126 93.8953C183.366 90.8815 183.329 90.2771 183.532 81.8035C183.678 76.1044 183.755 74.0316 182.189 72.1617C181.505 71.348 180.647 70.698 179.678 70.2593Z" fill="#9E9E9E"/>
<path d="M171.244 77.0291C172.636 73.7557 175.39 69.3221 179.665 70.5715C183.113 71.5774 183.223 75.9096 183.279 78.8261C183.404 85.817 183.057 92.8083 182.241 99.7525C182.196 100.158 182.805 100.158 182.849 99.7525C183.401 94.9945 183.75 90.2162 183.868 85.4257C183.961 81.6655 184.472 77.2238 183.247 73.5853C182.436 71.2124 180.489 69.5899 177.905 69.8251C174.137 70.1659 172.06 73.565 170.721 76.7208C170.571 77.0778 171.094 77.3861 171.244 77.0291Z" fill="black"/>
<path d="M181.093 98.8155C186.367 104.494 181.292 112.469 178.485 118.002C178.311 118.351 178.834 118.659 179.013 118.31C181.949 112.514 187.036 104.287 181.523 98.3855C181.256 98.0975 180.826 98.5315 181.093 98.8155Z" fill="black"/>
<path d="M171.192 79.2884L175.106 101.959C175.175 102.365 175.76 102.182 175.695 101.797L171.764 79.1302C171.695 78.7246 171.111 78.9071 171.176 79.2925L171.192 79.2884Z" fill="black"/>
<path d="M176.862 100.248C175.382 101.253 175.187 103.452 174.875 105.07C174.335 107.91 174.023 110.749 172.883 113.439C172.733 113.792 173.256 114.104 173.406 113.743C174.154 111.893 174.684 109.963 174.984 107.991C175.317 106.089 175.414 101.963 177.171 100.771C177.495 100.552 177.191 100.024 176.862 100.248Z" fill="black"/>
<path d="M172.575 113.524C171.582 114.83 169.943 115.203 168.556 115.937C167.854 116.31 166.641 116.98 166.819 117.965C166.978 118.821 168.036 119.012 168.75 118.878C170.154 118.61 171.143 117.255 172.636 117.328C173.042 117.328 173.042 116.736 172.636 116.72C171.817 116.731 171.02 116.989 170.348 117.458C169.885 117.772 169.385 118.03 168.86 118.225C168.268 118.395 167.967 118.444 167.789 117.783C167.61 117.121 167.813 117.105 168.328 116.769C169.931 115.722 171.886 115.426 173.099 113.828C173.338 113.52 172.807 113.215 172.575 113.524Z" fill="black"/>
<path d="M178.254 118.229C177.937 119.531 177.621 120.837 177.297 122.139C176.846 123.948 175.982 124.979 174.563 126.098C172.437 127.753 170.36 129.66 167.926 130.844C167.574 131.014 167.882 131.542 168.235 131.371C170.875 130.081 173.305 127.936 175.569 126.098C177.962 124.143 178.136 121.287 178.842 118.391C178.935 118.01 178.347 117.848 178.254 118.229Z" fill="black"/>
<path d="M168.085 130.84C167.679 128.95 171.103 126.601 172.36 125.567C173.399 124.715 174.246 123.859 174.194 122.448C174.194 122.042 173.569 122.042 173.585 122.448C173.666 124.577 170.49 126.277 169.156 127.644C168.223 128.601 167.193 129.583 167.497 131.006C167.578 131.388 168.166 131.225 168.085 130.844V130.84Z" fill="black"/>
<path d="M172.924 117.418C173.403 118.635 174.742 118.614 175.849 118.44C176.234 118.375 176.068 117.791 175.687 117.852C174.965 117.965 173.845 118.115 173.508 117.255C173.37 116.894 172.782 117.049 172.924 117.418Z" fill="black"/>
<path d="M140.819 55.1575C140.806 58.1004 141.156 61.0336 141.861 63.8908C141.46 64.4273 141.235 65.0748 141.216 65.7445C141.223 66.2482 141.34 66.7442 141.56 67.1977C141.779 67.6511 142.095 68.051 142.486 68.3689C142.889 68.6959 143.36 68.9287 143.865 69.0504C144.269 69.8007 144.732 70.5182 145.248 71.1962C146.316 72.6502 147.643 73.8948 149.163 74.8671C150.796 75.8921 152.625 76.5649 154.533 76.8425L157.409 76.0313C158.046 77.597 159.344 78.6679 160.735 78.7125C162.256 78.7652 163.299 77.5767 163.838 76.9683C164.818 75.8111 165.362 74.3473 165.376 72.8309L162.26 69.8779L163.368 65.8013C164.343 65.6972 165.259 65.2787 165.976 64.6087C166.426 64.1616 166.779 63.6264 167.013 63.0366C167.247 62.4469 167.356 61.8152 167.335 61.1812C167.335 60.5849 167.29 58.8853 166.098 58.143C164.974 57.4453 163.165 57.8104 161.847 59.1855C161.348 57.5629 160.261 55.0034 157.831 53.247C153.474 50.0831 146.518 50.7362 140.819 55.1575Z" fill="white"/>
<path opacity="0.18" d="M159.907 56.3301C160.704 58.4914 161.022 60.7998 160.84 63.096C160.676 65.0388 160.163 66.9363 159.327 68.6977C157.899 71.7996 155.71 74.4899 152.963 76.5183C154.466 76.8269 156.028 76.6508 157.425 76.0153L159.879 78.3193C160.934 75.7503 161.99 73.1813 163.047 70.6123L162.475 69.3954C162.645 68.1461 162.82 66.8927 162.99 65.6393C163.815 65.694 164.637 65.5005 165.351 65.0836C166.004 64.67 166.533 64.0874 166.882 63.3976C167.232 62.7079 167.388 61.9365 167.334 61.1652C167.302 60.6582 167.196 59.06 166.028 58.5692C165.059 58.1635 164.028 58.8004 163.874 58.8977L159.907 56.3301Z" fill="#9E9E9E"/>
<path d="M150.188 51.6774C150.513 52.8473 151.026 53.9569 151.706 54.963C154.626 59.2343 160.84 61.6234 163.501 59.7616C164.288 59.2099 164.592 58.4027 165.347 58.4554C166.361 58.5244 167.29 60.1064 167.339 61.5301C167.359 62.3344 167.124 63.1243 166.665 63.7854C165.473 65.5377 163.274 65.631 162.99 65.6392C162.727 66.3977 162.122 68.4786 163.047 70.6041C164.406 73.7152 168.166 74.7537 170.661 74.5874C176.421 74.2101 180.777 67.0629 179.584 62.7105C179.09 60.8973 177.994 60.9055 174.445 57.1534C170.506 52.9835 170.888 51.9491 167.793 48.8136C164.698 45.6781 161.14 42.072 157.348 42.7292C152.342 43.6378 150.298 51.2596 150.188 51.6774Z" fill="#183B56"/>
<path d="M155.076 49.4018C151.619 54.1903 146.701 57.7275 141.062 59.4817C142.084 61.4612 142.084 62.9052 141.873 63.8909C141.662 64.8766 141.163 65.408 141.261 66.2598C141.411 67.5416 142.717 68.4542 143.877 69.0505C144.554 70.313 145.391 71.4828 146.367 72.5308C147.925 74.1933 149.803 75.5234 151.888 76.4411C151.722 76.7615 150.643 78.7938 148.351 79.3048C146.124 79.8078 143.674 78.668 142.368 76.4411C140.697 77.3659 137.906 78.5869 136.052 77.4511C133.371 75.8043 134.316 70.1498 135.209 64.8157C136.486 57.1818 137.237 52.6063 141.188 49.0651C145.694 45.0088 153.052 43.4755 154.918 45.7795C155.648 46.68 155.462 48.1322 155.076 49.4018Z" fill="#183B56"/>
<path d="M148.294 64.9991C148.613 64.9173 148.677 64.0946 148.438 63.1615C148.199 62.2283 147.746 61.5382 147.427 61.62C147.108 61.7018 147.044 62.5245 147.283 63.4576C147.522 64.3908 147.975 65.0809 148.294 64.9991Z" fill="black"/>
<path d="M155.45 63.2916C155.769 63.2098 155.833 62.3871 155.594 61.4539C155.355 60.5208 154.902 59.8307 154.583 59.9125C154.264 59.9942 154.2 60.817 154.439 61.7501C154.678 62.6832 155.131 63.3734 155.45 63.2916Z" fill="black"/>
<path d="M140.571 57.417C141.192 65.8704 144.855 75.8245 154.452 77.1388C154.833 77.1915 155 76.6033 154.61 76.5506C145.281 75.2769 141.784 65.6229 141.18 57.417C141.151 57.0317 140.543 57.0114 140.571 57.417Z" fill="black"/>
<path d="M154.727 77.0129C159.595 76.2909 163.526 70.2916 163.282 65.6553C163.262 65.2497 162.653 65.2497 162.674 65.6553C162.905 70.0239 159.145 75.7595 154.561 76.4451C154.176 76.5018 154.338 77.09 154.723 77.0292L154.727 77.0129Z" fill="black"/>
<path d="M163.019 66.0488C165.748 66.3368 167.505 63.6516 167.639 61.1813C167.74 59.2829 165.647 56.8572 163.988 58.8732C163.737 59.1734 164.167 59.6074 164.418 59.3032C165.732 57.7131 167.107 59.8873 167.042 61.1813C166.987 61.9054 166.8 62.6133 166.491 63.2703C165.842 64.6494 164.625 65.6067 163.039 65.4404C162.633 65.3998 162.654 66.0083 163.039 66.0488H163.019Z" fill="black"/>
<path d="M157.162 76.1692C158.007 77.3405 159.119 78.2931 160.407 78.9478C160.752 79.1263 161.06 78.603 160.711 78.4245C159.516 77.8215 158.48 76.9445 157.689 75.865C157.462 75.5486 156.935 75.865 157.166 76.1692H157.162Z" fill="black"/>
<path d="M162.179 69.5779C162.688 70.8454 163.569 71.9288 164.706 72.685C165.035 72.9041 165.339 72.3767 165.015 72.1618C164.007 71.4926 163.224 70.5358 162.768 69.4156C162.621 69.0587 162.033 69.2128 162.179 69.5779Z" fill="black"/>
<path d="M160.735 79.0007C163.294 79.0777 164.503 76.6521 165.327 74.6158C165.477 74.2548 164.889 74.0966 164.743 74.4536C164.02 76.2302 162.99 78.4612 160.735 78.3922C160.329 78.3922 160.329 78.9885 160.735 79.0007Z" fill="black"/>
<path d="M149.223 59.8589C150.012 63.2145 150.994 66.5218 152.164 69.7644C152.257 70.0159 152.699 70.0889 152.752 69.7644L153.206 66.925C153.267 66.5397 152.683 66.3774 152.622 66.7628L152.164 69.6022H152.752C151.58 66.3605 150.598 63.053 149.811 59.6967C149.718 59.3154 149.134 59.4776 149.223 59.8589Z" fill="black"/>
<path d="M153.377 71.6708C155.998 71.1151 156.882 68.4744 157.028 66.0974C157.056 65.6918 156.448 65.6918 156.42 66.0974C156.274 68.2108 155.547 70.5878 153.199 71.0826C152.818 71.1638 152.98 71.7519 153.361 71.6708H153.377Z" fill="black"/>
<path d="M143.966 57.4575C144.883 58.7717 145.933 60.0981 147.657 60.1995C148.063 60.1995 148.063 59.6114 147.657 59.5911C146.177 59.5059 145.272 58.2647 144.493 57.1573C144.27 56.8369 143.743 57.1573 143.966 57.4615V57.4575Z" fill="black"/>
<path d="M152.484 59.4006C154.78 58.9382 155.96 56.8573 156.691 54.817C156.824 54.4479 156.236 54.2856 156.106 54.6547C155.445 56.5003 154.407 58.3946 152.322 58.8165C151.937 58.8936 152.099 59.4777 152.484 59.4006Z" fill="black"/>
<path d="M146.084 67.4808C146.164 67.4808 146.242 67.4487 146.299 67.3917C146.356 67.3346 146.388 67.2572 146.388 67.1765C146.388 67.0959 146.356 67.0185 146.299 66.9614C146.242 66.9044 146.164 66.8723 146.084 66.8723C146.003 66.8723 145.925 66.9044 145.868 66.9614C145.811 67.0185 145.779 67.0959 145.779 67.1765C145.779 67.2572 145.811 67.3346 145.868 67.3917C145.925 67.4487 146.003 67.4808 146.084 67.4808Z" fill="black"/>
<path d="M148.157 67.1685C148.237 67.1685 148.315 67.1365 148.372 67.0794C148.429 67.0224 148.461 66.945 148.461 66.8643C148.461 66.7836 148.429 66.7062 148.372 66.6492C148.315 66.5921 148.237 66.5601 148.157 66.5601C148.076 66.5601 147.999 66.5921 147.942 66.6492C147.885 66.7062 147.853 66.7836 147.853 66.8643C147.853 66.945 147.885 67.0224 147.942 67.0794C147.999 67.1365 148.076 67.1685 148.157 67.1685Z" fill="black"/>
<path d="M147.637 69.3467C147.718 69.3467 147.795 69.3147 147.852 69.2576C147.909 69.2006 147.941 69.1232 147.941 69.0425C147.941 68.9618 147.909 68.8844 147.852 68.8274C147.795 68.7703 147.718 68.7383 147.637 68.7383C147.557 68.7383 147.479 68.7703 147.422 68.8274C147.365 68.8844 147.333 68.9618 147.333 69.0425C147.333 69.1232 147.365 69.2006 147.422 69.2576C147.479 69.3147 147.557 69.3467 147.637 69.3467Z" fill="black"/>
<path d="M157.689 63.546V63.4446C157.689 63.3639 157.656 63.2865 157.599 63.2295C157.542 63.1724 157.465 63.1404 157.384 63.1404C157.304 63.1404 157.226 63.1724 157.169 63.2295C157.112 63.2865 157.08 63.3639 157.08 63.4446V63.546C157.08 63.6267 157.112 63.7041 157.169 63.7611C157.226 63.8182 157.304 63.8502 157.384 63.8502C157.465 63.8502 157.542 63.8182 157.599 63.7611C157.656 63.7041 157.689 63.6267 157.689 63.546Z" fill="black"/>
<path d="M158.629 64.4749C158.71 64.4749 158.787 64.4428 158.845 64.3858C158.902 64.3287 158.934 64.2514 158.934 64.1707C158.934 64.09 158.902 64.0126 158.845 63.9556C158.787 63.8985 158.71 63.8665 158.629 63.8665C158.549 63.8665 158.471 63.8985 158.414 63.9556C158.357 64.0126 158.325 64.09 158.325 64.1707C158.325 64.2514 158.357 64.3287 158.414 64.3858C158.471 64.4428 158.549 64.4749 158.629 64.4749Z" fill="black"/>
<path d="M159.047 62.3982C159.128 62.3982 159.205 62.3662 159.263 62.3091C159.32 62.2521 159.352 62.1747 159.352 62.094C159.352 62.0133 159.32 61.9359 159.263 61.8789C159.205 61.8218 159.128 61.7898 159.047 61.7898C158.967 61.7898 158.889 61.8218 158.832 61.8789C158.775 61.9359 158.743 62.0133 158.743 62.094C158.743 62.1747 158.775 62.2521 158.832 62.3091C158.889 62.3662 158.967 62.3982 159.047 62.3982Z" fill="black"/>
<path d="M141.504 63.9721C141.199 64.4273 141.008 64.9493 140.949 65.4939C140.889 66.0384 140.962 66.5893 141.161 67.0996C141.361 67.6099 141.68 68.0644 142.093 68.4246C142.506 68.7848 142.999 69.0399 143.532 69.1682C143.61 69.1897 143.693 69.1794 143.763 69.1395C143.834 69.0995 143.885 69.0333 143.907 68.9553C143.928 68.8773 143.918 68.7939 143.878 68.7236C143.838 68.6532 143.772 68.6016 143.694 68.5801C143.251 68.4763 142.841 68.266 142.498 67.9674C142.155 67.6688 141.89 67.291 141.727 66.8667C141.563 66.4425 141.506 65.9848 141.56 65.5333C141.613 65.0819 141.776 64.6504 142.035 64.2763C142.25 63.9478 141.723 63.6436 141.512 63.9721H141.504Z" fill="black"/>
</g>
<defs>
<clipPath id="clip0_67_5569">
<rect width="215.304" height="200" fill="white"/>
</clipPath>
</defs>
</svg>
