<svg width="517" height="464" viewBox="0 0 517 464" fill="none" xmlns="http://www.w3.org/2000/svg">
<path d="M113.212 375.713C75.8937 375.713 38.575 375.713 1.25625 375.713C0.425 375.713 0.425 377.025 1.25625 377.025C38.575 377.025 75.8937 377.025 113.212 377.025C114.044 377.025 114.044 375.713 113.212 375.713Z" fill="#161616"/>
<path d="M246.913 369.15C278.063 369.15 309.169 369.15 340.319 369.15C349.156 369.15 357.994 369.15 366.831 369.15C367.663 369.15 367.663 367.837 366.831 367.837C335.681 367.837 304.575 367.837 273.425 367.837C264.588 367.837 255.75 367.837 246.913 367.837C246.081 367.837 246.081 369.15 246.913 369.15Z" fill="#161616"/>
<path d="M374.05 369.15C397.981 369.15 421.912 369.15 445.844 369.15C446.675 369.15 446.675 367.837 445.844 367.837C421.912 367.837 397.981 367.837 374.05 367.837C373.219 367.837 373.219 369.15 374.05 369.15Z" fill="#161616"/>
<path d="M456.387 369.15C460.544 369.15 464.744 369.15 468.9 369.15C469.731 369.15 469.731 367.837 468.9 367.837C464.744 367.837 460.544 367.837 456.387 367.837C455.556 367.837 455.512 369.15 456.387 369.15Z" fill="#161616"/>
<path d="M397.456 367.662C397.456 352.962 397.456 338.219 397.456 323.519C397.456 322.687 396.144 322.687 396.144 323.519C396.144 338.219 396.144 352.962 396.144 367.662C396.144 368.494 397.456 368.494 397.456 367.662Z" fill="#E8E8E8"/>
<path d="M397.062 324.175C423.444 324.175 449.869 324.175 476.25 324.175C477.081 324.175 477.081 322.862 476.25 322.862C449.869 322.862 423.444 322.862 397.062 322.862C396.231 322.862 396.231 324.175 397.062 324.175Z" fill="#E8E8E8"/>
<path d="M475.856 324.613C475.856 338.613 475.856 352.613 475.856 366.613C475.856 367.444 477.169 367.444 477.169 366.613C477.169 352.613 477.169 338.613 477.169 324.613C477.169 323.738 475.856 323.738 475.856 324.613Z" fill="#E8E8E8"/>
<path d="M404.413 328.594C404.413 339.094 404.413 349.637 404.413 360.137C404.413 360.969 405.725 360.969 405.725 360.137C405.725 349.637 405.725 339.094 405.725 328.594C405.725 327.762 404.413 327.762 404.413 328.594Z" fill="#E8E8E8"/>
<path d="M414.606 328.856C414.606 338.394 414.606 347.931 414.606 357.469C414.606 358.3 415.919 358.3 415.919 357.469C415.919 347.931 415.919 338.394 415.919 328.856C415.919 328.025 414.606 328.025 414.606 328.856Z" fill="#E8E8E8"/>
<path d="M425.85 328.069C425.85 337.519 425.85 346.969 425.85 356.419C425.85 357.25 427.163 357.25 427.163 356.419C427.163 346.969 427.163 337.519 427.163 328.069C427.163 327.237 425.85 327.237 425.85 328.069Z" fill="#E8E8E8"/>
<path d="M437.356 329.95C437.356 339.575 437.356 349.2 437.356 358.825C437.356 359.656 438.669 359.656 438.669 358.825C438.669 349.2 438.669 339.575 438.669 329.95C438.669 329.119 437.356 329.075 437.356 329.95Z" fill="#E8E8E8"/>
<path d="M448.556 330.475C448.556 340.362 448.556 350.25 448.556 360.181C448.556 361.012 449.869 361.012 449.869 360.181C449.869 350.294 449.869 340.406 449.869 330.475C449.869 329.644 448.556 329.644 448.556 330.475Z" fill="#E8E8E8"/>
<path d="M462.469 330.737C462.469 340.1 462.469 349.462 462.469 358.825C462.469 359.656 463.781 359.656 463.781 358.825C463.781 349.462 463.781 340.1 463.781 330.737C463.781 329.906 462.469 329.906 462.469 330.737Z" fill="#E8E8E8"/>
<path d="M471.831 332.094C471.831 340.494 471.831 348.85 471.831 357.25C471.831 358.081 473.144 358.081 473.144 357.25C473.144 348.85 473.144 340.494 473.144 332.094C473.144 331.219 471.831 331.219 471.831 332.094Z" fill="#E8E8E8"/>
<path d="M367.531 111.9C401.263 111.9 435.038 111.9 468.769 111.9C478.35 111.9 487.975 111.9 497.556 111.9C498.388 111.9 498.388 110.588 497.556 110.588C463.825 110.588 430.05 110.588 396.319 110.588C386.738 110.588 377.113 110.588 367.531 110.588C366.656 110.588 366.656 111.9 367.531 111.9Z" fill="#E8E8E8"/>
<path d="M368.188 110.85C368.188 107.962 368.188 105.119 368.188 102.231C368.188 101.4 366.875 101.4 366.875 102.231C366.875 105.119 366.875 107.962 366.875 110.85C366.875 111.725 368.188 111.725 368.188 110.85Z" fill="#E8E8E8"/>
<path d="M367.531 103.281C400.913 103.281 434.294 103.281 467.631 103.281C477.213 103.281 486.794 103.281 496.375 103.281C497.206 103.281 497.206 101.969 496.375 101.969C462.994 101.969 429.612 101.969 396.275 101.969C386.694 101.969 377.113 101.969 367.531 101.969C366.656 101.969 366.656 103.281 367.531 103.281Z" fill="#E8E8E8"/>
<path d="M496.113 103.019C496.113 105.906 496.113 108.75 496.113 111.637C496.113 112.469 497.425 112.469 497.425 111.637C497.425 108.75 497.425 105.906 497.425 103.019C497.425 102.187 496.113 102.187 496.113 103.019Z" fill="#E8E8E8"/>
<path d="M381.225 68.85C381.619 71.825 382.056 74.8875 381.619 77.9063C381.225 80.7938 379.956 83.375 378.862 86.0438C376.762 91.075 375.669 96.325 375.712 101.75C375.712 102.581 377.025 102.581 377.025 101.75C377.025 95.5375 378.6 90.025 381.006 84.3812C381.881 82.325 382.669 80.225 382.975 77.9938C383.369 74.9313 382.975 71.9125 382.581 68.85C382.406 68.0188 381.094 68.0188 381.225 68.85Z" fill="#E8E8E8"/>
<path d="M382.275 69.4187C383.719 68.7187 385.338 68.4562 386.956 68.8062C387.875 69.0249 388.05 69.5499 388.313 70.3375C388.444 70.7312 388.488 70.9062 388.75 71.2562C389.275 71.9124 390.194 70.9937 389.669 70.3375C389.319 69.9 389.669 69.0249 389.188 68.4999C388.706 67.8874 387.744 67.6687 387.044 67.5374C385.163 67.1874 383.281 67.4937 381.575 68.3249C380.831 68.6312 381.488 69.7687 382.275 69.4187Z" fill="#E8E8E8"/>
<path d="M388.356 69.8125C387.963 75.1063 389.319 79.7875 391.769 84.425C394.7 89.9813 395.181 95.7563 395.356 101.969C395.4 102.8 396.713 102.8 396.669 101.969C396.494 96.675 396.319 91.2063 394.131 86.3063C392.994 83.725 391.463 81.4063 390.631 78.6938C389.713 75.8063 389.45 72.8313 389.669 69.8125C389.756 68.9813 388.4 68.9813 388.356 69.8125Z" fill="#E8E8E8"/>
<path d="M409.094 101.575C409.706 100.394 409.137 99.125 409.925 98.1187C411.15 96.6312 415.044 96.675 416.794 96.5C420.687 96.1062 424.537 96.15 428.431 96.4562C432.325 96.7625 436.219 97.2875 440.156 97.4625C442.081 97.55 444.006 97.5062 445.931 97.4625C447.856 97.4187 453.15 98.0312 451.137 101.313C450.7 102.013 451.837 102.713 452.275 101.969C454.069 99.0812 451.094 96.5 448.337 96.15C445.931 95.8437 443.437 96.2375 440.987 96.15C438.056 96.0625 435.125 95.7562 432.194 95.45C426.637 94.925 421.125 94.6187 415.569 95.275C413.644 95.4937 410.756 95.4937 409.094 96.5875C407.431 97.6812 408.7 99.3437 407.956 100.831C407.562 101.662 408.7 102.363 409.094 101.575Z" fill="#E8E8E8"/>
<path d="M425.106 95.1437C425.5 94.1812 425.281 93.2187 425.587 92.2562C426.375 89.8062 429.481 90.5499 431.362 90.5499C434.862 90.5499 438.319 90.5499 441.819 90.5937C448.775 90.5937 455.731 90.6375 462.731 90.6375C462.512 90.4624 462.294 90.3312 462.119 90.1562C462.6 92.3875 462.994 94.6187 463.3 96.8937C463.387 97.725 464.7 97.725 464.612 96.8937C464.306 94.4875 463.912 92.125 463.387 89.8062C463.344 89.5437 463.037 89.3249 462.775 89.3249C454.375 89.2812 445.931 89.2812 437.531 89.2374C435.519 89.2374 433.462 89.2374 431.45 89.2374C429.919 89.2374 428.169 88.9749 426.637 89.3249C423.794 89.9812 424.8 92.7375 423.969 94.7937C423.531 95.5812 424.8 95.9312 425.106 95.1437Z" fill="#E8E8E8"/>
<path d="M451.837 98.5125C455.644 98.7313 459.45 98.6438 463.212 98.2063C464.044 98.1188 464.044 96.8063 463.212 96.8938C459.406 97.3313 455.644 97.4188 451.837 97.2C451.006 97.1125 451.006 98.425 451.837 98.5125Z" fill="#E8E8E8"/>
<path d="M451.706 90.0687C452.581 92.3437 452.975 94.7062 452.887 97.1563C452.844 97.9875 454.156 97.9875 454.2 97.1563C454.287 94.575 453.85 92.125 452.975 89.7187C452.669 88.9312 451.4 89.2812 451.706 90.0687Z" fill="#E8E8E8"/>
<path d="M479.881 62.1125C479.881 65.7437 479.881 69.4187 479.881 73.05C479.881 76.5062 480.144 80.1375 479.488 83.55C478.875 86.8312 477.125 89.5 475.375 92.2562C473.494 95.3187 471.788 98.4687 470.213 101.706C469.863 102.45 471 103.15 471.35 102.362C473.013 98.9062 474.85 95.5375 476.906 92.2562C478.569 89.6312 480.144 87.0062 480.713 83.9C481.281 80.75 481.15 77.5125 481.15 74.3625C481.15 70.2937 481.15 66.1812 481.15 62.1125C481.194 61.2812 479.881 61.2812 479.881 62.1125Z" fill="#E8E8E8"/>
<path d="M480.975 62.9438C483.119 61.7626 485.525 61.8063 487.625 63.0313C488.369 63.4688 489.025 62.3313 488.281 61.8938C485.788 60.4063 482.813 60.3626 480.319 61.8063C479.575 62.2001 480.231 63.3376 480.975 62.9438Z" fill="#E8E8E8"/>
<path d="M486.575 62.55C486.575 66.575 486.531 70.6438 486.531 74.6688C486.531 77.9063 486.225 81.3188 486.663 84.5563C487.1 87.6188 488.763 89.8938 490.556 92.3C492.788 95.2313 494.363 98.2938 495.15 101.925C495.325 102.756 496.594 102.406 496.419 101.575C495.806 98.6438 494.669 95.8875 493.006 93.3938C491.169 90.6375 488.675 88.3188 488.063 84.9063C487.406 81.3188 487.844 77.3813 487.844 73.7938C487.844 70.0313 487.888 66.2688 487.888 62.5063C487.888 61.7188 486.575 61.7188 486.575 62.55Z" fill="#E8E8E8"/>
<path d="M417.319 125.9C417.319 142.35 417.319 158.844 417.319 175.294C417.319 176.125 418.631 176.125 418.631 175.294C418.631 158.844 418.631 142.35 418.631 125.9C418.631 125.025 417.319 125.025 417.319 125.9Z" fill="#E8E8E8"/>
<path d="M418.937 126.031C441.731 126.031 464.525 126.031 487.319 126.031C488.15 126.031 488.15 124.719 487.319 124.719C464.525 124.719 441.731 124.719 418.937 124.719C418.106 124.719 418.106 126.031 418.937 126.031Z" fill="#E8E8E8"/>
<path d="M418.15 175.862C439.937 175.862 461.725 175.862 483.556 175.862C484.387 175.862 484.387 174.55 483.556 174.55C461.769 174.55 439.981 174.55 418.15 174.55C417.275 174.55 417.275 175.862 418.15 175.862Z" fill="#E8E8E8"/>
<path d="M485.875 126.294C485.875 142.612 485.875 158.887 485.875 175.206C485.875 176.037 487.188 176.037 487.188 175.206C487.188 158.887 487.188 142.612 487.188 126.294C487.188 125.462 485.875 125.462 485.875 126.294Z" fill="#E8E8E8"/>
<path d="M483.162 176.081C484.037 176.081 484.956 176.081 485.831 176.081C486.662 176.081 486.662 174.769 485.831 174.769C484.956 174.769 484.037 174.769 483.162 174.769C482.331 174.769 482.331 176.081 483.162 176.081Z" fill="#E8E8E8"/>
<path d="M423.312 140.775C442.3 140.819 461.331 140.863 480.319 140.906C481.15 140.906 481.15 139.594 480.319 139.594C461.331 139.55 442.3 139.506 423.312 139.463C422.481 139.463 422.481 140.775 423.312 140.775Z" fill="#E8E8E8"/>
<path d="M425.106 153.594C443.481 153.55 461.813 153.506 480.187 153.463C481.019 153.463 481.019 152.15 480.187 152.15C461.813 152.194 443.481 152.238 425.106 152.281C424.275 152.281 424.275 153.594 425.106 153.594Z" fill="#E8E8E8"/>
<path d="M426.156 166.369C444.4 166.369 462.644 166.369 480.887 166.369C481.719 166.369 481.719 165.056 480.887 165.056C462.644 165.056 444.4 165.056 426.156 165.056C425.325 165.056 425.325 166.369 426.156 166.369Z" fill="#E8E8E8"/>
<path d="M434.95 140.294C434.95 148.825 434.95 157.356 434.95 165.887C434.95 166.719 436.262 166.719 436.262 165.887C436.262 157.356 436.262 148.825 436.262 140.294C436.262 139.462 434.95 139.462 434.95 140.294Z" fill="#E8E8E8"/>
<path d="M450.394 140.687C450.394 148.781 450.394 156.919 450.394 165.012C450.394 165.844 451.706 165.844 451.706 165.012C451.706 156.919 451.706 148.781 451.706 140.687C451.706 139.813 450.394 139.813 450.394 140.687Z" fill="#E8E8E8"/>
<path d="M465.663 140.119C465.663 148.344 465.663 156.569 465.663 164.838C465.663 165.669 466.975 165.669 466.975 164.838C466.975 156.613 466.975 148.388 466.975 140.119C466.975 139.288 465.663 139.288 465.663 140.119Z" fill="#E8E8E8"/>
<path d="M479.531 140.512C479.531 148.737 479.531 156.962 479.531 165.231C479.531 166.062 480.844 166.062 480.844 165.231C480.844 157.006 480.844 148.781 480.844 140.512C480.844 139.637 479.531 139.637 479.531 140.512Z" fill="#E8E8E8"/>
<path d="M428.3 155.562C426.594 156.962 424.8 159.194 426.025 161.513C426.463 162.344 427.206 163 428.169 163.131C429.394 163.306 430.356 162.475 431.188 161.688C431.8 161.119 430.881 160.156 430.269 160.769C429.613 161.381 428.869 162.125 427.95 161.688C427.294 161.381 426.944 160.594 426.944 159.894C426.944 158.494 428.213 157.356 429.219 156.525C429.875 155.956 428.956 155.037 428.3 155.562Z" fill="#E8E8E8"/>
<path d="M443.262 160.769C441.644 160.025 441.294 157.75 443.087 156.919C444.181 156.438 444.575 157.75 444.706 158.581C444.837 159.281 444.488 161.075 443.35 160.331C442.65 159.894 441.994 161.031 442.694 161.469C443.919 162.256 445.45 161.425 445.931 160.156C446.281 159.15 445.975 158.1 445.625 157.138C445.362 156.394 445.056 155.738 444.269 155.475C442.738 155.038 441.119 156.394 440.681 157.794C440.156 159.413 441.075 161.163 442.563 161.863C443.35 162.256 444.006 161.119 443.262 160.769Z" fill="#E8E8E8"/>
<path d="M431.231 155.431C431.144 155.3 431.144 155.125 431.319 155.081C431.188 154.994 431.056 154.95 430.925 154.863C431.1 155.344 430.794 155.869 430.794 156.394C430.794 156.744 430.969 157.094 431.275 157.313C431.931 157.794 432.806 157.531 433.156 156.831C433.331 156.438 432.762 156.131 432.587 156.481C432.237 157.181 431.362 156.875 431.45 156.131C431.494 155.65 431.713 155.213 431.538 154.688C431.494 154.513 431.319 154.381 431.144 154.469C430.619 154.644 430.313 155.3 430.663 155.781C430.881 156.131 431.45 155.781 431.231 155.431Z" fill="#E8E8E8"/>
<path d="M446.5 155.169C446.937 155.081 447.331 154.95 447.769 154.862C448.162 154.775 447.987 154.119 447.594 154.25C447.156 154.337 446.762 154.469 446.325 154.556C445.931 154.644 446.106 155.3 446.5 155.169Z" fill="#E8E8E8"/>
<path d="M446.281 155.169C446.369 155.388 446.412 155.65 446.5 155.869C446.544 156 446.675 156.131 446.806 156.131C447.025 156.088 447.331 156.044 447.506 156.131C447.594 156.175 447.681 156.262 447.681 156.35C447.681 156.437 447.594 156.35 447.637 156.394C447.375 156.088 446.894 156.525 447.156 156.875C447.55 157.312 448.337 156.962 448.337 156.394C448.337 155.563 447.419 155.431 446.806 155.519C446.894 155.606 447.025 155.694 447.112 155.781C447.025 155.563 446.981 155.3 446.894 155.081C446.806 154.556 446.194 154.731 446.281 155.169Z" fill="#E8E8E8"/>
<path d="M440.244 143.356C440.419 145.15 440.419 146.9 440.2 148.694C440.156 149.131 440.813 149.131 440.856 148.694C441.031 146.9 441.075 145.15 440.9 143.356C440.856 142.919 440.2 142.919 440.244 143.356Z" fill="#E8E8E8"/>
<path d="M440.9 146.419C442.213 146.288 443.088 145.15 442.825 143.838C442.738 143.444 442.213 143.575 442.169 143.925C441.994 145.544 441.95 147.206 442.038 148.825C442.038 149.262 442.694 149.262 442.694 148.825C442.606 147.163 442.65 145.544 442.825 143.925C442.606 143.969 442.388 143.969 442.169 144.013C442.344 144.888 441.731 145.675 440.856 145.763C440.506 145.806 440.506 146.463 440.9 146.419Z" fill="#E8E8E8"/>
<path d="M444.619 142.875C444.662 142.787 444.662 142.744 444.706 142.656C444.619 142.7 444.487 142.7 444.4 142.744C444.662 142.831 444.706 143.269 444.487 143.444C444.269 143.575 444.269 143.969 444.575 144.056C444.837 144.1 445.056 144.144 445.319 144.187C445.275 144.012 445.187 143.881 445.144 143.706C444.969 144.012 444.75 144.275 444.444 144.406C444.05 144.581 444.225 145.194 444.619 145.019C445.1 144.8 445.494 144.494 445.712 144.012C445.8 143.837 445.756 143.575 445.537 143.531C445.275 143.487 445.056 143.444 444.794 143.4C444.837 143.619 444.837 143.794 444.881 144.012C445.625 143.531 445.45 142.394 444.619 142.131C444.531 142.087 444.4 142.131 444.312 142.219C444.05 142.481 444.006 142.744 444.05 143.05C444.05 143.487 444.662 143.312 444.619 142.875Z" fill="#E8E8E8"/>
<path d="M459.319 144.056C457.306 142.656 454.331 145.981 455.425 147.95C455.906 148.825 457.044 149.263 457.963 148.825C458.838 148.431 459.188 147.206 458.181 146.725C458.138 146.944 458.138 147.119 458.094 147.338C458.575 147.25 459.056 147.163 459.538 147.075C459.931 146.988 459.756 146.375 459.363 146.463C458.881 146.55 458.4 146.638 457.919 146.725C457.656 146.769 457.569 147.206 457.831 147.338C458.05 147.95 457.919 148.3 457.481 148.344C457.306 148.431 457.088 148.431 456.913 148.388C456.694 148.344 456.431 148.213 456.3 148.081C455.688 147.513 455.819 146.638 456.213 146.025C456.738 145.15 457.963 144.013 459.013 144.713C459.319 144.844 459.669 144.275 459.319 144.056Z" fill="#E8E8E8"/>
<path d="M461.2 144.056C461.288 144.713 461.375 145.413 461.463 146.069C461.506 146.419 461.594 146.769 461.594 147.075C461.594 147.294 461.55 147.469 461.55 147.688C461.419 148.3 461.025 148.344 460.5 147.906C460.544 147.513 459.931 147.294 459.888 147.731C459.756 148.738 460.806 149.394 461.638 148.781C462.119 148.431 462.294 147.863 462.338 147.294C462.381 146.244 462.119 145.106 461.988 144.056C461.813 143.619 461.156 143.619 461.2 144.056Z" fill="#E8E8E8"/>
<path d="M460.413 143.619C461.156 143.794 461.856 143.881 462.644 143.837C463.081 143.794 463.081 143.137 462.644 143.181C461.944 143.225 461.288 143.181 460.588 143.006C460.15 142.875 459.975 143.531 460.413 143.619Z" fill="#E8E8E8"/>
<path d="M453.894 156.744C454.069 158.144 454.069 159.5 453.894 160.9C453.85 161.337 454.506 161.294 454.55 160.9C454.725 159.456 454.725 158.012 454.506 156.569C454.462 156.175 453.85 156.35 453.894 156.744Z" fill="#E8E8E8"/>
<path d="M454.375 159.763C455.994 160.288 456.475 158.406 456.475 157.225C456.475 156.788 455.862 156.831 455.819 157.225C455.687 158.669 455.6 160.156 455.556 161.644C455.556 162.081 456.212 162.081 456.212 161.644C456.256 160.156 456.344 158.713 456.475 157.225C456.256 157.225 456.037 157.225 455.819 157.225C455.819 157.969 455.731 159.5 454.55 159.15C454.112 159.019 453.937 159.675 454.375 159.763Z" fill="#E8E8E8"/>
<path d="M456.913 160.506C456.956 160.944 457 161.381 456.956 161.775C456.956 161.95 457.131 162.081 457.306 162.125C457.525 162.125 457.788 162.169 458.006 162.169C458.444 162.169 458.444 161.513 458.006 161.513C457.788 161.513 457.525 161.469 457.306 161.469C457.438 161.6 457.525 161.688 457.656 161.819C457.656 161.381 457.656 160.944 457.613 160.55C457.569 160.375 457.481 160.244 457.263 160.2C457.044 160.2 456.869 160.331 456.913 160.506Z" fill="#E8E8E8"/>
<path d="M460.806 161.25C460.369 160.638 460.15 159.938 460.106 159.15C460.106 158.669 460.15 157.488 460.587 157.138C461.506 156.35 461.9 158.581 461.944 159.106C461.988 159.5 461.987 159.938 461.9 160.331C461.856 160.638 461.419 162.081 460.719 161.163C460.456 160.813 460.019 161.294 460.238 161.644C460.938 162.519 462.031 161.906 462.381 161.075C462.863 159.806 462.687 157.838 461.9 156.744C461.112 155.65 460.194 156.306 459.8 157.313C459.231 158.713 459.45 160.331 460.281 161.556C460.456 161.95 461.025 161.6 460.806 161.25Z" fill="#E8E8E8"/>
<path d="M472.269 144.712C471.569 144.144 470.65 144.144 469.906 144.625C468.987 145.237 468.725 146.419 468.637 147.425C468.594 148.387 468.856 149.35 469.95 149.481C471.044 149.612 471.787 148.737 472.4 147.906C472.662 147.556 472.094 147.25 471.831 147.556C471.437 148.081 470.956 148.737 470.212 148.781C469.25 148.825 469.25 147.775 469.294 147.119C469.381 146.069 470.387 144.012 471.744 145.106C472.094 145.456 472.575 144.975 472.269 144.712Z" fill="#E8E8E8"/>
<path d="M474.456 147.95C474.194 147.6 473.975 147.206 473.887 146.769C473.8 146.419 473.669 145.631 473.887 145.325C474.106 145.237 474.325 145.106 474.544 145.019C474.719 145.15 474.85 145.369 474.938 145.587C475.025 145.762 475.069 145.981 475.113 146.156C475.156 146.419 475.244 146.681 475.2 146.944C475.156 147.25 474.806 147.906 474.369 147.469C474.062 147.162 473.625 147.644 473.887 147.95C474.456 148.519 475.375 148.256 475.725 147.556C476.119 146.725 475.725 145.281 475.113 144.669C474.413 144.012 473.537 144.362 473.275 145.237C472.969 146.331 473.275 147.469 473.931 148.344C474.15 148.606 474.719 148.3 474.456 147.95Z" fill="#E8E8E8"/>
<path d="M475.681 143.225C475.681 143.269 475.681 143.269 475.681 143.225C475.725 143.225 475.813 143.181 475.9 143.181C475.813 143.181 475.9 143.794 475.944 143.925C475.988 144.012 476.031 144.1 476.075 144.187C476.206 144.362 476.381 144.45 476.6 144.494C476.994 144.581 477.431 144.406 477.606 144.012C477.781 143.619 477.213 143.312 477.038 143.662C476.95 143.881 476.644 143.881 476.556 143.662C476.425 143.312 476.425 142.962 475.944 142.875C475.594 142.831 475.331 143.137 475.419 143.444C475.506 143.75 475.9 143.881 476.163 143.662C476.469 143.4 475.988 142.962 475.681 143.225Z" fill="#E8E8E8"/>
<path d="M425.675 143.663C425.456 145.938 425.413 148.256 425.544 150.531C425.544 150.969 426.2 150.969 426.2 150.531C426.113 148.256 426.156 145.938 426.331 143.663C426.331 143.225 425.675 143.225 425.675 143.663Z" fill="#E8E8E8"/>
<path d="M426.244 145.062C427.119 144.975 427.556 145.237 427.513 145.806C427.513 146.069 427.513 146.287 427.425 146.55C427.294 147.162 427.031 147.687 426.375 147.95C426.113 148.037 426.025 148.519 426.375 148.562C427.644 148.825 428.694 149.437 429.438 150.488C429.7 150.838 430.269 150.488 430.006 150.138C429.131 148.956 427.994 148.212 426.55 147.906C426.55 148.125 426.55 148.344 426.55 148.519C428.125 147.906 428.869 145.194 427.513 143.969C426.375 142.962 424.625 144.319 425.763 145.456C426.069 145.806 426.55 145.369 426.244 145.062Z" fill="#E8E8E8"/>
<path d="M430.925 149.262C430.881 149.437 430.925 149.744 430.969 149.962C431.012 150.225 431.1 150.444 431.319 150.575C431.713 150.881 432.238 150.662 432.675 150.487C433.069 150.312 432.719 149.744 432.325 149.919C432.194 150.006 432.019 150.094 431.844 150.094C431.625 150.094 431.625 149.919 431.625 149.7C431.625 149.394 431.581 149.087 431.406 148.825C431.1 148.475 430.4 148.562 430.312 149.044C430.225 149.481 430.838 149.656 430.925 149.262Z" fill="#E8E8E8"/>
<path d="M468.637 156.787C468.681 158.844 468.681 160.9 468.55 162.912C468.506 163.262 469.119 163.35 469.206 163C469.25 162.825 469.294 162.65 469.337 162.519C469.425 162.125 468.812 161.95 468.725 162.344C468.681 162.519 468.637 162.694 468.594 162.825C468.812 162.869 469.031 162.869 469.25 162.912C469.381 160.856 469.425 158.8 469.337 156.787C469.25 156.35 468.594 156.35 468.637 156.787Z" fill="#E8E8E8"/>
<path d="M468.637 157.006C468.987 158.756 469.512 160.462 470.213 162.125C470.344 162.475 470.825 162.431 470.869 162.037C471.131 160.112 471.35 158.231 471.613 156.306C471.656 155.869 471 155.912 470.956 156.306C470.694 158.231 470.475 160.112 470.213 162.037C470.431 161.994 470.65 161.994 470.869 161.95C470.169 160.287 469.644 158.581 469.294 156.831C469.162 156.394 468.55 156.569 468.637 157.006Z" fill="#E8E8E8"/>
<path d="M472.75 161.906C472.575 161.6 472.356 161.206 472.4 160.856C472.444 160.681 472.663 160.331 472.881 160.463C473.1 160.55 473.056 161.206 473.013 161.425C472.969 161.644 472.706 162.081 472.444 161.775C472.181 161.469 471.7 161.906 471.963 162.256C472.356 162.694 473.1 162.563 473.45 162.081C473.8 161.556 473.844 160.506 473.406 160.025C473.013 159.588 472.313 159.806 472.006 160.2C471.481 160.813 471.875 161.644 472.181 162.256C472.4 162.606 472.969 162.256 472.75 161.906Z" fill="#E8E8E8"/>
<path d="M474.5 156.306C474.763 158.406 474.85 160.462 474.719 162.562C474.675 163 475.331 163 475.375 162.562C475.506 160.462 475.419 158.406 475.156 156.306C475.069 155.912 474.413 155.912 474.5 156.306Z" fill="#E8E8E8"/>
<path d="M475.244 157.619C475.2 157.269 475.156 156.788 475.594 156.7C476.031 156.613 476.25 157.137 476.294 157.487C476.381 158.187 475.944 158.888 475.375 159.281C475.025 159.5 475.331 160.069 475.725 159.85C476.819 159.15 477.519 157.487 476.513 156.394C476.163 156 475.55 155.825 475.113 156.131C474.588 156.481 474.588 157.181 474.675 157.75C474.675 158.188 475.331 158.013 475.244 157.619Z" fill="#E8E8E8"/>
<path d="M476.731 154.819C476.513 155.3 476.688 155.869 477.038 156.219C477.388 156.525 478.088 156.656 478.35 156.131C478.525 155.738 477.956 155.431 477.781 155.781C477.738 155.869 477.825 155.825 477.781 155.825C477.738 155.825 477.694 155.825 477.65 155.825C477.563 155.781 477.475 155.694 477.431 155.606C477.3 155.388 477.3 155.169 477.388 154.95C477.475 154.775 477.3 154.6 477.169 154.556C476.95 154.556 476.819 154.688 476.731 154.819Z" fill="#E8E8E8"/>
<path d="M422.875 140.119C422.875 148.606 422.875 157.05 422.875 165.538C422.875 166.369 424.188 166.369 424.188 165.538C424.188 157.05 424.188 148.606 424.188 140.119C424.188 139.288 422.875 139.288 422.875 140.119Z" fill="#E8E8E8"/>
<path d="M423.706 166.369C442.694 166.369 461.681 166.369 480.669 166.369C481.5 166.369 481.5 165.056 480.669 165.056C461.681 165.056 442.694 165.056 423.706 165.056C422.875 165.056 422.875 166.369 423.706 166.369Z" fill="#E8E8E8"/>
<path d="M4.36255 273.862C4.36255 285.369 4.36255 296.831 4.36255 308.337C4.36255 309.169 5.67505 309.169 5.67505 308.337C5.67505 296.831 5.67505 285.369 5.67505 273.862C5.67505 273.031 4.36255 273.031 4.36255 273.862Z" fill="#E8E8E8"/>
<path d="M6.4624 274.519C28.8187 274.519 51.1749 274.519 73.4874 274.519C74.3187 274.519 74.3187 273.206 73.4874 273.206C51.1312 273.206 28.7749 273.206 6.4624 273.206C5.5874 273.206 5.5874 274.519 6.4624 274.519Z" fill="#E8E8E8"/>
<path d="M6.4624 309.475C27.7249 309.475 48.9437 309.475 70.2062 309.475C71.0374 309.475 71.0374 308.162 70.2062 308.162C48.9437 308.162 27.7249 308.162 6.4624 308.162C5.5874 308.162 5.5874 309.475 6.4624 309.475Z" fill="#E8E8E8"/>
<path d="M72.3501 274.825C72.3501 285.369 72.3501 295.912 72.3501 306.456C72.3501 307.287 73.6626 307.287 73.6626 306.456C73.6626 295.912 73.6626 285.369 73.6626 274.825C73.6626 273.994 72.3501 273.994 72.3501 274.825Z" fill="#E8E8E8"/>
<path d="M35.5562 255.925C35.5562 259.556 35.5562 263.144 35.5562 266.775C35.5562 267.606 36.8687 267.606 36.8687 266.775C36.8687 263.144 36.8687 259.556 36.8687 255.925C36.8687 255.094 35.5562 255.094 35.5562 255.925Z" fill="#E8E8E8"/>
<path d="M36.6501 256.581C51.1313 256.581 65.6126 256.581 80.0938 256.581C80.9251 256.581 80.9251 255.269 80.0938 255.269C65.6126 255.269 51.1313 255.269 36.6501 255.269C35.8188 255.269 35.8188 256.581 36.6501 256.581Z" fill="#E8E8E8"/>
<path d="M37.1313 267.912C51.1313 267.912 65.1313 267.912 79.1313 267.912C79.9625 267.912 79.9625 266.6 79.1313 266.6C65.1313 266.6 51.1313 266.6 37.1313 266.6C36.3 266.6 36.3 267.912 37.1313 267.912Z" fill="#E8E8E8"/>
<path d="M78.9563 257.806C78.9563 260.781 78.9563 263.8 78.9563 266.775C78.9563 267.606 80.2688 267.606 80.2688 266.775C80.2688 263.8 80.2688 260.781 80.2688 257.806C80.2688 256.975 78.9563 256.975 78.9563 257.806Z" fill="#E8E8E8"/>
<path d="M110.456 36.8687C113.475 36.7374 116.45 36.3874 119.381 35.8187C120.213 35.6437 119.863 34.3749 119.031 34.5499C116.188 35.0749 113.344 35.4249 110.456 35.5562C109.581 35.5999 109.581 36.9124 110.456 36.8687Z" fill="#E8E8E8"/>
<path d="M119.381 34.9875C118.112 30.2625 118.112 25.3188 119.556 20.6375C120.781 16.5688 124.456 9.48126 129.837 12.0188C134.387 14.1625 135 20.5938 135.744 24.9688C136.662 30.175 137.1 35.4688 137.187 40.7625C137.187 41.5938 138.5 41.5938 138.5 40.7625C138.369 34.1125 137.669 27.5063 136.312 20.9875C135.394 16.6563 133.644 10.75 128.35 10.225C123.669 9.78751 120.562 14.425 119.031 18.1875C116.844 23.6563 116.581 29.6938 118.112 35.3375C118.331 36.1688 119.6 35.8188 119.381 34.9875Z" fill="#E8E8E8"/>
<path d="M110.894 34.9875C109.275 27.9 110.019 20.3312 113.212 13.7687C116.056 7.99375 121.612 2.35 128.437 2.21875C135.962 2.0875 140.994 8.78125 143.094 15.3C145.456 22.6063 146.025 30.6563 145.981 38.3125C145.981 39.1438 147.294 39.1438 147.294 38.3125C147.337 31.225 146.769 23.9625 144.975 17.0938C143.575 11.7125 140.95 6.41875 136.181 3.26875C126.162 -3.38125 115.356 5.325 111.375 14.6437C108.575 21.2062 108.006 28.425 109.581 35.3813C109.8 36.1688 111.069 35.8188 110.894 34.9875Z" fill="#E8E8E8"/>
<path d="M137.362 41.7688C140.819 43.9125 145.5 42.25 146.987 38.5313C147.294 37.7438 146.025 37.3938 145.719 38.1813C144.537 41.1563 140.731 42.3375 138.062 40.6313C137.319 40.1938 136.662 41.3313 137.362 41.7688Z" fill="#E8E8E8"/>
<path d="M108.75 53.3626C108.75 64.4751 108.75 75.5438 108.75 86.6564C108.75 87.4876 110.063 87.4876 110.063 86.6564C110.063 75.5438 110.063 64.4751 110.063 53.3626C110.063 52.5313 108.75 52.5313 108.75 53.3626Z" fill="#E8E8E8"/>
<path d="M109.888 54.325C122.969 52.0937 135.831 48.9437 148.431 44.875C149.219 44.6125 148.869 43.3437 148.081 43.6062C135.481 47.7187 122.619 50.8687 109.538 53.0562C108.706 53.1875 109.1 54.4562 109.888 54.325Z" fill="#E8E8E8"/>
<path d="M148.694 45.6625C148.694 56.075 148.694 66.4438 148.694 76.8563C148.694 77.6875 150.006 77.6875 150.006 76.8563C150.006 66.4438 150.006 56.075 150.006 45.6625C150.006 44.8312 148.694 44.8312 148.694 45.6625Z" fill="#E8E8E8"/>
<path d="M110.237 88.1438C123.231 86.0875 136.05 82.9813 148.562 78.8688C149.35 78.6063 149 77.3375 148.212 77.6C135.7 81.7125 122.881 84.8188 109.887 86.875C109.056 87.0063 109.406 88.275 110.237 88.1438Z" fill="#E8E8E8"/>
<path d="M128.963 65.0438C128.525 63.9063 128 62.6375 127.956 61.4125C127.913 59.925 128.919 57.9563 130.669 58.3938C133.338 59.05 132.594 63.3375 131.631 65.0001C131.194 65.7438 132.331 66.4001 132.769 65.6563C134.213 63.2063 134.606 57.6063 130.756 56.9938C129.225 56.775 127.781 57.825 127.081 59.1813C126.075 61.1938 126.906 63.5125 127.65 65.4376C128 66.1813 129.269 65.8313 128.963 65.0438Z" fill="#E8E8E8"/>
<path d="M127.913 64.9124C128.088 68.0624 128.263 71.2562 128.438 74.4062C128.525 75.8062 129.225 76.5937 130.8 76.2437C132.288 75.8937 133.031 74.6249 133.206 73.2249C133.381 71.7812 132.988 70.2937 132.856 68.8937C132.725 67.2312 132.725 65.5687 132.856 63.8625C132.9 63.0312 131.588 63.0312 131.544 63.8625C131.456 65.525 131.413 67.1875 131.544 68.8937C131.631 70.0312 132.725 74.45 130.931 74.8C129.094 75.15 129.575 71.2125 129.488 70.1187C129.4 68.4125 129.313 66.6625 129.181 64.9562C129.181 64.0812 127.869 64.0812 127.913 64.9124Z" fill="#E8E8E8"/>
<path d="M225.125 40.4563C225.125 49.8626 225.125 59.2688 225.125 68.6751C225.125 69.5063 226.438 69.5063 226.438 68.6751C226.438 59.2688 226.438 49.8626 226.438 40.4563C226.438 39.6251 225.125 39.6251 225.125 40.4563Z" fill="#E8E8E8"/>
<path d="M199.006 71.475C215.413 71.475 231.775 71.475 248.181 71.475C249.013 71.475 249.013 70.1625 248.181 70.1625C231.775 70.1625 215.413 70.1625 199.006 70.1625C198.175 70.1625 198.175 71.475 199.006 71.475Z" fill="#E8E8E8"/>
<path d="M241.75 73.0063C241.75 80.4875 241.75 87.9688 241.75 95.4063C241.75 96.2375 243.062 96.2375 243.062 95.4063C243.062 87.925 243.062 80.4438 243.062 73.0063C243.062 72.175 241.75 72.175 241.75 73.0063Z" fill="#E8E8E8"/>
<path d="M7.33755 168.425C23.2625 168.425 39.1438 168.425 55.0688 168.425C55.9 168.425 55.9 167.112 55.0688 167.112C39.1438 167.112 23.2625 167.112 7.33755 167.112C6.5063 167.112 6.5063 168.425 7.33755 168.425Z" fill="#E8E8E8"/>
<path d="M34.0688 166.325C34.0688 162.213 34.0688 158.144 34.0688 154.031C34.0688 153.2 32.7563 153.2 32.7563 154.031C32.7563 158.144 32.7563 162.213 32.7563 166.325C32.7563 167.156 34.0688 167.156 34.0688 166.325Z" fill="#E8E8E8"/>
<path d="M48.6375 169.913C48.6375 174.725 48.6375 179.538 48.6375 184.394C48.6375 185.225 49.95 185.225 49.95 184.394C49.95 179.581 49.95 174.769 49.95 169.913C49.95 169.081 48.6375 169.081 48.6375 169.913Z" fill="#E8E8E8"/>
<path d="M387.787 252.294C407.562 252.294 427.337 252.294 447.112 252.294C447.944 252.294 447.944 250.981 447.112 250.981C427.337 250.981 407.562 250.981 387.787 250.981C386.956 250.981 386.956 252.294 387.787 252.294Z" fill="#E8E8E8"/>
<path d="M424.625 250.938C424.625 246.606 424.625 242.275 424.625 237.9C424.625 237.069 423.312 237.069 423.312 237.9C423.312 242.231 423.312 246.563 423.312 250.938C423.312 251.769 424.625 251.769 424.625 250.938Z" fill="#E8E8E8"/>
<path d="M416.706 238.556C432.15 238.556 447.55 238.556 462.994 238.556C463.825 238.556 463.825 237.244 462.994 237.244C447.55 237.244 432.15 237.244 416.706 237.244C415.875 237.244 415.875 238.556 416.706 238.556Z" fill="#E8E8E8"/>
<path d="M42.3813 423.619C71.1251 423.619 99.8251 423.619 128.569 423.619C129.4 423.619 129.4 422.306 128.569 422.306C99.8251 422.306 71.1251 422.306 42.3813 422.306C41.5063 422.306 41.5063 423.619 42.3813 423.619Z" fill="#E8E8E8"/>
<path d="M79.1749 416.575C110.5 416.575 141.825 416.575 173.194 416.575C174.025 416.575 174.025 415.263 173.194 415.263C141.869 415.263 110.544 415.263 79.1749 415.263C78.3437 415.263 78.3437 416.575 79.1749 416.575Z" fill="#E8E8E8"/>
<path d="M141.081 439.281C160.419 439.281 179.713 439.281 199.05 439.281C199.881 439.281 199.881 437.969 199.05 437.969C179.713 437.969 160.419 437.969 141.081 437.969C140.206 437.969 140.206 439.281 141.081 439.281Z" fill="#E8E8E8"/>
<path d="M216.288 414.212C228.319 414.212 240.306 414.212 252.338 414.212C253.169 414.212 253.169 412.9 252.338 412.9C240.306 412.9 228.319 412.9 216.288 412.9C215.413 412.9 215.413 414.212 216.288 414.212Z" fill="#E8E8E8"/>
<path d="M314.988 400.912C340.844 400.912 366.7 400.912 392.556 400.912C393.387 400.912 393.387 399.6 392.556 399.6C366.7 399.6 340.844 399.6 314.988 399.6C314.113 399.6 314.113 400.912 314.988 400.912Z" fill="#E8E8E8"/>
<path d="M369.806 382.888C400.606 382.888 431.45 382.888 462.25 382.888C463.081 382.888 463.081 381.575 462.25 381.575C431.45 381.575 400.606 381.575 369.806 381.575C368.975 381.575 368.975 382.888 369.806 382.888Z" fill="#E8E8E8"/>
<path d="M423.837 400.125C454.637 400.125 485.481 400.125 516.281 400.125C517.112 400.125 517.112 398.812 516.281 398.812C485.481 398.812 454.637 398.812 423.837 398.812C423.006 398.812 423.006 400.125 423.837 400.125Z" fill="#E8E8E8"/>
<path d="M387.831 428.3C401.656 428.3 415.525 428.3 429.35 428.3C430.181 428.3 430.181 426.988 429.35 426.988C415.525 426.988 401.656 426.988 387.831 426.988C386.956 426.988 386.956 428.3 387.831 428.3Z" fill="#E8E8E8"/>
<path opacity="0.07" d="M180.719 411.587C158.756 428.737 136.837 445.887 114.875 463.038C85.3437 450.175 55.8562 437.312 26.325 424.45C57.6062 407.3 88.8874 390.15 120.169 373C125.025 372.387 129.312 372.519 133.031 373C161.687 376.85 177.612 405.681 180.719 411.587Z" fill="#353535"/>
<path d="M114.7 177.481C114.262 243.675 113.825 309.825 113.387 376.019C134.912 389.581 156.437 403.144 177.962 416.706C200.8 400.65 223.637 384.594 246.519 368.494C246.387 312.8 246.212 257.062 246.081 201.369C227.05 184.875 208.062 168.337 189.031 151.844C164.225 160.375 139.462 168.906 114.7 177.481Z" fill="white"/>
<path d="M177.525 233.569C177.525 281.3 177.525 329.031 177.525 376.762C177.525 390.15 177.525 403.537 177.525 416.925C177.525 417.756 178.837 417.756 178.837 416.925C178.837 369.194 178.837 321.462 178.837 273.731C178.837 260.344 178.837 246.956 178.837 233.569C178.837 232.737 177.525 232.694 177.525 233.569Z" fill="#161616"/>
<path d="M245.512 201.806C245.6 245.337 245.644 288.912 245.731 332.444C245.731 344.65 245.775 356.812 245.775 369.019C245.775 369.85 247.087 369.85 247.087 369.019C247 325.487 246.956 281.912 246.869 238.381C246.869 226.175 246.825 214.012 246.825 201.806C246.781 200.975 245.469 200.975 245.512 201.806Z" fill="#161616"/>
<path d="M114.35 177.744C133.25 171.4 152.194 165.056 171.094 158.712C175.775 157.137 180.413 155.606 185.094 154.031C186.1 153.681 187.325 152.981 188.419 153.331C189.25 153.594 190.388 154.994 191.088 155.606C193.056 157.312 195.069 158.975 197.038 160.681C204.563 167.069 212.044 173.456 219.569 179.844C228.188 187.194 236.806 194.5 245.425 201.85C245.469 201.5 245.513 201.15 245.556 200.8C223.419 211.912 201.106 222.544 178.531 232.781C178.794 232.825 179.056 232.869 179.319 232.869C172.056 226.569 164.794 220.225 157.531 213.925C145.894 203.819 134.256 193.669 122.619 183.562C119.95 181.244 117.325 178.925 114.656 176.606C114.219 176.256 113.519 176.475 113.519 177.087C113.519 189.031 113.519 201.019 113.519 212.962C113.519 238.337 113.519 263.669 113.519 289.044C113.519 312.012 113.519 334.981 113.519 357.95C113.519 363.637 113.519 369.281 113.519 374.969C113.519 375.844 113.344 376.588 113.956 377.2C114.481 377.769 115.4 378.119 116.056 378.556C117.544 379.519 119.031 380.438 120.475 381.4C139.113 393.256 157.706 405.069 176.344 416.925C176.825 417.231 177.306 417.538 177.744 417.844C177.919 417.975 178.225 417.975 178.4 417.844C201.106 401.7 223.813 385.6 246.475 369.456C247.175 368.975 246.519 367.837 245.819 368.319C233.875 376.806 221.931 385.294 209.988 393.781C203.95 398.069 197.913 402.356 191.919 406.644C188.944 408.744 186.013 410.844 183.038 412.944C181.769 413.863 179.8 414.781 178.794 415.963C178.488 416.313 178.531 416.663 178.269 416.663C177.656 416.663 176.3 415.394 175.819 415.088C174.069 413.95 172.319 412.856 170.525 411.719C165.231 408.35 159.938 404.981 154.644 401.613C143.4 394.438 132.156 387.306 120.869 380.131C119.294 379.125 117.763 378.163 116.188 377.156C115.794 376.894 115.356 376.544 114.919 376.369C114.613 376.238 114.35 375.8 114.613 376.369C114.919 377.025 114.744 376.063 114.788 375.8C114.831 375.013 114.788 374.225 114.788 373.438C114.788 366.088 114.788 358.694 114.788 351.344C114.788 339.094 114.788 326.844 114.788 314.594C114.788 300.156 114.788 285.719 114.788 271.281C114.788 257.106 114.788 242.931 114.788 228.756C114.788 217.512 114.788 206.269 114.788 195.025C114.788 191.35 114.788 187.631 114.788 183.956C114.788 182.031 115.05 179.887 114.788 177.962C114.744 177.7 114.788 177.437 114.788 177.175C114.394 177.35 114.044 177.481 113.65 177.656C120.913 183.956 128.175 190.3 135.438 196.6C147.075 206.706 158.713 216.856 170.35 226.962C173.019 229.281 175.644 231.6 178.313 233.919C178.575 234.137 178.838 234.137 179.1 234.006C201.631 223.769 223.988 213.137 246.125 202.025C246.475 201.85 246.563 201.237 246.256 200.975C230.681 187.719 215.106 174.462 199.531 161.206C197.65 159.587 195.769 158.012 193.888 156.394C193.013 155.65 192.138 154.906 191.219 154.119C190.519 153.55 189.294 152.062 188.419 151.756C187.806 151.537 187.281 151.887 186.669 152.106C185.444 152.5 184.219 152.937 182.95 153.331C180.5 154.162 178.006 154.994 175.556 155.825C165.975 159.019 156.35 162.256 146.769 165.45C135.788 169.125 124.85 172.8 113.869 176.475C113.169 176.737 113.519 178.006 114.35 177.744Z" fill="#161616"/>
<path d="M123.406 381.137C123.406 372.519 123.406 363.944 123.406 355.325C123.406 354.494 122.094 354.494 122.094 355.325C122.094 363.944 122.094 372.519 122.094 381.137C122.094 381.969 123.406 381.969 123.406 381.137Z" fill="#161616"/>
<path d="M122.444 354.712C132.681 360.444 142.787 366.437 152.719 372.694C153.419 373.131 154.075 371.994 153.375 371.556C143.444 365.3 133.337 359.306 123.1 353.575C122.356 353.181 121.7 354.319 122.444 354.712Z" fill="#161616"/>
<path d="M152.5 372.387C151.931 381.356 151.362 390.369 150.794 399.337C150.75 400.169 152.062 400.169 152.106 399.337C152.675 390.369 153.244 381.356 153.812 372.387C153.856 371.556 152.544 371.556 152.5 372.387Z" fill="#161616"/>
<path d="M127.606 364.25C126.862 370.288 126.425 376.325 126.337 382.363C126.337 383.194 127.65 383.194 127.65 382.363C127.737 376.281 128.175 370.244 128.919 364.25C129.05 363.375 127.737 363.419 127.606 364.25Z" fill="#161616"/>
<path d="M134.562 367.356C133.775 373.612 133.206 379.869 132.9 386.125C132.856 386.956 134.169 386.956 134.212 386.125C134.562 379.869 135.087 373.569 135.875 367.356C136.006 366.525 134.694 366.525 134.562 367.356Z" fill="#161616"/>
<path d="M141.737 371.994C140.775 378.337 140.075 384.725 139.681 391.112C139.637 391.944 140.95 391.944 140.994 391.112C141.387 384.812 142.044 378.556 143.006 372.344C143.137 371.512 141.869 371.162 141.737 371.994Z" fill="#161616"/>
<path d="M147.075 375.056C146.681 380.7 146.288 386.3 145.938 391.944C145.894 392.775 147.206 392.775 147.25 391.944C147.644 386.3 148.037 380.7 148.387 375.056C148.431 374.225 147.119 374.225 147.075 375.056Z" fill="#161616"/>
<path d="M123.319 350.294C134.475 356.112 145.456 362.281 156.219 368.8C156.963 369.237 157.619 368.1 156.875 367.662C146.113 361.144 135.131 354.931 123.975 349.156C123.231 348.762 122.531 349.9 123.319 350.294Z" fill="#161616"/>
<path d="M124.106 349.287C124.106 347.012 124.106 344.781 124.106 342.506C124.106 341.675 122.794 341.675 122.794 342.506C122.794 344.781 122.794 347.012 122.794 349.287C122.794 350.162 124.106 350.162 124.106 349.287Z" fill="#161616"/>
<path d="M123.362 342.331C135.044 347.931 146.331 354.319 157.137 361.406C157.837 361.887 158.494 360.75 157.794 360.269C146.987 353.137 135.7 346.794 124.019 341.194C123.275 340.844 122.619 341.937 123.362 342.331Z" fill="#161616"/>
<path d="M156.437 361.8C156.219 363.769 156 365.781 155.781 367.75C155.694 368.581 157.006 368.581 157.094 367.75C157.312 365.781 157.531 363.769 157.75 361.8C157.837 360.969 156.525 360.969 156.437 361.8Z" fill="#161616"/>
<path d="M182.556 238.775C199.575 231.294 216.244 222.981 232.431 213.837C233.175 213.444 232.519 212.306 231.775 212.7C215.544 221.8 198.919 230.112 181.9 237.637C181.112 237.987 181.769 239.125 182.556 238.775Z" fill="#161616"/>
<path d="M181.506 238.119C181.506 241.75 181.506 245.381 181.506 249.012C181.506 249.844 182.819 249.844 182.819 249.012C182.819 245.381 182.819 241.75 182.819 238.119C182.819 237.287 181.506 237.287 181.506 238.119Z" fill="#161616"/>
<path d="M182.731 249.012C194.588 243.762 206.181 237.944 217.513 231.6C218.256 231.206 217.6 230.069 216.856 230.462C205.525 236.806 193.931 242.581 182.075 247.875C181.331 248.225 181.988 249.362 182.731 249.012Z" fill="#161616"/>
<path d="M182.206 297.575C182.206 329.337 182.206 361.1 182.206 392.819C182.206 393.65 183.519 393.65 183.519 392.819C183.519 361.056 183.519 329.294 183.519 297.575C183.519 296.744 182.206 296.744 182.206 297.575Z" fill="#161616"/>
<path d="M185.881 349.287C185.881 366.525 185.881 383.762 185.881 401C185.881 401.831 187.194 401.831 187.194 401C187.194 383.762 187.194 366.525 187.194 349.287C187.194 348.456 185.881 348.456 185.881 349.287Z" fill="#161616"/>
<path d="M116.187 187.412C116.187 209.725 116.187 232.081 116.187 254.394C116.187 255.225 117.5 255.225 117.5 254.394C117.5 232.081 117.5 209.725 117.5 187.412C117.5 186.581 116.187 186.581 116.187 187.412Z" fill="#161616"/>
<path d="M119.95 235.844C119.95 261.656 119.95 287.512 119.95 313.325C119.95 314.156 121.262 314.156 121.262 313.325C121.262 287.512 121.262 261.656 121.262 235.844C121.262 235.012 119.95 235.012 119.95 235.844Z" fill="#161616"/>
<path opacity="0.06" d="M113.65 177.438C113.65 243.806 113.65 310.175 113.65 376.544C135.175 390.106 156.656 403.669 178.181 417.231C178.181 355.762 178.181 294.294 178.181 232.781C156.656 214.363 135.175 195.9 113.65 177.438Z" fill="#353535"/>
<path opacity="0.1" d="M115.488 200.931C122.006 232.519 128.394 258.769 133.469 278.281C141.344 308.644 145.369 320.456 150.706 332.531C159.85 353.225 170.175 369.019 177.831 379.475C178.094 349.025 178.313 318.619 178.575 288.169C180.719 330.737 199.969 357.469 215.238 357.119C227.575 356.812 239.65 338.919 246.388 317.131C246.388 334.5 246.388 351.825 246.388 369.194C223.769 384.944 201.15 400.737 178.575 416.487C157.181 403.056 135.788 389.581 114.394 376.15C114.744 317.744 115.094 259.337 115.488 200.931Z" fill="#353535"/>
<path opacity="0.39" d="M255.444 180.237C235.231 191.656 215.063 203.075 194.85 214.494C182.862 198.262 170.831 181.987 158.844 165.756C181.944 156.7 205.088 147.6 228.188 138.544C237.288 152.456 246.388 166.325 255.444 180.237Z" fill="#EC615B"/>
<g opacity="0.39">
<g opacity="0.39">
<path opacity="0.39" d="M166.413 169.431C168.644 170.919 170.875 172.406 173.15 173.894C173.5 174.112 174.025 173.894 174.113 173.5C175.075 169.037 176.606 164.837 178.794 160.856C179.188 160.112 178.05 159.456 177.656 160.2C175.425 164.312 173.85 168.644 172.844 173.194C173.15 173.062 173.5 172.931 173.806 172.8C171.575 171.312 169.344 169.825 167.069 168.337C166.369 167.812 165.713 168.95 166.413 169.431Z" fill="#EC615B"/>
</g>
</g>
<path d="M184.394 160.2C185.138 159.062 186.144 158.187 187.413 157.662C187.806 157.487 187.456 156.919 187.063 157.094C185.706 157.706 184.613 158.669 183.825 159.894C183.606 160.244 184.175 160.55 184.394 160.2Z" fill="#EC615B"/>
<path d="M184.438 162.956C185.313 160.244 187.763 158.275 190.607 157.969C191.044 157.925 191.044 157.269 190.607 157.312C187.457 157.619 184.788 159.719 183.825 162.781C183.694 163.175 184.307 163.35 184.438 162.956Z" fill="#EC615B"/>
<path d="M185.181 165.187C186.144 161.337 188.856 158.537 193.013 159.894C193.406 160.025 193.581 159.412 193.188 159.281C188.725 157.794 185.619 160.812 184.569 165.012C184.438 165.406 185.05 165.581 185.181 165.187Z" fill="#EC615B"/>
<path d="M186.494 167.331C186.625 165.187 186.975 162.65 189.031 161.425C191.044 160.244 193.319 161.075 194.806 162.65C195.113 162.956 195.55 162.475 195.288 162.169C193.713 160.506 191.394 159.631 189.206 160.594C186.581 161.731 186.056 164.706 185.881 167.287C185.838 167.725 186.494 167.725 186.494 167.331Z" fill="#EC615B"/>
<path d="M188.463 169.825C188.9 167.331 186.844 165.056 189.075 162.912C190.694 161.381 192.75 162.169 194.063 163.569C195.244 164.881 195.725 166.587 195.944 168.294C195.988 168.687 196.644 168.731 196.6 168.294C196.25 165.406 194.413 160.856 190.65 161.337C189.294 161.512 188.113 162.694 187.588 163.919C186.757 165.887 188.2 167.637 187.85 169.606C187.763 170.044 188.419 170.219 188.463 169.825Z" fill="#EC615B"/>
<path d="M189.906 170.831C191.263 168.6 188.419 166.456 189.556 164.4C190.738 162.169 193.056 163.656 193.844 165.231C194.675 166.981 194.675 168.95 194.194 170.787C194.106 171.181 194.719 171.356 194.806 170.962C195.463 168.425 195.2 162.781 191.525 162.606C190.344 162.562 189.163 163.394 188.813 164.487C188.113 166.587 190.606 168.512 189.381 170.481C189.119 170.875 189.688 171.225 189.906 170.831Z" fill="#EC615B"/>
<path d="M191.438 171.312C192.138 169.65 191.963 168.075 191.131 166.544C190.956 166.281 190.825 165.975 190.694 165.669C191.656 165.012 192.225 165.187 192.4 166.106C192.575 166.544 192.707 166.981 192.75 167.462C192.969 168.819 192.75 170.131 192.269 171.4C192.094 171.794 192.75 171.969 192.881 171.575C193.494 170.044 193.669 168.425 193.275 166.85C193.057 165.844 192.488 164.181 191.219 164.137C190.388 164.094 189.906 164.75 189.95 165.537C189.994 166.237 190.519 166.85 190.781 167.462C191.306 168.687 191.263 169.956 190.738 171.181C190.65 171.531 191.263 171.706 191.438 171.312Z" fill="#EC615B"/>
<path d="M221.056 194.937C221.188 194.15 221.231 193.275 220.488 192.794C219.744 192.312 218.475 192.794 217.6 192.75C216.2 192.662 214.8 192.137 213.488 191.7C210.819 190.825 208.106 189.6 206.181 187.412C205.306 186.406 204.169 184.787 204.081 183.387C203.906 180.106 205.788 182.644 207.1 182.994C207.8 183.169 208.369 183.125 208.413 182.337C208.456 181.812 208.019 181.55 207.669 181.156C206.75 180.194 205.875 179.275 205.044 178.225C203.381 176.037 202.069 173.587 201.281 170.962C200.975 169.956 199.969 166.019 201.938 166.281C202.856 166.369 204.431 168.512 205 169.212C205.175 169.037 205.306 168.906 205.481 168.731C204.213 167.112 202.113 164.706 202.244 162.519C202.463 158.319 207.319 162.344 208.194 163.875C208.369 163.744 208.544 163.612 208.719 163.481C208.15 162.825 207.275 161.556 207.275 160.594C207.188 157.925 208.675 158.931 209.725 159.631C211.125 160.594 212.131 162.081 213.138 163.437C213.4 163.787 213.881 163.481 213.706 163.087C213.4 162.519 213.181 161.906 213.006 161.25C212.613 160.419 212.963 159.981 214.144 159.894C215.763 159.062 215.631 159.281 216.681 160.419C217.863 161.687 218.781 163.175 219.744 164.619C221.319 167.069 223.113 169.256 224.863 171.531C226 173.019 226.919 174.594 227.4 176.431C227.881 178.225 227.838 180.062 228.1 181.856C228.406 183.956 229.281 185.837 231.294 186.8C231.688 186.975 231.994 186.406 231.644 186.231C227.531 184.262 228.975 177.831 227.313 174.156C226.569 172.494 225.431 171.05 224.25 169.65C222.719 167.812 221.45 165.931 220.138 163.919C218.869 161.95 216.638 157.75 213.925 157.662C210.906 157.575 212.481 161.819 213.138 163.262C213.313 163.131 213.531 163.044 213.706 162.912C212.613 161.381 209.769 157.094 207.275 157.925C205.088 158.669 207.45 162.781 208.281 163.744C208.544 164.05 208.981 163.656 208.806 163.35C208.019 161.994 206.925 160.9 205.525 160.244C204.65 159.85 202.813 159.15 201.981 160.025C201.15 160.9 201.588 162.825 201.938 163.831C202.55 165.756 203.819 167.419 205.088 168.994C205.35 169.344 205.788 168.862 205.569 168.512C204.869 167.637 202.55 164.575 201.106 165.056C199.881 165.494 200.188 168.119 200.275 168.95C200.625 171.619 201.938 174.287 203.338 176.519C203.994 177.569 204.738 178.575 205.525 179.494C205.919 179.975 206.75 180.5 207.013 181.069C207.844 181.637 207.669 181.812 206.444 181.594C206.094 181.375 205.7 181.2 205.35 180.981C204.256 180.412 203.556 180.412 203.338 181.812C203.075 183.694 204.388 185.969 205.525 187.325C207.1 189.25 209.288 190.475 211.563 191.394C212.919 191.919 214.363 192.4 215.763 192.75C216.813 193.012 220.663 192.838 220.444 194.456C220.356 195.2 221.013 195.375 221.056 194.937Z" fill="#EC615B"/>
<path d="M204.475 168.469C206.313 170.7 207.8 173.237 209.419 175.644C209.638 175.994 210.206 175.644 209.988 175.294C208.325 172.844 206.794 170.262 204.913 167.987C204.65 167.681 204.213 168.119 204.475 168.469Z" fill="#EC615B"/>
<path d="M207.188 162.475C208.981 164.925 210.644 167.419 212.219 170C212.438 170.35 213.006 170.044 212.788 169.65C211.213 167.069 209.55 164.575 207.756 162.125C207.538 161.819 206.969 162.125 207.188 162.475Z" fill="#EC615B"/>
<path d="M158.669 165.844C170.438 182.162 182.469 198.306 194.806 214.187C195.069 214.537 195.506 214.056 195.288 213.706C182.994 197.825 171.006 181.769 159.238 165.494C159.019 165.187 158.45 165.494 158.669 165.844Z" fill="#EC615B"/>
<path d="M325.969 392.6C326.669 400.869 327.369 409.094 328.069 417.362C311.575 424.669 303.612 429.35 304.225 431.362C304.969 433.812 318.137 432.412 343.687 427.162C343.162 413.162 342.594 399.119 342.069 385.119C336.731 387.612 331.35 390.106 325.969 392.6Z" fill="#161616"/>
<path d="M342.025 215.237C344.519 216.9 344.956 220.619 345.831 228.012C346.269 231.556 346.488 235.931 345.394 248.619C345.263 249.975 344.913 254.306 343.819 263.625C342.244 277.275 341.806 278.894 341.369 284.669C341.019 289.175 340.8 293.944 340.931 304.181C341.063 313.937 341.194 327.281 342.725 345.875C343.863 359.656 345.788 376.806 349.244 396.494C345.831 398.287 342.638 399.381 340.056 400.081C334.325 401.612 329.688 401.656 325.706 401.656C321.9 401.656 318.575 401.35 315.863 401C314.594 394.394 312.931 384.462 311.619 372.3C310.919 366 310.481 359.044 309.606 345.394C308.381 326.275 307.769 316.737 307.594 308.644C307.506 305.056 307.506 302.081 308.031 277.494C308.819 240.612 309.125 236.106 312.975 230.2C320.631 218.387 336.163 211.3 342.025 215.237Z" fill="white"/>
<path d="M345.306 216.462C346.05 228.362 345.831 240.262 344.65 252.119C343.469 263.669 341.5 275.087 340.756 286.637C339.225 310.35 340.8 334.194 343.425 357.775C344.912 370.944 346.706 384.112 348.544 397.237C348.675 398.069 349.944 397.719 349.813 396.887C346.531 373.219 343.25 349.506 341.981 325.619C341.369 313.937 341.237 302.169 341.806 290.487C342.419 278.85 344.125 267.431 345.525 255.881C347.1 242.8 347.45 229.587 346.619 216.419C346.575 215.587 345.262 215.587 345.306 216.462Z" fill="#161616"/>
<path d="M307.375 273.469C306.325 306.719 307.594 340.012 311.312 373.087C312.319 382.275 313.544 391.419 314.944 400.562C315.075 401.394 316.344 401.044 316.212 400.212C311.269 367.531 308.644 334.5 308.381 301.425C308.294 292.106 308.425 282.787 308.731 273.469C308.731 272.594 307.419 272.594 307.375 273.469Z" fill="#161616"/>
<path d="M315.337 401.525C326.712 403.8 338.481 402.312 348.937 397.238C349.681 396.888 349.025 395.75 348.281 396.1C338.175 401 326.712 402.487 315.687 400.256C314.856 400.081 314.506 401.35 315.337 401.525Z" fill="#161616"/>
<path opacity="0.09" d="M311.881 241.094C310.7 249.362 309.606 258.769 308.862 269.181C308.425 274.869 307.812 284.625 307.725 296.875C307.637 307.069 308.031 315.687 308.862 332.575C309.781 351.65 310.262 361.406 311.531 372.037C312.975 384.287 314.769 394.262 316.081 400.869C319.144 401.525 323.344 402.006 328.244 401.612C331.481 401.35 334.281 400.737 336.6 400.081C332.881 386.169 329.469 371.6 326.362 356.419C317.831 314.944 313.544 276.137 311.881 241.094Z" fill="#353535"/>
<path opacity="0.09" d="M308.469 284.012C310.35 299.675 312.012 313.15 313.412 323.869C317 351.912 318.137 358.956 320.631 367.881C324.744 382.669 330.125 394.087 333.931 401.262C331.262 401.919 326.931 402.619 321.769 401.656C319.362 401.219 317.306 400.475 315.687 399.775C313.894 389.144 312.362 377.987 311.137 366.394C307.944 336.512 307.462 308.862 308.469 284.012Z" fill="#353535"/>
<path d="M276.225 397.281C275.612 405.988 275 414.738 274.344 423.444C253.781 428.519 243.675 432.194 243.981 434.425C244.331 437.094 259.512 437.706 289.525 436.306C290.444 423.706 291.406 411.062 292.325 398.462C286.943 398.025 281.562 397.631 276.225 397.281Z" fill="#161616"/>
<path d="M294.381 216.9C291.8 219.656 290.094 223.156 290.094 223.156C289.044 225.3 288.387 227.137 288.125 228.625C287.644 231.906 286.944 236.456 286.156 241.881C284.45 253.737 283.269 263.012 282.656 268C280.469 285.281 279.244 296.481 276.794 317.175C273.162 347.756 272.112 354.362 269.4 379.212C268.394 388.444 267.562 396.056 267.037 401.044C267.781 402.225 269.05 403.887 271.062 405.375C271.544 405.725 272.462 406.381 275.219 407.694C277.756 408.875 280.337 409.925 281.475 410.319C288.256 412.506 300.506 409.225 301.162 409.05C301.162 404.281 301.25 397.85 301.6 390.194C301.731 387.131 302.169 378.862 303.875 362.981C305.406 348.762 306.587 337.519 309.256 322.381C311.181 311.312 313.062 302.869 314.769 295.519C317.35 283.969 319.887 274.125 321.987 266.469C325.006 260.562 328.025 254.656 331.044 248.75C331.919 247.481 339.925 235.625 335.375 224.862C328.55 208.5 300.025 210.862 294.381 216.9Z" fill="white"/>
<path d="M292.894 212.087C284.712 234.575 282.962 258.856 280.206 282.437C277.231 307.725 274.256 333.012 271.325 358.344C269.662 372.519 268 386.694 266.337 400.825C266.25 401.656 267.562 401.656 267.65 400.825C270.581 375.669 273.556 350.512 276.487 325.356C279.375 300.637 281.912 275.875 285.281 251.244C287.075 238.075 289.568 224.95 294.162 212.437C294.425 211.65 293.156 211.3 292.894 212.087Z" fill="#161616"/>
<path d="M330.737 248.312C323.825 259.206 318.356 270.931 314.506 283.269C314.243 284.056 315.512 284.406 315.775 283.619C319.581 271.412 325.006 259.775 331.875 248.969C332.312 248.269 331.175 247.569 330.737 248.312Z" fill="#161616"/>
<path d="M322.075 264.194C311.487 300.769 304.706 338.437 301.993 376.412C301.206 387.306 300.768 398.2 300.637 409.094C300.637 409.925 301.95 409.925 301.95 409.094C302.387 370.987 306.85 332.969 315.25 295.825C317.612 285.325 320.325 274.912 323.343 264.587C323.562 263.756 322.337 263.406 322.075 264.194Z" fill="#161616"/>
<path d="M266.469 401.525C275.087 411.719 289.306 414.825 301.469 409.356C302.256 409.006 301.556 407.869 300.812 408.219C289.175 413.425 275.612 410.275 267.387 400.563C266.819 399.95 265.9 400.869 266.469 401.525Z" fill="#161616"/>
<path opacity="0.06" d="M303.131 220.619C308.337 225.388 300.112 241.094 295.169 253.256C287.95 271.019 286.419 300.375 283.4 359.175C282.744 371.6 282.044 389.013 281.869 410.056C280.337 409.838 278.5 409.4 276.575 408.525C271.456 406.294 268.481 402.575 267.081 400.563C268.306 391.856 270.056 378.688 272.025 362.588C276.531 325.663 277.45 310.525 280.775 284.013C282.656 269.006 285.587 247.481 290.269 221.363C290.225 221.363 290.225 221.363 303.131 220.619Z" fill="#353535"/>
<path opacity="0.06" d="M281.869 278.325C284.187 311.094 281.737 332.05 278.85 345.525C276.356 357.075 276.925 369.106 275.437 380.831C274.694 386.563 273.687 393.781 277.712 400.563C280.6 405.419 284.887 408.175 287.95 409.663C286.156 410.013 281.475 410.669 276.181 408.525C271.019 406.425 268.131 402.838 267.081 401.306C269.181 383.106 271.369 364.863 273.512 346.663C276.269 323.825 279.069 301.075 281.869 278.325Z" fill="#353535"/>
<path d="M332.006 116.406C331.088 116.931 331.481 122.05 332.313 132.156C332.4 132.987 332.444 133.95 332.575 135.262C332.881 138.237 333.275 141.125 333.756 144.231C337.388 167.812 342.55 185.312 342.55 185.312C345.044 193.756 348.588 204.169 353.619 215.762C354.45 217.25 356.113 219.656 358.913 221.056C361.931 222.587 364.644 222.15 368.669 221.406C376.456 219.962 381.444 216.419 383.238 215.019C385.863 213.006 389.319 210.337 389.013 207.231C388.881 206.137 388.269 204.519 386.913 204.037C385.731 203.6 384.244 204.169 383.238 205.437C385.294 202.594 386.738 199.969 387.7 198C389.931 193.45 389.931 191.875 389.45 190.737C389.363 190.562 388.838 189.337 387.7 188.769C387.394 188.637 386.781 188.375 384.813 188.769C382.494 189.206 382.144 189.775 380.656 189.819C379.256 189.862 378.819 189.381 377.769 189.294C376.413 189.162 374.4 189.687 371.688 192.837C371.25 192.487 370.594 192.094 369.763 192.137C368.363 192.181 367.269 193.494 364.469 198.35C363.594 199.837 362.5 201.806 361.275 204.212C360.663 201.5 359.744 197.3 358.694 192.181C355.106 174.156 355.631 170.656 352.919 157.487C349.113 138.762 345.088 130.931 341.544 125.637C338.131 120.3 333.625 115.444 332.006 116.406Z" fill="white"/>
<path d="M332.137 117.369C334.106 116.45 336.469 119.95 337.519 121.219C338.831 122.837 340.056 124.5 341.15 126.25C343.206 129.444 344.913 132.856 346.356 136.4C349.594 144.231 351.475 152.544 352.963 160.856C354.494 169.519 355.719 178.225 357.075 186.887C358.256 194.412 359.044 202.419 363.244 208.981C363.681 209.681 364.819 209.025 364.381 208.325C360.663 202.55 359.744 195.681 358.738 189.075C357.6 181.637 356.463 174.2 355.281 166.762C353.138 153.244 350.425 139.375 343.425 127.431C341.763 124.631 339.881 121.962 337.781 119.469C336.206 117.675 334.15 115.006 331.525 116.231C330.694 116.581 331.35 117.719 332.137 117.369Z" fill="#161616"/>
<path d="M331.875 135.787C333.406 149.262 335.856 162.606 339.269 175.731C342.594 188.506 346.488 201.675 352.088 213.662C354.45 218.65 358.913 224.162 365.125 222.544C365.956 222.325 365.606 221.056 364.775 221.275C356.069 223.594 352.306 211.125 350.031 205.219C347.231 197.869 344.738 190.431 342.55 182.906C338.088 167.506 334.981 151.756 333.144 135.831C333.1 134.956 331.788 134.912 331.875 135.787Z" fill="#161616"/>
<path d="M362.019 205.044C363.156 202.725 364.25 200.362 365.387 198.044C366.569 195.637 368.012 192.269 371.206 192.575C372.037 192.662 372.037 191.35 371.206 191.262C368.712 191.044 366.919 192.662 365.694 194.631C363.812 197.65 362.456 201.15 360.881 204.344C360.531 205.131 361.625 205.787 362.019 205.044Z" fill="#161616"/>
<path d="M368.581 199.487C370.462 196.337 374.05 187.587 378.95 190.256C379.694 190.65 380.35 189.512 379.606 189.119C373.612 185.837 369.719 194.981 367.444 198.787C367.006 199.575 368.144 200.231 368.581 199.487Z" fill="#161616"/>
<path d="M372.388 201.106C373.963 198.875 375.581 196.644 377.156 194.412C378.863 192.006 381.138 189.075 384.463 189.556C385.294 189.687 385.644 188.419 384.813 188.287C382.056 187.85 379.825 189.162 378.031 191.175C375.494 193.975 373.438 197.387 371.25 200.45C370.725 201.106 371.863 201.762 372.388 201.106Z" fill="#161616"/>
<path d="M376.106 202.069C377.988 199.837 379.825 197.562 381.706 195.331C382.8 194.019 387.175 187.237 389.013 191.262C389.494 192.269 388.706 194.325 388.356 195.331C387.875 196.644 387.175 197.869 386.519 199.094C385.031 201.806 383.5 204.475 381.575 206.881C381.05 207.537 381.969 208.456 382.494 207.8C384.9 204.737 386.913 201.325 388.663 197.825C389.756 195.637 391.463 191.656 389.756 189.337C388.05 187.019 385.119 189.294 383.806 190.781C380.831 194.15 378.031 197.694 375.188 201.15C374.663 201.762 375.581 202.681 376.106 202.069Z" fill="#161616"/>
<path d="M384.156 189.512C384.813 189.6 385.425 189.775 386.038 189.994C386.388 190.125 386.738 189.862 386.825 189.556C386.913 189.162 386.694 188.9 386.388 188.769C385.688 188.506 384.944 188.331 384.156 188.244C383.806 188.2 383.5 188.594 383.5 188.9C383.5 189.25 383.806 189.469 384.156 189.512Z" fill="#161616"/>
<path d="M384.725 205.175C385.731 203.906 387.7 204.781 388.094 206.181C388.269 206.794 388.269 207.537 388.137 208.15C387.831 209.594 386.912 210.862 385.906 211.912C384.112 213.837 381.969 215.5 379.694 216.812C375.144 219.437 369.981 220.75 364.775 221.144C363.944 221.187 363.944 222.5 364.775 222.456C372.65 221.887 380.394 219.175 386.125 213.575C388.225 211.519 390.325 208.631 389.275 205.525C388.487 203.162 385.512 202.069 383.806 204.212C383.237 204.912 384.2 205.831 384.725 205.175Z" fill="#161616"/>
<path opacity="0.08" d="M332.531 117.15C333.494 120.606 334.894 125.944 336.512 132.506C340.669 149.525 343.381 163.831 348.456 184.919C353.575 206.181 355.5 210.994 360.225 212.831C365.475 214.844 375.844 213.837 382.319 208.456C384.375 206.75 386.431 204.3 387.481 204.869C388.575 205.481 388.269 209.069 386.869 211.825C384.244 217.075 378.075 218.869 372.125 220.575C367.269 221.975 364.819 222.675 361.756 221.756C357.25 220.4 354.669 216.637 353.4 214.8C351.825 212.481 351.562 211.125 349.419 205.219C347.231 199.137 347.056 199.312 345.437 194.85C342.2 185.969 340.275 178.181 339.05 173.325C336.556 163.35 334.281 154.119 333.056 141.65C332.531 135.437 332.094 127.081 332.531 117.15Z" fill="#353535"/>
<path opacity="0.06" d="M352.656 210.162C353.881 211.431 359.656 217.162 368.975 217.512C379.563 217.906 386.3 210.994 387.306 209.944C386.169 211.869 383.938 214.931 380.131 217.294C377.725 218.825 375.669 219.437 373.35 220.094C367.356 221.844 363.463 222.937 359.788 221.275C354.188 218.781 352.875 211.387 352.656 210.162Z" fill="#353535"/>
<path d="M328.769 112.775C324.087 112.206 319.669 115.4 317.262 117.15C310.569 122.006 307.987 128.875 306.806 131.85C299.587 149.919 297.487 171.794 296.569 180.019C295.387 190.344 293.069 205.394 287.819 223.681C290.881 226.175 303 235.494 320.762 234.925C335.944 234.4 346.312 226.919 349.681 224.206C350.644 206.662 350.775 191.875 350.687 180.806C350.469 160.594 349.769 151.319 346.706 140.644C344.344 132.419 339.05 114 328.769 112.775Z" fill="#EC615B"/>
<path opacity="0.08" d="M325.05 114.131C320.675 118.419 331.131 135.131 332.837 139.025C340.712 156.962 344.344 185.969 325.531 234.531C328.112 234.05 331 233.35 334.062 232.256C340.45 230.069 345.481 227.094 349.156 224.469C349.462 221.275 349.856 216.987 350.162 211.912C350.644 203.819 350.687 197.169 350.644 191.569C350.556 174.506 350.512 165.975 349.156 154.644C348.456 149 346.925 138.456 341.85 126.512C338.831 119.469 335.725 114.569 330.781 113.431C330.169 113.256 326.756 112.469 325.05 114.131Z" fill="#353535"/>
<path opacity="0.05" d="M349.681 164.4C348.806 164.312 347.669 172.319 345.656 182.731C341.412 204.65 336.119 221.756 332.356 232.737C334.85 231.775 337.475 230.681 340.144 229.456C343.425 227.969 346.531 226.437 349.462 224.95C351.344 174.812 350.687 164.487 349.681 164.4Z" fill="#353535"/>
<path d="M318.75 119.162C317.35 118.594 316.037 118.681 315.25 118.812C313.937 120.387 311.881 122.881 309.387 125.944C298.406 139.637 297.444 142.831 289.787 151.581C282.437 159.981 277.362 163.919 273.6 166.456C269.356 169.3 266.206 170.744 265.244 171.181C258.287 174.287 251.987 175.25 247.831 175.6C246.562 174.987 244.725 173.981 242.887 172.319C240.525 170.131 239.431 168.031 238.294 166.106C233.962 158.8 232.781 156.7 231.162 156.744C230.594 156.744 229.675 157.05 228.537 158.756C228.1 158.45 227.356 157.881 226.525 157.137C224.469 155.3 223.9 154.206 222.194 153.462C221.45 153.156 220.487 152.719 219.656 153.2C218.825 153.681 218.65 154.819 218.606 155.081C217.862 154.294 216.069 152.675 213.531 152.544C212.831 152.5 211.825 152.456 211.344 153.069C210.6 153.944 211.3 156.044 213.137 158.231C212.7 158.1 210.6 157.4 209.725 158.362C208.762 159.369 209.769 161.6 210.425 163.044C211.737 165.975 213.444 167.462 216.987 171.4C218.431 173.019 219.569 174.331 220.312 175.162C219.569 175.075 218.387 174.9 217.075 174.375C215.106 173.587 214.45 172.669 213.575 172.931C212.612 173.237 212.087 174.856 212.262 176.125C212.481 177.569 213.837 178.444 214.669 178.925C219.7 181.987 225.912 183.519 227.837 184C232.606 185.181 235.012 185.75 236.806 185.969C239.912 186.362 243.019 186.537 247.656 186.319C260.519 185.706 270.537 183.081 272.681 182.512C277.319 181.287 281.387 180.194 286.506 177.875C291.275 175.731 301.775 170.875 310.962 159.894C315.994 153.9 318.137 148.956 322.469 139.112C322.994 137.887 324.044 135.481 324.219 132.244C324.437 127.694 323.169 120.912 318.75 119.162Z" fill="white"/>
<path d="M318.4 118.244C315.381 117.106 313.106 119.95 311.4 122.05C308.95 125.025 306.631 128.087 304.312 131.194C299.281 137.975 294.425 144.931 288.869 151.362C278.369 163.612 264.544 174.419 247.7 174.812C246.869 174.812 246.869 176.125 247.7 176.125C262.925 175.775 276.05 167.069 286.156 156.306C291.406 150.706 296.044 144.581 300.594 138.412C303 135.131 305.406 131.85 307.856 128.612C309.3 126.731 310.787 124.85 312.275 123.012C313.631 121.35 315.512 118.637 318.006 119.556C318.837 119.775 319.144 118.506 318.4 118.244Z" fill="#161616"/>
<path d="M323.475 131.237C317.7 170.962 271.937 189.075 236.106 185.05C230.244 184.394 224.294 183.037 218.912 180.544C217.556 179.931 216.2 179.231 214.975 178.4C214.45 178.05 213.925 177.744 213.531 177.262C212.525 176.519 212.437 175.731 213.181 174.856C213.269 173.675 213.837 173.325 214.931 173.762C217.075 174.244 218.431 176.081 220.75 176.125C221.581 176.125 221.581 174.812 220.75 174.812C218.387 174.769 216.856 172.537 214.537 172.362C212.875 172.231 211.475 173.15 211.256 174.856C210.819 178.881 216.9 181.112 219.787 182.337C230.506 186.8 242.494 187.412 253.912 186.45C275 184.656 296.481 177.044 310.744 160.856C318.006 152.587 323.125 142.525 324.7 131.587C324.875 130.756 323.606 130.406 323.475 131.237Z" fill="#161616"/>
<path d="M221.1 175.031C220.05 173.106 218.387 171.881 216.856 170.394C214.669 168.25 212.875 165.231 211.387 162.519C210.994 161.775 210.6 161.031 210.381 160.244C209.812 159.15 210.162 158.756 211.344 159.106C212.087 158.8 212.656 158.975 213.094 159.544C214.187 160.2 215.237 161.469 216.112 162.387C218.256 164.575 220.137 167.025 221.8 169.606C222.237 170.306 223.375 169.65 222.937 168.95C221.625 166.937 211.519 152.937 209.156 157.881C207.756 160.725 211.256 164.794 212.612 166.981C213.619 168.556 214.581 170.044 215.937 171.356C217.381 172.756 219 173.894 220.006 175.731C220.356 176.431 221.494 175.775 221.1 175.031Z" fill="#161616"/>
<path d="M214.844 158.931C214.275 158.362 210.031 153.156 212.744 152.85C213.356 152.762 214.931 154.075 215.456 154.425C216.331 155.037 217.206 155.737 217.994 156.525C220.881 159.194 223.156 162.431 225.387 165.625C225.869 166.325 227.006 165.669 226.525 164.969C223.156 160.2 219.306 154.337 213.75 151.887C212.394 151.275 210.556 151.187 210.381 153.069C210.162 155.475 212.306 158.362 213.881 159.894C214.537 160.462 215.456 159.544 214.844 158.931Z" fill="#161616"/>
<path d="M220.137 156.744C220.006 156.481 219.394 155.212 219.481 154.906C219.962 154.512 220.444 154.075 220.925 153.681C221.231 153.856 221.581 153.987 221.887 154.162C223.156 154.906 224.25 156 225.256 157.094C227.269 159.369 229.019 161.906 230.856 164.312C231.381 164.969 232.519 164.312 231.994 163.656C229.194 160.025 226.306 154.731 221.931 152.719C220.969 152.281 219.613 151.931 218.738 152.719C217.425 153.856 218.387 155.912 218.912 157.137C219.175 157.881 220.444 157.531 220.137 156.744Z" fill="#161616"/>
<path d="M229.544 159.544C229.194 158.45 228.888 158.187 230.287 158.056C231.512 157.969 231.556 158.231 232.3 159.019C233.219 160.069 234.05 161.162 234.881 162.256C236.281 164.181 237.594 166.194 239.037 168.162C241.269 171.181 244.2 175.425 248.225 175.994C249.056 176.125 249.406 174.856 248.575 174.725C244.944 174.2 242.187 170.262 240.175 167.506C238.337 165.012 236.631 162.344 234.75 159.894C233.656 158.537 231.994 155.737 229.938 155.825C227.75 155.912 227.881 158.406 228.363 159.894C228.538 160.681 229.806 160.331 229.544 159.544Z" fill="#161616"/>
<path opacity="0.08" d="M323.3 123.975C322.25 123.669 320.544 128.131 317.262 133.906C311.881 143.444 306.456 149.7 300.725 155.387C287.119 168.862 280.294 175.644 268.394 179.187C264.15 180.456 244.55 185.706 226.437 174.375C217.862 168.994 212.919 161.95 210.425 157.662C209.987 158.1 209.462 158.756 209.375 159.631C209.2 160.9 210.031 161.862 210.994 163.175C212.306 165.056 212.394 165.537 212.875 166.5C212.875 166.5 213.269 167.2 213.837 167.987C215.325 170.044 220.575 174.812 220.225 175.294C220.094 175.469 219.087 174.987 217.031 174.069C215.019 173.15 214.669 172.887 214.012 173.019C212.831 173.237 211.65 174.55 211.694 175.862C211.737 177.044 212.744 177.831 213.662 178.531C214.712 179.362 215.719 179.669 215.981 179.756C219.831 181.069 220.794 181.944 224.162 182.95C234.006 185.881 245.119 186.144 245.119 186.144C261.437 186.537 273.95 182.425 276.575 181.506C282 179.669 292.631 175.95 303.394 166.762C308.731 162.212 316.869 155.125 321.156 143.312C324.437 134.344 324.787 124.369 323.3 123.975Z" fill="#353535"/>
<path opacity="0.06" d="M220.925 181.025C227.925 182.556 236.456 183.694 246.169 183.519C269.925 183.081 288.256 174.856 298.581 169.125C293.069 173.675 283.75 180.194 270.669 183.869C247.525 190.387 227.969 183.781 220.925 181.025Z" fill="#353535"/>
<path d="M292.5 58.8749C292.456 58.9624 290.925 61.5437 287.906 66.7499C284.406 72.7437 282.962 75.2374 281.519 78.7812C280.512 81.2749 279.856 83.3312 279.462 84.7312C281.387 85.5187 283.312 86.3062 285.237 87.0937C285.762 91.3812 287.031 94.6624 288.037 96.7187C289.656 100.044 291.975 104.9 297.225 107.262C298.012 107.612 300.375 108.619 303.612 108.619C307.637 108.619 310.612 107.044 311.925 106.256C312.187 107.919 312.712 110.019 313.719 112.337C314.55 114.306 315.512 115.881 316.387 117.106C320.5 115.531 324.612 113.956 328.681 112.337C327.544 110.631 326.056 107.919 325.137 104.331C324.831 103.106 324.131 100.044 324.394 95.7125C324.7 90.4187 326.187 87.6624 327.806 82.6749C330.3 74.8874 331.787 70.3374 331.087 65.4812C330.169 59.1812 325.444 51.9187 318.181 49.2937C307.769 45.4874 296.962 52.8812 292.5 58.8749Z" fill="white"/>
<path d="M285.237 63.95C282.525 62.9 281.912 57.5625 282.437 54.0187C282.612 52.8374 283.268 49.3375 286.462 45.8374C290.793 41.0687 295.387 41.1124 302.037 38.2687C305.712 36.6937 310.962 33.8499 316.562 28.3374C315.731 30.8312 314.9 33.2812 314.025 35.7749C315.293 35.8624 318.443 35.9937 321.725 34.1562C325.793 31.9249 327.368 28.25 327.806 27.2C328.506 28.2937 331.393 33.0624 329.862 38.4874C329.425 40.0187 328.725 41.2437 328.068 42.2062C330.343 41.5937 333.537 40.4124 336.25 37.7437C339.225 34.8124 339.618 32.1437 340.843 32.2749C343.206 32.4937 344.081 42.1187 344.562 47.4125C344.868 50.9125 345.35 53.3625 344.431 56.2937C343.6 59.0062 342.025 61.0624 342.2 61.1937C342.506 61.3687 346.925 54.1062 348.15 54.6749C348.893 55.0249 347.581 57.825 347.1 63.1187C346.531 69.5937 347.843 70.8187 346.662 75.4124C345.962 78.0812 344.956 79.9625 343.862 82.1062C342.506 84.6 340.843 87.75 337.781 90.55C334.937 93.175 331.437 96.3687 327.106 95.7562C321.462 94.925 318.837 88.2312 318.662 87.75C319.143 87.75 323.475 87.5312 325.618 84.2062C328.331 79.9625 325.618 73.6625 322.512 72.6125C320.237 71.825 318.443 74.1437 316.3 73.05C314.55 72.175 314.331 70.0312 313.631 68.0187C312.712 65.35 310.7 61.8062 305.756 58.2187C302.65 58.0875 298.056 58.35 293.287 60.5812C289.087 62.4625 287.293 64.7375 285.237 63.95Z" fill="#183B56"/>
<path d="M284.844 71.4312C282.569 74.9312 280.687 78.65 279.375 82.6312C279.069 83.55 278.544 84.5125 279.2 85.3C279.681 85.8687 280.862 86.0437 281.519 86.3062C282.612 86.7 283.706 87.1375 284.8 87.5312C285.587 87.8375 285.937 86.5687 285.15 86.2625C284.406 86 283.706 85.7375 282.962 85.4312C282.525 85.2562 281.081 84.9499 280.775 84.5999C279.856 83.6812 281.169 81.4062 281.562 80.4437C282.744 77.5125 284.231 74.7562 285.981 72.0875C286.462 71.3875 285.325 70.7312 284.844 71.4312Z" fill="#161616"/>
<path d="M284.537 87.05C286.944 95.45 289.962 104.812 298.537 108.794C299.281 109.144 299.981 108.006 299.193 107.656C290.969 103.806 288.125 94.7937 285.806 86.7C285.544 85.8687 284.275 86.2187 284.537 87.05Z" fill="#161616"/>
<path d="M298.756 108.925C306.412 110.631 314.987 106.519 320.106 101.05C320.675 100.437 319.756 99.5187 319.187 100.131C314.375 105.25 306.281 109.275 299.106 107.656C298.275 107.437 297.925 108.706 298.756 108.925Z" fill="#161616"/>
<path d="M311.312 106.562C311.837 110.412 313.237 113.869 315.644 116.931C316.169 117.587 317.087 116.669 316.562 116.012C314.419 113.256 313.106 110.019 312.625 106.562C312.537 105.731 311.225 105.731 311.312 106.562Z" fill="#161616"/>
<path d="M323.825 100.919C324.087 105.25 325.662 109.187 328.462 112.512C328.987 113.169 329.95 112.206 329.381 111.594C326.8 108.531 325.356 104.9 325.094 100.919C325.05 100.087 323.737 100.087 323.825 100.919Z" fill="#161616"/>
<path d="M317.35 74.7562C318.619 72.8312 321.025 72.5688 322.906 73.7938C324.612 74.8875 325.444 76.9875 325.575 78.9125C325.794 82.0188 323.781 88.3188 319.406 86.4375C318.619 86.0875 317.962 87.225 318.75 87.575C324.437 90.025 327.456 82.5438 326.8 78.0375C326.406 75.4562 324.919 72.9188 322.337 72.0438C320.019 71.2125 317.612 72.0875 316.256 74.1C315.731 74.8 316.869 75.4562 317.35 74.7562Z" fill="#161616"/>
<path d="M312.493 108.312C315.031 106.694 317.218 104.725 319.1 102.406C319.625 101.75 318.706 100.831 318.181 101.487C316.387 103.719 314.243 105.644 311.837 107.219C311.137 107.656 311.793 108.794 312.493 108.312Z" fill="#161616"/>
<path d="M288.562 95.7125C291.581 95.975 294.6 94.8812 296.7 92.65C298.056 91.1625 298.581 88.6687 295.825 88.7562C295.125 88.8 294.906 89.85 295.65 90.025C296.656 90.2875 297.487 90.6812 298.319 91.3812C298.975 91.9062 299.894 90.9875 299.237 90.4625C298.231 89.6312 297.269 89.1062 296 88.8C295.956 89.2375 295.869 89.675 295.825 90.0687C297.312 90.025 295.344 92.1687 295.169 92.3437C294.469 92.9562 293.725 93.3937 292.894 93.7437C291.494 94.3562 290.094 94.5312 288.562 94.4C287.731 94.3562 287.731 95.6687 288.562 95.7125Z" fill="#161616"/>
<path d="M294.337 75.9374C293.594 74.6249 293.331 73.1811 293.681 71.7374C293.375 71.8686 293.025 71.9999 292.719 72.1311C293.9 73.0499 293.637 74.7561 293.462 76.0249C293.856 75.9811 294.25 75.9374 294.644 75.8499C294.119 75.1061 293.856 74.3187 293.856 73.3999C293.856 72.5687 292.544 72.5687 292.544 73.3999C292.544 74.5374 292.85 75.5874 293.506 76.5061C293.812 76.8999 294.6 76.9436 294.687 76.3311C294.994 74.3624 295.081 72.3062 293.331 70.9499C292.981 70.6874 292.456 70.9499 292.369 71.3436C291.931 73.1374 292.194 74.9749 293.156 76.5499C293.637 77.3374 294.775 76.6811 294.337 75.9374Z" fill="#161616"/>
<path d="M291.712 66.6625C293.856 64.125 296.962 66.05 298.1 68.4563C298.45 69.2 299.587 68.5438 299.237 67.8C297.75 64.65 293.462 62.6375 290.793 65.7438C290.225 66.4 291.143 67.3188 291.712 66.6625Z" fill="#161616"/>
<path opacity="0.07" d="M312.8 65.9187C312.975 66.925 313.193 68.5 313.543 70.3375C314.506 75.5437 315.337 78.5187 315.643 79.9187C316.781 85.2562 315.293 93.4812 309.868 98.8624C303.875 104.769 295.693 104.637 293.637 104.55C294.556 105.644 296 107.044 298.1 107.962C304.487 110.762 310.962 106.694 311.662 106.212C311.575 109.056 312.187 110.019 312.8 110.325C314.681 111.156 318.881 107.262 320.718 103.062C322.687 98.5124 321.681 94.1374 321.156 92.3437C318.706 88.9749 318.575 87.7937 318.925 87.4C319.45 86.8312 320.893 87.8812 322.512 87.3124C324.218 86.6562 324.918 84.5999 325.356 83.3312C325.925 81.6249 327.456 76.9875 324.612 74.275C322.818 72.5687 319.887 72.2624 317.131 73.2249C316.562 73.1374 315.818 72.875 315.25 72.2625C314.506 71.475 314.506 70.5562 314.112 68.9812C313.85 68.1937 313.5 67.1437 312.8 65.9187Z" fill="#353535"/>
<path opacity="0.1" d="M318.925 95.4936C318.575 99.2561 317.656 102.319 316.825 104.55C318.356 104.112 319.931 103.631 321.462 103.194C322.775 106.65 324.043 110.15 325.356 113.606C326.318 113.125 327.237 112.644 328.2 112.119C327.106 109.669 326.012 106.65 325.137 103.15C324.393 100.175 324 97.4186 323.781 95.0561C323.037 94.3124 322.162 93.3936 321.375 92.2124C320.018 90.2436 319.231 88.4062 318.75 86.9624C319.012 89.1937 319.231 92.1249 318.925 95.4936Z" fill="#353535"/>
<path opacity="0.13" d="M343.687 40.6312C343.075 40.6312 343.468 46.6687 340.887 54.0187C339.793 57.125 337.781 62.6375 332.618 67.275C328.943 70.5562 325.137 72.175 322.731 72.9625C323.387 73.3562 324.437 74.1 325.225 75.3687C327.15 78.4312 325.925 81.8875 325.575 82.8937C325.093 84.2937 324.437 86.1312 322.6 87.0937C320.893 87.9687 319.143 87.6187 318.531 87.4437C318.662 87.8375 321.418 95.1 327.15 95.7125C329.556 95.975 331.525 94.925 333.012 94.1375C336.906 92.125 338.875 89.1062 341.281 85.3875C344.475 80.4437 346.706 76.9437 347.012 72C347.231 68.1062 346.05 67.1 346.881 63.3812C347.144 62.2 347.843 59.8375 347.712 56.5562C347.668 55.8562 347.625 55.2875 347.581 54.8937C345.787 56.95 343.993 59.05 342.2 61.1062C342.812 59.925 343.6 58.0875 344.125 55.725C344.693 53.1437 344.606 51.1312 344.475 47.8062C344.431 45.925 344.256 40.6312 343.687 40.6312Z" fill="#353535"/>
</svg>
