<svg width="562" height="462" viewBox="0 0 562 462" fill="none" xmlns="http://www.w3.org/2000/svg">
<path d="M76.8249 101.656C76.2562 102.094 76.6937 103.8 77.4812 106.731C77.7874 107.869 78.0937 108.744 78.2687 109.313C77.9187 111.675 77.6124 114.038 77.2624 116.4C76.5624 116.488 74.7687 116.881 73.1062 118.325C71.5749 119.681 70.9624 121.256 70.7437 121.956C72.1437 122.088 73.8499 122.394 75.6874 122.963C78.3562 123.794 80.4562 124.931 81.9874 125.894C81.9874 126.419 82.0749 127.425 82.7749 128.169C83.3874 128.781 84.1312 128.869 84.5687 128.956C86.1437 129.219 88.0249 129.569 90.4312 130.094C91.4812 130.706 93.2312 131.713 95.3749 132.894C102.637 136.831 105.262 137.488 112.525 141.338C117.206 143.831 116.812 143.919 120.094 145.494C125.125 147.944 129.456 149.388 132.387 150.219C133.612 148.863 135.581 146.238 136.675 142.431C137.55 139.413 137.506 136.788 137.331 135.081C138.075 135.475 139.256 135.913 140.612 135.738C144.112 135.344 146.344 131.363 147.044 128.519C147.656 126.025 147.087 124.45 146.606 121.519C145.512 114.956 144.55 109.094 147.262 105.375C149.537 102.269 154.219 100.825 157.981 96.6689C158.331 96.2751 158.987 95.5314 158.769 95.1814C158.375 94.5251 155.312 95.6626 153.825 96.3189C152.862 96.7564 145.644 100.081 143.456 107.606C143.106 108.788 143.062 112.2 143.019 118.981C142.975 123.925 143.062 126.725 141.094 128.344C140.087 129.175 138.6 129.656 137.244 129.35C135.231 128.913 134.269 126.944 133.394 125.631C131.119 122.175 127.881 120.731 123.9 118.763C120.794 117.231 118.125 116.663 112.744 115.481C107.669 114.388 106.137 114.519 103.95 112.9C101.5 111.063 100.144 108.481 99.4437 107.038C98.7437 105.681 97.6499 103.538 97.1687 100.475C96.9062 98.6814 96.9499 97.4126 96.5124 97.3251C95.7249 97.1501 95.3312 100.781 92.6624 102.05C91.0437 102.838 89.9937 102.094 87.1499 102.181C85.3124 102.225 83.2124 102.619 80.8499 103.669C80.0624 103.1 77.6124 101.088 76.8249 101.656Z" fill="black"/>
<path d="M78.1374 116.05C77.2187 108.831 83.7812 102.269 91.0437 103.013C97.9124 103.713 102.462 112.069 102.244 118.325C102.2 119.156 103.512 119.156 103.556 118.325C103.775 111.413 98.6124 102.313 91.0437 101.7C83.0812 101.044 75.8187 108.088 76.8249 116.05C76.9562 116.838 78.2687 116.881 78.1374 116.05Z" fill="black"/>
<path d="M78.0064 120.6C80.6751 125.806 86.4064 129.481 92.4001 128.694C97.8689 127.95 102.506 123.531 103.338 118.063C103.469 117.231 102.2 116.881 102.069 117.713C101.325 122.7 97.2126 126.725 92.2251 127.381C86.7564 128.125 81.5939 124.713 79.1439 119.944C78.7501 119.2 77.6126 119.856 78.0064 120.6Z" fill="black"/>
<path d="M82.7313 126.944C82.6 125.281 87.325 124.581 88.5063 124.319C90.65 123.838 92.8375 123.575 95.025 123.575C99.0938 123.575 102.988 124.625 106.444 126.769C107.144 127.206 107.844 126.069 107.1 125.631C102.638 122.875 97.4313 121.913 92.2688 122.394C89.5563 122.656 86.8875 123.225 84.3063 124.1C82.9063 124.581 81.2438 125.194 81.375 126.944C81.4625 127.775 82.8188 127.775 82.7313 126.944Z" fill="black"/>
<path d="M101.544 111.806C104.3 115.131 108.763 115.919 112.744 116.794C118.038 118.019 123.506 119.113 128.144 122.044C137.725 128.081 139.519 141.25 131.95 149.694C131.381 150.306 132.3 151.269 132.869 150.613C139.606 143.131 139.781 131.669 132.825 124.231C129.15 120.294 123.9 118.238 118.781 116.881C113.575 115.525 106.094 115.306 102.419 110.844C101.938 110.231 101.019 111.15 101.544 111.806Z" fill="black"/>
<path d="M132.169 134.688C129.981 131.8 126.131 130.794 122.763 132.194C118.606 133.9 118.388 139.019 118.869 142.913C118.956 143.744 120.269 143.744 120.181 142.913C119.788 139.85 119.744 135.125 122.894 133.594C125.606 132.238 129.15 132.938 130.988 135.388C131.513 136.044 132.65 135.388 132.169 134.688Z" fill="black"/>
<path d="M120.006 142.3C117.6 140.463 115.106 138.888 112 139.719C111.65 139.806 111.475 140.2 111.563 140.506C112.35 143.569 117.163 144.838 119.7 145.931C123.594 147.638 127.575 149.081 131.6 150.35C132.388 150.613 132.738 149.344 131.95 149.081C128.713 148.075 125.563 146.981 122.413 145.669C120.706 144.969 119.044 144.225 117.381 143.438C115.894 142.738 113.225 141.906 112.788 140.156C112.656 140.419 112.481 140.681 112.35 140.944C115.063 140.2 117.294 141.819 119.306 143.394C120.006 143.963 120.663 142.825 120.006 142.3Z" fill="black"/>
<path d="M81.55 126.813C83.2562 129.613 86.7125 130.094 89.7312 130.531C94.1937 131.188 98.6562 131.188 103.119 130.706C103.95 130.619 103.95 129.306 103.119 129.394C99.5312 129.788 95.9437 129.875 92.3562 129.525C89.3375 129.219 84.4812 129.044 82.6437 126.156C82.25 125.413 81.1125 126.069 81.55 126.813Z" fill="black"/>
<path d="M71.3563 122.35C71.925 119.288 74.5938 117.713 77.5688 117.581C77.35 117.406 77.1313 117.275 76.9563 117.1C77.175 118.15 77.4813 119.156 77.9188 120.119C78.225 120.906 79.4938 120.556 79.1875 119.769C78.7938 118.763 78.4875 117.8 78.225 116.75C78.1813 116.488 77.875 116.269 77.6125 116.269C74.1125 116.444 70.7875 118.369 70.1313 122C69.9563 122.831 71.225 123.181 71.3563 122.35Z" fill="black"/>
<path d="M78.9687 108.788C78.3125 106.906 77.8312 104.938 77.6562 102.925C77.6562 102.75 77.6125 102.575 77.6125 102.4C77.5687 102.006 77.6125 102.05 77.7875 102.531C78.1812 102.794 78.575 103.1 78.9687 103.406C79.625 103.975 80.2375 104.588 80.7625 105.244C81.3312 105.9 82.25 104.938 81.6812 104.325C80.9375 103.45 77.8312 99.8627 76.5187 101.263C75.8625 101.963 76.3437 103.581 76.475 104.369C76.6937 105.988 77.1312 107.606 77.6562 109.138C78.0062 109.925 79.275 109.619 78.9687 108.788Z" fill="black"/>
<path d="M93.7563 102.663C94.15 101.963 94.5438 101.263 94.9813 100.563C95.1563 100.256 95.3313 99.9938 95.4625 99.6875C95.725 99.25 95.725 98.8563 96.25 98.9875C96.8625 99.1188 96.6438 100.563 96.6438 101.088C96.6438 101.919 96.6875 102.75 96.6875 103.581C96.6875 104.413 98 104.413 98 103.581C98 102.225 98.0438 100.869 97.9563 99.5125C97.9125 98.6375 97.6063 97.675 96.6438 97.3688C95.7688 97.1063 95.1563 97.675 94.7188 98.3313C93.975 99.5125 93.3188 100.781 92.6188 101.963C92.1813 102.75 93.3188 103.406 93.7563 102.663Z" fill="black"/>
<path d="M135.669 131.275C135.931 134.6 139.65 135.694 142.231 134.075C146.037 131.713 146.869 126.375 146.387 122.35C145.731 116.838 144.419 111.719 146.3 106.25C148.094 101.044 152.556 96.8002 158.2 96.4502C159.031 96.4064 159.031 95.0939 158.2 95.1377C150.5 95.6189 145.25 102.181 144.156 109.444C143.5 113.775 144.462 117.8 145.031 122.044C145.381 124.844 145.206 127.513 143.937 130.094C143.369 131.188 142.581 132.281 141.531 132.981C139.912 133.988 137.112 133.681 136.937 131.319C136.937 130.444 135.625 130.4 135.669 131.275Z" fill="black"/>
<path d="M136.369 133.638C137.725 137.269 142.45 135.65 144.506 133.55C147.875 130.138 147.131 124.45 146.869 120.119C146.825 119.288 145.513 119.288 145.556 120.119C145.731 122.875 145.994 125.85 145.513 128.606C145.294 129.919 144.813 131.144 143.938 132.194C142.975 133.375 138.775 136.35 137.638 133.288C137.331 132.5 136.063 132.85 136.369 133.638Z" fill="black"/>
<path d="M158.244 95.0939C153.256 97.0189 148.225 99.7314 146.213 104.981C143.894 111.019 145.556 117.581 145.425 123.838C145.425 124.669 146.738 124.669 146.738 123.838C146.869 118.369 145.556 112.769 146.869 107.344C148.313 101.394 153.256 98.4189 158.594 96.3626C159.381 96.0564 159.031 94.7876 158.244 95.0939Z" fill="black"/>
<path d="M157.238 95.8376C152.644 97.9376 148.444 101.613 146.3 106.294C145.163 108.744 145.338 111.456 145.338 114.125C145.338 117.538 145.469 120.994 145.731 124.406C145.775 125.238 147.088 125.238 147.044 124.406C146.869 121.65 146.738 118.938 146.694 116.181C146.65 113.294 146.256 109.881 147.35 107.169C149.231 102.575 153.475 99.0313 157.894 96.9751C158.681 96.6251 158.025 95.4876 157.238 95.8376Z" fill="black"/>
<path d="M80.7187 111.675C81.9437 113.819 85.0499 113.075 85.3562 110.713C85.3999 110.275 84.7437 110.319 84.6999 110.713C84.4812 112.506 82.2062 112.856 81.2874 111.369C81.0687 110.975 80.4999 111.325 80.7187 111.675Z" fill="white"/>
<path d="M89.9938 109.969C91.3501 112.288 94.8063 111.369 94.8501 108.7C94.8501 108.263 94.1938 108.263 94.1938 108.7C94.1501 110.756 91.6126 111.413 90.5626 109.663C90.3438 109.269 89.7751 109.575 89.9938 109.969Z" fill="white"/>
<path d="M87.3688 112.856C87.675 114.125 87.4125 115.394 86.625 116.444C86.3625 116.794 86.9312 117.1 87.1937 116.794C88.0687 115.613 88.3313 114.125 88.025 112.681C87.8938 112.288 87.2375 112.463 87.3688 112.856Z" fill="white"/>
<path d="M87.6314 112.813C87.5001 114.475 88.4189 116.05 89.9501 116.75C90.3439 116.925 90.6501 116.356 90.3001 116.181C88.9876 115.569 88.1564 114.256 88.2876 112.813C88.2876 112.375 87.6314 112.375 87.6314 112.813Z" fill="white"/>
<path d="M76.9562 116.706C80.8062 116.4 83.2562 119.55 85.8375 121.869C86.1438 122.131 86.625 121.694 86.3187 121.388C83.6062 118.938 80.9812 115.744 76.9562 116.006C76.5625 116.05 76.5625 116.706 76.9562 116.706Z" fill="white"/>
<path d="M84.1312 124.406C89.0749 121.256 94.9374 120.206 100.669 121.475C101.062 121.563 101.237 120.95 100.844 120.863C94.9374 119.594 88.8999 120.644 83.8249 123.881C83.4312 124.056 83.7812 124.625 84.1312 124.406Z" fill="white"/>
<path d="M96.5563 130.4C100.625 130.663 104.475 129.394 107.581 126.725C107.888 126.463 107.45 125.981 107.1 126.244C104.125 128.781 100.45 130.006 96.5563 129.744C96.1626 129.744 96.1626 130.4 96.5563 130.4Z" fill="white"/>
<path d="M95.375 99.3376C94.4125 100.956 94.1937 102.838 94.7625 104.631C94.8938 105.025 95.5063 104.85 95.375 104.456C94.85 102.838 95.025 101.131 95.9 99.6876C96.1625 99.2939 95.5938 98.9439 95.375 99.3376Z" fill="white"/>
<path d="M78.05 103.406C79.1 104.063 79.7563 105.069 80.0188 106.25C80.1063 106.644 80.7188 106.469 80.6313 106.075C80.325 104.719 79.5375 103.581 78.3563 102.838C78.0063 102.619 77.7 103.188 78.05 103.406Z" fill="white"/>
<path d="M101.194 110.406C102.025 111.413 102.988 112.288 104.081 112.944C104.431 113.163 104.781 112.594 104.431 112.375C103.381 111.719 102.419 110.888 101.675 109.925C101.369 109.619 100.931 110.1 101.194 110.406Z" fill="white"/>
<path d="M128.187 131.888C127.269 129.569 122.85 131.144 121.406 132.063C118.825 133.769 117.687 136.963 118.65 139.894C118.781 140.288 119.394 140.113 119.262 139.719C118.519 137.4 119.131 134.906 120.969 133.2C121.756 132.456 122.806 131.931 123.856 131.669C124.6 131.45 127.137 130.969 127.531 132.019C127.706 132.456 128.319 132.281 128.187 131.888Z" fill="white"/>
<path d="M119.175 139.938C115.762 138.494 112.131 138.363 108.587 139.456C108.194 139.588 108.369 140.2 108.762 140.069C112.219 138.975 115.675 139.15 119 140.55C119.394 140.725 119.569 140.069 119.175 139.938Z" fill="white"/>
<path d="M137.55 413.375C146.475 408.606 155.444 403.837 164.369 399.069C168.569 399.769 174.344 400.687 181.256 401.65C195.081 403.575 217.35 406.681 245.525 407.512C273.7 408.344 294.831 406.55 302.881 405.762C322.262 403.925 333.987 401.431 343.569 398.85C352.275 396.487 359.45 393.906 364.569 391.938C368.769 393.337 373.45 395.219 378.437 397.8C381.281 399.288 383.906 400.819 386.225 402.35C378 404.712 366.931 407.731 353.762 410.794C326.025 417.269 304.762 420.331 300.3 420.987C274.794 424.619 238.437 429.737 192.719 424.444C178.5 422.737 159.556 419.631 137.55 413.375Z" fill="white"/>
<path d="M137.069 413.419C137.287 415.256 137.55 417.05 137.769 418.887C141.05 419.806 145.862 421.119 151.812 422.431C163.187 424.969 174.737 426.719 189.831 427.9C245.569 432.275 290.106 428.381 290.106 428.381C312.375 426.413 333.987 424.4 361.9 416.262C372.4 413.2 380.975 410.094 387.1 407.688C386.619 405.631 386.137 403.575 385.656 401.519C383.95 402.219 381.412 403.225 378.306 404.363C357.219 412.063 339.85 414.6 324.362 416.481C290.325 420.681 273.306 422.738 248.325 423.131C219.887 423.613 181.737 421.906 137.069 413.419Z" fill="#161616"/>
<path d="M136.762 414.25C136.762 415.65 136.762 417.05 136.762 418.45C136.762 419.281 138.075 419.281 138.075 418.45C138.075 417.05 138.075 415.65 138.075 414.25C138.075 413.375 136.762 413.375 136.762 414.25Z" fill="#161616"/>
<path d="M137.244 419.675C169.925 428.512 204.05 429.65 237.694 430.131C270.025 430.569 302.575 429.169 334.425 423.262C352.362 419.937 370.037 415.081 387.1 408.475C387.887 408.169 387.537 406.9 386.75 407.206C356.65 418.887 324.669 424.837 292.512 427.331C260.094 429.825 227.369 429.256 194.95 427.287C175.569 426.062 156.362 423.525 137.594 418.45C136.762 418.187 136.412 419.456 137.244 419.675Z" fill="#161616"/>
<path d="M387.1 407.556C387.362 405.719 387.45 403.838 387.275 402C387.187 401.169 385.875 401.169 385.962 402C386.094 403.75 386.094 405.5 385.831 407.206C385.7 407.994 386.969 408.388 387.1 407.556Z" fill="#161616"/>
<path d="M137.812 414.119C147 409.744 156.012 405.063 164.85 399.988C165.594 399.55 164.937 398.456 164.194 398.85C155.356 403.881 146.344 408.606 137.156 412.981C136.369 413.331 137.025 414.469 137.812 414.119Z" fill="#161616"/>
<path d="M164.5 399.375C216.694 409.306 270.944 411.144 323.575 403.619C337.575 401.606 351.487 398.5 364.437 392.725C365.225 392.375 364.525 391.238 363.781 391.588C352.144 396.75 339.719 399.769 327.162 401.738C314.387 403.75 301.481 404.975 288.575 405.806C262.369 407.469 236.031 407.031 209.912 404.538C194.775 403.094 179.769 400.906 164.85 398.106C164.019 397.975 163.669 399.244 164.5 399.375Z" fill="#161616"/>
<path d="M364.175 392.506C371.962 395.044 379.269 398.588 386.094 403.094C386.794 403.575 387.45 402.438 386.75 401.956C379.837 397.406 372.4 393.819 364.525 391.238C363.694 390.975 363.344 392.244 364.175 392.506Z" fill="#161616"/>
<path d="M137.9 413.419C153.344 418.625 169.444 421.075 185.631 422.388C202.037 423.7 218.575 424.094 235.025 424.094C267.706 424.094 300.475 421.863 332.675 416C350.962 412.675 369.075 408.169 386.706 402.263C387.494 402 387.144 400.731 386.356 400.994C355.337 411.319 323.094 417.356 290.544 420.331C258.169 423.306 225.444 423.481 192.981 421.556C174.431 420.419 155.837 418.1 138.162 412.15C137.462 411.888 137.112 413.156 137.9 413.419Z" fill="#161616"/>
<path d="M163.1 163.563C216.562 151.181 271.6 148.469 326.287 147.944C341.775 147.769 357.262 147.813 372.75 147.813C373.581 147.813 373.581 146.5 372.75 146.5C317.887 146.413 262.762 146.369 208.294 153.938C192.981 156.081 177.8 158.794 162.75 162.294C161.919 162.513 162.269 163.781 163.1 163.563Z" fill="#161616"/>
<path d="M375.462 146.631C376.031 166.975 376.381 190.556 376.25 216.762C376.162 231.987 376.031 224.725 374.675 288.075C373.887 324.562 373.669 338.3 371.087 359.387C369.425 373.125 367.412 384.412 365.925 392.069C377.212 395.219 387.975 398.194 397.425 400.819C412.037 404.887 415.931 405.981 421.75 406.812C430.762 408.037 441.744 408.212 454.431 405.631C459.112 367.306 461.694 334.625 463.181 309.6C468.519 221.662 463.531 181.15 461.606 166.931C458.981 147.769 455.744 132.019 453.25 121.125C443.887 122.919 436.275 124.844 430.937 126.287C412.606 131.319 398.081 137.225 385.919 142.213C381.412 144.094 377.781 145.625 375.462 146.631Z" fill="white"/>
<path d="M73.85 121.912C73.5 125.675 73.1062 130.312 72.7562 134.337C65.4937 217.156 61.8625 258.587 60.6813 285.231C59.4563 313.844 59.3688 355.319 65.45 406.9C65.9313 407.95 66.8062 409.394 68.3812 410.575C70.4375 412.106 72.3187 412.062 76.0375 413.112C78.9687 413.944 80.5 414.775 81.9 415.3C85.925 416.875 94.9375 418.669 106.4 418.231C122.85 417.575 135.494 412.544 144.769 408.737C153.475 405.194 160.431 401.387 165.244 398.5C162.531 374.131 160.519 348.406 159.381 321.412C157.062 264.012 159.381 211.294 164.15 164.306C162.138 163.519 159.206 162.425 155.75 161.025C149.8 158.619 135.538 152.8 110.425 140.55C100.494 135.737 88.0687 129.481 73.85 121.912Z" fill="white"/>
<path d="M452.987 120.95C453.512 123.837 454.212 127.819 455 132.587C456.094 139.369 458.544 155.425 460.337 176.512C462.175 198.475 462.612 217.375 462.656 232.425C462.787 262.962 461.65 285.362 458.675 337.6C457.756 353.875 456.4 377.719 454.694 406.812C456.487 406.681 458.237 406.594 460.031 406.462C460.906 399.2 462.087 388.394 463.006 375.181C463.706 365.644 464.012 358.687 464.319 351.206C465.85 316.906 466.112 317.3 466.637 303.3C467.687 275.694 467.469 254.475 467.294 235.4C467.162 222.231 466.769 209.762 465.981 184.825C465.412 167.85 464.844 152.8 460.994 133.244C459.987 128.256 459.025 124.1 458.325 121.256C456.531 121.169 454.781 121.081 452.987 120.95Z" fill="#161616"/>
<path d="M67.1562 122.7C66.85 124.231 66.3687 126.594 65.8875 129.481C64.4875 137.837 64.1375 144.137 64.0062 146.194C63.0437 161.069 61.1187 168.331 58.3187 201.362C57.7937 207.4 57.4 212.694 56.6125 223.325C54.9937 245.025 54.2062 255.875 53.6375 268.125C53.025 281.819 52.9375 291.487 52.8062 310.825C52.675 327.538 52.5875 339.613 53.025 355.406C53.375 368.006 54.075 385.113 55.7812 405.5C59.325 406.55 62.825 407.6 66.3687 408.65C66.325 406.681 66.1937 403.138 65.9312 398.719C64.8812 379.075 63.175 371.113 62.7812 354.75C62.65 349.719 62.7375 346.394 62.7812 341.625C63.2625 307.413 62.6937 291.794 63 269.569C63.525 233.3 65.975 204.95 68.075 180.8C70.0437 157.962 72.275 138.406 74.2 123.094C71.7937 122.962 69.475 122.831 67.1562 122.7Z" fill="#161616"/>
<path d="M374.412 147.375C376.031 179.488 375.812 211.688 375.375 243.8C374.894 275.213 374.675 306.713 372.269 338.081C370.912 355.931 368.769 373.738 365.444 391.369C365.269 392.2 366.537 392.55 366.712 391.719C372.531 360.875 374.675 329.506 375.637 298.181C376.644 266.2 377.081 234.131 377.037 202.106C376.994 183.863 376.687 165.619 375.769 147.375C375.681 146.544 374.369 146.544 374.412 147.375Z" fill="#161616"/>
<path d="M376.031 147.375C400.313 135.344 426.081 126.681 452.681 121.563C453.512 121.388 453.163 120.119 452.331 120.294C425.644 125.456 399.744 134.206 375.375 146.238C374.631 146.631 375.288 147.769 376.031 147.375Z" fill="#161616"/>
<path d="M452.244 121.169C459.463 157.525 461.65 194.669 461.606 231.681C461.519 268.694 459.331 305.619 457.538 342.588C456.488 363.894 455.437 385.156 454.387 406.463C454.344 407.294 455.656 407.294 455.7 406.463C457.581 368.75 459.55 331.038 461.256 293.281C462.919 256.269 463.969 219.169 461.475 182.2C460.075 161.594 457.581 141.075 453.556 120.863C453.337 119.988 452.069 120.338 452.244 121.169Z" fill="#161616"/>
<path d="M365.662 391.631C367.631 393.906 371.131 394.344 373.887 395.175C377.65 396.313 381.456 397.45 385.219 398.588C392.831 400.863 400.4 403.269 408.1 405.194C423.15 408.869 438.594 409.612 453.862 406.988C454.694 406.856 454.344 405.588 453.512 405.719C438.462 408.3 423.237 407.556 408.45 403.925C401.406 402.219 394.494 400.031 387.581 397.931C384.081 396.881 380.581 395.831 377.081 394.781C375.331 394.256 373.581 393.731 371.831 393.206C369.994 392.638 367.938 392.244 366.625 390.713C366.013 390.1 365.094 391.019 365.662 391.631Z" fill="#161616"/>
<path d="M453.119 121.213C454.737 121.606 456.356 122 458.019 122.394C458.85 122.613 459.2 121.344 458.369 121.125C456.75 120.731 455.131 120.338 453.469 119.944C452.637 119.769 452.287 121.038 453.119 121.213Z" fill="#161616"/>
<path d="M457.931 121.956C462.306 139.631 463.488 158.094 464.756 176.25C466.069 194.8 466.769 213.394 467.075 232.031C467.6 269 466.331 305.969 464.231 342.894C463.05 363.806 461.563 384.719 460.031 405.631C459.988 406.463 461.3 406.463 461.344 405.631C464.1 368.444 466.594 331.256 467.775 293.981C468.956 256.794 468.869 219.519 466.506 182.331C465.238 162.119 464.1 141.381 459.244 121.65C458.981 120.775 457.713 121.125 457.931 121.956Z" fill="#161616"/>
<path d="M455.087 407.206C457.012 407.031 458.894 406.856 460.819 406.681C461.65 406.594 461.65 405.281 460.819 405.369C458.894 405.544 457.012 405.719 455.087 405.894C454.256 405.981 454.256 407.294 455.087 407.206Z" fill="#161616"/>
<path d="M163.056 163.956C160.125 194.275 158.375 224.681 157.806 255.131C157.238 285.712 157.85 316.337 159.687 346.875C160.694 364.025 162.137 381.131 163.887 398.194C163.975 399.025 165.287 399.025 165.2 398.194C162.05 367.919 160.081 337.512 159.294 307.062C158.506 276.481 158.9 245.856 160.519 215.319C161.437 198.169 162.706 181.062 164.325 163.956C164.456 163.125 163.144 163.125 163.056 163.956Z" fill="#161616"/>
<path d="M74.6812 122.963C103.075 138.756 132.562 152.581 162.837 164.35C163.625 164.656 163.975 163.388 163.187 163.081C133 151.356 103.644 137.575 75.3375 121.825C74.5937 121.388 73.9375 122.525 74.6812 122.963Z" fill="#161616"/>
<path d="M73.325 122.656C68.4687 159.669 65.1 196.9 63.2625 234.219C61.425 271.538 61.1625 308.9 62.3875 346.219C63.0875 367.175 64.2687 388.131 65.9312 409.044C66.0187 409.875 67.3312 409.875 67.2437 409.044C64.2687 371.812 62.8687 334.45 62.9562 297.131C63.0437 259.769 64.7062 222.45 67.8562 185.219C69.65 164.306 71.925 143.481 74.6375 122.656C74.725 121.825 73.4125 121.825 73.325 122.656Z" fill="#161616"/>
<path d="M65.8875 409.875C90.2562 423.131 119.437 420.287 144.2 409.787C151.637 406.637 158.812 402.831 165.725 398.675C166.425 398.238 165.769 397.1 165.069 397.537C142.012 411.494 114.975 421.25 87.7187 416.175C80.325 414.819 73.15 412.325 66.5437 408.737C65.8437 408.344 65.1437 409.481 65.8875 409.875Z" fill="#161616"/>
<path d="M56.2187 406.244C59.2812 407.688 62.4312 408.913 65.625 410.006C66.4125 410.269 66.7625 409 65.975 408.738C62.8687 407.688 59.85 406.506 56.875 405.106C56.0875 404.756 55.4312 405.894 56.2187 406.244Z" fill="#161616"/>
<path d="M66.2812 122.963C61.5562 159.625 57.6187 196.375 55.0375 233.256C52.5 269.963 51.275 306.756 52.0625 343.55C52.5 364.375 53.55 385.2 55.3437 405.938C55.4312 406.769 56.7437 406.769 56.6562 405.938C53.5062 369.144 52.5875 332.219 53.4625 295.294C54.2937 258.5 56.8312 221.75 60.4625 185.088C62.5187 164.35 64.925 143.613 67.5937 122.919C67.725 122.131 66.4125 122.131 66.2812 122.963Z" fill="#161616"/>
<path d="M67.0249 123.881C69.5624 123.356 72.0999 123.181 74.7249 123.312C75.5561 123.356 75.5561 122.044 74.7249 122C72.0124 121.869 69.3436 122.088 66.6749 122.613C65.8436 122.788 66.1936 124.056 67.0249 123.881Z" fill="#161616"/>
<path d="M391.169 150.35C393.006 201.1 392.919 251.894 390.819 302.644C390.25 316.862 389.506 331.037 388.588 345.256C388.544 346.087 389.856 346.087 389.9 345.256C393.094 294.594 394.319 243.8 393.575 193.006C393.356 178.787 393.006 164.569 392.481 150.35C392.438 149.519 391.125 149.519 391.169 150.35Z" fill="#161616"/>
<path d="M412.388 132.15C414.138 167.456 415.013 202.85 414.969 238.2C414.969 273.55 414.094 308.944 412.344 344.25C411.381 364.244 410.113 384.194 408.581 404.144C408.538 404.975 409.85 404.975 409.894 404.144C412.606 368.881 414.444 333.575 415.45 298.225C416.413 262.875 416.544 227.481 415.8 192.131C415.363 172.138 414.663 152.144 413.7 132.15C413.656 131.319 412.344 131.319 412.388 132.15Z" fill="#161616"/>
<path d="M437.85 124.363C440.3 161.069 441.788 197.863 442.181 234.7C442.575 271.669 441.963 308.594 440.3 345.519C439.381 366.213 438.113 386.906 436.494 407.556C436.45 408.388 437.763 408.388 437.806 407.556C440.606 370.85 442.444 334.056 443.188 297.263C443.931 260.338 443.669 223.369 442.356 186.4C441.613 165.706 440.563 145.013 439.163 124.319C439.119 123.488 437.806 123.488 437.85 124.363Z" fill="#161616"/>
<path d="M386.662 361.663C385.656 373.125 383.819 384.5 381.15 395.7C380.975 396.531 382.2 396.881 382.419 396.05C385.131 384.719 386.969 373.256 387.975 361.663C388.062 360.831 386.75 360.831 386.662 361.663Z" fill="#161616"/>
<path d="M89.0313 131.494C83.7813 168.2 81.55 205.3 81.2 242.356C80.8938 279.631 82.425 316.863 84.7 354.05C85.9688 375.094 87.4563 396.094 88.9438 417.138C88.9875 417.969 90.3 417.969 90.2563 417.138C87.6313 380.081 85.0063 343.025 83.5625 305.925C82.1188 268.913 81.9 231.813 84.0438 194.8C85.2688 173.756 87.2813 152.713 90.2563 131.844C90.4313 131.056 89.1625 130.663 89.0313 131.494Z" fill="#161616"/>
<path d="M114.187 143.744C110.862 179.225 108.631 214.838 107.887 250.494C107.187 286.106 108.019 321.719 110.95 357.244C112.569 376.975 114.844 396.619 117.819 416.175C117.95 417.006 119.219 416.656 119.087 415.825C113.75 380.562 110.687 344.95 109.55 309.294C108.412 274.119 109.069 238.856 110.994 203.725C112.087 183.731 113.619 163.738 115.5 143.788C115.587 142.913 114.275 142.913 114.187 143.744Z" fill="#161616"/>
<path d="M139.387 154.2C135.1 187.319 132.606 220.656 131.95 254.038C131.294 287.419 132.431 320.844 135.362 354.094C137.025 372.644 139.212 391.106 141.969 409.525C142.1 410.356 143.369 410.006 143.237 409.175C138.294 376.188 135.144 342.981 133.787 309.688C132.431 276.481 132.912 243.188 135.144 209.981C136.412 191.344 138.25 172.706 140.656 154.156C140.831 153.369 139.519 153.369 139.387 154.2Z" fill="#161616"/>
<path opacity="0.12" d="M428.05 127.338C432.906 147.156 436.844 170.388 438.156 196.419C441.437 262.656 425.862 316.775 412.3 351.512C402.719 366.869 393.181 382.225 383.6 397.581C392.919 401.606 406.744 406.287 423.981 407.688C435.881 408.65 446.206 407.775 454.256 406.463C454.344 404.538 455.787 375.269 455.875 373.344C460.644 275.3 460.95 268.606 461.125 261.869C461.912 234.438 461.781 195.063 457.1 145.931C455.481 137.575 453.862 129.219 452.244 120.906C444.237 123.006 436.144 125.15 428.05 127.338Z" fill="#3F3F3F"/>
<path opacity="0.13" d="M122.719 148.731C121.581 153.5 119.875 160.631 117.863 169.337C108.938 208.187 102.375 236.756 98.875 263.05C92.6625 309.381 86.6688 354.269 112.219 391.106C119.656 401.825 127.794 409.044 133.219 413.331C127.969 415.387 121.45 417.269 113.838 418.187C92.6625 420.681 75.6875 413.812 67.375 409.7C64.225 380.694 62.0375 349.631 61.3375 316.775C59.7625 244.062 65.6688 178.7 74.6813 122.481C90.65 131.231 106.663 139.981 122.719 148.731Z" fill="#3F3F3F"/>
<path d="M388.938 105.2C392.876 105.2 396.069 102.007 396.069 98.0688C396.069 94.1303 392.876 90.9375 388.938 90.9375C384.999 90.9375 381.806 94.1303 381.806 98.0688C381.806 102.007 384.999 105.2 388.938 105.2Z" fill="#EC615B"/>
<path d="M396.506 85.4251C398.343 85.4251 399.831 83.9365 399.831 82.1001C399.831 80.2638 398.343 78.7751 396.506 78.7751C394.67 78.7751 393.181 80.2638 393.181 82.1001C393.181 83.9365 394.67 85.4251 396.506 85.4251Z" fill="#EC615B"/>
<path d="M178.5 42.1563C180.385 42.1563 181.913 40.6285 181.913 38.7438C181.913 36.8591 180.385 35.3313 178.5 35.3313C176.615 35.3313 175.088 36.8591 175.088 38.7438C175.088 40.6285 176.615 42.1563 178.5 42.1563Z" fill="#EC615B"/>
<path d="M401.8 441.55C404.989 441.55 407.575 438.964 407.575 435.775C407.575 432.586 404.989 430 401.8 430C398.611 430 396.025 432.586 396.025 435.775C396.025 438.964 398.611 441.55 401.8 441.55Z" fill="#EC615B"/>
<path d="M138.994 461.325C140.468 461.325 141.663 460.13 141.663 458.656C141.663 457.182 140.468 455.988 138.994 455.988C137.52 455.988 136.325 457.182 136.325 458.656C136.325 460.13 137.52 461.325 138.994 461.325Z" fill="#EC615B"/>
<path d="M172.331 264.188C173.854 264.188 175.088 262.954 175.088 261.431C175.088 259.909 173.854 258.675 172.331 258.675C170.809 258.675 169.575 259.909 169.575 261.431C169.575 262.954 170.809 264.188 172.331 264.188Z" fill="#EC615B"/>
<path d="M177.756 278.231C179.23 278.231 180.425 277.036 180.425 275.563C180.425 274.089 179.23 272.894 177.756 272.894C176.282 272.894 175.088 274.089 175.088 275.563C175.088 277.036 176.282 278.231 177.756 278.231Z" fill="#121354"/>
<path d="M174.563 352.606C177.317 352.606 179.55 350.373 179.55 347.619C179.55 344.864 177.317 342.631 174.563 342.631C171.808 342.631 169.575 344.864 169.575 347.619C169.575 350.373 171.808 352.606 174.563 352.606Z" fill="#121354"/>
<path d="M384.956 69.1501C386.696 69.1501 388.106 67.7398 388.106 66.0001C388.106 64.2604 386.696 62.8501 384.956 62.8501C383.217 62.8501 381.806 64.2604 381.806 66.0001C381.806 67.7398 383.217 69.1501 384.956 69.1501Z" fill="#121354"/>
<path d="M265.125 74.6626C266.647 74.6626 267.881 73.4286 267.881 71.9064C267.881 70.3841 266.647 69.1501 265.125 69.1501C263.603 69.1501 262.369 70.3841 262.369 71.9064C262.369 73.4286 263.603 74.6626 265.125 74.6626Z" fill="#121354"/>
<path d="M19.3813 290.262C20.5411 290.262 21.4813 289.322 21.4813 288.163C21.4813 287.003 20.5411 286.063 19.3813 286.063C18.2215 286.063 17.2812 287.003 17.2812 288.163C17.2812 289.322 18.2215 290.262 19.3813 290.262Z" fill="#121354"/>
<path d="M394.494 455.988C397.393 455.988 399.744 453.637 399.744 450.738C399.744 447.838 397.393 445.488 394.494 445.488C391.594 445.488 389.244 447.838 389.244 450.738C389.244 453.637 391.594 455.988 394.494 455.988Z" fill="#121354"/>
<path d="M450.712 6.50006C452.235 6.50006 453.469 5.26605 453.469 3.74381C453.469 2.22158 452.235 0.987564 450.712 0.987564C449.19 0.987564 447.956 2.22158 447.956 3.74381C447.956 5.26605 449.19 6.50006 450.712 6.50006Z" fill="#121354"/>
<path d="M182.919 127.644C182.481 124.931 182.087 119.506 186.419 119.944C187.994 120.119 188.869 121.519 190.619 120.906C193.9 119.769 193.156 115.525 194.512 113.075C196.744 109.138 201.075 114.869 204.4 112.988C205.494 112.375 205.756 111.238 205.712 110.056C205.625 105.638 209.519 105.944 212.712 106.819C213.544 107.038 213.894 105.769 213.062 105.55C209.825 104.675 204.444 104.369 204.312 109.05C204.269 110.188 204.881 111.325 203.219 112.025C202.694 112.244 201.819 111.981 201.337 111.85C200.2 111.5 199.194 110.713 198.012 110.406C196.481 109.969 194.994 110.275 193.944 111.5C192.631 113.075 192.675 115.219 192.062 117.056C191.406 119.025 190.137 120.163 187.994 119.2C187.119 118.806 186.331 118.456 185.325 118.588C180.819 119.2 181.037 124.669 181.606 127.994C181.781 128.825 183.05 128.475 182.919 127.644Z" fill="#121354"/>
<path d="M188.081 130.181C188.431 127.469 190.619 126.288 193.156 126.288C194.513 126.288 195.869 126.506 197.181 126.025C200.156 124.888 199.588 121.65 200.288 119.113C201.6 114.3 207.681 117.275 211.05 116.488C213.325 115.919 215.25 113.644 214.288 111.238C213.981 110.45 212.713 110.8 213.019 111.588C214.506 115.219 209.431 115.438 207.288 115.175C205.713 115 204.181 114.738 202.606 115.131C200.113 115.788 199.15 117.625 198.8 119.988C198.494 122.175 198.538 124.581 195.694 124.931C194.163 125.106 192.631 124.669 191.1 125.019C188.65 125.588 187.075 127.644 186.769 130.094C186.638 131.013 187.95 131.013 188.081 130.181Z" fill="#121354"/>
<path d="M278.469 22.7313C276.938 24.6563 275.319 27.0188 276.063 29.6001C276.675 31.7001 278.338 32.4876 280.35 32.3563C281.531 32.2688 282.756 31.9626 283.719 33.0126C284.463 33.8001 283.981 35.4626 283.763 36.3376C283.413 37.6938 282.756 39.0063 282.888 40.4501C283.106 42.4188 284.681 43.9501 286.694 43.5126C287.525 43.3376 287.175 42.0688 286.344 42.2438C282.538 43.1188 285.163 36.7751 285.338 35.2438C285.469 33.9751 285.25 32.5751 284.288 31.6563C283.325 30.7376 282.144 30.8251 280.919 30.9563C278.994 31.1751 277.2 30.5626 277.113 28.2438C277.069 26.4938 278.294 24.9188 279.344 23.6063C279.956 23.0376 278.994 22.0751 278.469 22.7313Z" fill="#121354"/>
<path d="M288.794 22.075C286.737 22.95 285.425 25.0938 285.95 27.325C286.212 28.3313 286.825 29.2938 287.7 29.9063C288.75 30.6938 289.975 30.5188 291.025 31.175C292.994 32.3563 291.419 34.675 291.506 36.5125C291.55 37.4313 291.769 38.2625 292.556 38.8312C293.737 39.75 295.487 39.4437 295.969 37.9562C296.231 37.1687 294.962 36.8188 294.7 37.6063C293.037 37.3875 292.469 36.6438 292.95 35.375C293.037 34.9375 293.125 34.5 293.212 34.0625C293.3 33.625 293.344 33.1875 293.344 32.75C293.344 31.8313 293.081 30.8688 292.381 30.2125C291.331 29.25 289.712 29.6438 288.575 28.8563C286.256 27.2375 287.087 24.175 289.45 23.1688C290.237 22.8625 289.537 21.7688 288.794 22.075Z" fill="#121354"/>
<path d="M2.71253 280.681C1.70628 279.106 1.70628 277.181 2.71253 275.563C3.71878 273.988 5.11877 273.944 6.73753 273.331C8.96878 272.413 9.01253 270.094 8.88128 267.994C8.83753 267.25 8.79378 266.463 9.01253 265.719C9.58128 263.969 11.0688 264.45 12.425 264.669C13.2125 264.8 13.9563 264.669 14.6125 264.231C15.4438 263.663 15.9688 262.656 16.2313 261.694C16.45 260.906 16.4938 260.075 16.6688 259.288C16.7563 258.719 16.9313 258.194 17.1938 257.713C17.8938 256.619 18.725 256.531 19.7313 257.494C19.95 258.325 21.2188 257.975 21 257.144C20.2125 254.3 16.7125 255.569 15.8375 257.581C15.4438 258.5 15.4 259.506 15.1813 260.469C15.05 261.038 14.9625 261.65 14.6563 262.175C14 263.356 12.775 263.138 11.6375 263.006C10.2813 262.875 9.23128 262.744 8.35628 264.013C7.35003 265.456 7.61253 267.163 7.61253 268.825C7.65628 270.838 7.21878 271.625 5.25003 272.281C4.46253 272.544 3.80628 272.675 3.10628 273.2C0.56878 274.994 -0.0874701 278.713 1.57503 281.294C2.01253 282.038 3.15003 281.381 2.71253 280.681Z" fill="#EC615B"/>
<path d="M8.18126 283.7C6.34376 283.438 7.04376 281.425 7.87501 280.638C8.48751 280.069 9.31876 279.719 10.1063 279.325C11.0688 278.844 12.0313 278.275 12.7313 277.444C14.6125 275.081 11.9 271.931 14.525 270.05C17.15 268.213 24.1938 267.381 22.1375 262.481C21.8313 261.694 20.6938 262.394 21 263.138C22.4875 266.681 15.2688 267.731 13.4313 269.219C12.775 269.744 12.2063 270.444 11.9438 271.275C11.4188 273.113 12.95 274.994 11.5938 276.744C10.0188 278.669 6.65001 278.669 5.86251 281.381C5.38125 282.913 6.21251 284.75 7.87501 285.013C8.66251 285.1 9.01251 283.831 8.18126 283.7Z" fill="#EC615B"/>
<path d="M487.769 182.025C487.2 181.019 487.288 179.925 487.9 178.963C488.863 177.563 490 177.869 491.488 178C492.494 178.088 493.413 178.306 494.375 177.738C496.081 176.688 495.819 174.5 496.125 172.838C496.825 168.944 500.194 172.488 502.469 171.263C503.3 170.825 503.606 169.994 503.781 169.119C504.088 167.413 504.175 162.338 507.456 164.394C508.156 164.831 508.856 163.694 508.113 163.256C505.181 161.463 502.819 164.438 502.556 167.194C502.381 168.769 502.556 170.3 500.456 170.081C499.713 169.994 498.969 169.6 498.225 169.513C497.044 169.381 495.994 169.731 495.338 170.781C494.594 172.006 494.856 173.538 494.55 174.85C493.894 177.825 491.356 176.163 489.3 176.513C486.544 176.994 485.275 180.319 486.588 182.638C487.025 183.425 488.163 182.769 487.769 182.025Z" fill="#EC615B"/>
<path d="M494.288 184.781C493.544 182.769 495.863 180.538 497.875 181.588C498.138 181.719 498.488 181.719 498.663 181.5C499.669 180.406 499.931 179.138 500.369 177.738C501.156 175.2 503.038 174.85 505.312 174.15C507.544 173.45 510.037 171.613 509.119 168.988C508.812 168.2 507.544 168.55 507.85 169.338C509.119 172.794 502.906 173.056 501.069 174.325C498.838 175.9 499.494 178.744 497.788 180.581C498.05 180.538 498.313 180.494 498.575 180.494C495.644 178.963 491.925 181.981 493.063 185.175C493.325 185.919 494.594 185.613 494.288 184.781Z" fill="#EC615B"/>
<path d="M317.581 196.244C317.669 196.244 318.631 198.606 319.025 198.913C319.637 199.394 320.381 199.438 321.125 199.306C322.437 199.088 323.269 198.125 324.406 197.513C326.856 196.113 326.856 198.519 327.819 199.875C328.912 201.494 330.094 200.706 331.362 199.919C332.194 199.394 332.981 199.044 333.725 199.788C334.119 200.181 334.381 200.838 334.687 201.319C335.169 202.019 335.694 202.588 336.481 202.938C337.225 203.288 337.925 202.15 337.137 201.8C335.344 201.013 335.125 198.038 332.981 197.731C331.975 197.6 331.537 198.169 330.75 198.606C329.787 199.175 329.219 199.569 328.606 198.475C328.344 198.038 328.3 197.425 327.994 196.988C326.594 194.669 324.406 195.938 322.656 197.075C322.35 197.294 322.044 197.513 321.694 197.688C320.95 197.469 320.162 197.25 319.419 197.031C319.112 196.725 319.112 195.981 318.85 195.588C318.412 194.975 317.975 194.8 317.275 194.931C316.4 195.106 316.75 196.375 317.581 196.244Z" fill="#EC615B"/>
<path d="M327.863 192.044C329.175 189.988 332.194 194.275 333.419 194.8C334.163 195.106 334.863 195.106 335.65 194.888C336 194.8 336.306 194.625 336.613 194.494C337.794 194.013 338.8 194.319 339.763 195.15C341.163 196.331 341.556 197.906 343.569 198.344C344.75 198.606 345.844 198.256 346.369 197.119C346.719 196.375 345.581 195.675 345.231 196.463C344.006 199.088 340.638 193.925 339.763 193.356C338.144 192.306 337.138 193.181 335.519 193.531C332.938 194.056 332.106 191.169 329.963 190.469C328.694 190.031 327.469 190.25 326.769 191.431C326.244 192.131 327.381 192.788 327.863 192.044Z" fill="#EC615B"/>
<path d="M491.356 268.519C514.587 268.519 537.819 268.519 561.094 268.519C561.925 268.519 561.925 267.206 561.094 267.206C537.862 267.206 514.631 267.206 491.356 267.206C490.525 267.206 490.525 268.519 491.356 268.519Z" fill="#E8E8E8"/>
<path d="M510.388 268.213C510.388 274.994 510.388 281.731 510.388 288.513C510.388 289.344 511.7 289.344 511.7 288.513C511.7 281.731 511.7 274.994 511.7 268.213C511.7 267.381 510.388 267.381 510.388 268.213Z" fill="#E8E8E8"/>
<path d="M542.85 267.556C542.85 258.106 542.85 248.656 542.85 239.206C542.85 238.375 541.538 238.375 541.538 239.206C541.538 248.656 541.538 258.106 541.538 267.556C541.538 268.431 542.85 268.431 542.85 267.556Z" fill="#E8E8E8"/>
<path d="M527.406 239.731C536.2 239.731 544.994 239.731 553.788 239.731C554.619 239.731 554.619 238.419 553.788 238.419C544.994 238.419 536.2 238.419 527.406 238.419C526.575 238.419 526.575 239.731 527.406 239.731Z" fill="#E8E8E8"/>
<path d="M510.125 82.1875C510.125 90.3688 510.125 98.55 510.125 106.688C510.125 107.519 511.437 107.519 511.437 106.688C511.437 98.5063 511.437 90.325 511.437 82.1875C511.437 81.3563 510.125 81.3563 510.125 82.1875Z" fill="#E8E8E8"/>
<path d="M489.694 108.569C505.488 108.569 521.238 108.569 537.031 108.569C537.863 108.569 537.863 107.256 537.031 107.256C521.238 107.256 505.488 107.256 489.694 107.256C488.819 107.256 488.819 108.569 489.694 108.569Z" fill="#E8E8E8"/>
<path d="M536.594 108.394C536.594 113.819 536.594 119.244 536.594 124.669C536.594 125.5 537.906 125.5 537.906 124.669C537.906 119.244 537.906 113.819 537.906 108.394C537.906 107.563 536.594 107.563 536.594 108.394Z" fill="#E8E8E8"/>
<path d="M97.2125 56.6813C112.656 56.6813 128.144 56.6813 143.588 56.6813C144.419 56.6813 144.419 55.3688 143.588 55.3688C128.144 55.3688 112.656 55.3688 97.2125 55.3688C96.3813 55.3688 96.3375 56.6813 97.2125 56.6813Z" fill="#E8E8E8"/>
<path d="M141.662 56.55C141.662 60.7501 141.662 64.9501 141.662 69.1501C141.662 69.9813 142.975 69.9813 142.975 69.1501C142.975 64.9501 142.975 60.7501 142.975 56.55C142.975 55.675 141.662 55.675 141.662 56.55Z" fill="#E8E8E8"/>
<path d="M127.619 55.5001C127.619 48.7626 127.619 42.0688 127.619 35.3313C127.619 34.5001 126.306 34.5001 126.306 35.3313C126.306 42.0688 126.306 48.7626 126.306 55.5001C126.306 56.3751 127.619 56.3751 127.619 55.5001Z" fill="#E8E8E8"/>
<path d="M5.46876 191.519C16.1438 191.519 26.8187 191.519 37.4937 191.519C38.325 191.519 38.325 190.206 37.4937 190.206C26.8187 190.206 16.1438 190.206 5.46876 190.206C4.63751 190.206 4.63751 191.519 5.46876 191.519Z" fill="#E8E8E8"/>
<path d="M25.025 178.35C25.025 182.288 25.025 186.225 25.025 190.163C25.025 190.994 26.3375 190.994 26.3375 190.163C26.3375 186.225 26.3375 182.288 26.3375 178.35C26.3375 177.519 25.025 177.519 25.025 178.35Z" fill="#E8E8E8"/>
<path d="M17.3251 179.006C23.0126 179.006 28.7001 179.006 34.3876 179.006C35.2188 179.006 35.2188 177.694 34.3876 177.694C28.7001 177.694 23.0126 177.694 17.3251 177.694C16.4501 177.694 16.4501 179.006 17.3251 179.006Z" fill="#E8E8E8"/>
<path d="M210 454.85C224.263 454.85 238.525 454.85 252.788 454.85C253.619 454.85 253.619 453.538 252.788 453.538C238.525 453.538 224.263 453.538 210 453.538C209.125 453.538 209.125 454.85 210 454.85Z" fill="#E8E8E8"/>
<path d="M236.338 453.538C236.338 450.475 236.338 447.413 236.338 444.306C236.338 443.475 235.025 443.475 235.025 444.306C235.025 447.369 235.025 450.431 235.025 453.538C235.025 454.413 236.338 454.413 236.338 453.538Z" fill="#E8E8E8"/>
<path d="M232.356 444.35C238.262 444.35 244.212 444.35 250.119 444.35C250.95 444.35 250.95 443.038 250.119 443.038C244.212 443.038 238.262 443.038 232.356 443.038C231.525 443.038 231.525 444.35 232.356 444.35Z" fill="#E8E8E8"/>
<path d="M6.47509 431.838C20.7376 431.838 35.0001 431.838 49.2626 431.838C50.0938 431.838 50.0938 430.525 49.2626 430.525C35.0001 430.525 20.7376 430.525 6.47509 430.525C5.64384 430.525 5.64384 431.838 6.47509 431.838Z" fill="#E8E8E8"/>
<path d="M26.2501 414.688C26.2501 419.719 26.2501 424.794 26.2501 429.825C26.2501 430.656 27.5626 430.656 27.5626 429.825C27.5626 424.794 27.5626 419.719 27.5626 414.688C27.5626 413.856 26.2501 413.856 26.2501 414.688Z" fill="#E8E8E8"/>
<path d="M26.2501 412.719C20.5626 412.719 14.8313 412.719 9.14382 412.719C8.31257 412.719 8.31257 414.031 9.14382 414.031C14.8313 414.031 20.5626 414.031 26.2501 414.031C27.0813 414.031 27.0813 412.719 26.2501 412.719Z" fill="#E8E8E8"/>
<path d="M482.081 393.338C480.638 391.894 480.988 389.094 483.219 388.613C484.4 388.35 485.538 389.094 486.675 389.225C487.55 389.356 488.469 389.269 489.038 388.481C489.913 387.344 489.213 386.031 489.169 384.763C489.081 380.781 493.806 381.044 496.169 382.444C496.694 382.75 497.263 382.225 497.131 381.7C495.994 376.231 502.25 372.469 506.538 376.1C507.194 376.625 508.113 375.706 507.456 375.181C502.163 370.719 494.419 375.269 495.863 382.094C496.169 381.831 496.519 381.613 496.825 381.35C494.813 380.125 492.231 379.513 490.088 380.869C489.3 381.35 488.6 382.094 488.25 382.969C487.988 383.581 487.856 384.15 487.9 384.806C487.944 385.988 488.338 385.9 487.463 387.038C486.5 388.306 486.413 387.738 485.056 387.431C484.575 387.3 484.138 387.213 483.613 387.256C482.519 387.3 481.513 387.825 480.813 388.613C479.281 390.319 479.675 392.725 481.206 394.256C481.775 394.869 482.694 393.95 482.081 393.338Z" fill="#E8E8E8"/>
<path d="M490.612 394.65C490.131 390.669 496.65 390.625 498.487 387.869C498.969 387.169 499.144 386.381 499.45 385.638C500.019 384.281 501.025 383.406 502.512 383.013C504.919 382.4 507.413 383.494 509.6 384.413C510.388 384.719 510.738 383.45 509.95 383.144C505.925 381.481 500.5 380.213 498.269 385.113C497.481 386.863 497.219 387.825 495.381 388.744C494.287 389.269 493.15 389.575 492.1 390.188C490.437 391.15 489.125 392.638 489.344 394.65C489.431 395.481 490.744 395.481 490.612 394.65Z" fill="#E8E8E8"/>
<path d="M302.444 267.425C303.319 269.613 304.194 271.844 305.069 274.031C305.156 273.769 305.288 273.55 305.375 273.288C304.894 273.594 304.413 273.9 303.931 274.25C303.188 272.5 303.494 272.063 304.894 272.85C305.725 273.375 306.119 274.513 306.294 275.431C306.688 277.531 306.25 279.719 305.55 281.731C305.375 282.256 305.9 282.606 306.338 282.519C308.963 281.994 310.013 285.144 309.488 287.113C309.094 288.556 308.306 289.825 307.519 291.094C307.081 291.794 308.219 292.45 308.656 291.75C310.056 289.563 311.675 286.85 310.713 284.138C309.969 282.125 308.131 280.856 305.988 281.25C306.25 281.513 306.513 281.775 306.775 282.038C307.65 279.5 308.219 276.306 307.125 273.725C306.381 272.019 304.675 270.706 302.75 271.275C301.263 271.713 300.519 273.2 301.219 274.644C302.4 277.05 304.456 275.431 305.988 274.425C306.206 274.294 306.381 273.944 306.294 273.681C305.419 271.494 304.544 269.263 303.669 267.075C303.406 266.331 302.138 266.638 302.444 267.425Z" fill="#E8E8E8"/>
<path d="M43.7062 60.4439C42.875 58.3439 45.675 57.7751 46.9875 58.5189C47.9937 59.0876 48.65 60.0939 49.2625 61.0126C49.8313 61.8439 50.4438 62.7626 50.75 63.7251C51.1 64.5564 51.0563 65.3439 50.6188 66.1314C49.0875 66.8314 48.3 66.6564 48.2563 65.6501C47.8625 64.2064 49.3938 63.2439 50.7063 63.2876C52.0625 63.3314 53.3313 64.1189 54.25 65.0814C55.825 66.7439 56.3938 68.9314 56.175 71.1626C56.5688 71.0314 57.0063 70.9439 57.4 70.8126C56.525 69.5439 57.3563 68.1876 58.5375 67.5314C59.5438 67.0064 60.6813 67.1376 61.6438 67.6626C63.2188 68.4939 64.3125 70.0251 65.3188 71.4251C65.8 72.1251 66.9375 71.4689 66.4563 70.7689C64.7938 68.4501 62.3 65.2126 59.0188 65.9564C56.6125 66.4814 54.6875 69.2814 56.2625 71.4689C56.6563 72.0376 57.4 71.7751 57.4875 71.1189C57.8813 66.9626 54.8188 61.2751 49.9188 61.9751C48.1688 62.2376 46.9 63.4626 46.9 65.2564C46.9 66.6564 47.775 68.1001 49.2625 68.1876C51.0125 68.3189 52.1938 66.6126 52.2813 65.0376C52.4125 62.8501 50.7063 60.4876 49.3938 58.8689C48.1687 57.4251 46.375 56.2001 44.45 56.9439C42.875 57.5126 41.825 59.0876 42.4813 60.7064C42.7438 61.5814 44.0125 61.2314 43.7062 60.4439Z" fill="#E8E8E8"/>
<path d="M274.181 124.625C272.344 123.531 273.656 120.294 275.712 121.65C277.681 122.963 275.056 125.194 273.788 123.663C273.263 123.006 272.344 123.925 272.869 124.581C273.875 125.806 275.8 125.719 276.937 124.713C278.25 123.531 277.9 121.606 276.544 120.644C275.187 119.681 273.219 119.856 272.388 121.431C271.556 122.919 272.125 124.931 273.569 125.763C274.225 126.156 274.881 125.063 274.181 124.625Z" fill="#E8E8E8"/>
<path d="M413.569 28.9438C412.606 27.5876 414.269 25.5313 415.8 26.1438C415.669 26.0563 415.538 25.9251 415.406 25.8376C416.238 27.2813 415.013 29.2501 413.394 29.1626C413.613 29.3376 413.831 29.4688 414.006 29.6438C413.744 28.9001 413.438 28.1126 413.175 27.3688C412.869 26.5813 411.6 26.9313 411.906 27.7188C412.169 28.4626 412.475 29.2501 412.738 29.9938C412.825 30.3001 413.044 30.4751 413.35 30.4751C414.75 30.5626 415.975 29.6876 416.588 28.4626C417.069 27.5001 417.331 25.4876 416.15 24.8751C413.569 23.6063 410.9 27.4563 412.431 29.6001C412.912 30.3001 414.05 29.6438 413.569 28.9438Z" fill="#E8E8E8"/>
<path d="M449.181 94C448.962 92.9938 449.706 91.9 450.712 91.6813C451.631 91.5063 452.462 92.25 452.681 93.0813C453.25 95.05 450.669 95.9688 449.444 94.6125C448.875 94 447.956 94.9188 448.525 95.5313C450.8 98.0688 455.175 95.575 453.775 92.3375C453.162 90.8938 451.631 89.975 450.1 90.4562C448.481 90.9812 447.519 92.6875 447.869 94.35C448.131 95.1813 449.4 94.8313 449.181 94Z" fill="#E8E8E8"/>
<path d="M307.169 456.119C305.506 455.331 305.638 453.056 307.169 452.181C308.656 451.35 310.056 452.094 311.413 452.706C312.55 453.231 313.863 453.713 314.869 452.706C315.788 451.831 315.613 450.475 315.656 449.337C315.831 444.919 320.119 445.794 323.05 446.888C323.838 447.194 324.188 445.925 323.4 445.619C320.819 444.612 317.231 443.65 315.175 446.188C314.563 446.931 314.388 447.806 314.344 448.725C314.3 449.338 314.563 450.694 314.213 451.263C313.25 452.706 311.938 451.394 310.931 450.956C309.006 450.125 306.25 450.344 305.069 452.356C304.063 454.063 304.675 456.381 306.469 457.213C307.256 457.606 307.913 456.469 307.169 456.119Z" fill="#E8E8E8"/>
<path d="M328.344 353C327.031 369.056 327.731 385.156 330.444 401.038C330.575 401.869 331.844 401.519 331.713 400.688C329.044 384.938 328.344 368.925 329.656 353C329.744 352.169 328.431 352.169 328.344 353Z" fill="#E8E8E8"/>
<path d="M329.219 354.006C336.044 356.369 343.088 357.944 350.263 358.731C357 359.431 364.744 360.175 371.219 357.638C372.006 357.331 371.656 356.063 370.869 356.369C364.569 358.863 356.913 358.119 350.263 357.419C343.219 356.675 336.263 355.056 329.569 352.738C328.738 352.431 328.431 353.7 329.219 354.006Z" fill="#E8E8E8"/>
<path d="M339.631 355.8C337.356 352.256 335.475 348.494 334.163 344.469C333.55 342.544 333.025 340.619 332.631 338.65C332.413 337.469 332.194 336.288 332.063 335.106C332.063 334.975 331.581 331.869 332.5 332.306C332.938 332.525 333.681 332.131 333.463 331.563C331.056 325.481 329.744 319.094 329.613 312.531C329.394 312.75 329.175 312.969 328.956 313.188C329.306 313.319 329.613 313.45 329.963 313.581C330.4 314.106 331.231 313.538 331.056 312.925C330.181 310.125 329.613 307.238 329.438 304.263C329.394 303.563 329.525 295.688 330.006 295.819C330.531 295.95 330.881 295.469 330.794 295.031C329.963 290.088 329.569 285.056 329.788 280.069C329.875 277.575 330.094 275.125 330.488 272.675C330.838 270.444 331.013 267.731 332.763 266.113C332.413 266.069 332.063 266.025 331.713 265.981C335.388 272.894 337.444 280.463 339.325 287.988C341.163 295.381 342.781 302.863 344.181 310.388C347.025 325.919 348.819 341.625 349.606 357.419C349.65 358.25 350.963 358.25 350.919 357.419C350.131 341.538 348.338 325.7 345.45 310.038C344.006 302.25 342.344 294.506 340.419 286.806C338.538 279.413 336.481 272.063 332.85 265.281C332.631 264.888 332.106 264.888 331.8 265.15C330.313 266.506 329.875 268.3 329.525 270.181C329.044 272.85 328.694 275.606 328.519 278.319C328.169 284.006 328.519 289.694 329.481 295.338C329.744 295.075 330.006 294.813 330.269 294.55C327.731 293.85 328.038 299.319 327.994 300.544C327.819 304.831 328.475 309.119 329.744 313.231C330.094 313.013 330.488 312.794 330.838 312.575C330.269 311.919 329.788 311.7 328.913 311.788C328.563 311.831 328.256 312.05 328.256 312.444C328.388 319.094 329.7 325.613 332.15 331.825C332.456 331.563 332.806 331.344 333.113 331.081C328.738 328.981 331.275 338.869 331.625 340.356C332.938 346.044 335.3 351.469 338.45 356.369C338.975 357.156 340.113 356.5 339.631 355.8Z" fill="#E8E8E8"/>
<path d="M346.587 312.094C346.194 309.294 346.106 306.45 346.456 303.65C346.544 302.95 348.206 294.725 349.037 295.075C349.475 295.294 350 295.031 350.044 294.506C350.306 288.906 352.056 283.919 354.112 278.756C356.169 273.638 358.181 268.694 361.594 264.275C361.287 264.275 360.981 264.275 360.675 264.275C363.169 267.119 362.862 271.45 362.994 274.994C363.169 278.975 363.3 282.956 363.344 286.938C363.431 294.769 363.3 302.6 362.95 310.431C362.206 326.444 360.412 342.413 357.7 358.206C357.569 359.038 358.837 359.388 358.969 358.556C361.812 342.106 363.606 325.438 364.35 308.725C364.7 300.325 364.787 291.925 364.612 283.525C364.525 279.325 364.437 275.125 364.131 270.925C363.956 268.169 363.519 265.456 361.594 263.313C361.375 263.05 360.894 263.05 360.675 263.313C357.306 267.688 355.206 272.5 353.194 277.619C350.962 283.131 349.081 288.469 348.775 294.506C349.125 294.331 349.431 294.113 349.781 293.938C347.112 292.756 346.237 298.444 345.887 299.975C344.925 304.088 344.837 308.244 345.45 312.4C345.406 313.275 346.675 312.925 346.587 312.094Z" fill="#E8E8E8"/>
<path d="M331.056 402.131C344.75 406.55 359.581 406.331 373.144 401.519C373.931 401.256 373.581 399.988 372.794 400.25C359.45 404.975 344.881 405.194 331.406 400.863C330.575 400.6 330.225 401.869 331.056 402.131Z" fill="#E8E8E8"/>
<path d="M371.044 357.2C371.569 364.288 372.138 371.375 372.619 378.463C373.1 385.681 373.275 392.988 372.094 400.163C371.963 400.994 373.231 401.344 373.363 400.513C374.544 393.469 374.456 386.381 373.975 379.294C373.494 371.944 372.925 364.55 372.356 357.2C372.313 356.369 371 356.369 371.044 357.2Z" fill="#E8E8E8"/>
<path d="M239.356 321.894C237.563 326.181 237.563 329.375 237.3 337.6C236.994 347.75 236.119 357.856 236.031 367.962C235.944 376.494 235.813 389.4 235.463 406.2C249.463 406.987 264.95 407.162 281.75 406.331C297.763 405.544 312.55 403.925 325.894 401.912C319.594 380.606 315.438 365.075 312.463 353.044C310.888 346.612 308.569 336.987 302.181 325.744C298.681 319.575 295.05 314.937 292.381 311.831C291.681 311.219 276.238 298.225 258.388 304.35C257.513 304.7 244.519 309.425 239.356 321.894Z" fill="#EC615B"/>
<path d="M265.125 347.4C268.056 352.606 270.987 357.813 273.875 363.019C274.269 363.763 275.406 363.106 275.012 362.363C272.081 357.156 269.15 351.95 266.262 346.744C265.869 346 264.731 346.656 265.125 347.4Z" fill="#C64F4F"/>
<path d="M264.775 347.137C271.512 355.537 275.406 365.119 277.506 375.619C279.475 385.55 280.744 395.612 281.487 405.719C281.531 406.55 282.844 406.55 282.8 405.719C282.012 395.35 280.7 384.981 278.687 374.787C276.587 364.244 272.475 354.619 265.737 346.219C265.212 345.519 264.25 346.481 264.775 347.137Z" fill="#C64F4F"/>
<path opacity="0.19" d="M275.319 303.344C276.85 306.406 279.037 310.912 281.487 316.337C288.619 332.175 296.012 348.887 299.95 369.45C301.569 377.762 303.1 389.794 302.444 404.8C306.119 404.625 310.012 404.319 314.081 403.881C318.15 403.444 322.044 402.919 325.719 402.306C324.581 398.456 322.744 392.331 320.687 384.762C314.956 363.587 314.169 356.981 309.269 343.025C305.637 332.656 302.269 325.612 297.412 318.875C293.037 312.794 288.925 308.987 283.719 306.319C280.481 304.656 277.462 303.825 275.319 303.344Z" fill="#3F3F3F"/>
<path opacity="0.11" d="M264.862 347.619C266.569 354.006 268.056 361.619 268.756 370.194C269.981 385.025 268.406 397.669 266.481 407.119C271.512 406.812 276.5 406.506 281.531 406.2C281.006 396.269 279.869 387.912 278.775 381.569C276.019 365.425 273.131 359.431 270.812 355.581C268.625 352.037 266.437 349.369 264.862 347.619Z" fill="#3F3F3F"/>
<path d="M208.819 247.344C207.375 248.306 206.5 250.144 204.794 253.775C203.394 256.75 202.738 259.069 201.688 262.525C198.8 272.325 199.106 270.662 198.1 274.381C196.788 279.325 194.425 287.988 193.113 299.406C191.844 310.475 192.106 319.006 192.15 321.063C192.631 334.056 194.906 343.725 196.438 349.938C199.15 361.094 202.781 370.369 210 388.875C211.575 392.856 212.888 396.138 213.806 398.413C213.15 398.5 212.1 398.631 210.831 398.806C204.225 399.594 203.306 399.419 200.638 399.988C197.225 400.731 194.163 401.475 192.981 404.056C192.456 405.238 192.238 406.9 192.894 407.469C193.725 408.169 195.344 406.594 198.144 405.675C200.506 404.931 202.606 404.975 204.05 405.194C202.913 407.425 202.256 409.438 201.863 410.881C200.9 414.206 200.156 416.919 201.381 418.844C201.994 419.806 203.175 420.681 204.138 420.419C204.663 420.288 205.144 419.806 206.456 416.35C207.725 412.894 207.813 411.8 208.863 410.444C209.781 409.306 210.831 408.694 211.531 408.344C211.181 409.438 210.788 411.056 210.613 413.025C210.525 414.206 210.394 415.3 210.613 416.7C210.788 417.969 211.181 420.681 213.194 422.169C213.544 422.431 214.988 423.525 215.863 422.956C216.606 422.519 216.388 421.294 216.694 417.356C216.956 414.031 217.219 413.113 217.438 412.588C218.006 411.056 218.881 409.963 219.538 409.306C219.319 412.456 219.363 415.081 219.45 417.006C219.625 420.113 219.931 421.513 220.938 422.388C221.506 422.869 222.469 423.35 223.256 423C224.044 422.65 224.306 421.556 224.525 420.2C225.488 415.081 224.919 413.594 226.013 411.013C226.45 410.006 226.931 408.781 228.113 407.906C230.606 406.069 234.15 407.163 234.631 407.294C236.731 407.95 237.519 409.088 238.569 408.606C239.444 408.213 239.925 406.944 239.969 405.894C240.013 403.313 237.169 401.344 234.719 399.725C233.494 398.894 231.656 397.8 229.206 396.925C227.063 392.681 224.35 386.513 222.119 378.681C220.631 373.431 219.931 369.406 219.275 365.6C216.956 352.256 217.788 347.138 215.206 333.881C214.594 330.688 213.981 328.15 213.631 326.706C213.806 324.519 214.113 321.106 214.55 316.95C215.994 303.388 216.956 294.9 219.888 284.925C222.206 277.094 224.569 270.662 224.569 270.662C227.544 262.656 228.506 261.562 228.156 258.981C226.931 250.844 214.2 243.756 208.819 247.344Z" fill="white"/>
<path d="M205.45 251.5C197.663 269.481 192.763 288.687 191.713 308.287C190.619 328.281 194.075 347.837 200.55 366.737C204.225 377.544 208.688 388.044 213.238 398.544C213.588 399.331 214.681 398.631 214.375 397.887C206.5 379.687 198.8 361.225 195.125 341.712C191.494 322.462 192.238 302.556 196.438 283.437C198.8 272.719 202.213 262.262 206.588 252.2C206.894 251.412 205.8 250.712 205.45 251.5Z" fill="#161616"/>
<path d="M221.769 276.481C216.256 293.15 213.369 310.606 213.063 328.15C213.063 328.981 214.375 328.981 214.375 328.15C214.681 310.694 217.569 293.413 223.038 276.831C223.3 276.044 222.031 275.694 221.769 276.481Z" fill="#161616"/>
<path d="M208.469 320.187C212.363 325.612 213.938 332.087 214.856 338.562C215.819 345.169 216.256 351.862 217.219 358.469C219.144 371.9 222.294 385.287 228.638 397.319C229.031 398.062 230.169 397.406 229.775 396.662C223.169 384.15 220.063 370.194 218.225 356.281C216.606 344.075 217.088 329.944 209.606 319.531C209.125 318.875 207.988 319.531 208.469 320.187Z" fill="#161616"/>
<path d="M213.063 397.931C208.994 398.15 204.925 398.544 200.944 399.288C198.1 399.856 195.081 400.775 193.113 403.05C191.975 404.406 190.531 407.644 193.025 408.563C194.119 408.956 195.081 408.213 196 407.688C198.275 406.375 200.638 405.019 203.35 405.763C204.181 405.981 204.531 404.713 203.7 404.494C201.469 403.881 199.456 404.406 197.444 405.413C196.831 405.719 196.263 406.025 195.694 406.375C195.344 406.55 195.038 406.769 194.688 406.988C194.294 406.288 193.856 405.588 193.463 404.888C193.55 403.794 195.738 402.525 196.525 402.088C198.669 400.95 201.163 400.556 203.525 400.206C206.719 399.725 209.913 399.419 213.106 399.244C213.938 399.2 213.938 397.888 213.063 397.931Z" fill="#161616"/>
<path d="M209.475 401.825C206.019 402.394 203.175 404.756 201.863 407.95C200.463 411.275 199.281 416.219 200.9 419.631C202.125 422.213 205.144 423.131 206.281 419.981C206.981 418.013 206.85 415.869 207.55 413.9C208.425 411.45 209.913 409.35 212.1 407.906C212.8 407.425 212.144 406.288 211.444 406.769C209.388 408.125 207.856 409.963 206.85 412.194C206.325 413.331 205.931 414.513 205.669 415.738C205.45 416.744 205.319 421.819 202.913 420.331C201.556 419.5 201.425 416.831 201.469 415.475C201.556 413.463 202.081 411.144 202.738 409.219C203.831 405.981 206.413 403.663 209.781 403.094C210.656 402.963 210.306 401.694 209.475 401.825Z" fill="#161616"/>
<path d="M213.588 405.063C210.875 406.813 209.913 410.619 209.65 413.681C209.388 416.963 210.306 420.506 212.756 422.825C214.2 424.181 216.431 424.881 216.825 422.344C217.481 418.1 215.775 412.106 220.413 409.569C221.156 409.175 220.5 408.038 219.756 408.431C218.094 409.35 217.044 410.838 216.388 412.631C215.469 415.256 215.994 417.925 215.6 420.638C215.425 421.863 215.075 423.175 213.719 421.906C213.238 421.469 212.8 420.9 212.45 420.331C211.619 419.019 211.138 417.531 211.006 416C210.7 412.938 211.488 408.038 214.288 406.2C214.944 405.719 214.288 404.581 213.588 405.063Z" fill="#161616"/>
<path d="M219.8 408.563C218.969 411.713 218.181 414.994 218.706 418.275C218.925 419.85 219.844 423.7 221.856 424.094C224.131 424.531 225.05 420.506 225.269 419.019C225.75 415.781 225.138 411.888 227.675 409.394C228.288 408.781 227.369 407.863 226.756 408.475C223.694 411.494 224.744 415.869 223.825 419.719C223.519 421.119 222.644 423.219 221.2 421.6C220.413 420.769 220.194 419.15 220.019 418.056C219.581 414.994 220.325 411.931 221.113 408.956C221.288 408.125 220.019 407.775 219.8 408.563Z" fill="#161616"/>
<path d="M229.25 398.062C231.831 399.112 234.5 400.25 236.513 402.262C237.431 403.181 238.569 404.581 238.831 405.894C239.488 409.525 236.775 407.206 235.769 406.769C233.013 405.544 227.544 406.419 225.969 409.219C225.575 409.963 226.713 410.619 227.106 409.875C227.938 408.344 230.213 407.95 231.788 407.731C232.75 407.6 233.844 407.513 234.763 407.775C235.813 408.081 236.469 409 237.475 409.306C238.919 409.744 240.013 408.738 240.231 407.338C240.625 405.062 238.656 402.525 237.125 401.037C234.981 398.981 232.225 397.844 229.513 396.75C228.813 396.487 228.506 397.756 229.25 398.062Z" fill="#161616"/>
<path opacity="0.13" d="M220.413 262.35C215.381 262.656 212.363 275.519 210.7 282.65C208.819 290.656 207.113 301.681 207.463 317.738C207.769 332.088 209.606 343.025 210.219 346.831C212.975 363.194 217.306 376.931 221.55 387.694C222.95 391.631 224.306 395.569 225.706 399.462C224.919 402.7 224.131 406.025 223.388 409.481C222.425 414.031 221.55 418.494 220.85 422.781C221.681 422.869 222.819 422.825 223.606 422.037C224.613 421.031 224.481 419.412 224.525 418.012C224.569 416.7 224.7 410.356 227.544 407.994C229.294 406.55 232.094 406.55 234.019 407.25C235.988 407.994 236.863 409.437 238.175 409C239.181 408.694 239.881 407.469 240.013 406.506C240.45 403.312 234.325 400.031 233.319 399.506C231.35 398.456 230.431 398.325 229.163 397.012C227.588 395.35 227.063 393.381 226.844 392.506C223.213 378.681 221.419 379.556 218.969 363.675C217.131 351.688 218.313 352.387 216.431 342.85C215.119 336.112 214.025 333.356 213.675 327.537C213.281 321.15 214.025 316.162 214.813 311.744C218.094 293.675 224.394 271.8 225.925 266.594C224.525 264.406 222.6 262.219 220.413 262.35Z" fill="#3F3F3F"/>
<path d="M309.706 82.4938C308.35 82.4501 307.3 84.9001 307.037 85.5563C306.644 86.5188 306.031 88.4001 306.469 91.0688C306.469 91.0688 306.731 92.9063 307.606 104.019C307.825 106.513 307.869 110.144 307.213 114.694C305.463 119.506 303.8 123.269 302.662 125.719C298.812 133.944 296.231 137.225 290.85 147.638C288.837 151.531 288.663 152.144 286.3 156.956C280.394 168.9 276.063 176.381 271.644 184.388C267.75 191.388 262.281 201.669 255.85 214.881C255.544 216.019 254.012 222.1 257.556 227.438C261.319 233.081 269.194 235.619 276.806 233.169C277.987 231.506 279.65 228.925 281.181 225.556C282.669 222.275 283.369 219.738 283.85 218.119C284.331 216.5 286.256 211.031 290.15 200.006C291.375 196.594 292.862 192.525 295.881 184.563C300.475 172.356 302.75 166.275 304.281 162.469C307.738 153.806 310.363 147.813 315.525 136.175C318.238 130.05 321.563 122.656 325.413 114.256C327.644 112.988 330.706 111.019 333.988 108.175C338.713 104.106 341.075 100.65 345.625 94.0876C348.556 89.8001 350.788 86.0376 350.175 82.2751C350.088 81.7501 349.869 80.2188 349.038 80.0001C347.988 79.6938 346.675 81.7938 345.231 83.6313C343.744 85.5126 341.513 87.9626 338.188 90.5001C339.325 87.3501 340.463 84.9001 341.25 83.2813C343.044 79.6063 344.531 77.2438 345.45 73.1751C346.456 68.8438 345.538 68.0563 345.275 67.8376C344.094 66.9626 342.081 68.6251 340.9 67.6626C339.85 66.7438 340.769 64.7313 339.938 64.2501C339.106 63.7688 337.269 65.2126 335.956 66.7438C333.681 69.3688 333.156 71.9063 332.325 74.3563C331.538 76.7626 330.094 80.0438 327.381 83.6751C326.725 83.7626 325.85 83.8063 325.456 83.2813C325.019 82.6688 325.631 81.6626 326.2 80.0438C326.331 79.6501 326.244 79.8688 327.163 75.8438C327.513 74.3126 328.169 71.4688 328.694 69.1938C329.438 65.9126 329.788 64.5563 329.088 63.1126C328.956 62.8063 328.388 61.6251 327.556 61.5813C326.594 61.5376 325.85 63.0688 325.281 64.2501C322.963 69.0188 321.781 71.4251 321.475 72.2563C319.944 76.4126 317.888 82.7563 317.581 84.9438C317.538 85.2063 317.45 86.1251 317.012 87.3063C316.794 87.8751 316.663 88.0938 316.531 88.4438C315.438 90.8938 316.356 92.5126 315.219 93.3876C315.088 93.4751 314.431 93.9563 313.906 93.7813C313.338 93.6063 313.075 92.8626 312.769 90.3688C312.331 86.9563 312.594 85.9501 311.806 84.4626C311.281 83.8063 310.625 82.5376 309.706 82.4938Z" fill="white"/>
<path d="M307.606 102.75C307.913 99.5563 307.431 96.4501 307.256 93.2563C307.169 91.7251 307.169 90.1501 307.388 88.6188C307.519 87.7438 307.694 86.8688 307.956 86.0376C308.394 84.7688 308.438 83.7188 309.838 83.6751C311.15 83.6313 311.063 84.4188 311.281 85.5126C311.5 86.4751 311.544 87.4813 311.588 88.4438C311.675 89.8001 311.719 91.2001 312.025 92.5126C312.331 93.8688 313.162 95.0063 314.694 94.5251C315.481 94.2626 315.175 92.9938 314.344 93.2563C312.812 93.6938 312.944 88.5313 312.856 87.6563C312.725 86.2563 312.594 84.8126 312.069 83.5001C311.325 81.6626 309.619 80.7438 308.175 82.4501C306.294 84.6376 305.9 88.5751 305.9 91.2876C305.9 95.1376 306.644 98.9001 306.294 102.75C306.25 103.581 307.563 103.581 307.606 102.75Z" fill="#161616"/>
<path d="M315.219 94C317.406 89.7563 318.063 84.9438 319.331 80.3938C320.688 75.4938 322.394 70.6813 324.931 66.3063C325.5 65.3438 326.069 63.9875 326.9 63.2438C328.519 61.7563 328.519 64.6 328.388 65.825C328.125 68.5375 327.425 71.2938 326.813 73.9625C326.244 76.4125 325.456 78.775 324.888 81.225C324.581 82.5813 324.581 83.7625 325.544 84.8125C326.113 85.425 327.031 84.5063 326.463 83.8938C325.369 82.7125 326.506 80.35 326.856 79.0813C327.25 77.6375 327.644 76.1938 327.95 74.75C328.563 72.0813 329.175 69.3688 329.569 66.6125C329.788 65.1688 330.094 62.6313 328.825 61.5375C327.731 60.6188 326.638 61.4938 325.894 62.3688C322.7 66.35 320.731 71.6 319.156 76.4125C317.363 81.9688 316.794 88.1813 314.081 93.3875C313.688 94.0875 314.825 94.7438 315.219 94Z" fill="#161616"/>
<path d="M325.85 84.9438C327.163 85.075 327.644 84.1125 328.256 83.0625C329.219 81.4 330.094 79.65 330.925 77.9438C332.544 74.6188 333.681 70.9875 335.65 67.8813C336.088 67.1813 336.613 66.3063 337.313 65.7813C337.881 65.125 338.625 64.9063 339.588 65.2125C339.719 65.825 339.806 66.4375 339.806 67.05C339.85 69.1938 339.15 71.3375 338.406 73.35C336.919 77.3313 335.256 81.2688 333.638 85.25C333.331 86.0375 334.6 86.3875 334.906 85.6C335.825 83.325 345.275 63.375 339.106 63.2438C337.881 63.2 336.481 64.7313 335.781 65.5625C334.556 67.0063 333.681 68.6688 332.894 70.375C331.975 72.4313 331.144 74.4875 330.181 76.5C329.613 77.725 328.956 78.9938 328.344 80.175C327.95 80.9625 326.988 83.675 325.894 83.5875C325.019 83.5438 325.019 84.8563 325.85 84.9438Z" fill="#161616"/>
<path d="M341.338 68.8437C341.819 66.3062 344.575 68.0562 344.925 69.675C345.231 71.0312 344.706 72.3875 344.269 73.6562C343.613 75.5812 342.869 77.4625 342.081 79.3C340.55 82.8875 338.756 86.3 336.744 89.6687C336.306 90.4125 337.444 91.0687 337.881 90.325C339.763 87.2187 341.425 83.9812 342.913 80.7C344.181 77.8562 345.713 74.7062 346.194 71.6C346.5 69.6312 345.931 67.0937 343.744 66.3937C342.125 65.8687 340.375 66.875 340.069 68.5375C339.938 69.325 341.206 69.675 341.338 68.8437Z" fill="#161616"/>
<path d="M338.8 90.85C340.463 88.9688 342.081 87.0875 343.744 85.2063C344.619 84.2 345.406 83.1063 346.369 82.2313C346.675 81.9688 346.981 81.75 347.244 81.4875C347.988 81.75 348.731 82.0125 349.519 82.275C349.738 82.6688 349.213 83.8063 349.081 84.1563C347.725 88.3125 345.756 92.25 343.438 95.925C338.756 103.319 332.325 109.531 324.8 114.038C324.056 114.475 324.756 115.613 325.456 115.175C334.819 109.575 342.519 101.35 347.375 91.5938C348.556 89.2313 349.694 86.7375 350.438 84.2C350.875 82.7125 351.138 80.7 349.431 79.9125C347.769 79.125 346.019 80.6563 344.969 81.75C342.475 84.3313 340.2 87.2188 337.838 89.9313C337.313 90.5438 338.231 91.4625 338.8 90.85Z" fill="#161616"/>
<path d="M306.469 101.394C306.775 105.419 307.081 109.531 306.425 113.556C305.769 117.537 304.106 121.212 302.269 124.8C298.55 132.062 294.656 139.237 290.85 146.456C283.238 160.894 275.625 175.287 268.013 189.725C263.638 197.994 259.263 206.306 254.888 214.575C254.494 215.319 255.631 215.975 256.025 215.231C271.731 185.437 287.744 155.775 303.187 125.806C305.025 122.262 306.731 118.631 307.475 114.737C308.35 110.319 308.044 105.856 307.694 101.394C307.737 100.562 306.425 100.562 306.469 101.394Z" fill="#161616"/>
<path d="M324.713 113.731C310.712 143.306 298.506 173.581 287.744 204.469C284.594 213.437 281.444 222.406 277.637 231.113C277.287 231.9 278.425 232.556 278.775 231.769C285.294 216.938 290.062 201.406 295.662 186.269C301.394 170.694 307.606 155.25 314.212 140.025C317.975 131.406 321.825 122.875 325.85 114.388C326.2 113.644 325.063 112.988 324.713 113.731Z" fill="#161616"/>
<path opacity="0.1" d="M344.488 68.3188C342.694 68.0563 340.288 75.4063 338.888 79.0813C334.644 90.3688 331.056 91.6813 321.956 106.994C318.588 112.638 313.95 121.125 309.269 132.194C295.269 161.681 281.313 191.213 267.313 220.7C270.725 224.856 274.094 229.056 277.506 233.213C279.213 228.356 281.706 221.225 284.813 212.606C290.456 197.075 297.763 177.081 308.088 152.756C312.2 143.131 317.888 130.138 325.194 114.869C327.206 113.6 330.006 111.631 333.069 108.919C337.181 105.331 342.606 100.475 346.325 92.5563C347.506 90.1063 348.994 86.3438 349.781 81.4001C349.213 81.1376 348.381 80.8313 347.463 81.0063C345.888 81.3126 345.056 82.8438 344.4 83.8938C341.863 87.7876 338.144 90.3688 337.663 90.0626C337.4 89.8438 338.144 88.5751 340.156 84.4626C344.269 76.0188 342.563 78.2501 344.181 75.4063C345.1 73.7876 346.019 72.3876 345.713 70.5938C345.713 69.8063 345.231 68.4501 344.488 68.3188Z" fill="#3F3F3F"/>
<path opacity="0.13" d="M341.819 98.1562C339.631 99.5563 336.525 101.613 332.981 104.325C328.913 107.388 324.538 110.712 320.863 114.912C315.875 120.6 313.688 126.244 312.375 129.525C300.344 160.238 286.038 193.575 281.969 202.85C279.738 207.925 276.238 215.581 271.6 224.769C273.7 227.525 275.844 230.281 277.944 233.038C283.981 214.619 290.938 195.325 298.9 175.331C307.475 153.85 316.356 133.769 325.281 115.088C327.688 113.469 330.4 111.413 333.156 108.744C337.05 105.025 339.85 101.263 341.819 98.1562Z" fill="#3F3F3F"/>
<path d="M225.487 224.812C223.869 225.906 220.237 228.444 216.519 232.556C212.669 236.8 210.437 240.781 208.6 244.15C207.156 246.731 206.106 249.006 205.362 250.669C206.5 252.856 208.337 256.225 210.875 260.25C215.381 267.381 218.881 271.231 224.919 278.975C227.456 282.212 231.131 287.069 235.506 293.194C236.206 296.475 236.819 299.931 237.344 303.562C238.394 311 238.787 317.912 238.787 324.125C240.406 325.875 243.206 328.412 247.319 330.206C254.144 333.225 260.356 332.35 263.594 331.825C270.769 330.731 275.669 327.537 279.037 325.306C285.162 321.281 289.319 316.469 292.075 312.487C291.506 305.662 290.762 298.619 289.844 291.312C289.056 285.1 288.181 279.062 287.219 273.2C287.131 268.606 286.694 262.35 285.206 255.087C283.981 249.006 282.494 241.919 278.075 233.519C272.562 223.063 265.694 216.719 263.025 214.4C260.662 212.344 258.519 210.812 256.944 209.719C250.556 213.787 245.044 216.325 241.281 217.856C234.281 220.744 231 221.181 225.487 224.812Z" fill="white"/>
<path d="M206.062 250.844C207.419 245.681 211.181 240.869 214.419 236.669C217.831 232.294 221.681 228.313 226.275 225.119C226.975 224.638 226.319 223.5 225.619 223.981C220.894 227.263 216.912 231.331 213.412 235.838C210.044 240.169 206.237 245.069 204.837 250.45C204.619 251.325 205.887 251.631 206.062 250.844Z" fill="#161616"/>
<path d="M205.1 251.281C214.113 267.031 224.788 281.819 236.906 295.338C237.475 295.95 238.394 295.031 237.825 294.419C225.794 280.988 215.206 266.288 206.238 250.625C205.8 249.881 204.663 250.538 205.1 251.281Z" fill="#161616"/>
<path d="M242.112 218.469C247.012 215.013 252.394 212.431 258.125 210.769C258.956 210.55 258.606 209.281 257.775 209.5C251.912 211.206 246.444 213.831 241.456 217.331C240.756 217.813 241.412 218.95 242.112 218.469Z" fill="#161616"/>
<path d="M257.031 211.119C277.944 225.688 286.913 251.238 285.906 275.956C285.863 276.788 287.175 276.788 287.219 275.956C288.269 250.713 278.994 224.813 257.688 209.981C257.031 209.5 256.375 210.638 257.031 211.119Z" fill="#161616"/>
<path d="M234.062 292.756C236.337 297.438 236.6 303.256 237.081 308.331C237.606 313.494 237.781 318.7 237.781 323.906C237.781 324.738 239.094 324.738 239.094 323.906C239.137 318.131 238.875 312.356 238.219 306.625C237.694 301.769 237.344 296.519 235.2 292.056C234.806 291.313 233.712 291.969 234.062 292.756Z" fill="#161616"/>
<path d="M238.613 324.169C245.175 332.219 256.375 334.494 266.131 332C271.556 330.6 276.588 327.931 281.094 324.606C285.6 321.281 289.888 317.431 292.425 312.356C292.819 311.613 291.681 310.956 291.288 311.7C288.838 316.556 284.725 320.275 280.394 323.469C276.194 326.575 271.513 329.113 266.438 330.556C256.9 333.225 245.919 331.169 239.488 323.25C239.006 322.594 238.088 323.513 238.613 324.169Z" fill="#161616"/>
<path d="M286.387 273.988C288.531 286.806 290.631 299.625 291.375 312.575C291.419 313.406 292.731 313.406 292.687 312.575C291.9 299.494 289.8 286.544 287.656 273.638C287.525 272.806 286.256 273.156 286.387 273.988Z" fill="#161616"/>
<path opacity="0.13" d="M243.775 216.719C248.631 222.45 255.281 231.375 260.838 243.45C268.975 261.125 270.594 276.394 271.819 289.388C272.781 299.275 273.306 313.056 271.381 329.506C275.1 327.888 280.35 325.088 285.425 320.231C288.225 317.519 290.325 314.806 291.9 312.444C290.456 300.238 289.013 287.988 287.569 275.781C287.831 265.719 286.256 257.581 284.769 252.069C280.175 235.006 271.338 224.025 268.363 220.569C264.294 215.8 260.312 212.3 257.381 209.981C252.831 212.256 248.325 214.488 243.775 216.719Z" fill="#3F3F3F"/>
<path opacity="0.14" d="M276.369 232.031C275.581 232.25 277.419 239.381 279.169 249.925C279.169 249.925 281.837 265.938 282.406 281.425C282.8 291.663 282.275 306.625 277.681 325.219C279.781 324.169 282.362 322.638 285.031 320.494C288.269 317.869 290.587 315.113 292.162 312.925C291.594 295.294 290.106 286.15 288.706 280.988C288.444 279.981 287.744 277.619 287.175 274.294C286.125 268.081 286.65 265.413 286.081 260.25C285.644 256.138 284.812 253.425 283.281 248.394C280.962 240.825 277.244 231.769 276.369 232.031Z" fill="#3F3F3F"/>
<path d="M224.875 152.844C221.988 154.462 218.313 156.912 214.769 160.631C207.419 168.462 205.056 177.212 204.225 181.544C203.569 181.456 201.775 181.325 200.331 182.462C198.188 184.125 198.144 187.406 198.975 189.331C199.281 190.031 199.719 190.6 200.638 191.737C201.731 193.094 202.431 193.925 203.569 194.406C204.05 194.625 205.144 194.931 206.719 194.581C207.2 196.025 207.988 198.037 209.169 200.356C210.7 203.331 213.019 207.75 217.656 211.6C219.013 212.737 221.113 214.225 223.956 215.581C225.006 216.938 226.931 219.781 227.15 223.631C227.588 230.412 222.644 236.056 217.963 238.55C209.825 242.881 200.988 238.55 197.75 236.931C196 236.056 187.206 231.506 183.531 221.531C179.069 209.5 184.888 197.469 188.344 190.294C191.844 183.075 193.463 183.556 196.131 176.512C199.675 167.194 197.794 163.912 201.863 156.781C203.438 153.981 206.631 148.381 213.325 145.756C219.056 143.525 224.35 144.662 226.625 145.319C228.506 144.181 231.831 142.562 236.031 142.562C246.006 142.562 252.394 152.012 253.925 154.287C258.475 160.981 256.069 163.037 260.138 172.444C265.256 184.3 270.244 183.6 274.838 194.712C277.069 200.137 280.788 209.106 276.675 217.681C272.431 226.519 262.763 229.1 261.538 229.406C259.306 229.975 253.313 231.462 247.319 228.269C246.75 227.962 239.225 223.85 238.613 216.806C238.394 214.225 239.138 211.819 239.313 211.294C240.231 208.45 241.806 206.612 242.288 206C244.169 203.681 246.444 199.394 248.019 190.862C248.763 190.819 249.988 190.644 251.213 189.944C253.794 188.456 255.019 185.437 254.888 182.812C254.844 182.2 254.669 178.7 252.131 177.519C251.081 177.037 249.988 177.169 249.375 177.3C241.238 169.075 233.056 160.981 224.875 152.844Z" fill="#121354"/>
<path d="M224.875 152.8C220.019 155.644 216.65 158.794 214.506 161.113C207.375 168.856 205.1 176.95 204.619 178.831C204.313 180.013 204.094 180.975 204.006 181.675C203.525 181.5 202.431 181.194 201.338 181.675C199.675 182.419 199.325 184.431 199.15 185.438C198.713 187.756 199.588 189.594 199.938 190.294C200.419 191.3 201.206 192.919 203.088 193.75C204.619 194.45 206.063 194.188 206.675 194.056C207.288 195.631 208.163 197.819 209.519 200.313C211.575 204.25 213.5 207.881 217.219 211.119C218.663 212.388 221.025 214.138 224.438 215.494C225.138 216.588 226.1 218.294 226.625 220.525C227.063 222.275 227.15 223.763 227.106 224.9C228.244 225.469 230.388 226.344 233.056 226.3C238.175 226.213 241.544 223.019 242.331 222.231C241.5 219.737 240.756 216.675 240.45 213.131C240.319 211.512 240.275 209.981 240.275 208.581C241.631 207.138 243.294 205.081 244.65 202.325C247.056 197.556 247.45 193.138 247.494 190.556C248.106 190.644 249.331 190.775 250.644 190.25C252.481 189.506 253.313 187.888 253.794 186.969C253.925 186.75 255.763 182.988 254.1 179.269C253.706 178.438 253.05 176.906 251.738 176.775C250.775 176.688 249.988 177.431 249.681 177.738C247.888 175.594 244.519 171.613 239.794 166.144C235.725 161.375 233.144 158.4 228.813 155.338C227.238 154.2 225.838 153.369 224.875 152.8Z" fill="white"/>
<path d="M218.838 199.219C218.4 200.225 220.456 202.019 221.419 202.762C223.431 204.25 225.575 204.469 226.363 204.512C227.281 204.6 230.3 204.819 233.056 202.85C233.713 202.369 235.55 201.1 236.25 198.737C236.731 197.031 236.6 194.669 235.681 194.275C234.981 194.012 234.325 194.887 232.838 195.937C230.213 197.731 227.5 198.169 225.181 198.519C221.244 199.131 219.275 198.344 218.838 199.219Z" fill="black"/>
<path d="M204.969 189.113C206.544 195.675 209.081 202.106 213.281 207.444C217 212.213 222.513 216.806 228.944 216.194C234.894 215.625 239.75 210.988 242.9 206.263C246.619 200.75 248.413 194.144 248.238 187.494C248.194 186.663 246.881 186.663 246.925 187.494C247.1 193.575 245.525 199.525 242.331 204.688C239.313 209.544 234.325 214.663 228.244 214.925C221.813 215.188 216.519 209.938 213.106 205.038C209.694 200.138 207.594 194.494 206.194 188.719C206.019 187.931 204.75 188.281 204.969 189.113Z" fill="#161616"/>
<path d="M223.562 215.581C225.4 218.381 226.319 221.444 226.319 224.812C226.319 225.644 227.631 225.644 227.631 224.812C227.631 221.269 226.625 217.9 224.7 214.925C224.262 214.181 223.125 214.837 223.562 215.581Z" fill="#161616"/>
<path d="M226.931 225.337C232.269 228.4 239.181 226.912 242.813 222.012C243.338 221.356 242.2 220.7 241.675 221.356C238.438 225.687 232.225 226.912 227.587 224.2C226.844 223.806 226.187 224.944 226.931 225.337Z" fill="#161616"/>
<path d="M239.531 209.719C239.575 213.7 240.188 217.637 241.456 221.444C241.719 222.231 242.988 221.881 242.725 221.094C241.544 217.375 240.888 213.613 240.844 209.719C240.844 208.844 239.531 208.844 239.531 209.719Z" fill="#161616"/>
<path d="M206.281 193.269C205.713 193.881 204.313 193.662 203.656 193.312C203.131 193.05 202.65 192.656 202.256 192.262C201.381 191.431 200.681 190.425 200.244 189.331C199.369 187.275 198.975 181.369 202.869 182.419C203.7 182.637 204.05 181.369 203.219 181.15C198.406 179.881 197.663 186.269 198.888 189.462C199.85 192.044 204.269 197.381 207.244 194.187C207.769 193.575 206.85 192.656 206.281 193.269Z" fill="#161616"/>
<path d="M250.25 177.956C250.775 176.206 253.05 179.575 253.312 180.188C253.837 181.588 254.012 183.119 253.794 184.606C253.444 187.581 251.081 190.425 247.8 189.594C246.969 189.375 246.619 190.644 247.45 190.863C252.744 192.219 255.587 186.706 255.106 182.2C254.887 180.231 254.1 177.694 252.219 176.644C250.994 175.988 249.419 176.163 248.981 177.563C248.719 178.438 249.987 178.744 250.25 177.956Z" fill="#161616"/>
<path d="M210.963 168.681C212.406 165.925 214.944 164.131 218.006 163.694C218.838 163.563 218.488 162.294 217.656 162.425C214.288 162.906 211.4 165.006 209.825 168.025C209.431 168.769 210.569 169.425 210.963 168.681Z" fill="#161616"/>
<path d="M231.175 161.944C234.85 161.069 238.525 162.906 240.187 166.231C240.581 166.975 241.675 166.319 241.325 165.575C239.4 161.681 235.025 159.669 230.825 160.675C229.994 160.894 230.344 162.162 231.175 161.944Z" fill="#161616"/>
<path d="M221.637 167.325C222.469 171.962 222.687 176.731 222.206 181.456C222.031 182.9 221.331 184.956 221.987 186.4C222.687 187.975 224.569 189.331 225.75 190.556C226.319 191.169 227.281 190.25 226.669 189.638C225.881 188.806 225.094 188.019 224.306 187.188C223.081 185.919 222.95 185.525 223.212 183.687C223.431 182.025 223.65 180.319 223.737 178.612C223.912 174.719 223.606 170.825 222.906 167.019C222.775 166.144 221.506 166.494 221.637 167.325Z" fill="#161616"/>
<path d="M216.125 178.569C215.469 177.519 215.163 176.381 215.25 175.156C215.25 174.894 215.425 173.756 215.644 173.712C215.775 173.712 215.994 175.244 216.038 175.419C216.125 175.987 216.169 176.6 216.169 177.169C216.169 177.344 216.125 178.787 216.125 177.912C216.081 176.644 216.169 175.375 216.213 174.106C215.775 174.15 215.338 174.237 214.944 174.281C215.163 175.637 215.294 176.994 215.294 178.394C215.731 178.394 216.169 178.394 216.606 178.394C216.606 178.219 216.606 178.044 216.606 177.869C216.606 177.037 215.294 177.037 215.294 177.869C215.294 178.044 215.294 178.219 215.294 178.394C215.294 179.225 216.606 179.225 216.606 178.394C216.606 176.906 216.475 175.419 216.213 173.931C216.081 173.187 214.944 173.406 214.944 174.106C214.9 175.506 214.725 177.037 214.9 178.437C214.988 179.094 215.294 179.706 216.038 179.837C218.225 180.275 217.569 175.987 217.394 174.937C217.263 174.106 217.131 172.837 216.344 172.356C215.688 171.962 214.988 172.356 214.594 172.969C213.5 174.806 214.113 177.519 215.119 179.181C215.425 179.925 216.563 179.269 216.125 178.569Z" fill="#161616"/>
<path d="M236.337 176.25C235.681 175.2 235.375 174.063 235.462 172.838C235.462 172.575 235.637 171.438 235.856 171.394C235.987 171.394 236.206 172.925 236.25 173.1C236.337 173.669 236.381 174.281 236.381 174.85C236.381 175.025 236.337 176.469 236.337 175.594C236.294 174.325 236.381 173.056 236.425 171.788C235.987 171.831 235.55 171.919 235.156 171.963C235.375 173.319 235.506 174.675 235.506 176.075C235.944 176.075 236.381 176.075 236.819 176.075C236.819 175.9 236.819 175.725 236.819 175.55C236.819 174.719 235.506 174.719 235.506 175.55C235.506 175.725 235.506 175.9 235.506 176.075C235.506 176.906 236.819 176.906 236.819 176.075C236.819 174.588 236.687 173.1 236.425 171.613C236.294 170.869 235.156 171.088 235.156 171.788C235.112 173.188 234.937 174.719 235.112 176.119C235.2 176.775 235.506 177.388 236.25 177.519C238.437 177.956 237.781 173.669 237.606 172.619C237.475 171.788 237.344 170.519 236.556 170.038C235.9 169.644 235.2 170.038 234.806 170.65C233.712 172.488 234.325 175.2 235.331 176.863C235.637 177.65 236.775 176.994 236.337 176.25Z" fill="#161616"/>
<path d="M209.65 182.594C210.481 182.594 210.481 181.281 209.65 181.281C208.819 181.281 208.819 182.594 209.65 182.594Z" fill="#161616"/>
<path d="M214.813 183.556C214.856 183.556 214.9 183.556 214.988 183.556C215.338 183.556 215.644 183.25 215.644 182.9C215.644 182.55 215.338 182.244 214.988 182.244C214.944 182.244 214.9 182.244 214.813 182.244C214.463 182.244 214.156 182.55 214.156 182.9C214.156 183.25 214.419 183.556 214.813 183.556Z" fill="#161616"/>
<path d="M211.75 187.581C212.581 187.581 212.581 186.269 211.75 186.269C210.919 186.269 210.875 187.581 211.75 187.581Z" fill="#161616"/>
<path d="M236.6 181.937C236.644 181.937 236.688 181.937 236.775 181.937C237.125 181.937 237.431 181.631 237.431 181.281C237.431 180.931 237.125 180.625 236.775 180.625C236.731 180.625 236.688 180.625 236.6 180.625C236.25 180.625 235.944 180.931 235.944 181.281C235.944 181.631 236.206 181.937 236.6 181.937Z" fill="#161616"/>
<path d="M241.413 178.7C242.244 178.7 242.244 177.387 241.413 177.387C240.581 177.387 240.581 178.7 241.413 178.7Z" fill="#161616"/>
<path d="M240.756 182.244C240.8 182.244 240.844 182.244 240.931 182.244C241.281 182.244 241.588 181.938 241.588 181.588C241.588 181.238 241.281 180.931 240.931 180.931C240.888 180.931 240.844 180.931 240.756 180.931C240.406 180.931 240.1 181.238 240.1 181.588C240.144 181.938 240.406 182.244 240.756 182.244Z" fill="#161616"/>
<path d="M219.931 200.225C219.231 199.219 218.094 197.775 218.575 196.462C219.144 194.975 220.938 195.194 222.119 195.369C223.563 195.587 224.744 195.85 226.144 195.412C227.281 195.062 228.288 194.319 229.338 193.75C231.831 192.35 234.763 192.219 235.55 195.5C237.781 204.469 221.944 207.006 219.494 199.131C219.231 198.344 217.962 198.65 218.225 199.481C221.244 209.15 239.969 205.562 236.687 194.844C236.119 193.05 234.762 191.519 232.837 191.3C229.688 190.994 227.631 194.144 224.613 194.362C222.381 194.537 219.669 192.831 217.875 194.931C216.256 196.812 217.569 199.219 218.75 200.881C219.275 201.581 220.413 200.925 219.931 200.225Z" fill="#161616"/>
<path d="M217.394 197.731C218.356 200.4 223.169 199.569 225.269 199.263C229.294 198.65 232.969 196.9 236.075 194.319C236.731 193.794 235.812 192.831 235.156 193.4C232.881 195.325 230.256 196.725 227.369 197.513C226.1 197.863 219.406 199.35 218.706 197.425C218.356 196.594 217.087 196.944 217.394 197.731Z" fill="#161616"/>
<path d="M225.181 216.937C230.3 218.25 237.125 215.012 240.012 210.769C240.494 210.069 239.356 209.412 238.875 210.112C236.337 213.831 229.994 216.806 225.531 215.669C224.7 215.45 224.35 216.719 225.181 216.937Z" fill="#161616"/>
<path d="M225.663 217.331C230.213 220.175 237.694 216.15 239.881 211.819C240.275 211.075 239.138 210.419 238.744 211.162C236.906 214.837 230.213 218.644 226.319 216.237C225.575 215.756 224.919 216.894 225.663 217.331Z" fill="#161616"/>
<path opacity="0.2" d="M243.819 170.956C244.125 172.531 244.519 175.025 244.781 178.044C245.394 186.094 246.444 199.569 238.306 208.538C236.556 210.463 232.838 213.875 225.969 215.8C228.156 215.713 230.825 215.45 233.713 214.706C235.156 214.356 236.469 213.919 237.65 213.438C237.825 217.331 237.956 221.225 238.131 225.119C239.619 224.156 241.063 223.238 242.55 222.275C240.538 217.813 240.538 214.356 240.8 212.169C241.194 209.106 242.331 206.613 243.469 204.119C244.475 201.931 245.525 200.181 246.356 198.956C246.444 199.875 246.663 200.838 247.275 201.756C249.944 205.738 258.3 206.131 263.55 202.719C268.406 199.569 270.769 193.181 269.544 186.619C270.375 187.319 271.25 188.15 272.081 189.156C272.738 189.944 274.444 192.219 276.806 200.225C277.55 202.719 277.9 203.988 278.119 205.256C278.381 207.006 278.863 210.331 277.944 214.094C276.369 220.569 271.688 224.288 270.288 225.338C269.281 226.081 266.219 228.313 261.625 229.363C259.438 229.844 252.875 231.419 246.706 227.831C244.388 226.475 243.119 225.469 242.419 224.244C241.675 222.888 241.588 221.619 241.5 220.656C241.106 214.663 240.931 211.644 241.325 209.588C242.506 203.638 245.175 203.025 246.663 196.244C247.188 193.794 247.319 191.738 247.363 190.425C247.931 190.513 248.806 190.6 249.856 190.338C252.044 189.769 253.138 187.975 253.531 187.319C255.106 184.825 255.806 180.363 253.356 178.306C253.006 178 251.781 177.081 249.419 177.256C247.625 175.156 245.744 173.056 243.819 170.956Z" fill="#3F3F3F"/>
<path opacity="0.13" d="M223.081 185.131C225.313 185.787 227.588 186.487 229.819 187.144C229.25 187.669 228.681 188.15 228.069 188.675C227.5 189.156 226.975 189.55 226.406 189.987C225.706 189.462 224.7 188.544 223.913 187.144C223.475 186.4 223.213 185.7 223.081 185.131Z" fill="#3F3F3F"/>
<path opacity="0.16" d="M187.994 190.6C183.225 207.444 186.769 221.05 193.9 224.025C199.5 226.344 209.606 223.063 211.488 217.331C211.75 216.588 212.012 215.275 211.006 211.25C210.131 207.706 208.338 202.369 204.313 196.288C203.613 195.85 202.694 195.15 201.819 194.1C200.288 192.219 199.85 190.206 199.719 189.244C200.988 190.556 202.825 192.219 204.006 191.694C205.144 191.169 205.844 189.594 205.45 188.019C205.844 190.031 206.456 192.788 207.594 195.981C209.081 200.225 210.569 204.338 214.025 208.231C215.6 210.025 218.706 212.956 223.956 215.056C224.831 216.15 226.45 218.513 226.975 221.969C227.062 222.494 227.369 224.9 226.581 227.919C226.406 228.619 225.356 232.425 221.9 235.706C217.875 239.556 213.063 240.256 211.488 240.475C199.631 242.05 190.444 231.681 188.825 229.888C187.206 228.05 184.538 224.988 183.006 220.263C180.556 212.738 182.438 205.956 183.794 201.013C185.063 196.375 186.769 192.875 187.994 190.6Z" fill="#3F3F3F"/>
</svg>
